<svg xmlns="http://www.w3.org/2000/svg" viewBox="0 0 211.72 203.28"><defs><style>.cls-1{fill:#9a74a2;}.cls-2{fill:#1d1d1b;}</style></defs><g id="Capa_2" data-name="Capa 2"><g id="Capa_1-2" data-name="Capa 1"><path class="cls-1" d="M208.41,85.69a77,77,0,0,1,3.13,27.38c-1.25,17.7-6.47,34.3-14.18,50.25-9.72,20.11-26.11,31.34-47.16,36.78A100,100,0,0,1,124,203.27a137.11,137.11,0,0,1-56.6-13.05A132.5,132.5,0,0,1,26,161c-12.22-13-21-27.81-24.47-45.48A76.81,76.81,0,0,1,9.91,62.38C18.63,46.53,30.26,33.3,45.67,23.6a18.56,18.56,0,0,1,4.83-2.53c-1.23,3.2-4.14,4.91-6.44,7.14-1.49,1.44-3.47,2.26-5,3.69-6,5.67-11,12.19-15.84,18.78a109.87,109.87,0,0,0-8.68,14c-2,3.69-2.61,7.6-3.36,11.61-1.08,5.79-.33,11.57-.44,17.36,0,1.31.63,2.46.71,3.74.11,6.82.22,13.5,3.47,19.94,2.54,5,3.59,10.72,4.55,16.31A15.28,15.28,0,0,0,23,141.34c3.44,4,6.71,8.3,11.84,10.43,1.19.84,1.85,2.18,3,3.1,6.16,5.1,11.74,10.9,18.56,15.2a4.71,4.71,0,0,1,1.52,1.14c2,2.93,5.54,3.92,7.95,6.33,1,1,2.55.82,3.78,1.36,6.07,4.34,13.14,5.61,20.3,6.64,9.34,1.35,18.73,1,28.11.94,4.91,0,9.37-2,13.88-3.62a58.71,58.71,0,0,1,7.78-2.28A83.35,83.35,0,0,0,164.84,169c6.29-4.17,11.45-9.55,16.7-14.87,4.86-4.91,8.42-10.79,12.63-16.17a81.72,81.72,0,0,0,8.89-14.32A50.89,50.89,0,0,0,208.4,94.1c-.29-2.3-.05-4.62-.52-6.91A1.45,1.45,0,0,1,208.41,85.69Z"/><path class="cls-2" d="M11.12,97.19a7,7,0,0,1-1-2.89c-.36-8.19-.33-16.37,1.57-24.37.86-3.64,2.95-6.86,4.82-10.1,5.54-9.57,12.59-18,19.91-26.22a21.36,21.36,0,0,1,4.77-4.1,35.56,35.56,0,0,0,9.34-8.43c2-1.61,4.4-2.49,6.52-3.86,8-4.09,16.55-6.38,25.33-7.91a1.76,1.76,0,0,1,1.58.27c-.12,2.05,1.84.5,2.4,1.39-.44,2-2,3.12-3.63,4.14-6.27,4-13,7.11-19.39,10.86-7.92,4.65-14.52,10.79-20.63,17.58A119.36,119.36,0,0,0,29.15,60.83a86.1,86.1,0,0,0-7.42,15.49C21.11,78,21,80.12,18.93,81c-.37-.15-.48-.6-.92-.81-2.06,5.43-.53,10.9-.42,16a.93.93,0,0,1,0-.4c.19-1-.33-2.73,1-2.74,1,0,.68,1.69.8,2.67a9.11,9.11,0,0,1-.18,1.81c-.67,1.4.4,3.59-1.95,4.28-.27.08-.22.88-.25,1.35a15.15,15.15,0,0,0,3.18,10.92,9.39,9.39,0,0,1,1.66,4.08c.73,3.18,2.19,6.17,2.19,9.54,0,.81,1,1.39,1.29,2.24a1.86,1.86,0,0,1,.1.93c-1,3.7.46,6.43,3.42,8.55a10.79,10.79,0,0,0,2.1,2.22c1.81,1.76,3.58,3.56,5.47,5.22,1,.87,2.5,1.67,1.84,3.2s-2.15,2-3.8,1.74a4.76,4.76,0,0,1-1.58-2.05,5.72,5.72,0,0,0-3.82-3,6.4,6.4,0,0,1-4.9-5c-2.65-4.53-3.85-9.56-5-14.6-.87-3.78-1.42-7.64-4.54-10.5-1.43-1.32-.77-3.33-.94-5A67.27,67.27,0,0,0,11.12,97.19Z"/><path class="cls-2" d="M208.41,85.69c.39,5.8,1.2,11.57.78,17.4-.37,5.21-.62,10.35-3.33,15.19-1.56,2.79-2.2,6.25-3.86,9s-2.5,6.09-5.16,8.3a14.4,14.4,0,0,0-3,3.72c-6.74,11.24-16,20.25-26,28.48-2.5,2.07-5.6,3.65-8.45,5.4-3.21,2-6.69,3.32-10,4.93-2.26,1.09-4.76,2.35-7.5,2.57-3.26.26-6.17,2.15-9.48,2.29-3.56,1.26-6.77-.68-6.57-4,1.05-2.66,3.34-3.73,5.85-4.46a110.49,110.49,0,0,0,12.86-4.47,88.92,88.92,0,0,0,24-15.47A120.12,120.12,0,0,0,195,120c5-9.48,5.81-19.75,4.78-30.26a110.82,110.82,0,0,0-3.2-16.64,19.27,19.27,0,0,1-.5-9.21c1.16-.5,2.11-1.42,3.37-1.76,1,.65,1.3,1.76,1.82,2.72a68,68,0,0,1,6.24,16Z"/><path class="cls-2" d="M142.35,7.14c4.2,1.66,8.51,2.92,12.47,5.26,3.59,2.12,6.68,5.09,10.41,6.72,3.43,1.5,5.87,4.45,9.5,5.56,1.49.46,2,2.34,3.09,3.51-.63,1.5-1.92,2.44-3,3.54-3.13-1.23-5.65-3.45-8.43-5.24-5.33-3.44-10.66-6.87-16.23-9.91-3.7-2.46-7.85-4.07-11.76-6.16-.87-.53-2.54-.4-2.23-1.95s1.62-1.83,3-1.92A5.39,5.39,0,0,1,142.35,7.14Z"/><path class="cls-2" d="M174.83,31.63c.39-1.68,1.76-2.5,3-3.44,4.58,1.94,8,5.41,11.1,9.07,5.65,6.68,9.37,14.54,12.67,22.59-.81.66-1.56,1.4-2.4,2-1.2-.25-1.47-1.39-2-2.23a110.79,110.79,0,0,0-20.12-25.24c-.63-.59-1.12-1.38-2.14-1.31A.93.93,0,0,1,174.83,31.63Z"/><path class="cls-2" d="M83.88,10.05c-2.85-.4-5.49.69-8.18,1.26a105.9,105.9,0,0,0-16.63,5.42,4.19,4.19,0,0,1-2,.49,5.33,5.33,0,0,1,3.49-2.58,6.61,6.61,0,0,0,2.35-1c4-2.82,8.9-3.43,13-5.93a6.85,6.85,0,0,1,1.79-.5c2-.56,4-.65,5.76-1.92.31-.63.91-.41,1.42-.48a7.72,7.72,0,0,0,4.34-1.34l3.31-.58a7.83,7.83,0,0,1,5.72.64c.57.28,1.14.79,1,1.5s-1,.7-1.58.6c-1.58-.28-2.76.49-3.93,1.34-2.07.51-4.34.52-5.9,2.33A9.72,9.72,0,0,1,83.88,10.05Z"/><path class="cls-2" d="M93.45,6.69c1.31-2.14,3.25-2.22,5.8-1.21-1.9-3-4.76-1.6-6.78-2.63.08-1.8,1.72-1.41,2.68-1.72a21.23,21.23,0,0,1,14.47.28c1.09.42,1.47,2.05,3,1.54.59.48,1.85-.36,2,.77.08.95-.89,1.41-1.7,1.78s-1.71.35-2.52.72c-1.72.72-3.41,1.6-5.35,1.58h-2.17c-2.19.13-4.41-1.27-6.56.18A2.34,2.34,0,0,1,95,8.29a8.52,8.52,0,0,1-1.61-1A.46.46,0,0,1,93.45,6.69Z"/><path class="cls-2" d="M142.35,7.14c-1.17,0-2.34.05-3.52,0s-2.21.55-2.31,1.55c-.09.85,1.16.71,1.87.91.2,0,.37.26.56.39-1.34,1.13-3.07,1.07-4.62,1.53a4.82,4.82,0,0,1-1.47-.11c-1.21-.33-2.42-.67-3.66-.88-.71-.26-1.54-.19-2.14-.76a4.06,4.06,0,0,1-1.36-2.27,3.2,3.2,0,0,1,.81-2.21c4.82-1.88,9.63-.49,14.44.08C142,5.52,141.77,6.65,142.35,7.14Z"/><path class="cls-2" d="M126.51,5.32A3.91,3.91,0,0,1,126,7.64a4.7,4.7,0,0,1-3,1.82,3.63,3.63,0,0,1-1.14,0,65,65,0,0,0-8.92-.68,4.08,4.08,0,0,1-1.14-.25,2.74,2.74,0,0,1-1.59-2.81c1.29-.8,3.16-.33,4.11-1.95C114,3,113,3.6,112.58,3,117.44,2.49,122,3.69,126.51,5.32Z"/><path class="cls-2" d="M199.27,61.75a2,2,0,0,1,2.32-1.9,4.85,4.85,0,0,1,.92,1.37c1.58,6.58,4.93,12.7,5,19.66-1.57-2.16-1.9-4.82-2.86-7.22-1.59-3.92-3.55-7.63-5.38-11.42q-.21-.16-.15-.33C199.17,61.81,199.22,61.75,199.27,61.75Z"/><path class="cls-2" d="M83.4,5.25c-1.26,2.64-3.66,1.81-5.76,1.92C79.34,5.86,81.08,4.69,83.4,5.25Z"/><path class="cls-2" d="M89.16,3.43c-1,1.86-2.46,2.28-4.34,1.34A3.8,3.8,0,0,1,89.16,3.43Z"/><path class="cls-2" d="M126.48,179c-.88,2.05.9,2.58,2,3.31s2.58.54,3.92.62c-.23.5-.3,1.24-.94,1.27-4.45.22-8.27,2.86-12.83,3-12.51.28-25,.42-37.24-2.53-4.36-1-9.16-1.88-12.5-5.56.32-.51.89-.58,1.39-.76,1.43-.5,2.83-1,2.5-3-.06-.33.37-.44.63-.6,3.38-1.28,6.65-.36,9.84.64a66.44,66.44,0,0,0,14.93,3.17,143.37,143.37,0,0,0,19.11,0C120.4,178.42,123.49,177.71,126.48,179Z"/><path class="cls-2" d="M72.86,175.35c1.25.76,1.17,1.61.06,2.39a6.11,6.11,0,0,1-4,1.37c-1.65,0-2.84-.85-4.24-1.67-4.05-2.35-6.9-6.26-11.17-8.25a10.51,10.51,0,0,1-3.24-2.57c-4.74-5.39-11.53-8.53-15.72-14.47-.14-.1-.18-.19-.13-.27s.1-.13.14-.13c4.34-1.66,4.16-1.49,1-4.73-1.66-1.69-3.91-2.92-4.82-5.3l.27-.21a3.21,3.21,0,0,1,2,.35,4.64,4.64,0,0,1,1.68,1.32c4.59,5.5,10.88,9,16.05,13.85a213.66,213.66,0,0,0,20.9,16.68C72.17,174.13,72.82,174.51,72.86,175.35Z"/><path class="cls-2" d="M11.12,97.19c2.33,2.9,2.2,6.52,2.79,9.89a65.08,65.08,0,0,1,.54,7.8c0,.65,0,1.38.58,1.73,3.76,2.3,3.74,6.38,4.67,10C21,131.79,22,137.11,25,141.72a1.63,1.63,0,0,1-2.06.06c-.6-.15-1.49-.05-1.62-.78-.43-2.39-2.24-4.18-2.47-6.76-.5-5.55-2.64-10.75-4-16.13-.22-.9-1-1.43-1.35-2.21C10.9,109.91,10.47,103.61,11.12,97.19Z"/><path class="cls-2" d="M22.93,141.78l2.06-.06a3.64,3.64,0,0,0,2.89,4.09c3.76.54,5.38,2.95,6.7,5.94,0,.13,0,.27,0,.4-4.26-1.14-6.78-4.55-9.59-7.51C24.22,143.83,22.3,143.64,22.93,141.78Z"/><path class="cls-1" d="M72.86,175.35a447.17,447.17,0,0,1-40.14-33.17c-2.3-1.3-3.66-3.43-5-5.6a33.85,33.85,0,0,1-1.43-3.71c-1.58-4.18-2-8.64-3.32-12.9-1.11-3.57-2.73-6.93-3.73-10.54a29.29,29.29,0,0,1-.6-11.74l.13-1.84c.72-2.18-.36-4.22-.54-6.33-.27-3-.44-5.86.93-8.62,3.69-9.59,7.7-19,14.07-27.2C44,39.9,56.13,27.88,72.2,20.28c5.1-2.41,10.32-4.87,14.23-9.22a2.49,2.49,0,0,1,.74-1,3.78,3.78,0,0,1,1.31-.93c1.3-.41,2.65-.63,3.92-1.17a2.64,2.64,0,0,1,2.46,0c.45.21.54-.32.85-.4,2.28,0,4.55-.17,6.83-.18H105c2.2.08,4.5-1,6.56.58l1,.13a21.45,21.45,0,0,0,9.7,1L123.35,9a4.38,4.38,0,0,1,4.08.61l1.39.44a25.82,25.82,0,0,0,3.87.89l1.52.08c5.81.48,11,2.79,16.22,5.19,8.59,4.41,16.52,9.86,24.4,15.4,0,.5,0,1,.5,1.35,3.43,5.57,7.81,10.42,11.8,15.56a28.39,28.39,0,0,1,4.1,7.24,15.27,15.27,0,0,0,4.15,6.33,2.5,2.5,0,0,1,1,1.56c-.73,5.88,1.5,11.3,2.63,16.89,2.66,13.22,3,26.28-3,38.79a117.12,117.12,0,0,1-16.81,25.17c-12.5,14.79-27.77,25.4-46.7,30.35-2.49.65-4.89,1.55-6.07,4.17-7.65-.11-15.27.81-22.93.57a62,62,0,0,1-17.85-2.79C81.51,175.43,77.32,174.3,72.86,175.35Z"/><path class="cls-2" d="M18.67,97.69a41,41,0,0,0,3.51,18c2.37,5.5,3.12,11.5,4.78,17.22.18.38.27.84-.11,1s-.69-.16-1-.46c-.89-1-.37-2.28-.9-3.32a6.1,6.1,0,0,1-1.92-5.77,3.4,3.4,0,0,0-1.23-3.39,1.53,1.53,0,0,1-.66-1.46c.49-2.52-.87-4.28-2.21-6.19-2.9-4.14-3.24-8.74-2-13.51,1-.16.53.88,1.09,1.09C18.63,100,17.82,98.66,18.67,97.69Z"/><path class="cls-2" d="M19.19,80.9c-.54,4.13-.16,8.26,0,12.39a3.93,3.93,0,0,1-.35,2.56c-.18-.81.2-1.69-.45-2.78a11.19,11.19,0,0,1-1,5.08c-.68-6.92-2.4-13.42.89-20C19.16,79.08,18.34,80.27,19.19,80.9Z"/><path class="cls-2" d="M25,130.23c.81.84.71,2.07,1.29,3s.54.07.67-.27c.43,1.18.85,2.35,1.27,3.53,0,1.1,1.09,1.89.8,3.06l-.2.25C25,137.73,24.13,135.63,25,130.23Z"/><path class="cls-2" d="M87.25,10.54a.89.89,0,0,1-.82.52,8.44,8.44,0,0,0-1.61.22c-1.64.56-.92-.6-.94-1.23C85,9,86.34,9,87.71,9.09l.16.24C87.79,9.8,87.31,10.06,87.25,10.54Z"/><path class="cls-2" d="M30.73,141.72a2,2,0,0,1-1.91-1.92h0c1.62-.34,2.18.38,1.91,1.92Z"/><path class="cls-2" d="M196.4,63.67a10.32,10.32,0,0,1-4.49-5.1c-2.52-6.66-6.92-12-11.47-17.36A24.14,24.14,0,0,1,175.33,33c.26-1.28.76-.35,1-.07a124.66,124.66,0,0,1,15.09,16.88c2.77,3.88,5.08,8.05,7.8,12v.49C198.41,62.91,198.26,65,196.4,63.67Z"/><path class="cls-2" d="M92.51,8.51a9.4,9.4,0,0,1-4.28,1.11c-.31,0-.37-.33-.52-.53h0c1.11-2.73,3.53-2.33,5.74-2.4,0,.16,0,.31,0,.46C93.37,7.76,92.79,8,92.51,8.51Z"/><path class="cls-2" d="M92.51,8.51a1.45,1.45,0,0,1,.95-1.36c.61,0,1.34-.1,1.4.85Z"/><path class="cls-2" d="M102.59,7.67l-.06-.43,2.45,0c0,.13,0,.26,0,.39Z"/><path class="cls-2" d="M132.69,11a5.19,5.19,0,0,1-3.86-.9A7.53,7.53,0,0,1,132.69,11Z"/><path class="cls-2" d="M122.28,9.13c-3.43,1.58-6.62.87-9.7-1A29.67,29.67,0,0,1,122.28,9.13Z"/><path class="cls-2" d="M30.73,141.72a2,2,0,0,0-1.91-1.92c0-1.14-1.16-2.07-.6-3.31l4.5,5.69Z"/><path class="cls-2" d="M155.22,48.34c-.53,0-1.08.07-1.44-.46-.95-.55-2-.89-3-1.38-7.42-3.52-15.75-3.89-23.36-6.77a64.61,64.61,0,0,1-8.12-3.37c-.47-1.7.84-2,1.94-2.31a14.56,14.56,0,0,1,6.13-.06c1,.18,2,.17,3,.4,5.29.32,10.21,2,15,4.08a42.77,42.77,0,0,1,10.23,5.65C158.06,46.11,158,46.76,155.22,48.34Z"/><path class="cls-2" d="M145.6,79.54c-8.74-3.12-15.37-8.58-19.15-17.21-.07-.15-.14-.29-.19-.43-.45-1.33-.67-2.74.45-3.77,1.28-1.16,2.29.26,3.41.64.72.41,1.52.66,2.26,1,2.46,1.62,4.08,4.16,6.47,5.85,1.72,1.51,3.93,2.44,5.25,4.43a14.63,14.63,0,0,1,.29,3.3c.15,1.53.67,2.78,2.3,3.25.89.43,2,.15,2.81.84C149.11,79.88,147.25,79.5,145.6,79.54Z"/><path class="cls-2" d="M130.24,59.38c-3.67-1.37-3.67-1.37-3.79,2.95-1.89-1.59-2.17-3.82-2.18-6s1.23-3.19,3.39-2.72a54.73,54.73,0,0,1,11.54,3.58c4.16,2,7.37,4.87,8.86,9.38.42,1.86-.76,2.44-2.22,2.81a2.44,2.44,0,0,1-1.32-.53,9.25,9.25,0,0,1-1.7-1.94c-1.7-2.53-2-2.57-4.36-.79l-6.27-5.78C132.32,58.31,131.26,58.88,130.24,59.38Z"/><path class="cls-2" d="M99.18,40.12C94.85,43,92.54,47.23,90.85,52c-4.11-3.14-4.66-6.45-1.73-10.33,3.84-5.07,8.35-8.85,15.35-7.57,2.6,1.56,3.3,3,2.34,4.85-.38.75-.78,1.6-1.91,1.33-1-1-2.1-1.79-3.65-1.39A7.32,7.32,0,0,0,99.18,40.12Z"/><path class="cls-2" d="M157.58,109.15c-1.85,1.48-3.46,3.25-5.64,4.33-3.89,1.93-7.71.9-10.93-3-2.14-2.62-2.13-7.48.06-10.24a4.12,4.12,0,0,1,3-1.66c2.7-.31,3.08-.07,3.68,2.31-.43.91-1.38,1.25-2.08,1.87a2.91,2.91,0,0,0-1.15,3.15,3,3,0,0,0,2.65,2.08,7.88,7.88,0,0,0,5-.87A7.5,7.5,0,0,1,155.1,106C156.87,105.79,157.88,107.12,157.58,109.15Z"/><path class="cls-2" d="M121.61,81.47c-5.51-3.59-8.82-8.88-11.27-14.79a64.56,64.56,0,0,1-3.46-11.15c.59-1.09,1-2.33,2.3-2.85A86.47,86.47,0,0,0,121,76.63c.55.77,1.13,1.53,1.69,2.29C123.22,80.15,123.41,81.24,121.61,81.47Z"/><path class="cls-2" d="M157.58,109.15c-.33-2.52-1.41-3.22-3.6-2.26-1.65.73-3.13,1.84-5.06,1.89-2.2,0-4.36-.3-5.1-2.56s.76-3.73,2.65-4.77l1-.56c1-1.15,2.22-1.06,3.46-.83,2.85.53,5.68,1.13,8.5,1.83C159.6,104.51,160,107.18,157.58,109.15Z"/><path class="cls-2" d="M114,28.19a4.42,4.42,0,0,1,2.91-3.79A22.18,22.18,0,0,0,120.27,23a15.28,15.28,0,0,1,9.1-.39,52.39,52.39,0,0,0,7.32,1.77l1.28.16a1.7,1.7,0,0,1,0,2.34h0a33.15,33.15,0,0,1-6.83.32c-4.21-.34-8.41-.34-12.34,1.58h0a13.69,13.69,0,0,0-2.26,2.43c-.49.67-1,1.57-2.09.93v0A6.31,6.31,0,0,1,114,28.19Z"/><path class="cls-2" d="M105.49,83.26c3.82,2.2,7.87,4,11.51,6.51a12.93,12.93,0,0,1,3.3,3c.67.73,1.77,1.31,1.09,2.58-.45.83-1.09,1.39-2.13.91-4.05-3-8.92-4.61-12.7-8a15.61,15.61,0,0,1-3.6-4.41C103.49,82.27,104.53,82.94,105.49,83.26Z"/><path class="cls-2" d="M109.18,52.68c-.59,1.1-1.06,2.28-2.3,2.85-1.74-3.15-1.6-6.66-1.87-10.09-.14-1.72-.08-3.46-.11-5.19,2.54-2.13,2.5-2.76-.43-6.18a2.6,2.6,0,0,1,2.66,1.55c2.73,4.44,3,9.26,2.42,14.24C109.44,50.8,109.3,51.74,109.18,52.68Z"/><path class="cls-2" d="M156.19,36.36c-4.29-2.49-8.95-4.41-12.49-8.06a1.58,1.58,0,0,1,.44-1.4,41.38,41.38,0,0,1,20.74,14.29c-2.91.66-4.1,0-7.77-4.3C157.09,36.21,156.87,35.9,156.19,36.36Z"/><path class="cls-2" d="M172,68.94c7.76,1.32,7.45-5.27,9.48-10.21,1,4,2,7.48-.58,10.68-1.83,2.29-6.78,3.39-9.82,2.38C170.93,70.7,170.7,69.57,172,68.94Z"/><path class="cls-2" d="M159.47,101.89c-1.42.87-2.73-.06-4.07-.26-2.62-.39-5.15-1.69-7.89-.74-.43-1.8-1.73-2.33-3.4-2.32,4.09-2.9,8.21-1.88,12.33-.08A5.84,5.84,0,0,1,159.47,101.89Z"/><path class="cls-2" d="M114.5,32.09c1.31,0,1.58-1.2,2.12-2s1.09-1.54,2.23-1.37c-.18,2.67.54,3.71,3.15,3.82a30.26,30.26,0,0,1,8.43,1.84c-2.51,0-5,0-7.53.12-1.41.07-3.1-.13-3.58,1.85C116.9,35.85,115.11,34.64,114.5,32.09Z"/><path class="cls-2" d="M167.1,59.44,161,52.17a7.17,7.17,0,0,1,2.36-2.82,14.67,14.67,0,0,1,5.77,7.6C169.76,58.84,168.86,59.49,167.1,59.44Z"/><path class="cls-2" d="M167.1,59.44c1.06-.52,2.21-1,2-2.49a8.93,8.93,0,0,1,2.43,5.7c.54,2.07-.22,4.23.43,6.29h0c-.72.81-.12,2.06-.92,2.85-2.32-1.8-2.2-4.47-2.35-7A10.32,10.32,0,0,0,167.1,59.44Z"/><path class="cls-2" d="M124.11,94.77c4.77.09,5.32-.26,6.13-3.8,1.6-.64,1.95,0,1.56,1.48a20,20,0,0,1-.33,2.8c-.74,2.75-2.28,3.79-5.08,3.29-1.61-.28-3.17-.86-4.75-1.3A14.43,14.43,0,0,1,124.11,94.77Z"/><path class="cls-2" d="M163.35,49.35c-.22,1.41-1.36,2.06-2.36,2.82-2.14-.94-4.27-1.91-5.77-3.83,1.52-1.26,2-2.63.47-4.22C158.3,45.78,161.59,46.44,163.35,49.35Z"/><path class="cls-2" d="M145.63,69a2.93,2.93,0,0,0,2.43-2.44c2.82,3.14,1.76,7,1.88,10.58.13.45-.05.58-.47.46-1-.13-2,.31-2.92-.43.81-1,.44-2.06,0-3.13C145.92,72.39,145.15,70.79,145.63,69Z"/><path class="cls-2" d="M118.84,28.74c3.5-3,7.74-2.65,11.82-2.29,2.45.21,4.9.24,7.35.39a40.57,40.57,0,0,1-11.87,1.31A29.81,29.81,0,0,0,118.84,28.74Z"/><path class="cls-2" d="M131.8,92.45c0-1.09-.44-1.62-1.56-1.48-2.51-1.07-2.87-3.78-4.3-5.68.68-.87,1.62-.63,2.51-.58C132.13,87.42,132.85,89.1,131.8,92.45Z"/><path class="cls-2" d="M128.45,84.71c-.68.87-1.68.37-2.51.58-1.94-.71-3-2.36-4.33-3.82,1.19-.5,1-1.58,1.1-2.55A15.27,15.27,0,0,1,128.45,84.71Z"/><path class="cls-2" d="M149.47,77.56l.47-.46c1.36.73,3.76.9,2.89,3.18s-3,1-4.51.6a15.24,15.24,0,0,1-2.72-1.34C146.8,78.7,148.66,79.16,149.47,77.56Z"/><path class="cls-2" d="M105.49,83.26c-.85.18-1.85-.31-2.53.58-1.72-1.44-3.46-2.86-3.79-5.3-.15-1.87.81-1.48,1.86-.91Z"/><path class="cls-2" d="M144.14,26.9c0,.53.07,1.05-.44,1.4L138,26.84c0-.78,0-1.56,0-2.34C140.43,24.26,142.37,25.35,144.14,26.9Z"/><path class="cls-2" d="M87.27,67.43C86,67,85.62,65.8,85.15,64.73s.36-1.62,1-2.1c.94-.68,1.55.11,1.83.79.48,1.16,1.55,2.27.71,3.7A4.06,4.06,0,0,0,87.27,67.43Z"/><path class="cls-2" d="M124.11,94.77a3,3,0,0,1-2.47,2.47,3.23,3.23,0,0,1-2.38-1c2.44-.54,2.1-1.9,1-3.49Z"/><path class="cls-2" d="M101,77.63c-.79,0-1.7-.34-1.86.91a7.4,7.4,0,0,0-1.61-1.94,1.48,1.48,0,0,1-.33-2.43c.86-.8,1.62.06,2.22.6A6.6,6.6,0,0,1,101,77.63Z"/><path class="cls-2" d="M136.69,24.34c-2.67.33-5.21.18-7.32-1.77A10.19,10.19,0,0,1,136.69,24.34Z"/><path class="cls-2" d="M114,28.19c.79,1.23.48,2.59.5,3.92C113,31,112.52,29.7,114,28.19Z"/><path class="cls-2" d="M172,68.94c-1-2-.28-4.19-.44-6.29C172.43,64.7,171.69,66.86,172,68.94Z"/><path class="cls-2" d="M120.27,23c-.77,1.31-2,1.52-3.37,1.44C117.93,23.72,118.79,22.62,120.27,23Z"/><path class="cls-2" d="M150.8,46.5a2.87,2.87,0,0,1,3,1.38A3,3,0,0,1,150.8,46.5Z"/><path class="cls-2" d="M156.19,36.36c.08-.63.27-1.46,1-1.13s.5,1.12-.08,1.66Z"/><path class="cls-2" d="M99.18,40.12c.19-1.24,1-1.44,2.07-1.26A2,2,0,0,1,99.18,40.12Z"/><path class="cls-2" d="M87.27,67.43c.26-.46.52-1,1.1-1,.09,0,.23.46.36.7C88.51,68.52,87.83,67.72,87.27,67.43Z"/><path class="cls-2" d="M87.71,9.09l.52.53a1.09,1.09,0,0,1-1,.92C86.65,9.81,87.72,9.63,87.71,9.09Z"/><path class="cls-2" d="M145.63,69c.72,2.22,1.39,4.45,2.17,6.64.47,1.32-.29,1.47-1.25,1.53-2.21-.11-2.54-1.78-2.75-3.44-.15-1.24-.11-2.5-.15-3.75-.33-1-.06-1.55,1.06-1.54Z"/><path class="cls-2" d="M144.71,68.4a1.87,1.87,0,0,0-1.06,1.54l-5.19-3.87a2,2,0,0,1,2-1.91c1.21-.11,1.83.61,2.38,1.55S144.08,67.5,144.71,68.4Z"/><path class="cls-2" d="M130.24,59.38c.5-1,1.07-2,2.34-1.17s-.06,1.41-.39,2.08C131.6,59.86,130.7,60.08,130.24,59.38Z"/></g></g></svg>