<svg xmlns="http://www.w3.org/2000/svg" viewBox="0 0 217.35 205.3"><defs><style>.cls-1{fill:#1d1d1b;}.cls-2{fill:#f9f2a2;}.cls-3{fill:#f9f1a2;}.cls-4{fill:#f9f2a1;}</style></defs><g id="Capa_2" data-name="Capa 2"><g id="Capa_1-2" data-name="Capa 1"><path class="cls-1" d="M27.82,32.68a2.24,2.24,0,0,1-1-1.87c-1.07-3.46.23-6.36,2.31-8.95.8-1,1.37-1.86,1.06-3.17a4.54,4.54,0,0,1,.35-2.56c.14-.37.46-.77.39-1.1-1-4.51,3.3-6.15,5-9.19a2.37,2.37,0,0,1,2-1.18c3,.06,4.86-2.07,7-3.56A7.84,7.84,0,0,1,54.14,2c.72,1.24.13,1.89-1,2.32-.46.08-1.05-.14-1.39.14-2.58,2.08-5.4,3.82-8.12,5.7-.87.61-.29,1.42.24,2.05a20.25,20.25,0,0,0,3.36,3c.87.66,1.89,1.22,2.13,2.45a6,6,0,0,1-1.46,4.84,34.21,34.21,0,0,1-7.29,3c-1,.18-2.18.19-2.58,1.48a6.33,6.33,0,0,1-4.5,5.21c-1.5.06-2.84.79-4.31,1A1.84,1.84,0,0,1,27.82,32.68Z"/><path class="cls-1" d="M35.79,162c-2.81-1.15-4.1-4-5.75-6.08-3.11-4-6.47-7.79-9.87-11.48-3.62-3.92-6.06-8.53-8.91-12.89-3.11-4.78-5.17-10.15-7.4-15.4C.17,107.49-.5,98.34.3,89.05a24.1,24.1,0,0,1,2.89-10c1.57-1.92,1.57-1.92,2.85.06a1.44,1.44,0,0,1-.11,1,1.58,1.58,0,0,1-.47.46c-1.17.64-.53,1,.2,1.33a20.24,20.24,0,0,1,.06,7.6C4,98.46,5.64,107,9,115.22a106.23,106.23,0,0,0,6.64,13.5,15.09,15.09,0,0,0,2,3.3c2.22,3.39,4.42,6.79,6.86,10,.83,2.75,2.88,4.67,4.61,6.82,2.53,3.15,5.27,6.12,7.62,9.4.23.76.87,1.23,1.28,1.87a1.47,1.47,0,0,1,0,.69C37.52,161.72,37.06,162.62,35.79,162Z"/><path class="cls-2" d="M55.14,2.9c2.56.55,3.42,2.22,3.26,4.71-.73,12,2,23.69,4,35.42A20.35,20.35,0,0,0,68.31,54C76.4,62.18,84.1,70.78,92.18,79c10.14,10.32,21.77,18.8,33.95,26.54.65.42,1.51.6,1.8,1.47-1.23.6-2.16-.25-3.08-.75a155,155,0,0,1-17.67-11.22c-2.35-1.74-4.72-3.49-7.17-5.11-2.5-2.45-5.55-4.23-8.15-6.59C90,81.64,88.25,79.76,86.4,78c-4.26-4.92-9.11-9.29-13.15-14.4C72,58.75,67.42,57.47,64,55a15,15,0,0,1-3.18-5,31.65,31.65,0,0,1-3.87-10.2c0-3.22-.83-6.39.08-9.69.54-2-1.37-3.81-1.84-5.81a24.48,24.48,0,0,0-1.48-4.4c.14-4.76,1.8-9.41,1-14.24C54.57,4.67,54.28,3.68,55.14,2.9Z"/><path class="cls-1" d="M103.34,201.8c-4-.44-7.72-2.09-11.48-3.43-4.51-1.61-9-3.21-13.42-5.16a68,68,0,0,1-9.19-5.34c-3-1.93-6.19-3.47-8.91-5.78-.07-1.3.86-1.4,1.8-1.49,3.9,1.21,7.24,3.57,10.79,5.49a185.29,185.29,0,0,0,20.52,9L97,196.47a20,20,0,0,0,3.09,1.22l.61.2c.87.34,1.77.63,2.67.91a3.42,3.42,0,0,1,.61.22c.4.17.79.36,1.18.56.56.39,1.3.63,1.22,1.53C105.55,202.12,104.41,201.82,103.34,201.8Z"/><path class="cls-1" d="M157.58,199.81c-1.69,1.52-3.87,1.54-5.91,2.12-4.63,1.31-9.34,1.54-14.08,1.8-4.59,1.5-9.2.25-13.8.13-1.65-.37-3.39.09-5-.59-.13-1.5,1.1-1.46,2-1.68,1.74-.4,3.55-.45,5.29-.86,6.27-.33,12.58-.37,18.72-1.81A79.22,79.22,0,0,1,158,196.7c1.3.29,3.12-.5,3.49,1.7l0,0C160.28,199.3,158.68,198.86,157.58,199.81Z"/><path class="cls-1" d="M100.27,89.59c4.15,2.92,8.21,6,12.49,8.71,4.92,3.13,9.72,6.5,15.17,8.71.94,1.67,3.14,1.39,4.28,2.75,1,.38,1.76,1.27,2.9,1.35l0,0c.37,1.42-.66,1.47-1.58,1.64a12.77,12.77,0,0,1-5.88-1.8c-8-4-15.92-8.32-22.73-14.34-2.12-1.88-4.77-3.16-6.42-5.59C98.18,89.44,98.85,89.06,100.27,89.59Z"/><path class="cls-1" d="M192,157.23l-5.17,3.35a67.25,67.25,0,0,1-18.71,7.85,24,24,0,0,0-3.79.15,1.79,1.79,0,0,1-2.21-.93c-.18-1.71,1-2.14,2.31-2.45,2.31-.57,4.71-.75,7-1.43a43,43,0,0,0,13.94-7.05c1.19-.91,2.26-2,3.85-2.28C191.23,154.31,192.12,155.27,192,157.23Z"/><path class="cls-1" d="M12.4,66.56c5.82-6.48,9.91-14,13.48-21.89,2.13-.19,1.35,1.49,1.6,2.5-.1,3.79-1.87,7-3.51,10.28a18.66,18.66,0,0,1-2.11,2.34c-1.05.82-1.13,2.05-1.36,3.22-2,2.33-4.17,4.52-7.31,5.35A1.21,1.21,0,0,1,12.4,66.56Z"/><path class="cls-1" d="M144.12,115.07c5.2,1.35,10.4,2.69,15.59,4.06s10.35,2.35,15.61,3.22a38.37,38.37,0,0,1,10,2.81,11.44,11.44,0,0,0,2.52.54c.37.08.84.16.85.65a1.07,1.07,0,0,1-.65.92,3.5,3.5,0,0,1-2.53.1c-2.9-.67-5.79-1.5-8.83-1.1-1.31-.11-2.73.33-3.85-.75.28-.42.57-.65-.33-.78a79.1,79.1,0,0,1-12-3c-4.94-1.51-9.79-3.33-14.68-5C145,116.43,144,116.3,144.12,115.07Z"/><path class="cls-1" d="M144.12,115.07c2.11,1.62,4.75,2,7.15,2.84a156,156,0,0,0,20.89,6.28,22.49,22.49,0,0,1,2.27.77l-1.72.22a3,3,0,0,1-2.74.34c-10.82-2.14-21.46-4.87-31.52-9.51-1-.46-2.11-.86-2.39-2.14,0-1.44.76-1.7,2-1.27C140,113.48,142.4,113.47,144.12,115.07Z"/><path class="cls-1" d="M212.47,130.9l1.95,1.39c1.15,1,1.16,2.35,1.24,3.69.43,4.32.21,4.7-3.71,6.3-3.13,0-4.3-.94-4.84-3.89-.39-2.09-.83-4.18.26-6.21C208.65,130.11,210.43,130,212.47,130.9Z"/><path class="cls-3" d="M215.06,136c-.21-1.22-.42-2.44-.64-3.66,1.9.11,2.53,1.15,2.53,3,0,2.44.27,4.89.39,7.34a9,9,0,0,1-4.43,8.41c-5.1,3.29-10.92,4.52-16.76,5.66.81-2,3.1-1.56,4.43-2.7,5.36-1.53,9.91-4.3,13-9.05C215.3,142.23,216.48,139.26,215.06,136Z"/><path class="cls-1" d="M35.91,5.84A16.86,16.86,0,0,1,32.53,11c-.8.81-2.58,1.53-.59,3,.36.27-.11.85-.34,1.27-.74,1.34-1.3,2.72-.61,4.29a1.39,1.39,0,0,1-.32,1.76c-3.3,2.36-3.81,5.82-3.85,9.49A1.94,1.94,0,0,1,26,28.57c.83-4.88,2.17-9.63,2.64-14.63C29,10.19,32.18,7.39,35.91,5.84Z"/><path class="cls-1" d="M159.45,171.07a29.73,29.73,0,0,1,7.17,5.28c1,1.29.75,2.1-1,2.27a6.4,6.4,0,0,1-2.67-1.51,20.8,20.8,0,0,0-8.81-4c-1.14-.23-2.42-.31-3-1.66.15-1,1.81-.69,1.58-2a1.22,1.22,0,0,1,.81-1.13c2.93.34,6-.56,8.78.87l-2,.53a6.13,6.13,0,0,1-3.33.4c-.67.08-1.31-.23-2.37-.2.06,0,.28.24.38.17.56-.39,1.15.19,1.76,0A4.4,4.4,0,0,1,159.45,171.07Z"/><path class="cls-1" d="M55.14,2.9c1.1,5.85-.23,11.56-1,17.31-.55,1.12-.82.11-.94-.19-.39-1-.14-2.2-.57-3.24-1.08-4.24-.17-8.49-.12-12.74,1.24-.12,1.65-.88,1.6-2A.87.87,0,0,1,55.14,2.9Z"/><path class="cls-1" d="M176.55,125.69c4-.89,7.74,1.37,11.73,1-.91-.79-2.24-.5-3-1.48,4,.29,7.94,1.21,12,1,.61,0,1.25.59,1.88.91.55.49,1.44-.11,2.15,1-2.77,1.18-5.58.38-8.26.67-4.84.38-9.5-.94-14.23-1.56C177.92,127,176.92,126.8,176.55,125.69Z"/><path class="cls-1" d="M35.79,162c1.13.08,1.41-1,2.13-1.52a1.81,1.81,0,0,1,1.71.57c2.33,2.16,5.09,3.94,6.37,7-.1.9,0,2-1.5,1.52-1,0-1.36-.82-1.87-1.44-.7-.63-1.2-1.46-2.11-1.83A13.61,13.61,0,0,1,35.79,162Z"/><path class="cls-1" d="M167.49,176.77c2,.47,3.58,1.68,5.37,2.52a2,2,0,0,1,.85.77c2.76,5.18-1.41,14.89-7,16.4-.38-1.29.89-1.66,1.39-2.46.26-.31.49-.65.74-1a2.63,2.63,0,0,1,.45-.43,7.27,7.27,0,0,0,2.52-3.1c2.08-3.39,1.41-6.47-2-9C168.73,179.42,167.34,178.58,167.49,176.77Z"/><path class="cls-1" d="M162.4,169.19c-3.06-.14-6.15.25-9.17-.51a.94.94,0,0,1-.19-.74,6.92,6.92,0,0,1,9.24-.79c.78,1.62,2.27.93,3.49,1,.92.07,1.85,0,2.77-.06a2.21,2.21,0,0,1,1.91.08Z"/><path class="cls-1" d="M26.87,47.6c-.39-1,.77-2.44-1-2.93.57-4,2.68-7.77,1.94-12l1.54.11c1.14,1.06,1.09,2.45.95,3.78a57.34,57.34,0,0,1-2.13,9.53C28,46.76,27.78,47.52,26.87,47.6Z"/><path class="cls-1" d="M170.45,168.2l-1.91-.08a137.29,137.29,0,0,0,16.31-6.88,3.87,3.87,0,0,1,2-.66,27.75,27.75,0,0,1-11.78,6.61C173.57,167.65,172,167.87,170.45,168.2Z"/><path class="cls-1" d="M200.76,154.4c-1.15,1.53-3.38.9-4.6,2.29l-4.14.54c-.74-.9-.87-2.4-2.42-2.53.4-1.15,1.43-1.58,2.4-2.07a1.32,1.32,0,0,1,1.22,1c.18.26-.29,1.07.62.71,1.63-.39,3-1.62,4.86-1.26C199.43,153.43,200.29,153.63,200.76,154.4Z"/><path class="cls-1" d="M192.92,128h7.66c-.19-.83-1.2-.3-1.4-1,2.29,0,4.57,0,6.7,1,.55,1.59-.77,1.77-1.7,2.26-1.6.45-3.07-.11-4.59-.5a30.1,30.1,0,0,0-4.64-.74C194.16,129,193.14,129.21,192.92,128Z"/><path class="cls-1" d="M5.94,79.2c-.85-1.46-1.8-.76-2.75-.14A14.32,14.32,0,0,1,6.87,73c1.94-.3,1.39,1.35,1.78,2.27C8.16,76.84,8.59,79.08,5.94,79.2Z"/><path class="cls-1" d="M62.33,181.09c-.81,0-1.62.08-2,1-2.31-1.33-4.67-2.61-6.4-4.73a1.55,1.55,0,0,1,1.45-1,4.16,4.16,0,0,1,2.34.86C59.36,178.39,61.49,179,62.33,181.09Z"/><path class="cls-1" d="M44.5,169.65c1.34-.14.91-1.19,1-2,2.88.28,3.88,2.65,5.21,4.66-.14,1.15-.56,1.81-1.82,1.1A16.19,16.19,0,0,1,44.5,169.65Z"/><path class="cls-1" d="M123.54,203.61l14,.12c-4.62,3-9.35.88-14,.29q-.23-.14-.15-.27C123.44,203.66,123.49,203.61,123.54,203.61Z"/><path class="cls-1" d="M204.45,129.84c.5-.57,1.51-.73,1.43-1.76,2.2.92,4.6,1.38,6.59,2.82-1.63.18-3.52-.53-4.61,1.41A6,6,0,0,1,204.45,129.84Z"/><path class="cls-1" d="M48.91,173.44c1.15.14,1.46-.5,1.42-1.49,2.29.75,3.43,2.93,5.28,4.23a.56.56,0,0,1,0,.62l-1.64.56C51.83,176.61,50.46,174.91,48.91,173.44Z"/><path class="cls-1" d="M103.34,201.8c.71-1.12,2.21,0,3-1,.87-.84,1.86-.51,2.86-.32a32.6,32.6,0,0,0,4.42.15,3.81,3.81,0,0,1,1.21.17,2.08,2.08,0,0,1,1.34,1.38,1.08,1.08,0,0,1-.27,1.08l-.46-.14a52.71,52.71,0,0,0-10-.9,3.51,3.51,0,0,1-2.06-.35Z"/><path class="cls-1" d="M103.31,201.83a29.46,29.46,0,0,1,12.09,1.25l-11-.55C103.86,202.51,103.46,202.39,103.31,201.83Z"/><path class="cls-1" d="M12.4,66.56a1.68,1.68,0,0,0,.94,1.54c-.24,2.23-2.21,2.43-3.72,3.17-.66-.13-1.17-.39-1-1.21C9.26,68.2,11,67.58,12.4,66.56Z"/><path class="cls-1" d="M168.54,194l-1.85,2.42c-.42.78-1.44.41-2,1a2.25,2.25,0,0,1-1.13-1.62c.7-1.37,2.05-2.07,3.16-3C167.63,192.82,168.51,192.81,168.54,194Z"/><path class="cls-1" d="M115.86,203.22v-1c1.36-.89,2.36-.67,2.9.95a15.43,15.43,0,0,1,4.78.47V204C121,203.71,118.24,205.24,115.86,203.22Z"/><path class="cls-1" d="M163.72,195.94a1.56,1.56,0,0,1,1,1.52,3.82,3.82,0,0,1-3.29.94c-.82-1.58-2.38-.73-3.57-1.08A5.94,5.94,0,0,1,163.72,195.94Z"/><path class="cls-1" d="M167.49,176.77c.47,1.41,1.68,2.24,2.61,3.29a3.22,3.22,0,0,1-3.26.88,2.76,2.76,0,0,1-1.2-2.67c1.51,0,1.19-1,1-1.92Z"/><path class="cls-1" d="M138,112.6c-1,0-1.74.27-1.55,1.49-1.87.73-2.87-.19-3.5-1.83.84-.15,1.93.18,2.16-1.13C136.31,111.2,137.07,112.09,138,112.6Z"/><path class="cls-1" d="M8.65,70.06l.91.92c.17,1.66.17,3.26-1.34,4.4-.37-.85-.1-2-1.35-2.41A5.17,5.17,0,0,1,8.65,70.06Z"/><path class="cls-1" d="M156.6,169.67l3.81.05c-.3.46-1.06.6-1,1.35-1,.39-1.92-.25-2.85-.52A.53.53,0,0,1,156.6,169.67Z"/><path class="cls-1" d="M157.58,199.81c.89-1.53,2.56-.89,3.82-1.39C160.39,199.61,158.92,199.52,157.58,199.81Z"/><path class="cls-1" d="M40.52,166.38c1.3-.09,1.93.61,2.11,1.83A2.29,2.29,0,0,1,40.52,166.38Z"/><path class="cls-1" d="M135.11,111.11c-1.32.3-2.09-.56-2.9-1.35C133.47,109.58,134.23,110.48,135.11,111.11Z"/><path class="cls-2" d="M165.64,178.27c.52.71,1.14,1.38,1,2.37a34.53,34.53,0,0,1,.6,3.8c-.1,2.1-1.58,2.54-3.27,2.61a55.17,55.17,0,0,0-5.89.17,128.46,128.46,0,0,1-26.64-1.61,166.1,166.1,0,0,1-22.3-5.39c-4.18-2-8.65-3.37-12.87-5.32-2.1-1-4.1-2.18-6.28-3a63.69,63.69,0,0,0-10.33-5.77c-.82-.17-1.2-.89-1.76-1.38-1-.63-1.84-1.4-2.75-2.11-.71-.46-1.47-.87-2.15-1.38-2.37-1.83-4.74-3.66-7-5.66a4.3,4.3,0,0,1-.84-1,8.48,8.48,0,0,0-2.29-2.22l-.13-.12c-.09,0-.13,0-.13.13s.06.13.17.14a6.34,6.34,0,0,0,2,2,14.16,14.16,0,0,1,1.19,1.13c2.36,2.12,4.57,4.43,7.38,6,.66.36,1.31.74,1.93,1.15a8.76,8.76,0,0,0,2.16,1.72c.8.51,1.25,1.47,2.26,1.7,3.25,2.43,7.08,3.83,10.52,5.91a23.1,23.1,0,0,0,4.48,2.81c3.72,1.85,7.41,3.74,11.29,5.24a4.51,4.51,0,0,1,.63.29,7,7,0,0,0,2.33.85c3.62,1,7,2.64,10.55,3.86,6,2.07,12.34,2.24,18.58,3,3,.34,6,.52,9,.82a33.59,33.59,0,0,0,11.39-.68c1.33-.15,2.71.06,3.94-.66a3.35,3.35,0,0,1,.7-.22c1.27-.13,2.48-.15,2.88,1.45-.19,1.17-.94,2.38.29,3.44a1.17,1.17,0,0,1,.25.9c-.37,1.5-1.93,1.79-2.8,2.77l-5.85,1.38c-6,.31-11.76,2.24-17.69,3.11-4.74.7-9.51.46-14.25.88-3.71.61-7.4-1-11.12-.14l-.71,0c-2.36-.54-4.79-.3-7.15-.71-1-.46-1.9-1.25-3.12-1.09l-.21,0-.19-.11a4.52,4.52,0,0,0-2.89-.94l-.22,0-.19-.11c-.88-.84-2.09-.9-3.14-1.31a157.42,157.42,0,0,1-28.23-12.43c-2.1-1.22-4.28-2.28-6.43-3.42l-4.87-3.48A7.06,7.06,0,0,0,55.62,176,107.28,107.28,0,0,1,44,164.7c-4.76-5.11-9.29-10.42-13.94-15.63-2-2.25-3.89-4.61-6-6.77a92.2,92.2,0,0,1-6.88-10,22.19,22.19,0,0,0-1.71-3.54c-5.44-10.14-8-21.14-9.29-32.42-1-9.13,2.4-17,8.42-23.86,3-3.4,6-6.8,8.83-10.36A32.57,32.57,0,0,0,30.6,46c.53-4,1.47-8,1.86-12a3.13,3.13,0,0,1,1-2.12c2.27-1.06,3.95-2.55,3.95-5.29,1.92.34,1.35,2.2,2,3.31a9.62,9.62,0,0,1-1.06,8.39c-3,4.72-4.19,10-4.85,15.51a12,12,0,0,0-.76,5.07c-.13,1.28.2,2.81-2.07,3.17,2.58.49,3.42,2.5,4.69,4.08.82,1.25.81,2.81,1.47,4.13.45,2.45.54,5,1.38,7.35a92.65,92.65,0,0,0,8.21,27.3,54.65,54.65,0,0,0,8.82,13c2.2,2.5,4.17,5.22,6.68,7.45,4.57,5,9.08,10,14.5,14.11a146.24,146.24,0,0,0,34.93,21,105.43,105.43,0,0,0,22.92,7.41c1.73.32,3.52.2,5.19.81.24.05.48.13.71.2,2.66.91,5.43.64,8.16.75a4.3,4.3,0,0,1,.7.13,13.14,13.14,0,0,1,2.06,1.17l.2.27a2,2,0,0,0,1.75,1.06C157.89,172.85,161.87,175.34,165.64,178.27Z"/><path class="cls-2" d="M133,112.26a5.74,5.74,0,0,0,3.5,1.83c2.23,1.86,5.06,2.48,7.64,3.56,8.28,3.48,17,5.29,25.77,7.2a26.64,26.64,0,0,0,2.83.33c1.22.63,2.56.31,3.84.51a8.26,8.26,0,0,0,2.19.79c4.75.28,9.36,1.87,14.18,1.52,1.43,1.15,3.18.45,4.74.64,2.29.29,4.34,2,6.79,1.2a8.72,8.72,0,0,1,3.41,2.47c-1.15,2.68-.41,5.36.38,7.88.46,1.44,2.43,1.42,3.83,1.8,1.59.75.86,1.85.32,2.77a11.26,11.26,0,0,1-3.79,3.57c-3.12,2-6.07,4.4-9.9,5-1.9,0-3.39,1.43-5.26,1.55-.32-.46,0-.89.05-1.33a32.92,32.92,0,0,0,1.88-4.74c.69-1.85,1.57-3.67,1.09-5.75-.64-2.81-2.75-4.15-5.17-5.17a21.59,21.59,0,0,0-8.07-2.7c-4.27-1.29-8.71-.89-13.06-1.11-5.08-.25-10.17-.77-15.27-.66-6.36-.89-12.79-1.15-19.11-2.39-5.53-1.08-11.1-2-16.31-4.29a60.35,60.35,0,0,1-8.84-4,17.67,17.67,0,0,0-3-1.61,19.79,19.79,0,0,0-4.77-2.35c-8.69-5.12-17.48-10.09-24.48-17.57A11.34,11.34,0,0,0,76.94,100C71,94.35,67,87.28,62.77,80.41c-.41-.68-.82-1.36-1.25-2a27.24,27.24,0,0,0-3.09-4.7,37.18,37.18,0,0,0-6-7.91A22.15,22.15,0,0,1,47.84,58,24.13,24.13,0,0,1,47.6,48a28,28,0,0,0,.12-3.54c.5-3.32,1.36-6.56,2-9.84a6.8,6.8,0,0,0,0-6.55c-1.22-2.47-.56-5.31-.5-8a5.16,5.16,0,0,0-.35-2.78A53.11,53.11,0,0,1,43,12.15c-1-1.11-1.18-1.82.32-2.7C46,7.87,49,6.56,50.92,3.91c.5-.69,1.11-.33,1.62.13,1.36,4.22-.25,8.59.7,12.83a22.68,22.68,0,0,0,1.32,7.47,35.09,35.09,0,0,0,.9,5.75,3.48,3.48,0,0,1-.3,2.55c-2.92,5.25-1.38,10,1.64,14.56.31.47.67.9,1,1.34.64.91,1.54,1.6,2.21,2.47.38.5.82,1.07.33,1.71s-1,.3-1.53.16c-1.25-.31-2.44-1-4.14-.53,2.4,2.09,5.56,1.68,7.67,3.53,3.1,2.88,6.06,5.92,9.71,8.15,3.85,5.53,8.72,10.13,13.49,14.83A76.71,76.71,0,0,0,97.18,89.12c.83.57,1.21,1.46,1.9,2.1,8.77,7.5,18.06,14.2,28.58,19.06C129.37,111.07,131.2,111.61,133,112.26Z"/><path class="cls-1" d="M48.9,17.26c1.15.58,1,1.64,1,2.67-.09,3.42-.82,6.85,1.36,10.06,1,1.5-.32,3.14-1,4.62-1,1.33-1.1,2.91-1.45,4.44s-1.06,2.16-2.49,1a1.53,1.53,0,0,1-.14-1.38,2.69,2.69,0,0,0,1.08-2.9,4.34,4.34,0,0,1,.4-2.88,4.38,4.38,0,0,1-3.52.75,2.08,2.08,0,0,1-.63-.23c-.81-.94-1.51-1.95-3-2-.82-.05-1.26-.87-1.66-1.57-1-.9-.21-2.57-1.49-3.32a2.81,2.81,0,0,1,3-1.39c.46.71,1.08.45,1.67.24a7.35,7.35,0,0,1,3-.36c2.76.23,2.88.07,2.34-2.79C48.79,20.81,48.81,19,48.9,17.26Z"/><path class="cls-1" d="M47.43,22.2c1.67.79.92,2.14.6,3.22s-1.31.44-2,.32c-1.41-.24-2.77-.48-4.13.32-1,.58-1.7.47-1.49-.95Z"/><path class="cls-1" d="M5.69,80.09a1.57,1.57,0,0,1-.34,1.45l-1,1.15C4.44,81.46,3.74,80.11,5.69,80.09Z"/><path class="cls-1" d="M15.43,129.4l.38-.45a4.92,4.92,0,0,1,1.39,3.36A7.84,7.84,0,0,1,15.43,129.4Z"/><path class="cls-1" d="M36.46,158.5a2.84,2.84,0,0,1,1.29,1.56A1.29,1.29,0,0,1,36.46,158.5Z"/><path class="cls-1" d="M57.5,49a15.5,15.5,0,0,1-4.32-13.44c.29-1.89,2.29-3.11,1.87-5.22,1.28-.38,1.73-.07,1.56,1.5a22.19,22.19,0,0,0,.87,8.07c.7,3.58,2.38,6.77,3.86,10-.29,1.2-.82,1.74-1.87.64A4.92,4.92,0,0,0,57.5,49Z"/><path class="cls-1" d="M85.21,79.15A67.68,67.68,0,0,1,71.82,64.33c.05-1.34.7-1.58,1.8-1,4.22,4.91,9,9.32,13,14.38C87.05,79.1,86.53,79.54,85.21,79.15Z"/><path class="cls-1" d="M73.62,63.35a1.57,1.57,0,0,0-1.8,1,37.21,37.21,0,0,1-9.74-8.1,3.87,3.87,0,0,1,2.16-1.67c1.9,1.09,3.78,2.22,5.71,3.25C72.19,59,72.59,61.38,73.62,63.35Z"/><path class="cls-1" d="M85.21,79.15a1.35,1.35,0,0,0,1.45-1.42c4.25,4.28,9.06,7.93,13.61,11.86-1.16,0-1.83.33-1.19,1.63A72.89,72.89,0,0,1,85.21,79.15Z"/><path class="cls-1" d="M64.24,54.56a2.54,2.54,0,0,1-2.16,1.67c-2-1.31-4.46-1.53-6.67-2.38-.86-.33-1.86-.59-1.63-1.67s1.39-.88,2.19-.69c1.36.34,2.81.3,4.08,1.21-.17-1.85-2.13-2.24-2.55-3.74,1.15-.63,1.67.37,2.06,1,.75,1.23,1.21.4,1.78-.07Z"/><path class="cls-1" d="M57.48,39.87c-2-2.44-1.38-5.33-1.45-8.12,0-.56.65-1.86-1-1.45a8.64,8.64,0,0,1-.78-5.72c.34-.46.69-.88,1.35-.55,1.39,2.87,2.93,5.52,1.5,9.09C56.33,35.08,57.78,37.56,57.48,39.87Z"/><path class="cls-1" d="M55.62,24l-1.35.55c-2.12-2.33-.82-5.12-1-7.71.73,1,.23,2.25.53,3.35,0,.05.12.09.19.09a1,1,0,0,0,.21-.1C55.39,21.2,55.46,22.63,55.62,24Z"/><path class="cls-1" d="M106.81,199.86c2.37.74,5-.1,7.29,1.28-2.62.4-5.2-.25-7.8-.38l-1.45-.87A1.5,1.5,0,0,1,106.81,199.86Z"/><path class="cls-1" d="M100.54,198.33c1.2-.42,2.25-.37,2.89.94A7,7,0,0,1,100.54,198.33Z"/><path class="cls-1" d="M106.81,199.86l-2,0-1-.55C105,198.39,105.88,199.28,106.81,199.86Z"/><path class="cls-1" d="M97,196.94c1.17.13,2.49-.08,3.14,1.31A9.15,9.15,0,0,1,97,196.94Z"/><path class="cls-1" d="M114.81,201.17c2.06-1.47,4.42-1.29,6.56-.63a14.74,14.74,0,0,0,4.56.77c-1.54.69-3.23.54-4.84.85a3.48,3.48,0,0,0-2.33,1c-.72-1.08-1.82-1-2.9-.95Z"/><path class="cls-4" d="M191.82,152.79c-.39,1.05-1.35,1.42-2.22,1.91a13.61,13.61,0,0,0-3.55,2.35A43,43,0,0,1,165,165.68c-1.11.13-2.27.14-2.72,1.47-3.14-.78-6.26-1.34-9.08,1-3.42-.21-6.84-.14-10.26-.4-5.79-2.13-11.9-3.1-17.79-4.9-1-.29-2.05-.39-2.67-1.37.07-.7.61-.85,1.15-1,3.37-.23,6.59,1.23,10,.84,6,.6,12.11.13,18.16,0a8,8,0,0,0,2.58-.27c3.65.09,7.12-1.05,10.66-1.67a5.75,5.75,0,0,1,.71-.2,18.05,18.05,0,0,0,3.39-.91,48,48,0,0,0,18.71-8.44c1.19-.68,2.22-2,3.83-.92a8.9,8.9,0,0,1,1,2.2C192.67,151.76,192.67,152.49,191.82,152.79Z"/><path class="cls-1" d="M22.73,61.11a5.38,5.38,0,0,1-2.57,1.78c-.07-1.35,0-2.66,1.38-3.41a2.44,2.44,0,0,1,1.21,1A.83.83,0,0,1,22.73,61.11Z"/><path class="cls-1" d="M22.51,60.49c-.72,0-1-.36-1-1a5.54,5.54,0,0,1,1.9-1.95c-.19.92.41,1.44,1,2A3.36,3.36,0,0,1,22.51,60.49Z"/><path class="cls-1" d="M198.7,153.34c3.68-2.1,7.71-3.64,10.9-6.57.87-.8,1.65-1.69,2.48-2.54a1.4,1.4,0,0,0,0-2.24c0-.07.06-.18.12-.2,2.72-1.08,3.76-3,2.87-5.84a6.75,6.75,0,0,1,.37,6.57c-2.74,6.5-7.92,10.22-14.67,11.88C199.94,154.3,199.07,154.3,198.7,153.34Z"/><path class="cls-1" d="M142.74,167.22c3.51,0,7.07-.59,10.46.9l0,.56v1.43a2.23,2.23,0,0,1-2.06-.16,6.67,6.67,0,0,0-4.65-.34,26.77,26.77,0,0,1-6.69-.46l-.48-.07c.26-1.14,1.13-.94,1.89-.82s1.41.3,2-.24c1.63-.1,3.26-.05,4.34-.05-1.28.2-3.12-.43-4.92.35a1,1,0,0,1-.23.05c-.69,0-1.69-.11-1.56-.85C141.1,166.47,142.06,167,142.74,167.22Z"/><path class="cls-1" d="M147,169.15c2.34-1.4,4.19.39,6.23,1,.11.94.11.94-1.95,1h0c-.57-.53-1.37-.57-2-.93h-.2l-.17-.1C148.36,169.56,147.47,169.81,147,169.15Z"/><path class="cls-1" d="M156.6,169.67v.88l-2.33-.55A2.73,2.73,0,0,1,156.6,169.67Z"/><path class="cls-1" d="M166.14,192.62c-1.52-.91-1.84-2-.54-3.38.43-1.73,1.71-3.29,1.1-5.24-.38-1.11-.95-2.22-.09-3.36l3.49-.58c3.27,2.18,4.28,5,3,8.49-.19.54-.26,1.3-1.16,1.22-1.08,1-1.86,2.32-2.92,3.37l0,0C168,193.53,167.13,192.71,166.14,192.62Z"/><path class="cls-1" d="M169,193.14c.44-1.59,1.15-2.94,2.92-3.37A4,4,0,0,1,169,193.14Z"/><path class="cls-1" d="M166.14,192.62c1-.19,2,.33,2.92.5-.08.36.11.87-.52.92a2.18,2.18,0,0,0-2-.87Z"/><path class="cls-1" d="M191.82,152.79l.55-1.73a3.59,3.59,0,0,1,3.38-2,12.71,12.71,0,0,1-1.9,4.74c-.23.37-.53.35-.85.15A1.92,1.92,0,0,0,191.82,152.79Z"/><path class="cls-1" d="M193,153.91l.85-.15-.41,1.13c0,.45-.21.94-.63.65C192.06,155,192.71,154.44,193,153.91Z"/><path class="cls-1" d="M55.44,176.41l.59-.53c.72.38,1.36.82,1.43,1.73l-1.88-.81A2,2,0,0,1,55.44,176.41Z"/><path class="cls-1" d="M143.17,168.2c-1.08,1.12-2.71-.13-3.82.88-18.43-2.31-34.67-10.23-50.21-19.83-4.64-2.87-9.32-5.75-13.19-9.69.65-.75.64-1.81,1.2-2.6a10.15,10.15,0,0,1,5.14,2.25,105.68,105.68,0,0,0,18.59,12,5.74,5.74,0,0,1,2.16,1.44c.94,2.13,3,2.84,4.84,3.78,1.19.61,2.55.75,3.75,1.33a24,24,0,0,1,2.45,1,10.52,10.52,0,0,0,3,1.31,5.19,5.19,0,0,0,3.4.54,2.07,2.07,0,0,1,2.1.75l18.07,4.86c.74.2,1.56.22,2.05,1l-1.61.08a1.7,1.7,0,0,0,1.56.9A.27.27,0,0,1,143.17,168.2Z"/><path class="cls-1" d="M61.71,125.61a76.38,76.38,0,0,1-9.42-10.51c-6.9-8.71-10.48-18.87-13.17-29.46a58.88,58.88,0,0,1-1.32-7.86,3.06,3.06,0,0,1-.21-1.37c-.08-.69.17-1.39.81-1.51.81-.15.82.74,1.08,1.27.42.83,0,2.17,1.42,2.39a4.13,4.13,0,0,1,1.7,2.77,149.59,149.59,0,0,0,10.64,25.82,63,63,0,0,0,6.09,10.46c1.21,1.57,3,2.63,3.84,4.54a3.86,3.86,0,0,0,2,3.3,3.39,3.39,0,0,1,1.11,1.23c.38.53.79,1.15.29,1.73s-1.24.28-1.92-.07A12,12,0,0,1,61.71,125.61Z"/><path class="cls-1" d="M159,188.69a14.54,14.54,0,0,1-5.82,1c-11.69-.59-23.47-.65-34.78-4.3-3.44-1.11-6.76-2.58-10.14-3.88-.63-.36-1.34-.5-2-.83h0c.23-1.9,1.54-1.22,2.61-1.09,5.44,1.42,10.83,3,16.35,4.16a158,158,0,0,0,22.23,2.8c3.47.21,6.93-.44,10.37.24a13.46,13.46,0,0,1,3.53-.15c.83,0,1.61.16,1.55,1.28h0C161.62,188.31,160.25,188.24,159,188.69Z"/><path class="cls-1" d="M38.86,29.82c1,.53,1.64,1.47,3.08,1.18s1,1.47,1.65,2.12a14.44,14.44,0,0,1-1.84,6.77A21.18,21.18,0,0,0,39,47.13a2.5,2.5,0,0,1-.7,1.47c-.55.47-1.44.5-1.76,1.3s-.42,1.5-.71,2.22c-.73,1.08-.78,2.6-2.11,3.3-1.2-.16-1-.9-.72-1.7a30,30,0,0,1,4.39-15.14A10,10,0,0,0,38.86,29.82Z"/><path class="cls-1" d="M36,49.57c.19-1.1,1-1,1.85-1,1.89,1.74,2.13,4.09,2,6.39-.21,4.07-1,8-3.38,11.49a1.58,1.58,0,0,1-1.58-.17c-1.55-1.78-2.66-4.19-5.65-3.9a.45.45,0,0,1-.46-.64c.14-.47.6-.49,1-.39,2.05.52,2.38-.71,2.38-2.29.47-.5.27-1.83,1.59-1.29.52.86.28,1.87.57,3.07,1.42-3.1,1.38-6.19,1.62-9.22C36,50.9,36.36,50.25,36,49.57Z"/><path class="cls-1" d="M61.71,125.61c1.66.63,2.33,3.09,4.72,2.62-.51-2.54-4.3-2.85-3.72-5.91,1.71,0,2.16,1.62,3.12,2.52a24.39,24.39,0,0,0,3.45,2.88,16.15,16.15,0,0,1,5.77,7.09,1.69,1.69,0,0,0,1.6,2,.63.63,0,0,1,.44.41c.51,1.22.52,2.19-1.14,2.34s-2.07-1.41-2.92-2.2c-3.71-3.46-7.23-7.12-10.8-10.73A3.77,3.77,0,0,1,61.71,125.61Z"/><path class="cls-1" d="M26.45,97.31a35.65,35.65,0,0,1-2.87-11.19c-.34-2.76-.43-5.55-.64-8.33,0-1.88,0-3.76.11-5.64,0-.82.2-1.79,1.31-.66q1.49,12.17,3,24.34C27.7,96.72,27.49,97.26,26.45,97.31Z"/><path class="cls-1" d="M26.45,97.31a1.59,1.59,0,0,0,.89-1.48L35.48,116c.13.79-.19,1.15-1,1A51.88,51.88,0,0,1,26.45,97.31Z"/><path class="cls-1" d="M108.87,179.6c-1,.16-2.09-.12-2.61,1.09-4.25-1.16-8-3.39-11.9-5.37,0-1.29.08-1.33,1.92-.92C100.47,176.15,104.87,177.38,108.87,179.6Z"/><path class="cls-1" d="M40.65,78.67c-.55.6-1.09,1-1.34-.22l-.61-3.26c-1.07.69-.75,1.71-.9,2.59-1.23-2.44-1.21-5.1-1.42-7.72-.12-1.13.62-1.32,1.5-1.34a2.75,2.75,0,0,1,2.21,2.51C40.13,73.73,40.72,76.18,40.65,78.67Z"/><path class="cls-1" d="M79.5,165.84a30.1,30.1,0,0,1,10.55,5.61.77.77,0,0,1,0,1c-3.51-2.08-7.56-3.2-10.64-6.05C79.18,166.2,79.21,166,79.5,165.84Z"/><path class="cls-1" d="M24.36,71.49c-1.16-.48-.87.43-.89,1-.07,1.79.18,3.61-.53,5.33-1.31-4.36,0-8.47,1.42-12.6Z"/><path class="cls-1" d="M37,118.31a59.87,59.87,0,0,1,5.11,8.21.63.63,0,0,1-.9.07,27.09,27.09,0,0,1-5.27-7.21A1.73,1.73,0,0,1,37,118.31Z"/><path class="cls-1" d="M66.13,155.2l7.22,5.74a.89.89,0,0,1-.08,1.07,22.3,22.3,0,0,1-7.7-6.24A.68.68,0,0,1,66.13,155.2Z"/><path class="cls-1" d="M162.9,187.93c-1.34-2-3.42-.59-5.08-1.13a21.39,21.39,0,0,1,6.28-.46c1.75.07,2.75-.43,2.6-2.34a4.13,4.13,0,0,1-1.1,5.24C165.55,187.05,163.82,188.33,162.9,187.93Z"/><path class="cls-1" d="M41.16,126.59l.9-.07A17.56,17.56,0,0,1,46,132.7a1.13,1.13,0,0,1-.07,1.56Q43.54,130.42,41.16,126.59Z"/><path class="cls-1" d="M90,172.49l0-1c2.3.5,4.22,1.82,6.23,3-.7.19-1.77-.4-1.92.92A11.75,11.75,0,0,1,90,172.49Z"/><path class="cls-1" d="M147,169.15a1.73,1.73,0,0,1,1.91.91c-3-.14-6.17.53-9.08-.91Z"/><path class="cls-1" d="M37.87,69.06a1.7,1.7,0,0,0-1.49,1c-1.14-1-.73-2.64-1.45-3.83h1.42C38.3,66.4,38.65,67.43,37.87,69.06Z"/><path class="cls-1" d="M37,118.31c-.07.63-.36,1.06-1.06,1.07A3.43,3.43,0,0,1,34.48,117a1.72,1.72,0,0,0,1-1A4.19,4.19,0,0,1,37,118.31Z"/><path class="cls-1" d="M33.49,57.59,32.17,59c-.16-1.83-.26-3.66.86-5.29.11.6-.1,1.4.89,1.45A1.86,1.86,0,0,1,33.49,57.59Z"/><path class="cls-1" d="M62.79,151.83a5.12,5.12,0,0,1,2.75,2.53c-.21.46-.48.76-1,.45-1.38-.21-1.7-1.44-2.3-2.39C62.13,152,62.31,151.74,62.79,151.83Z"/><path class="cls-1" d="M47.83,134.75l3,3.73c-2.31-.17-3-1.6-3.88-2.82C46.77,134.92,47.06,134.59,47.83,134.75Z"/><path class="cls-1" d="M75.21,162.43c1.24.2,1.89,1.29,2.87,1.89-.17.43-.68.25-1,.51-.84-.44-1.92-.63-1.95-1.9-.11-.12-.15-.23-.1-.34S75.17,162.43,75.21,162.43Z"/><path class="cls-1" d="M47.83,134.75l-.93.91a1.84,1.84,0,0,1-1-1.4c0-.52,0-1,.07-1.56A3.58,3.58,0,0,1,47.83,134.75Z"/><path class="cls-1" d="M159,188.69c1.15-1.11,2.55-.9,3.93-.77C161.73,188.91,160.32,188.62,159,188.69Z"/><path class="cls-1" d="M77.13,164.83c.19-.42.58-.44,1-.51.75.25,1,1,1.42,1.52,0,.2-.08.4-.11.6A4.19,4.19,0,0,1,77.13,164.83Z"/><path class="cls-1" d="M75.21,162.43l0,.5a2.58,2.58,0,0,1-1.91-.92c0-.35.06-.71.08-1.07C74,161.41,74.82,161.65,75.21,162.43Z"/><path class="cls-1" d="M58.69,147.7c.08.4,0,.65-.28.61a1,1,0,0,1-.5-.42c-.12-.18-.25-.53.08-.55S58.51,147.6,58.69,147.7Z"/><path class="cls-1" d="M106.25,180.7c.81-.08,1.56,0,2,.83A1.82,1.82,0,0,1,106.25,180.7Z"/><path class="cls-1" d="M64.52,154.81l1-.45.59.84-.56.57Z"/><path class="cls-1" d="M149.28,170.16c.86-.1,1.64,0,2,.93A2.18,2.18,0,0,1,149.28,170.16Z"/><path class="cls-1" d="M62.79,151.83l-.57.59c-.41-.3-1.16-.61-.64-1.16S62.45,151.48,62.79,151.83Z"/><path class="cls-1" d="M107.88,120.73c1.13,0,1.9.81,2.78,1.36.4.56,1.14,1.08.58,1.87s-1.55.52-2.39.29a3.28,3.28,0,0,1-.6-.28,2,2,0,0,0-2-.45c-9.68-2.61-17.63-8.23-25.2-14.49a39.46,39.46,0,0,1-3.61-3.11c-.85-.88-1.61-1.8-1.13-3.15,1.19-.79.43-2.08.79-3.09,2.62,1.55,4.4,4,6.73,5.92,6,4.82,12.63,8.67,19.16,12.66A13.73,13.73,0,0,0,107.88,120.73Z"/><path class="cls-1" d="M119.23,126.11c10.39,3.74,21.21,5.25,32.14,6.22,1.1.1,2.19.3,3.29.45-.67,1.8-2.25,1-3.37,1-1.38,0-1.82.61-2.14,1.68-3.58.95-7.14.18-10.68-.21A80.82,80.82,0,0,1,120,130.52c-1.19-.43-2.45-.86-2.92-2.25C117,126.73,118.57,126.89,119.23,126.11Z"/><path class="cls-1" d="M149.4,135.06c-.25-.55-1.48-.18-1.18-1.14.22-.71,1-.62,1.62-.69,1.6-.18,3.29.49,4.82-.45l20.73.92c2.85.12,5.75-.22,8.45,1.06a1.52,1.52,0,0,1-.88,2.61c-6.24.38-12.48,1.56-18.74,0a40.37,40.37,0,0,0-10.91-1C151.9,136.35,150.39,136.42,149.4,135.06Z"/><path class="cls-1" d="M77.11,99.68c.06,1,2,2.38-.53,2.93-2.23-.21-3.15-2.23-4.61-3.44-4.89-4-9.63-8.28-11.49-14.73a7,7,0,0,1-.59-3.22,1.79,1.79,0,0,1,.26-.6c.54-.37.4-.91.37-1.43.18-.7.42-1.34,1.36-1.07,1.91,3,3.94,5.93,5.69,9C70.2,91.75,73.84,95.57,77.11,99.68Z"/><path class="cls-1" d="M170.46,130.84c-5.64.55-11-1.1-16.48-2-6.8-1.07-13.6-2.29-20-5.11.08-1.46,1.22-1,2-1.1h0c.87.73,2-.08,2.89.51,5.22,1.37,10.35,3.11,15.74,3.79q7.59,1,15.16,2c.86.12,1.71.35,2.56.53C172.5,131,171.19,130.52,170.46,130.84Z"/><path class="cls-1" d="M195.75,149l-3.38,2a2.37,2.37,0,0,1-.89-2c.7-1.36-.72-2-1.06-2.95-.27.41-.55.82-1.15.53-2.41-2-2.7-3.19-1.48-6.06a6.39,6.39,0,0,0,1.75-1.87c.42-.72,1-1.48,2-1.24C197,139.35,198.54,143.54,195.75,149Z"/><path class="cls-1" d="M57.91,61c4.82,8.09,11,15.12,17.43,21.91-.25.56-.61.9-1.28.63A53.16,53.16,0,0,1,57,60.94.62.62,0,0,1,57.91,61Z"/><path class="cls-1" d="M110.13,111.22c5.23,1.83,9.86,4.88,14.81,7.27-.26,1.19-1.09,1.13-2,.92-5.34-1.56-9.91-4.66-14.7-7.33C108.37,110.7,109.19,110.84,110.13,111.22Z"/><path class="cls-1" d="M46.5,39.87c1.42.79,1.8,0,1.88-1.24.1-1.58.31-3.12,1.88-4q-1,4.78-2,9.57a40.67,40.67,0,0,0-.89,8.59c0,1.09.16,2.29-1.32,2.64-.67,0-.92-.51-1.06-1.07.83-3,.7-6.12,1.18-8.66,0-.82-.55-.51-.24-.56q.12,0,.12.12c0,.57.63,1.52-.76,1.25C44.7,44.1,44,41.7,46.5,39.87Z"/><path class="cls-1" d="M119.23,126.11c.15,1.63-1.32,1-2,1.42-3.27,1.15-6.87-.34-9.1-3.75a3.46,3.46,0,0,1,1.16,0c2.25.84,1.8-.42,1.37-1.7Z"/><path class="cls-1" d="M52.73,65.61c2.8,2,4.37,5,6.08,7.79a2.24,2.24,0,0,1-1.62,1.16,9,9,0,0,1-5.73-7.77A1.73,1.73,0,0,1,52.73,65.61Z"/><path class="cls-1" d="M191.58,137.51a3.43,3.43,0,0,0-2,2.25c-.19.79-.59,1.07-1.36.69a8,8,0,0,1-4.39-3.86l0-1.83A14.63,14.63,0,0,1,191.58,137.51Z"/><path class="cls-1" d="M123,119.41a3.26,3.26,0,0,0,2-.92c3.73,1.31,7.49,2.52,11.08,4.18-.59.5-1.56.33-2,1.1Z"/><path class="cls-1" d="M110.13,111.22c-.77,0-1.5,0-1.88.86a22.92,22.92,0,0,1-7.71-5.14c-.13-.8.2-1.14,1-1Z"/><path class="cls-1" d="M45.93,55.22c1-.41,1.1-1.29,1-2.18-.25-2.46.51-4.84.49-7.28a1.71,1.71,0,0,1,.87-1.58c0,4.78-.93,9.56.11,14.33.12.56-.25.7-.69.78C45.34,58.36,45,57.64,45.93,55.22Z"/><path class="cls-1" d="M57.45,74.39a1.42,1.42,0,0,1,1.36-1,15,15,0,0,1,3.07,4.72,1.57,1.57,0,0,0-1.08,1.5,1.37,1.37,0,0,1-.35,1h-.21C57.37,79,56.45,76.94,57.45,74.39Z"/><path class="cls-1" d="M170.46,130.84c.47-.69,1.63-.4,1.89-1.37,3,0,6.1-.37,9.1.47.06,1.18-.8,1.08-1.57,1.14-1.07.09-2.15-.2-3.2.19C174.59,131.32,172.49,131.54,170.46,130.84Z"/><path class="cls-1" d="M47.84,59.06l.56-.55,4.33,7.1a1.74,1.74,0,0,1-1,1.08,2.24,2.24,0,0,1-1.79-.4C48.48,65.25,47.21,61,47.84,59.06Z"/><path class="cls-1" d="M176.68,131.27c.75-.67,1.66-.38,2.51-.42s1.79.1,2.26-.91a14.11,14.11,0,0,1,7.18.95c.1.78-.2,1.16-1,1Z"/><path class="cls-1" d="M74.06,83.5l1.28-.63a34.69,34.69,0,0,1,5.09,5.4c0,1.09-.51,1.32-1.44.94A25.13,25.13,0,0,1,74.06,83.5Z"/><path class="cls-1" d="M101.54,105.94a1.65,1.65,0,0,0-1,1,9.28,9.28,0,0,1-3.31-2.48c-.09-.77.21-1.11,1-.94A7.81,7.81,0,0,1,101.54,105.94Z"/><path class="cls-1" d="M187.6,131.89a1.78,1.78,0,0,0,1-1,3.6,3.6,0,0,1,3.28,1.62A4.62,4.62,0,0,1,187.6,131.89Z"/><path class="cls-1" d="M92.39,99.33a6.17,6.17,0,0,1,3.4,2.3,1.19,1.19,0,0,1-.94.9,5.68,5.68,0,0,1-2.45-2.18A.75.75,0,0,1,92.39,99.33Z"/><path class="cls-1" d="M79,89.21a1.49,1.49,0,0,0,1.44-.94,3.71,3.71,0,0,1,1.94,1.88c.41,1.1-.06,1.31-1,1Z"/><path class="cls-1" d="M107.88,120.73c-2.09.09-3.83-.5-4.88-2.47A10.41,10.41,0,0,1,107.88,120.73Z"/><path class="cls-1" d="M94.85,102.53a1.52,1.52,0,0,1,.94-.9,5,5,0,0,1,2.44,1.89,1.71,1.71,0,0,0-1,.94A7.93,7.93,0,0,1,94.85,102.53Z"/><path class="cls-1" d="M91.46,99.73a2.35,2.35,0,0,1-.67-.17c-.68-.5-1.48-.91-1.57-1.89,0-.09.2-.27.31-.28a1.93,1.93,0,0,1,1.93,1.39A.63.63,0,0,1,91.46,99.73Z"/><path class="cls-1" d="M57.91,61l-.92,0a1.73,1.73,0,0,1-.84-2.16A2.15,2.15,0,0,1,57.91,61Z"/><path class="cls-1" d="M81.34,91.16a1,1,0,0,0,1-1c.56.41,1.37,1,.83,1.61S81.89,91.64,81.34,91.16Z"/><path class="cls-1" d="M51.48,51.09c-.18.46-.44.7-.77.61s-.62-.33-.65-.55.31-.54.66-.45A3.89,3.89,0,0,1,51.48,51.09Z"/><path class="cls-1" d="M138.89,123.17c-1-.09-2.06.43-2.89-.51C137,122.81,138,122.51,138.89,123.17Z"/><path class="cls-1" d="M91.46,99.73v-1l.93.55v1C92.09,100.14,91.78,99.93,91.46,99.73Z"/><path class="cls-1" d="M22.51,60.49c.34-.9,1.09-1,1.91-1,0,1.17-.77,1.45-1.69,1.6C22.66,60.9,22.59,60.7,22.51,60.49Z"/><path class="cls-2" d="M47.84,59.06c.07,1.9,1,3.57,1.41,5.4.28,1.43,1.58,1.6,2.52,2.23.61,3.52,2.73,5.92,5.68,7.7-.56,2.74,1.46,4.33,2.79,6.23,1.06,5.39,3.12,10.13,7.5,13.81,3.07,2.57,5.7,5.66,8.84,8.18a3,3,0,0,0,1.16,2.71c6.86,6.31,14.27,11.82,22.84,15.62,2,.89,4.13,1.53,6.19,2.29.53,0,1.09-.08,1.37.55h0a12.78,12.78,0,0,0,9.1,3.75c.2,1.48,1.45,1.82,2.54,2.21,9.58,3.42,19.34,5.83,29.63,5.32a14.38,14.38,0,0,0,2.81.43c5.69-.25,11.21,1.11,16.81,1.74a21.2,21.2,0,0,0,8.06-.14c2.27-.63,4.54-.1,6.78-.5l4.39,3.86c-1,2.4-.71,4.5,1.45,6.15.49,2-1.42,2.32-2.4,3.29-6,3.46-12.71,5.34-19.17,7.78-1.41.18-2.88.05-4.2.75a2.84,2.84,0,0,1-.71.11,42.24,42.24,0,0,1-8.16,1,7.08,7.08,0,0,1-1.12.19c-.8.05-1.6,0-2.39.06a69.56,69.56,0,0,0-18.34.74,28.74,28.74,0,0,0-12.43-1.71,15.33,15.33,0,0,1-2.79-.18c-1.75-.67-3.67-.63-5.44-1.25a6.36,6.36,0,0,0-2.08-1.16,13.15,13.15,0,0,1-1.58-.71c-1.17-.74-2.6-.7-3.84-1.23-.8-.33-1.72-.46-2.12-1.39a102,102,0,0,1-21.56-13.75c-1.25-1.09-3-1-4.28-1.92l-.4-.34a1.76,1.76,0,0,1-1.79-1.79c-2.18-2.89-3.93-6-7.46-7.82-1.92-1-3.17-3.26-4.73-5-1.83-2.18-4-4.16-5.45-6.57A149.78,149.78,0,0,1,42.13,82.12a7.87,7.87,0,0,0-1.48-3.45c-.52-2-1.68-3.92-1-6.27.41-1.35-.67-2.5-1.8-3.34a2.4,2.4,0,0,0-1.52-2.84C37.14,63.8,38,61.4,38.71,59a15.74,15.74,0,0,0-.83-10.45c.65-5.29,4.47-9.46,5.15-14.73a.75.75,0,0,1,.56-.67.36.36,0,0,0,.38.1c3.7.51,4.2,1.54,2.57,5.24l0,1.41c-1.39,2.07-1.14,4.4-1,6.71a13.85,13.85,0,0,1,0,6,3,3,0,0,0,0,1.83.85.85,0,0,0,.51.8C45.9,56.83,45.79,58.48,47.84,59.06Z"/><path class="cls-1" d="M46.54,38.46a3.39,3.39,0,0,1,0-1.18c.92-2.48.6-4.13-2.53-4.06,1-.4,2.39.67,2.94-1.06.17-.53.81-.31,1.19.05s1,1.08.44,1.32c-1.49.61-.49,1.62-.66,2.42S48.53,38.45,46.54,38.46Z"/><path class="cls-1" d="M154.2,159.17,155,159a5.39,5.39,0,0,1,5.14,1.28c-1.83,1.07-3.79.53-5.5,1.11-2.23,1.07-4.71.82-7,.75-4.7-.15-9.42.63-14.09-.21-.48-.54-1.1-1-.48-1.86,4.55-1.45,9.25-1.28,13.92-1.28,1.59,0,3.17.23,4.75.36C152.6,159.15,153.42,161,154.2,159.17Z"/><path class="cls-1" d="M163.29,158.19a.36.36,0,0,1,.33-.13c1.49-.26,3-.62,4.45-.89,6.34-2.63,12.94-4.61,19.12-7.66.64-.3,1.1-.29,1.06.6-.32.93-1.19,1.27-1.92,1.67-4.71,2.54-9.36,5.22-14.63,6.51-.83.2-1.7.26-2.55.39a23.41,23.41,0,0,0-3.48.9h0C164.5,159.77,163.41,159.81,163.29,158.19Z"/><path class="cls-1" d="M133.12,160.11l.48,1.86c-3.42.6-6.61-1.13-10-1-1-.32-2.08.18-3-.5-1.39-.78-1.1-1.53.06-2.25C125,157.76,129.22,157.87,133.12,160.11Z"/><path class="cls-1" d="M163.29,158.19a3.08,3.08,0,0,0,2.38,1.39c-3.6,1-7.18,2.14-11,1.85a9.61,9.61,0,0,1,4.88-.91c-1.32-1.45-2.92-1.45-4.52-1.48a3.92,3.92,0,0,1,.84-.32c2-.24,4.06.64,5.9-.84C162,157.67,162.77,158.07,163.29,158.19Z"/><path class="cls-1" d="M188.25,150.11a1.14,1.14,0,0,0-1.06-.6c.65-1.13,2.36-1.35,2.51-2.91.5.15.15-1.95,1.18-.44a3.14,3.14,0,0,0,1,1c1.73,1,.93,1.48-.35,1.91C190,148.11,189.32,149.74,188.25,150.11Z"/><path class="cls-1" d="M120.67,160l3,1-1,.43c-1.86-.73-4.08,1-5.77-.88.33-1.34,1.38-1,2.28-1C119.62,159.74,120.16,159.8,120.67,160Z"/><path class="cls-1" d="M165.67,159.58a4.28,4.28,0,0,1,3.48-.9A5.78,5.78,0,0,1,165.67,159.58Z"/><path class="cls-1" d="M143.17,168.2h-.48c1.85-1,3.78-.27,5.68,0Z"/><path class="cls-1" d="M102.93,152.89c2,1.15,4.47.87,6.36,2.28-.11,1.05.88.52,1.26.87a1.87,1.87,0,0,1,1.3,1.74.73.73,0,0,1-.4.5,23.19,23.19,0,0,1-7.73-3.57C103.15,154.25,102.27,153.9,102.93,152.89Z"/><path class="cls-1" d="M119.33,160c-.81.24-1.78-.27-2.48.53-1.1-.24-2.28-.3-3-1.38a2,2,0,0,1,1.49-.64C116.79,158.66,118.42,158.35,119.33,160Z"/><path class="cls-1" d="M115.48,159l-1.63.11-2.4-.85.12-.14a1.8,1.8,0,0,1,1.66-.41c.46.1.9.24,1.35.37S115.47,158.43,115.48,159Z"/><path class="cls-1" d="M33.49,57.59l.43-2.42,1.52-3.33c.28-.25.42-.78,1-.48.16,3.74-.11,7.4-2,10.9C32.91,60.77,33.72,59.09,33.49,57.59Z"/><path class="cls-1" d="M36.41,51.36l-1,.48c.19-.76.39-1.51.59-2.27C36.61,50.07,36.39,50.74,36.41,51.36Z"/><path class="cls-1" d="M74.9,135.09l1.79,1.79c-.66,1.13-1.17.26-1.61-.18S73.77,135.75,74.9,135.09Z"/><path class="cls-1" d="M108.14,123.78c-.49-.1-1,0-1.37-.55C107.64,122.4,108.07,122.63,108.14,123.78Z"/><path class="cls-1" d="M60.45,80.62a.85.85,0,0,1,.35-1,.71.71,0,0,1,.42.94C61.05,81,60.71,80.66,60.45,80.62Z"/><path class="cls-1" d="M45.42,54.42a16.37,16.37,0,0,1,0-7.84c.81-.39.29-1.31,1-2.17C46.38,48,46.9,51.29,45.42,54.42Z"/><path class="cls-1" d="M72.74,128c-7-6.15-12.17-13.7-16.24-22-.24-.85-.67-1.81.94-1.44,1.36,2,2.82,4,4.05,6.13,3.43,5.94,8,11,12.28,16.32C74.14,128,73.77,128.36,72.74,128Z"/><path class="cls-1" d="M43.49,59.54c1.72,8.1,3.64,16.17,4.9,24.36.19.83-.19,1.1-1,1A72,72,0,0,1,43.1,67.6c-.19-2-2.06-3.51-1.36-5.67.44-.5.33-1.15.49-1.72S42.67,59,43.49,59.54Z"/><path class="cls-1" d="M47.43,84.88l1-1a9.55,9.55,0,0,1,1.8,3.84,90.08,90.08,0,0,0,7.25,16.79c-1,0-.91.77-.94,1.44C51.64,99.73,49.8,92.19,47.43,84.88Z"/><path class="cls-1" d="M85.62,139.59c-3.2-1.65-5.46-4.39-8-6.85a1.63,1.63,0,0,1,.89-1L86.74,139A.89.89,0,0,1,85.62,139.59Z"/><path class="cls-1" d="M78.55,131.76c0,.58-.26,1-.89,1A19.41,19.41,0,0,1,72.74,128a1,1,0,0,0,1-1A26.38,26.38,0,0,1,78.55,131.76Z"/><path class="cls-1" d="M43.49,59.54c-1.59.06-.19,2.31-1.75,2.39q0-3.12,0-6.23c.28-.56.57-1.06,1.26-.46Z"/><path class="cls-1" d="M115.48,159l-1-.45c.94-1.62,2.27-.39,3.43-.48l2.77.12c0,.59-1.17,1.17,0,1.76h-1.34A11,11,0,0,0,115.48,159Z"/><path class="cls-1" d="M43,55.24a1.68,1.68,0,0,0-1.26.46c-.82-1.74-.59-3.53-.33-5.62C43,51.67,42.57,53.6,43,55.24Z"/><path class="cls-1" d="M85.62,139.59l1.12-.61a3.45,3.45,0,0,1,2.59,3.21A8.37,8.37,0,0,1,85.62,139.59Z"/><path class="cls-1" d="M117.91,158.09c-1.13.3-2.39-.41-3.43.48a.89.89,0,0,1-1-.39c-.32-.46-.92-.12-1.26-.44-.49-.47-.61-.9.3-1Z"/><path class="cls-1" d="M154.2,159.17c.14.39,1.24.78.17,1.16-.55.19-1.6,1-2-.44-.07-.27-.4-.47-.61-.7Z"/><path class="cls-1" d="M168.07,157.17c-1.48.33-2.75,1.68-4.45.89C164.94,156.92,166.52,157.12,168.07,157.17Z"/><path class="cls-1" d="M112.48,156.75c-1,1.34,1.11.63,1,1.43l-1.87,0c.1-.84-.71-1.23-1-1.9q-.26-.12-.18-.27c.06-.09.12-.14.17-.14C111.34,155.9,112.13,155.87,112.48,156.75Z"/><path class="cls-1" d="M110.6,155.83c0,.14,0,.28,0,.41a4.35,4.35,0,0,1-1.6-.18c-1-.55-.26-.72.28-.89Z"/><path class="cls-1" d="M95.32,146.62c.4.39,1.43.34,1.11,1.18-.2.51-.8.25-1.14-.16A.71.71,0,0,1,95.32,146.62Z"/><path class="cls-1" d="M94.3,147.16c-.45-.45-1.55-.66-.93-1.53.37-.53.75.14,1,.55A.67.67,0,0,1,94.3,147.16Z"/><path class="cls-1" d="M94.3,147.16l0-1,1,.44,0,1Z"/></g></g></svg>