<svg xmlns="http://www.w3.org/2000/svg" viewBox="0 0 210.57 175.76"><defs><style>.cls-1{fill:#ee8886;}.cls-2{fill:#1d1d1b;}.cls-3{fill:#ed8987;}.cls-4{fill:#eb8785;}.cls-5{fill:#ec8987;}.cls-6{fill:#e27f79;}.cls-7{fill:#df7d76;}.cls-8{fill:#ec8785;}.cls-9{fill:#d07771;}.cls-10{fill:#ed8886;}.cls-11{fill:#d77974;}</style></defs><g id="Capa_2" data-name="Capa 2"><g id="Capa_1-2" data-name="Capa 1"><path class="cls-1" d="M97.45,173.22c-7.94.77-15.59-.78-23-3.46C61,164.87,47.55,160,35.25,152.44c-9-5.5-17.55-11.65-23.61-20.55-5.87-8.59-8.85-18.28-10.37-28.46A85.62,85.62,0,0,1,.32,82c1-9.43,4.09-18,11-24.78.8,1-.08,1.72-.45,2.5a21.16,21.16,0,0,0-1.05,2.56,51.22,51.22,0,0,0-4.06,18C5.45,87.22,5.8,94,8.47,100.51c1.43,3.48,1.68,7.28,2.37,10.95a17.6,17.6,0,0,0,2.85,7.25c5.09,7.05,10.53,13.69,18,18.57,4.38,2.86,8.93,5.55,13,8.95,1.24,1,2.84,1.43,4.16,2.33,4.28,3.85,9.91,4.77,15,6.81,1.38.55,2.89.82,4.31,1.3a67.1,67.1,0,0,0,13.27,2.19,4.45,4.45,0,0,1,3,2.88A18,18,0,0,0,96,172C96.6,172.15,97.48,172.21,97.45,173.22Z"/><path class="cls-1" d="M94.45,19.68c5.77-.35,11.49-1.21,17.3-1.08C129,19,142.7,26,152.69,40.08c.55.77.89,1.72,1.84,2.13,1.36.74,1.15,2.2,1.54,3.38.68,3.7.85,7.47,1.64,11.15a1.83,1.83,0,0,1-.28,1.57c-.47.38-1,.18-1.42,0a20.43,20.43,0,0,1-3.17-2.13,31.92,31.92,0,0,1-3.78-6,7.39,7.39,0,0,0-2-2.61,15.56,15.56,0,0,1-2.41-3.53c-3-6.32-8.92-9.31-14.33-12.89a14.8,14.8,0,0,0-4.7-1.66,8.8,8.8,0,0,0-3.4-.74c-1.6-.12-3.15-.46-3.71-2.29-.34-1.13-1.09-.87-1.86-.62a23.67,23.67,0,0,1-6.88-.06c-2.5-2.08-5.51-2.56-8.63-2.7a29.8,29.8,0,0,0-5.81-.49c-1.33-.08-2.34-.52-1.78-2.19C93.75,20,94,19.68,94.45,19.68Z"/><path class="cls-2" d="M209.57,70.88c-2.17,3.31-4.59,6.45-6.89,9.68-2.42,3.4-5.59,4.68-9.55,4.63h-2c3.13,2.49,4.72,5.53,7,8,1.06,1.2,2.14,2.53,1.94,4.35a10.55,10.55,0,0,1,.43,4.43c0,.53,0,1.26-.69,1.27s-.73-.74-.82-1.25A15.06,15.06,0,0,0,197,96.51c-1.7-1.12-2.6-3.27-4.8-3.75a1.83,1.83,0,0,1-.76-.67c-.52-1.16-1-2.38-2.36-2.76A6.21,6.21,0,0,1,184.49,84a3.76,3.76,0,0,1,4.26-2.68c4.76.61,7.83-2.38,11.15-4.85,1.51-1.12,2.55-2.82,4.19-3.84.4-.15,1.06.16,1.19-.46s-.49-.66-.93-.77c-.76-.18-1.54-.31-2.29-.48.12.49,2.25-.28.82,1.26a3.48,3.48,0,0,1-3.82-.86c-.6-1.19-.16-1.85,1.09-1.89,2.66-.09,5.33-.09,8,0C209,69.47,209.67,69.83,209.57,70.88Z"/><path class="cls-2" d="M97.45,173.22c-2.46-1.14-5.09-1.73-7.37-3.5A18.62,18.62,0,0,1,84,162.34a7,7,0,0,0-2.31-3,1.47,1.47,0,0,1-.76-2c.15-.26.48-.4.5-.75a.83.83,0,0,1-.4.52,1,1,0,0,1-.71-.65,5.54,5.54,0,0,1-.32-3.12,4.16,4.16,0,0,0,.64-2.62c.06-.89-.05-1.94,1.27-2.09a1.23,1.23,0,0,1,.83.55c.57,1-.88,2.69,1.18,3.09,1,1.08,1.29,2.54,1.87,3.84,3.87,8.65,10.86,13.22,19.84,15.18,1.18.25,2.65,0,3.09,1.64a2.4,2.4,0,0,1-2.68,1.43,29,29,0,0,1-5.35-.5C99.53,174.07,98.58,173.16,97.45,173.22Z"/><path class="cls-2" d="M165,49.68c-.12-3.89,1.61-7,4-10,1.35-.61,1.72.41,2.16,1.31a2.77,2.77,0,0,1,0,1.11c-.2.7-.29,1.44-.48,2.15-1.18,3.8-2.33,7.61-2.32,11.65-.1.57-1.78,1.21.09,1.69,3.1,2.63,4.74,5.86,4,10-.18,1-.54,2-1.93,2A26.28,26.28,0,0,0,168.24,68c-1.2-2.36-3.05-4.43-3.34-7.22-.14-1.56.91-3.09.06-4.66a8,8,0,0,1-.18-2.34C164.87,52.4,164.57,51,165,49.68Z"/><path class="cls-2" d="M178.9,66.51c.58-2.21,2.45-3.44,3.89-5,2.44-2.6,5-5,7-8,.54-.82,1.26-2,2.44-1.14,1,.68.61,1.84.23,2.82-.24.59-.48,1.17-.73,1.76-.41.52-1.11.8-1.33,1.5-.51,1.35-1.41,2.49-2,3.77-2.47,3.65-5.74,6.72-7.63,10.8a1.91,1.91,0,0,1-2.62,1c-1.58-.68-1.91-2-1.47-3.53C177.34,69.09,178.45,68,178.9,66.51Z"/><path class="cls-2" d="M182.27,158.49A51.25,51.25,0,0,1,161.66,168a1.39,1.39,0,0,1,.41-1.6c.8-.53,1.84-.37,2.69-.92-.38-.74-2.26-.41-1.48-2,3.53-1.75,6.78-4.06,10.67-5.07,1-.26,1.24-1.34,1.48-2.28a5.17,5.17,0,0,1,3-3.75,2.15,2.15,0,0,1,2.63.42,5.32,5.32,0,0,1,.76,2c0,.94.64,1.72.78,2.64A1.91,1.91,0,0,1,182.27,158.49Z"/><path class="cls-2" d="M61.12,29.17a13.61,13.61,0,0,1-.45-14.8c1.67-2.83,3.23-5.73,4.74-8.64,1.36-2.62,2.16-2.65,4.31,0,.62,1,.13,1.57-.76,2a2.54,2.54,0,0,0-1.51,2.38,8.3,8.3,0,0,1-1.25,2.8,28.76,28.76,0,0,0-3.42,8.32c-.51,2.32-.69,4.51.55,6.65a1.61,1.61,0,0,1-.07.72,1.81,1.81,0,0,1-1.5.88A1,1,0,0,1,61.12,29.17Z"/><path class="cls-2" d="M193.65,115.36a39,39,0,0,1,1.68,18c-.37,3.19-1.11,6.33-1.67,9.49a1,1,0,0,1-.76.83.91.91,0,0,0-.34.3c-.47.65,0,2-1.09,2s-1.31-1.18-1.84-1.92c-.52-2.08.48-3.78,1.32-5.53,1.94-.37.66-1.47.51-2.31a3.31,3.31,0,0,1,0-1.4,16.61,16.61,0,0,0,.24-3.66,2.35,2.35,0,0,1,.45-1.38c1-.28.86.4.82,1,.07-2.61.68-5.31-1.31-7.57a2.77,2.77,0,0,1-.32-1c-.09-.76.37-1.25.75-1.85.64-1-.34-1.12-1-1.31a3.65,3.65,0,0,1-.58-3.4,6.84,6.84,0,0,1,1-1.41c.35-.42.62-1,1.29-.93C193.44,113.83,193.21,114.75,193.65,115.36Z"/><path class="cls-2" d="M149.26,170.43a1.6,1.6,0,0,1-1.64.75c-3.5-.34-6.87.79-10.35.88-3.68.09-7.11,1.77-10.72,2.43l-1.62.28c-4.79,1.22-9.57.66-14.62,0a2.65,2.65,0,0,1,2.68-1.63,34.29,34.29,0,0,1,5.73.13c1.18.12,2.43.24,3.13-1.09a2.22,2.22,0,0,1,1-.66,116.41,116.41,0,0,1,13.69-3,10.92,10.92,0,0,0,3,.31,8.25,8.25,0,0,1,1.11,0,4,4,0,0,1,1.07.27c1.55,1,3.19.47,4.82.28A4.35,4.35,0,0,1,149.26,170.43Z"/><path class="cls-2" d="M189.9,144.08c1.1-.09.8,1.2,1.66,1.62.47-.65.17-1.92,1.34-2.06-.83,4.84-4,8.29-7.11,11.74-1,1.13-1.88,2.62-3.52,3.11l0-1c.59-1.15-.35-1.7-.95-2.37l-.5-1.9c1.62-.56,2.42-2,3.38-3.22C185.87,147.82,187.33,145.41,189.9,144.08Z"/><path class="cls-2" d="M149.26,170.43l-2.92-.5c-1.17-.42-2.84.43-3.47-1.36a.83.83,0,0,1,.5-.87c1.46-.14,2.89-.45,4.34-.65,1,.23,1.74,1.71,3,.72-.61,0-1.25.1-1-.91a6.7,6.7,0,0,1,4.66-1.77c1.7.53,3.38,1.49,5.17.28a3,3,0,0,1,1-.23,2.13,2.13,0,0,1,1,.24,1.34,1.34,0,0,1,.55,1.23l-.49,1.41A33.78,33.78,0,0,1,149.26,170.43Z"/><path class="cls-2" d="M165.57,56c1.16,1.7-.32,3.31-.17,5a2.2,2.2,0,0,1-1.9-1.54c-.85-1.76-2-3.35-2.79-5.14-.38-1.18-.94-2.3-1.33-3.48a29.24,29.24,0,0,1-1.22-5,2.22,2.22,0,0,1-.67,1.58c-1.43.12-1.32-1.27-1.92-2-.34-1.07-.69-2.14-1-3.22.3-1.08-1.44-2.66.51-3.23,1.63-.48,2.18,1.14,2.81,2.3,2.4,4.37,3.66,9.23,5.74,13.74.24.4.63.7.82,1.1C165,57.39,165.19,56,165.57,56Z"/><path class="cls-2" d="M121.92,172.39c.32.43,1.28,1,0,1.26a9.18,9.18,0,0,1-3.69.34,14.63,14.63,0,0,0-7.76.39,43.05,43.05,0,0,0,14.45.39c-3.9,1.47-7.85,1-11.86.48-2.81-.36-5.68-.28-8.53-.43a9.33,9.33,0,0,1-3.84-1c1.79,0,3.58,0,5.37-.1,1,0,2.09,0,2.4-1.32,1.57-1,3.4-1.19,5.16-1.61,1.3-.14,2.6-.06,3.9-.1C119.15,170.87,120.82,170.89,121.92,172.39Z"/><path class="cls-3" d="M23.54,47.72c.15-.93,1-1.17,1.63-1.59a136.24,136.24,0,0,1,19-10.24c.93-.41,1.81-1,2.71-1.43a1,1,0,0,1,.93.51c.31,1.13-.41,1.56-1.29,1.87a14.45,14.45,0,0,0-5.34,2.64,28.25,28.25,0,0,0-4.86,3.93,4.24,4.24,0,0,1-1.56.74c-1.81,1-4.15.51-5.76,2.07C27.21,46.76,25.69,48.41,23.54,47.72Z"/><path class="cls-2" d="M74,12.41a10.86,10.86,0,0,1,2.5,8.8c-.12,1-.08,2-.1,3.05.28.44,0,.63-.35.81-1.13,0-2.35,1.14-3.39-.24-.6-3.7-1.3-7.38-1-11.16A2.09,2.09,0,0,1,74,12.41Z"/><path class="cls-2" d="M37.75,24.34A33.61,33.61,0,0,1,53,30.75c.44.34.75.84,1.35.92a.36.36,0,0,1,.15.36c0,.12-.08.19-.12.19a8.21,8.21,0,0,1-2.76,1,1.78,1.78,0,0,1-.65-.07A27.59,27.59,0,0,0,45.77,30l-1.16-.57c-1.07-.59-2.28-.87-3.37-1.41-1.84-1.13-4-1.46-5.81-2.73C35.32,22.85,36.88,24.44,37.75,24.34Z"/><path class="cls-4" d="M76,24.91l.42-.65,5.32-1.38c1,2.72.57,4.68-1.69,5.95a16.42,16.42,0,0,0-4.18,3.45,2.78,2.78,0,0,1-1,.51,1.32,1.32,0,0,1-1.59-1.16,9.83,9.83,0,0,1,1.19-4.06C75.1,26.73,75.1,25.56,76,24.91Z"/><path class="cls-2" d="M94.45,19.68l-.39.42a1.84,1.84,0,0,1-2.24.18c-.75-.88-.33-1.83-.06-2.7.92-2.93,1.88-5.86,2.83-8.78.34-.61.78-1.15,1.14-1.74a5.39,5.39,0,0,0,.92-2.41,1.3,1.3,0,0,1,.41-.54c1.64-.21,1.48,1.12,1.78,2.06.35,1.1-.51,1.83-.94,2.59C96,12.18,96.06,16.19,94.45,19.68Z"/><path class="cls-2" d="M209.57,70.88a1.67,1.67,0,0,0-1.69-1q-3.76,0-7.53,0c-1.16,0-1.41.42-.85,1.4-1.15,1.48-2.88,1.45-4.48,1.61a20.58,20.58,0,0,1-3.51.25,1.25,1.25,0,0,1-1-1.11,1.28,1.28,0,0,1,.41-1.11c6-3.73,12.53-1.46,18.82-1.78C211.1,69,210.62,70.32,209.57,70.88Z"/><path class="cls-2" d="M173.08,41.14c0,1.39.09,2.78.13,4.16.39.81,0,1.73.34,2.54l.13,1.81a15.1,15.1,0,0,1,0,5.15c-.16,1.15-.64,1.75-1.88,1.39-1.45-1.27-1.53-3.06-1.65-4.77a29,29,0,0,1,.25-6.84,17.21,17.21,0,0,0,.6-2.27c.26-.56.4-1.22,1.09-1.45A1.11,1.11,0,0,1,173.08,41.14Z"/><path class="cls-2" d="M75.52,32.11c1-1.34,1.87-2.86,3.69-3.49,2.82-1,2.87-3.3,2.55-5.74.76-.78.06-2.27,1.37-2.78.65.55.54,1.45,1,2.1.53,1,1.54,1.77,1.14,3.09-1.08.75-1.23,1.94-1.49,3.1-.34,1.53-.5,3.15-1.89,4.21a.84.84,0,0,1-.9-.24,1.77,1.77,0,0,1-.46-.79c-.3-1.72-.9-.86-1.48-.18a6.84,6.84,0,0,1-2.22,1.53C76.22,32.87,75.5,33.08,75.52,32.11Z"/><path class="cls-2" d="M97,4.27v.51c-.43.31-.52.88-.94,1.21a4.07,4.07,0,0,0-1.66,2.3c-1.49,2.3-2.47,5-4.68,6.76-.86,0-1.48-.17-1.34-1.22,1.77-4.36,3.15-9,8.15-11A2.39,2.39,0,0,1,97,4.27Z"/><path class="cls-2" d="M35.74,25.33a12.81,12.81,0,0,1,5.75,2.44.69.69,0,0,1,.14.86c-.94.52-2.05,0-3,.47-2.3-.8-4.81-1.05-6.75-2.7C32,24,33.19,23.71,35.74,25.33Z"/><path class="cls-2" d="M38.63,29.1c.78-1.3,1.8-1,2.84-.4,1-.36,1.6.46,2.42.61.67.33,1.36.64,2,1,1.16,1.1,2.53,2,3.75,3a.81.81,0,0,1,.1.59c-.45.6-1.23.61-1.8,1l-.28.08-.76-.51C44.44,32.24,41.26,31.09,38.63,29.1Z"/><path class="cls-2" d="M197,95.76c2.32,1.83,2,4.67,3,7.12V97.59c1.73,2.77,1.14,6.4-1.56,9.6-1.12.54-1.43-.24-1.72-1,.69-3.17,1.12-6.33,0-9.5A1,1,0,0,1,197,95.76Z"/><path class="cls-2" d="M190.8,71.66a1.27,1.27,0,0,0,.58,1.1c.05.69-.41.72-.91.7-1.27-.64-2.14-1.78-3.27-2.61-.83-2.53,1-4.48,1.47-6.73.41-.67.76-1.46,1.77-1a1.69,1.69,0,0,1,.89,1.75,4.63,4.63,0,0,1-.4,1.8l-.15,2.65C190.48,70.1,190.09,70.88,190.8,71.66Z"/><path class="cls-2" d="M35.74,25.33c-1.4-.07-3.23-1.66-3.86,1.07a8.14,8.14,0,0,1-4-1.14,1,1,0,0,1-.67-1.14c.07-.52.44-1,.92-.93,3.23.22,6.6-.63,9.65,1.15C37.19,24.9,35.61,23.38,35.74,25.33Z"/><path class="cls-2" d="M97,4.27c-.78-.27-.85-.77-.48-1.43L100.38.3a1.24,1.24,0,0,1,1.71.08c.64.6.11,1-.12,1.6-.67,1.7-2.32,2.63-3.13,4.19C97.83,5.92,98.3,4.26,97,4.27Z"/><path class="cls-2" d="M23.54,47.72C25.4,47.24,27,46,29,45.84c.45-.1.65.16.74.55-.46,1.6-2.1,1.79-3.24,2.46-2.12,1.24-3.83,3.27-6.47,3.57a2.61,2.61,0,0,1-1.64-1.32C19.67,49.33,21.92,49,23.54,47.72Z"/><path class="cls-2" d="M9.43,62.21c-.32-2,2-3,1.85-5L13.67,55c1.07-.6,2.28-1.94,2.82.5C16,57.71,14.36,59.24,13,60.9c-.79-.31-1.62-1-2,.49C10.75,62,10.37,62.75,9.43,62.21Z"/><path class="cls-2" d="M173.08,41.14l-1,0c-.45-.27-.82.35-1.26.11-.41-.74-.87-1.42-1.83-1.47.27-1.83,1.77-3,2.4-4.65.22-.56.76-.49,1.22-.44.66.08.56.65.56,1.09C173.14,37.53,173.1,39.34,173.08,41.14Z"/><path class="cls-2" d="M171.81,56c2,0,1.43-1.79,1.73-2.79a14.25,14.25,0,0,0,.14-3.53c.73,3.47.46,7,.48,10.5.49,1.45.74,2.76-1.5,2.7C170.77,60.52,170.51,58.35,171.81,56Z"/><path class="cls-2" d="M197,106.07a1.6,1.6,0,0,0,1.45,1.12,13,13,0,0,1-3,4.18,6.08,6.08,0,0,0-1.77,4c-.83-.4-.86-1.16-.89-1.93a1.94,1.94,0,0,1-.46-1.71,2.22,2.22,0,0,1,.23-.67,35.48,35.48,0,0,0,2.51-3.43C195.52,106.92,196,106.12,197,106.07Z"/><path class="cls-2" d="M178.9,66.51c-.2,1.53-.34,3.08-2,3.85-2.92-.44-4-2-3.66-5.29.41-.72.41-2,1.8-1.42a9.3,9.3,0,0,0,1.15,2.79C177.19,68.46,178,67.81,178.9,66.51Z"/><path class="cls-2" d="M66.86,10c.13-1.42.16-2.88,2.2-2.95.76,0,.58-.8.66-1.32.5.79,1.32,1.39,1.43,2.41.38,1.13-.63,1.74-1,2.6-.65,1.66.35,3.63-1,5.17-1.14.24-1.35-.57-1.49-1.38a14.32,14.32,0,0,1-.07-2.36C67.37,11.45,68.29,10.3,66.86,10Z"/><path class="cls-2" d="M88.4,13.83a1.42,1.42,0,0,0,1.34.95c.38,2.38-1.33,4.14-1.83,6.26-.36.69-.33,1.6-1.16,2-.63,0-1-.52-1.44-.84-.57-.64-1.55-1-1.2-2.19,1.75.79,2-.59,2.32-1.69C86.9,16.75,87.19,15.1,88.4,13.83Z"/><path class="cls-2" d="M190.93,66.66c0-.55-.05-1.1-.06-1.65s0-1.38-.7-1.59c-.93-.27-.57,1-1.14,1.18-1-.72-.46-2-1-2.9.45-1.36,1.79-2.27,1.93-3.79,1.91.11.92,2.09,1.82,2.86C191.46,62.73,192.65,64.89,190.93,66.66Z"/><path class="cls-5" d="M54.41,32.05a1.24,1.24,0,0,1-.09-.38l6.8-2.5.39,0c1.34,1.41,1.29,2.14-.22,3a11.78,11.78,0,0,1-2.17.81C57.45,33.17,55.73,33.59,54.41,32.05Z"/><path class="cls-2" d="M16.16,55.6c-.36-2.09-1.64-.51-2.49-.62,1.37-1.53,2.59-3.24,4.7-3.88A1.82,1.82,0,0,1,20,52.23C19.43,54.17,17.89,55,16.16,55.6Z"/><path class="cls-2" d="M69.74,10c.49-.61,1.19-1.06,1.41-1.88A10.5,10.5,0,0,1,74,12.41c-.66.26-1.07,1-1.9,1C70.57,12.81,70.31,11.3,69.74,10Z"/><path class="cls-2" d="M175,63.65c-1-.07-.79,1.05-1.34,1.44-1.21-.43-1.78-1.14-1-2.41,1.69-.14,1.37-1.47,1.48-2.53C175.45,61.06,175.18,62.37,175,63.65Z"/><path class="cls-2" d="M191.74,60.77c-.55.26-.9.19-.88-.53a2.72,2.72,0,0,0-.94-2.33,1.59,1.59,0,0,1,1.81-1C191.74,58.21,191.74,59.49,191.74,60.77Z"/><path class="cls-2" d="M165.57,56l-.13,2.29A4.76,4.76,0,0,1,163.59,55c1.46.82.63-.71,1-1,.19-.12.31-.08.37.15A2.3,2.3,0,0,0,165.57,56Z"/><path class="cls-2" d="M84.11,20,85.56,22c-.53.67-1.25.56-2,.52-.77-.68-.34-1.59-.47-2.38Z"/><path class="cls-2" d="M165,54.17l-.37-.15c.06-1.45-.3-2.94.38-4.34C165,51.17,165,52.67,165,54.17Z"/><path class="cls-2" d="M190.8,71.66c-1.91-.77-.7-1.56,0-2.35,0,.53.07,1.06.1,1.59Z"/><path class="cls-2" d="M173.55,47.84c-.67-.77-.36-1.67-.34-2.54A3.73,3.73,0,0,1,173.55,47.84Z"/><path class="cls-2" d="M9.43,62.21c.87,0,.84-.78,1.14-1.31s.09-1.69,1-1.7.82,1.06,1.22,1.61a.45.45,0,0,1,.05.51c-.37.38-.25.85-.21,1.31a6.13,6.13,0,0,1-1.08,3c-.22.23.09,0-.15.16-1.17.93-1.73,1.85-.05,2.82.51,2.16,0,4.28-.26,6.39a57.3,57.3,0,0,0,.81,19.63c-.2,1.76-1,3.51-.13,5.3.35.77.14,2.14,1.71,1.56,1.51,3.13,1.72,6.56,2.27,9.92a3.31,3.31,0,0,1-.06.7,2.29,2.29,0,0,1-.22.62c-.83.55-.3,1.12,0,1.69.68,1.54,1,3.37,3.16,3.61,1.78,1,2.68,2.89,4.06,4.3a129,129,0,0,0,14.94,13.58,5.82,5.82,0,0,1,1.62,1.73c.37,1.38,1.87,1.09,2.7,1.79a3.35,3.35,0,0,1,.49.43,31.62,31.62,0,0,0,3,2.47,1.59,1.59,0,0,1,.59,1.07c-.12.89.59.8,1.12.92a1.57,1.57,0,0,1,.55.37,35.47,35.47,0,0,0,3.07,2.55c.72.65,1.61,1.34.95,2.36s-1.47-.25-2.23-.31a1.66,1.66,0,0,1-.83-.43c-4-1-6.62-4.12-9.91-6.22-3.91-2.5-7.83-5-11.55-7.77a40.29,40.29,0,0,1-6-5.71c-2.45-2.78-4.61-5.81-7-8.64-2.95-3.5-3.88-7.76-4.56-12A51.71,51.71,0,0,0,7.09,98.34C4.44,91.26,4.72,84,5.35,76.63a46.73,46.73,0,0,1,3.19-13A8.6,8.6,0,0,1,9.43,62.21Z"/><path class="cls-2" d="M48.6,148.89a1.54,1.54,0,0,0,.48,0c.88-.3,1.67,1.42,2.24.48.69-1.16-1.09-1.26-1.48-2-.62-1.18-2.67-.92-2.62-2.7,2-.49,3.05,1.19,4.5,1.95a6.71,6.71,0,0,1,2.69,1.82c.87,1.24,2,.33,3,.07,3.33.47,6.3,2,9.39,3.18,1.21.61,2.24,1.55,3.6,1.87a2.54,2.54,0,0,1,1.36,1c.84,2.45,2.33.83,3.61.58,1.69.16,3.55,0,4.1,2.22-.62,1.34-1.78,1.39-3,1.21-2.94-.45-5.86-1-8.79-1.44a91.39,91.39,0,0,1-15.34-5.35A9.32,9.32,0,0,1,48.6,148.89Z"/><path class="cls-2" d="M67.71,157.07c3.16-.72,6.05,1.22,9.17.92,1-.09,2,.1,2.45-1,.33-.6.75-.91,1.41-.44l.49.49h0a3.64,3.64,0,0,0,.48,2.35A44.05,44.05,0,0,1,67.71,157.07Z"/><path class="cls-2" d="M117.12,25.3c.79-1,1.81-1.37,1.81.29,0,2.27,1.44,2.34,3,2.48s2.87-.09,4,1c-1.5,1.35-3.67.23-5.21,1.42a40.22,40.22,0,0,1-7.32,3.4c-5.36,1.78-10.64,1.28-15.87-.5-.67-.23-1.37-.47-1.64-1.25.29-2.49,2.67-1.08,4.29-2.16-1.26.33-1.75.12-2.08-.57,2-1.26,4.18-1.35,6.39-1.43a42.55,42.55,0,0,0,6.38-.31c1.15-.15,2.3.6,3.46,0C115.67,27.42,116.05,26,117.12,25.3Z"/><path class="cls-2" d="M120.42,30.27c1.45-2.15,3.69-.62,5.48-1.16a10.81,10.81,0,0,1,2.52.62c6.32,3.35,12.67,6.69,16.24,13.38.79,1.47,2.17,2.57,2.66,4.22.08,1.28-.78,1.4-1.73,1.44-2-.59-2.86-2.36-3.82-4A3,3,0,0,0,140.22,42a7.85,7.85,0,0,0-4.62-3.15,8.3,8.3,0,0,1-1.61-.56,44.26,44.26,0,0,0-12.13-5.94C121,32.06,120,31.58,120.42,30.27Z"/><path class="cls-2" d="M153.09,56c1.16.34,1.9,1.3,2.88,1.91-.5.64-1.31.77-1.94,1.2-1.37.35-2.5-.79-3.87-.57.31.41.79.77.67,1.41A1.46,1.46,0,0,1,149,61.05c-.83-1.33-2.3-1.46-3.61-1.9a7.93,7.93,0,0,1-1.79-1.53c-1.08-1.17-1.47-2.42-.36-3.79A2.58,2.58,0,0,1,147,53.3c.41.25.79.52,1.17.8C149.43,55.65,151.56,55,153.09,56Z"/><path class="cls-2" d="M155.57,45.43c1.12.16,1,1.49,1.78,1.94,1.37,1.09,1.6,2.79,2.28,4.25a22.48,22.48,0,0,0,1,2.62c.27,1.94,2,3.58,1.19,5.73-2.29,1.39-4.1.79-4.94-1.64.8-.32.4-.9.28-1.39A84.09,84.09,0,0,1,155.57,45.43Z"/><path class="cls-2" d="M101.33,22.47c2.88.57,6.19-.15,8.27,2.78-.57.56-.22,1.67-1.2,2-3.77.3-7.39-.58-11-1.41A1.94,1.94,0,0,1,96,24.68c.43-1.67,1.84-1.71,3.14-1.84C99.85,22.76,100.65,23.05,101.33,22.47Z"/><path class="cls-2" d="M153.09,56c-1.92,0-4,.45-5.38-1.45-1.16-1.92-2.91-3.62-2.31-6.19.82,0,1.57-.1,1.92-1,1.86.38,1.77,2.23,2.56,3.41C151,52.44,152,54.22,153.09,56Z"/><path class="cls-2" d="M156.89,58.33c1.32,1.52,2.77,2.56,4.87,1.43,1.79,1,3,2.32,2.73,4.52a2.34,2.34,0,0,1-1.75.32,7.25,7.25,0,0,1-2.53-1.15,10.55,10.55,0,0,0-3-1.92c-1.06-.92-2.6-1.29-3.2-2.74.2-1.27,1.23-.75,1.95-.92C156.34,57.9,156.71,57.91,156.89,58.33Z"/><path class="cls-2" d="M101.33,22.47a1.67,1.67,0,0,1-2,1,5.63,5.63,0,0,0-3.34,1c-1.28.92-2.73.68-4.16.61-1.28-1.33,0-2.87-.35-4.28a.93.93,0,0,1,.3-.66l2.24,0c-.74,1.76.07,2.19,1.68,2A18.12,18.12,0,0,1,101.33,22.47Z"/><path class="cls-2" d="M109,26.62c-.15-.32-.82-.32-.62-.8s.75-.48,1.2-.57l7.52.05c-.55,1.16-.91,2.48-2.35,2.92a11.89,11.89,0,0,0-3.5-.49C110.34,27.72,109.45,27.65,109,26.62Z"/><path class="cls-2" d="M190.41,101.92a9.29,9.29,0,0,1-.15-6.24c.86-.62,0-1.68.6-2.37-.13-.76.37-1.16.87-1.57l.7.71c-.07.93-.15,1.87-.22,2.81-.37.79.08,1.7-.35,2.48a27.07,27.07,0,0,0,1,8,1,1,0,0,1-1,.23C190.25,105,190.93,103.26,190.41,101.92Z"/><path class="cls-2" d="M204.36,72.76c0-.66-.8-.5-1.05-.91-.38-.82-1.29-.33-2.26-1h4.14c.49,0,1,.11,1.15.62s-.32,1.16-.74,1.65C204.94,73.85,204.74,73,204.36,72.76Z"/><path class="cls-1" d="M113.28,171.35c-1.62.28-3,1.56-4.8,1.07-3.79-.89-7.52-1.48-11.16-3.4a27,27,0,0,1-13.11-15.26c-.19-.52-.44-1-.67-1.51-1-.69-.71-1.82-.93-2.77l-.49-.61a44.86,44.86,0,0,1-1.51-8.76,9.93,9.93,0,0,1,1-3.28c1.11-1.77,2-3.56.49-5.57-1.78-2.72-1.81-3.33-.3-5.16a2.91,2.91,0,0,0,2-1.94c.64-1.24.55-2.27-.86-2.87-2-.84-2.55-2.36-2.17-4.36.86-2.6.69-5.31.85-8a18.43,18.43,0,0,1,1.16-3.55,4.47,4.47,0,0,1,2-1.54,6.84,6.84,0,0,0,1.77-1.13c1.55-1.53,1.28-3.43-.67-4.36C85,98,84,97.82,83.67,96.75c0-9.36,3.45-17.38,9.63-24.34q3.33-3.75,6.69-7.49c3.72-4.14,8.79-5.45,14.05-5.67,4.91-.2,9.9-.66,14.76.71a2.78,2.78,0,0,0,.95.11c6.36-.35,12.51,1.1,18.71,2.14a13.73,13.73,0,0,0,3.95.89,4.65,4.65,0,0,1,.72.16c3.39,1.31,6.91,2.29,10.15,4a2.59,2.59,0,0,1,.8,1.31c0,1.93.59,3.84.3,5.8-.44.72-1.06.4-1.64.27-1.17-.43-2.34-1-3.57-.08.37.69,1,.32,1.49.43,1.33,0,2.68,0,3.67,1.13a3.16,3.16,0,0,1,.31.81c.3,13.89.62,27.78-1.92,41.54a3.13,3.13,0,0,1-.48,1.09,22,22,0,0,0-3.12,3.74,89.25,89.25,0,0,1-8.38,12,21.42,21.42,0,0,1-4.41,2,15.9,15.9,0,0,0-4.18,1.43c-1.46.69-3.09,1-4.43,1.95-6.61,2.72-13.29,5.28-20,7.79-2,.59-4,1.43-6.06,1.92a13,13,0,0,1-7-1,4.35,4.35,0,0,1-2.24-1.6c-.47-1.82-1-3.62-1.3-5.48a72.3,72.3,0,0,1,0-7.65,63.23,63.23,0,0,0,1.9-16,6.1,6.1,0,0,1,1.44-4c3.23-2.83,4.93-6.78,7.4-10.15a16.68,16.68,0,0,1,3.92-3.81,17.79,17.79,0,0,0,4-2.94c3.6-2.2,6-5.61,8.66-8.72,5.77-4.52,11.75-8.64,19.08-10.27,1.22-.36,2.45-.65,3.68-1a3.67,3.67,0,0,0,1.93-.88c-1.08-.23-1.77.48-2.61.57a31.2,31.2,0,0,0-3.69.95c-8.08.66-15,3.48-19.74,10.48-2.35,2.94-4.7,5.89-7.83,8.08a37.38,37.38,0,0,1-4.94,2.87c-4.35,1.9-6.6,5.64-8.49,9.7-3.66,8-7,16-5.32,25.14.12,2.45.11,4.9,0,7.34-.46,2.25-.86,4.48,1.12,6.29.91.87,2.19.72,3.25,1.18a17.9,17.9,0,0,0,9.17.81,29,29,0,0,0,5.9-1.88,58.81,58.81,0,0,0,18.77-7.23,29.62,29.62,0,0,0,4.67-2.44c1.56-.45,3.16-.75,4.69-1.32a7,7,0,0,0,3.84-1.88c3.22-2.12,4.85-5.49,6.74-8.65.41-.67.41-1.79,1.67-1.55a2.48,2.48,0,0,1,.11,2.28A43.19,43.19,0,0,1,147.67,149c-.37.28-.76.51-1.12.8a73.26,73.26,0,0,1-9.68,7.33c-.78.49-1.49,1.26-2.58.88-.54-1.37.61-2.1,1.15-3.05,1.16-1,1.91-2.41,3.05-3.45.13-.21.53-.22.42-.56,0,0-.4.15-.59.27a12.72,12.72,0,0,0-3.92,3.06c-2.53,2.76-5.48,3.66-9,2a10.69,10.69,0,0,0-4.92-.53c-2.42.24-3.93,2.26-6,3.12-2.28,1.32-4.91,1.85-7.18,3.19a9.52,9.52,0,0,1-.94.34,13,13,0,0,0-1.55.54,7,7,0,0,0,2.28-.57,8.16,8.16,0,0,1,1-.26c2.89-.51,5.11-2.41,7.63-3.7,1.56-.65,3-1.48,4.81-1.47,3,.89,5.62,2.64,8.34,4.14a1.45,1.45,0,0,1-.84,1.56c-4.41,2.49-8.2,5.93-12.8,8.12A9,9,0,0,0,113.28,171.35Z"/><path class="cls-1" d="M145.4,48.32l2.31,6.19a14.18,14.18,0,0,0-1.52-1c-1.21-.68-2.12-.06-2.84.85a1.76,1.76,0,0,0,.21,2.54c.71.72,1.49,1.38,2.24,2.06.11.72-.46.77-.92.93-1.87.26-3-.8-3.86-2.24A7.35,7.35,0,0,0,138.94,55c-2.1-1.4-3.72-.88-4.51,1.49-.53,1.57-1.34,2.39-3,1.22-.51-1.24-1-2.5-2.7-1.31-1.69.48-2.66-.64-3.9-2.07-.11,3.29-2.17,3.41-4.32,3.21-4.19-.38-8.22.73-12.32,1.24A17.4,17.4,0,0,0,100,62.43c-2,.13-2.17-1.29-2.33-2.73.22-1.24,1.41-1.54,2.57-2.22a2,2,0,0,0-2.81.93,5.5,5.5,0,0,0,.23,3.47,4,4,0,0,1,.14,2.76,30.18,30.18,0,0,1-4.22,4.53C87.06,75.82,83,83.58,82.26,93c-.26,3.09-.15,6.2-.68,9.26-.89,5-1.21,10-1.65,15.07-1.54,10-2.15,19.89.39,29.78a12.84,12.84,0,0,1,0,6.07l.44,3.34-1.41.44a8.1,8.1,0,0,0-4.21-1.47c-1.22,0-2.57.46-3.48-.84l-1.25-.6c-.89-.63-.18-1.25.07-1.81.83-1.86.06-3.44-1-4.82s-1-.09-1.09.6a1.68,1.68,0,0,1-.7,1.43c-.78,0-2-.39-1,1.18.19.5.53,1,.11,1.53l-9.47-3.31a.94.94,0,0,1-.66-1,4.83,4.83,0,0,1,.26-.92,5.8,5.8,0,0,0-.1-4c-.22-.38-.52-1.17-.78-1-.67.55.18,1.19.23,1.82a2.05,2.05,0,0,1-.24,1.69,1.27,1.27,0,0,1-1.61-.09c-.59-.34-.7-1.13-1.34-1.46-.11.52.26.88.33,1.33a2.46,2.46,0,0,1,0,1.08,1.16,1.16,0,0,1-1.87.59l-4.28-2.33-.42-.22a.8.8,0,0,1-.82-.88l-.77-.9a2.5,2.5,0,0,1-.27-.63,6.29,6.29,0,0,1,2.79-4.49,13.15,13.15,0,0,1,1.63-1c.81-.51,1.2-1.5,2.13-1.89a5.79,5.79,0,0,1,.93-.25c2.13-1.2,2.22-1.58,1.09-4.28-.18-.38-.34-.76-.53-1.13-.85-1.18-1,.19-1.42.42-1.16.52-1.32,1.7-1.77,2.69-.42.35-.81.14-1.19-.08-.65-.47-1.24-1.23-2.15-.44s-2,1.15-1.94,2.57c-.08,1.18.21,2.42-.63,3.45a2.21,2.21,0,0,1-2.36.43c-.79-.52-1.64,0-2.46-.11-7.52-5.84-14.7-12-20.6-19.58a.93.93,0,0,1,.12-1.27c1.91-1.1,2.77-2.6,1.8-4.78-.21-.24-.41-.82-.71-.13s0,1.69-.66,2.35c-.69.14-1-.28-1.32-.8-.34-.88,0-1.86-.31-2.71s-.61-.08-.89.14c-.34.39-.55,1-1.24.86l-2.06-10.4c-.5-.54-1.08-1.07-.19-1.75,4.23-.55,6.05-3.08,4.69-6.54a.6.6,0,0,0-.54-.43c-.72.5-.37,1.47-.85,2.09-1.36,1.51-2,1-2.2-.78a5,5,0,0,1,0-.67c0-.3.12-.6.14-.9s.3-.62-.19-.65c-.2,0-.32.29-.44.48a27,27,0,0,0-1,2.54,1.27,1.27,0,0,1-.42.47.7.7,0,0,1-.85-.2,55.51,55.51,0,0,1-.72-22.49A34.27,34.27,0,0,0,10.76,68c-.71-1-.08-1.7.49-2.42l1.15-3.31a1,1,0,0,1,.3-1,.52.52,0,0,0,.08-.42c1.13-1.73,2.25-3.47,3.38-5.21L20,52.23l9.63-5.73c1.07,0,1.56.81,2.07,1.56a1.09,1.09,0,0,1-.29,1c-2.37,1.7-4.41,3.79-6.75,5.6,2.46-.2,4.72-1.06,7.15-1.33,5.27-.6,10.54-1.13,15.84-1.5a16.83,16.83,0,0,0,7.42-2.37c.55-.26,1.09-.55,1.63-.83,2.49-1.12,3.3-.74,3.6,1.86a23.1,23.1,0,0,0,1.6,5.61,11.33,11.33,0,0,0,4.77,5.78c4.4,2.89,8.79,5.78,13.29,8.51,1.32.87,1.84,0,2.33-1s.61-2.36,1.83-3c1.25.2,1.11,1.8,2.2,2.16,1.28.55,2.54,1.14,3.42-.6s.49-3.18-1.22-4.42c-.52,1.36.79,3.29-1.27,4.12-2.12-.87-2.79-2.59-2.73-4.72a46.35,46.35,0,0,0,1.37-9.4,26.62,26.62,0,0,0-1.26-8.18,10.12,10.12,0,0,0-.76-3c-1.29-2.3-.84-4.44.51-6.52a4.67,4.67,0,0,1,.38-.6A19.47,19.47,0,0,0,86,33.11a2.73,2.73,0,0,1,.9-.72c3-1.13,6.1-1.61,9.24-.41,7.45,3.64,14.76,3,22-.72.75-.39,1.36-1.13,2.33-1,.17,1.07,1.08,1.35,1.89,1.56a36.16,36.16,0,0,1,12,6c.47.89.13,1.85.21,2.78a4,4,0,0,0,5.28,3.67c.77-.23,1.62-.91,2.22.28C143.12,45.81,143.89,47.4,145.4,48.32Z"/><path class="cls-2" d="M80.3,153.18c-2-11.37-3.39-22.77-1.39-34.31a13.26,13.26,0,0,1,.47-1.6.74.74,0,0,1,1.12.14,20,20,0,0,1,.43,5.46c.35,2.64-.87,5.37.45,8a2.76,2.76,0,0,1-.08,1.56c-.72,2.46-.3,4.94-.13,7.42.16,3,1.4,6,1,9.06-1.67.63-.55,2.07-.9,3.08C81.05,152.46,81.77,153.64,80.3,153.18Z"/><path class="cls-2" d="M82.61,149.48c.84.74.76,1.8.93,2.77-.44.33-1,1.21-1.26,0A3.39,3.39,0,0,1,82.61,149.48Z"/><path class="cls-2" d="M81.23,157c.08-.67-.21-1.38.37-2.25.8,1,.64,1.69-.38,2.25Z"/><path class="cls-2" d="M103.31,173.27c1.21-.7,2-.37,3.24-.44C105.34,173.53,104.53,173.2,103.31,173.27Z"/><path class="cls-2" d="M170.31,69.25v.55c-1.79.58-2.08-.43-2-1.87l0,0C169.32,67.9,170.39,67.68,170.31,69.25Z"/><path class="cls-2" d="M167.8,56.44l.21,1.4c-.88.09-1.71,0-1.49-1.17C166.7,55.73,167.32,56.27,167.8,56.44Z"/><path class="cls-2" d="M170.83,44l-.58,0c.34-.61-.42-1.46.43-2a.41.41,0,0,1,.59.05C171.24,42.77,171.4,43.48,170.83,44Z"/><path class="cls-2" d="M162.15,166.61a1.17,1.17,0,0,1-.53-1c-.12-1.13.16-1.95,1.52-1.9h0c.53,1.57,2.13.62,3.19,1.36C165.23,166.5,163.72,166.62,162.15,166.61Z"/><path class="cls-2" d="M181.3,155.12c1.35.37,3,.62.95,2.37C181.81,156.75,181.11,156.11,181.3,155.12Z"/><path class="cls-2" d="M59.11,32.48a16.84,16.84,0,0,1,1.73-.69c1.67-.5,1.63-1.4.67-2.57l1.63-.57c2.28-.16,3,2,4.55,3a1.66,1.66,0,0,1,0,2.16,1.91,1.91,0,0,1-2.38.4c-1.76-.88-3.63-.83-5.51-.88A1.22,1.22,0,0,1,59.11,32.48Z"/><path class="cls-6" d="M67.15,31.63c-1.78-.4-2.23-2.58-4-3a.46.46,0,0,1,0-.38,18.45,18.45,0,0,0,4.13-1.13.7.7,0,0,1,.63,0,3.76,3.76,0,0,1,1,2.07c.24.85.7,1.17,1.55.8a1.61,1.61,0,0,1,1,2c-.48.7-.65,1.56-1.16,2.24-1.35.88-2.25.9-2.21-1.08A1.56,1.56,0,0,0,67.15,31.63Z"/><path class="cls-2" d="M191,115.36c-.17-2-1.3-3.56-2-5.3a49,49,0,0,1-2.85-8.33c-.32-1.52-1.24-1.74-2.09-.57-1.71,2.35-4.37,3.7-6,6.06a11.53,11.53,0,0,1-1.69-1.25c.06-1.74,1.62-2.41,2.55-3.52a11,11,0,0,1,1.78-1.55c2.56-2,4.34-4.33,3-7.84.12-1,.06-2.12,1.53-2.12a12.32,12.32,0,0,1,2.21,5c.81,3,1.76,5.86,2.65,8.78a2,2,0,0,1,.59,1c.4,1.63.89.33,1.36,0l1,0c1.11,1.82-.46,3.56-.14,5.36l-.05.48c-1.29.62-.25,2-.89,2.81C191.81,115,191.58,115.33,191,115.36Z"/><path class="cls-2" d="M192.37,129.73a38.76,38.76,0,0,0-.49-6.72c2.37,1.55,1.85,3.95,1.76,6.2a8.85,8.85,0,0,1-.56,2Z"/><path class="cls-2" d="M191.75,122.24a5.16,5.16,0,0,1-.32-3.08c.54-.11.18-1.37.92-.94s.58,1.48.34,2.14S191.65,121.39,191.75,122.24Z"/><path class="cls-2" d="M191.83,114.39a13.47,13.47,0,0,1-.46-2.29c0-1.22.64-1,1.35-.52,0,.62,0,1.24,0,1.85Z"/><path class="cls-2" d="M191.4,138.35c0-.68-.2-1.38.34-1.95,1.42.5.87,1.54.47,2.31C191.94,139.24,191.75,138.35,191.4,138.35Z"/><path class="cls-2" d="M191.93,135c.13-1.31-.31-2.66.33-3.93C192.23,132.37,192.74,133.73,191.93,135Z"/><path class="cls-2" d="M141.53,169.44a1.61,1.61,0,0,1,1.44-1c.85,1.12,2.38.66,3.37,1.46C144.7,170.17,143,171.31,141.53,169.44Z"/><path class="cls-2" d="M147.66,167.48a2.73,2.73,0,0,1,2.05-.33l1.6.68C149.9,168.8,148.72,168.8,147.66,167.48Z"/><path class="cls-2" d="M114.82,170.51c.77.82,2-.11,2.76.77l-4.3.07A2.65,2.65,0,0,1,114.82,170.51Z"/><path class="cls-2" d="M31.29,48.72l.08-.87c1-1.52,1.92-3.14,3.51-4.18l1.23-.7c1.58-.08,1.92,1,2.07,2.24,0,1.9-1.4,3.06-2.51,4.37a1.75,1.75,0,0,1-1.29.56,7.74,7.74,0,0,1-2.05-.53A1.8,1.8,0,0,1,31.29,48.72Z"/><path class="cls-2" d="M37.69,45.51A2.5,2.5,0,0,0,36.11,43,14.6,14.6,0,0,1,41,39.21c1.22-.54,1.3.41,1.52,1.17C42.5,43.58,39.77,44.24,37.69,45.51Z"/><path class="cls-2" d="M42,40.77c-.06-.71,0-1.49-1-1.56a8.33,8.33,0,0,1,5.28-2.77c.33,1,1.77.57,2,1.65C46.3,39.22,44.76,41.37,42,40.77Z"/><path class="cls-2" d="M34.88,43.67c-1.08,1.47-1.64,3.37-3.51,4.18-.95,0-1.24-.8-1.76-1.35L29,45.84c.08-.7.48-1.29,1.16-1.23C31.84,44.77,33.26,43.77,34.88,43.67Z"/><path class="cls-2" d="M48.12,37.77c-.6-.47-2.72,1.19-1.85-1.33.71-.26,1.39-.54,1.41-1.47l.07-.18c1.52.26,1.5,1.32,1.29,2.48C48.85,37.64,48.64,38,48.12,37.77Z"/><path class="cls-2" d="M76,24.91a4,4,0,0,1-1.08,2.79c-.67.56-1.17.13-1.67-.28a1.62,1.62,0,0,1-.26-2.1l.11,0C74.09,25.14,74.93,24.06,76,24.91Z"/><path class="cls-7" d="M49.61,34a1.78,1.78,0,0,0-.07-.39,1.23,1.23,0,0,1,1.55-.63,2.57,2.57,0,0,0,.48,0c1.89.2,3.27,1.41,4.71,2.45a57.12,57.12,0,0,0,5.5,3.6c1.35,1,1.31,2.21.38,3.47a8.07,8.07,0,0,1-1.83,2.12c-1.15.27-1.71-.63-2.36-1.27-1.77-1.7-3.48-3.46-5.23-5.18C51.61,36.8,50.06,35.8,49.61,34Z"/><path class="cls-2" d="M61.57,39.34c-3.68-1.6-6.52-4.51-10-6.41a4.87,4.87,0,0,1,2.84-.88,9.87,9.87,0,0,0,4.7.43l.57.44A3.31,3.31,0,0,0,60.83,36,2.93,2.93,0,0,1,62,38.47,1.16,1.16,0,0,1,61.57,39.34Z"/><path class="cls-2" d="M73.46,27.25l1.48.45-1.3,3.91c-.64.23-1-.13-1.33-.61C72,29.53,71.61,28.05,73.46,27.25Z"/><path class="cls-2" d="M72.66,31.07l1,.54a1.29,1.29,0,0,0,1.37.92c.19.59,1.56.65.74,1.69-1,.64-2.11,1-3,0A2.19,2.19,0,0,1,72.66,31.07Z"/><path class="cls-2" d="M75.93,33.46c-.56-.06-1.48.24-.92-.93l.51-.42c.33.51.85.37,1.32.39C77.12,33.37,76.49,33.38,75.93,33.46Z"/><path class="cls-2" d="M96.14,7.22c0-.56-.06-1.11-.1-1.67s.46-.76,1-.77A2.46,2.46,0,0,1,96.14,7.22Z"/><path class="cls-8" d="M75.93,33.46l.91-1L78.71,31c.92-.2,1.4.38,1.83,1a2.48,2.48,0,0,1,.09,1.5c-.33,1.14-.8,2.15-2.14,2.39-2.5-.06-4.35,1.28-6,3-1,1-2,1.49-3.39.84a5.44,5.44,0,0,0-4.39-.47c-.83,0-1.76-.22-1.67-1.2s1.06-.81,1.75-.84a8.21,8.21,0,0,0,3.43-.68A11.41,11.41,0,0,1,69.52,36c1.33-.25,1.65-1.05,1.23-2.27a1.86,1.86,0,0,1,.4-1.6,2.64,2.64,0,0,0-.9-2c-1.64-.51-1.53-1.93-1.68-3.22l.17-.31L73,25.32l.45,1.93c-1,1.11-.89,2.47-.8,3.82,0,.15,0,.31,0,.47C72.62,34.78,73,35,75.93,33.46Z"/><path class="cls-2" d="M91.36,20.59a.51.51,0,0,1,.32-.08c1.47,1.45-.42,3,.13,4.47-.18,2.43-1.83,4-3.24,5.76-1.12.41-1.17,1.73-2,2.36l-.34.44c-.78.43-.74,1.28-1,2l0,0c-1,.88-1.91,1.6-2.53-.31a1.59,1.59,0,0,1,0-.94c1.28-2.8,1.6-5.85,2.34-8.8.13-1.27-.86-2-1.39-3,.51-.71,1.28-.41,2-.51s.86.42,1,.95c1.85,1.6,1.87,1.61,3.11-.36A5.64,5.64,0,0,1,91.36,20.59Z"/><path class="cls-2" d="M69.26,39.25a2.11,2.11,0,0,0,2.61-.66c1.62-1.88,3.61-3.37,6.35-3.08,2.11.71,1.61-1.07,2-2l.21-1.39c.17-.31.44-.29.72-.2l.65.65c1.28,1.16-.35,2.75.58,4a8.29,8.29,0,0,1-2.2,2.55c-2.4.45-4.84.77-6.94,2.19a20.79,20.79,0,0,1-3.39-.77A1,1,0,0,1,69.26,39.25Z"/><path class="cls-9" d="M82.18,36.33a1.17,1.17,0,0,1-.76-1.83c.29-.63.73-1.23.33-2,1.17-1.87,1.24-4.05,1.83-6.09.19-.68.13-1.81,1.41-1a12.1,12.1,0,0,1-1.61,8.26,5.68,5.68,0,0,0-.31,1.59C83,35.79,82.78,36.24,82.18,36.33Z"/><path class="cls-2" d="M81.11,31.88l-.72.2L78.71,31c.5-.68.85-1.53,1.92-1.61Z"/><path class="cls-2" d="M49.61,34,53,37.82c.6,1-.06,1.36-.79,1.73a3.61,3.61,0,0,1-3.5-2.27,2.45,2.45,0,0,0-.92-2.49C48,33.58,48.92,34.08,49.61,34Z"/><path class="cls-2" d="M190.48,73.42a11.32,11.32,0,0,1-5.29,3.21c-.79,0-1.6.08-1.55-1.09,1.47-1.43,3.35-2.52,3.92-4.71C189,71.13,189.76,72.28,190.48,73.42Z"/><path class="cls-2" d="M69.14,15.74a9.83,9.83,0,0,1-.89,5.77c-.66.83.53,2.22-.85,2.83a49.41,49.41,0,0,1,.83-13C68.82,12.74,67.37,14.58,69.14,15.74Z"/><path class="cls-2" d="M91.36,20.59a29.75,29.75,0,0,1-1.57,2.89c-.46.68-1,1.67-1.92,1.45a1.81,1.81,0,0,1-1.32-2c.27-.59.54-1.18.8-1.78C88.69,21,90,20.77,91.36,20.59Z"/><path class="cls-2" d="M13.32,100c-.89.46-.07,1-.13,1.58-.71.17-1.34.66-1.76-.61-.65-2-1.22-3.8,0-5.73h.82A5.51,5.51,0,0,1,13.32,100Z"/><path class="cls-2" d="M19.05,117.21a1.27,1.27,0,0,0-.59,1.09c-1.51.89-1.85-.51-2.43-1.3a4.09,4.09,0,0,1-.86-2.62l.23-.21a1.42,1.42,0,0,1,.91-.08,2.71,2.71,0,0,1,1.07.63C18,115.5,19.13,116,19.05,117.21Z"/><path class="cls-2" d="M45.22,142.21a.61.61,0,0,1,0,.44c-1.4-.42-2.21-1.57-3.18-2.53.84-.65.55-2.09,1.73-2.5,1.46.15,1.61,1.2,1.63,2.33C45.4,140.71,44.88,141.42,45.22,142.21Z"/><path class="cls-2" d="M39.06,137.88c.66-.85,1.35-1.48,2.37-.45.51.7,1.19,1.37.53,2.34-.74-.13-1.48-.31-2.24-.38C38.53,139.28,38.51,138.73,39.06,137.88Z"/><path class="cls-2" d="M11.25,65.55,10.76,68c-.25.37-.57,1.06-.75,1-.65-.13-.68-.8-.55-1.31C9.71,66.71,10,65.68,11.25,65.55Z"/><path class="cls-2" d="M42,139.77c-.17-.78-.35-1.56-.53-2.34a2,2,0,0,0,2,0c.15.11.2.22.14.31s-.11.14-.17.14c-.24.89.5,2.37-1.37,2.27A.84.84,0,0,0,42,139.77Z"/><path class="cls-2" d="M46,143.55l.82.88c-.56.93-1.08.37-1.43-.13C44.84,143.56,45.59,143.66,46,143.55Z"/><path class="cls-2" d="M15.25,112l.8-.95a2.19,2.19,0,0,1,.32,2.72c-.85.23-.85.23-1.17-1.32A1.73,1.73,0,0,1,15.25,112Z"/><path class="cls-2" d="M15.17,114.38a1.11,1.11,0,0,1-.92-1.31c.08-.56.59-.13.91-.18a1.31,1.31,0,0,1,0,1.52Z"/><path class="cls-2" d="M12.7,61.23c.06.39.08.76-.3,1-.45-.21-.71-.55-.46-1C12,61.11,12.43,61.22,12.7,61.23Z"/><path class="cls-2" d="M15.15,114.41c0-.5,0-1,0-1.52,0-.16,0-.32,0-.48.63.3.16,1.27.91,1.49.1.1.13.2.08.29s-.08.13-.12.13Z"/><path class="cls-2" d="M66.76,152.16l-.5-1.33c-.09-.61.31-.73.78-.8,2.79.24.54-1.45.83-2.17-.08-.75-.58-1.8.18-2.17.91-.44,1.54.59,2,1.25a6.23,6.23,0,0,1,.33,7.11A7.28,7.28,0,0,1,66.76,152.16Z"/><path class="cls-2" d="M51.5,147c.75,0,1.44-.06,1.53-1A20.08,20.08,0,0,1,56.85,148l.44.85a1.48,1.48,0,0,1-2.13.8C53.75,149,53,147.49,51.5,147Z"/><path class="cls-2" d="M71.64,154.65l3.48.84a2.37,2.37,0,0,1-3.16.71C71.09,155.77,71.34,155.25,71.64,154.65Z"/><path class="cls-10" d="M88.41,30.6c1.13-1.87,2.27-3.74,3.4-5.62,1.32-.85,2.79-.53,4.22-.57,4.13,1.93,8.53,2.26,13,2.21l2.34.72a.47.47,0,0,1,0,.81,11.12,11.12,0,0,1-5.14.66,24.73,24.73,0,0,0-8.21.92C94.87,30.58,91.74,31.75,88.41,30.6Z"/><path class="cls-2" d="M88.41,30.6c3.24.09,6.36-1.11,9.61-.87.48.69,1.39.11,2,.62-.93,1.43-3.08-.08-3.86,1.63-3.23,0-6.5-.22-9.57,1.12a20,20,0,0,0,.42-2C87.11,29.9,87.77,30.33,88.41,30.6Z"/><path class="cls-2" d="M111.37,28.15v-.81c1.15.24,2.71-1.11,3.41.88C113.62,29.15,112.5,28.5,111.37,28.15Z"/><path class="cls-2" d="M142,44.55c-.37-.07-.67-.46-1.1-.16-1.81,1.22-3.55,1.29-5.21-.28a5.3,5.3,0,0,1-1.4-6.29l1.57.47a5.34,5.34,0,0,1,.83,1.91c.89,2.31,1.52,2.54,3.87,1.43C141.53,42.36,143,42.86,142,44.55Z"/><path class="cls-2" d="M140.56,41.63c-1.05,1.93-2.52,2.12-3.66.43a5.12,5.12,0,0,1-1-3.77C138.06,38.51,139.24,40.17,140.56,41.63Z"/><path class="cls-2" d="M99.89,62.19a11.24,11.24,0,0,1,7-3.74c4.83-.88,9.66-1.89,14.63-1.47,1.53.13,3.18.3,2.4-2.21a1.05,1.05,0,0,1,.67-1.36c.59-.13,1,.32,1.21.91A2.54,2.54,0,0,0,129,56c1-.56,1.42.19,1.76.87s.46,1.33,1.28,1.49c1.42.1,2.82-.23,4.23-.14a11.77,11.77,0,0,1,2.78.2,15.21,15.21,0,0,0,5.6,1.21,4.93,4.93,0,0,1,3.94,1.12c.94.31,1.46-.33,2-.89,1.94,0,3.24,1.56,4.93,2.18a1.19,1.19,0,0,1,.46.94c-.77,1.19-2,.62-3,.72l-.48-.09c-1.24-.48-2.6-.43-3.85-.86-3,.28-5.73-1-8.67-1.27-7.27-.6-14.5-1.55-21.81-1.66a38.88,38.88,0,0,0-7.62.54c-4.35.79-8.17,2.47-11.06,6C97.39,69,95,71.49,92.74,74.07c-5.76,6.58-8.24,14.4-8.6,23a2.89,2.89,0,0,1,.13,2.37c-.77,1.88,0,4-1.1,5.86-.29,1.13-.28,2.35-1,3.34-1.22,0-1.32-.86-1.37-1.76a20,20,0,0,1,.37-5.12,62,62,0,0,1,1.35-14.21c1.94-9.58,7.79-16.74,15-23A5.56,5.56,0,0,1,99.89,62.19Z"/><path class="cls-2" d="M155.41,62.23c-1.86-.27-3.24-1.49-4.76-2.42l-1.29-1.67c1.84-1.06,3.12.66,4.66.65l3.36,2.41c.35.33.75.7.23,1.14C156.88,62.94,156.13,62.58,155.41,62.23Z"/><path class="cls-2" d="M148.63,60.7c-1.37.23-2.39-1-3.74-.88l-.17-.16.09-.21,1-.54C146.88,59.3,149.09,57.89,148.63,60.7Z"/><path class="cls-2" d="M155.41,62.23c.54-.57,2.18,1,2-1,1.17.38,2.43.61,3,1.94a1.78,1.78,0,0,1-1.46.58,4.85,4.85,0,0,1-3-1Z"/><path class="cls-2" d="M158.76,63.19l1.59,0,2.31,1a.75.75,0,0,1,0,1A3.54,3.54,0,0,1,158.76,63.19Z"/><path class="cls-2" d="M162.6,65.13l.06-.94,1.81-.12L164.1,66a.89.89,0,0,1-.59.28C162.9,66.14,162.46,65.86,162.6,65.13Z"/><path class="cls-2" d="M185.11,90.94c-1.14.46-.87,1.48-.94,2.37a.55.55,0,0,1-.77-.32c-1.39-4-4.06-7.19-6.56-10.48a1.87,1.87,0,0,1-.26-.67c-.06-.93,0-1.81,1.24-1.87,2.48,1.55,3.56,4.37,5.68,6.26Z"/><path class="cls-2" d="M168.36,67.93c.4.9.68,1.91,2,1.87l1.56,1.93a1.62,1.62,0,0,1-1.36.59,8.18,8.18,0,0,1-5.15-3.2c.37-.93,1.36-.7,2-1.09Z"/><path class="cls-2" d="M183.64,75.54c.31.65,1,.74,1.55,1.09-1.42,1.23-3.07.89-4.91.82C181,75.71,182.51,76,183.64,75.54Z"/><path class="cls-2" d="M170.15,71.85l1.73-.12a5.76,5.76,0,0,1,2.31,2.82c.19.49.23.92-.34,1.19A6.21,6.21,0,0,1,170.15,71.85Z"/><path class="cls-2" d="M173.68,75.59l.51-1L177,79a1.43,1.43,0,0,1-1.43.38C174.12,78.51,173.22,77.39,173.68,75.59Z"/><path class="cls-2" d="M175.55,79H177c.39.24.78.48.82,1a1.59,1.59,0,0,0-.81,1.81C175.13,81.56,174.89,80.49,175.55,79Z"/><path class="cls-2" d="M191.86,97.74c0-.84-.31-1.73.35-2.48A4.08,4.08,0,0,1,191.86,97.74Z"/><path class="cls-2" d="M190.86,93.31c-.11.81.42,1.79-.6,2.37Z"/><path class="cls-2" d="M130.1,70.88c-1.8.87-1.54,2.9-2.4,4.31-.71,1.17-1.34,2.44-2.55,3-3.94,1.93-7.85,4.2-12.42,4-2.77-.1-4.53,1-5.52,3.45a34.09,34.09,0,0,1-2.53,4.73c-2.16-.34-1-1.76-.93-2.84.59-1.36,1.19-2.73,1.79-4.09a6.68,6.68,0,0,1,4.34-3.66,44.15,44.15,0,0,1,12.72-2.67c1.41-.06,1.76-1,2.25-2,1-2,1.72-4.09,3.73-5.32C129.41,69.71,130.15,69.72,130.1,70.88Z"/><path class="cls-2" d="M133.39,101.43c-3,3.83-4.57,8.36-6.48,12.75-1.71,3.95-5,6.67-7.81,9.81-1.6.72-1.92.47-2-1.53a115.54,115.54,0,0,0,9.76-16.78,22.26,22.26,0,0,1,5.06-6.17C133.34,99.42,133.48,100.34,133.39,101.43Z"/><path class="cls-2" d="M88.9,139.72c-1.83-1.8-.7-3.87-.1-5.55,1.68-4.69,1.29-9.4.78-14.14-.27-2.48-.27-4.76,1.75-6.57.91,0,.65.52.46,1-.28,2.9.45,5.68,1,8.48.87,4.17.74,8.21-1.62,11.93-.81,1.28-.59,2.58-.38,3.92-1.44.13-1.62-.82-1.7-1.9C89,137.83,89.83,138.87,88.9,139.72Z"/><path class="cls-2" d="M126.6,88.87A19,19,0,0,1,135,81.11c3.7-1.8,7.58-3.21,11.82-3,.58.22,1.65.08.92,1.26-7.31,1.61-13.19,5.91-19.09,10.16C127.73,90,126.75,90.79,126.6,88.87Z"/><path class="cls-2" d="M105.14,114.39a12.34,12.34,0,0,0-1.49,7,41.76,41.76,0,0,1-1.89,13.08c-.61,1.13-1.23.92-1.87,0-1.57-9.26,1.59-17.46,5.73-25.43,1,1.33-.18,2.37-.48,3.52C105,113.2,104.1,113.79,105.14,114.39Z"/><path class="cls-2" d="M134.16,158c-1.47,1.65-3,3.17-5.41,3.36-2.93-.87-5.37-2.77-8.17-3.91-.65-.64-1.29-1.28-.43-2.21a11.06,11.06,0,0,1,6.45.87c2.12,1.08,4.14.56,5.93-.94l1.8-1.51c1.34-.35,1.89.09,1.49,1.48C135.27,156.05,134.72,157,134.16,158Z"/><path class="cls-2" d="M133.39,101.43c-.4-.72-.59-1.59-1.49-1.92a16.28,16.28,0,0,1,5.15-5.81c2.81-1.89,5.34-4.2,8.44-5.67a3.73,3.73,0,0,1,1.8-.45c1.07-.35,2.21-.85,2.41,1a82.65,82.65,0,0,0-13.59,10.23C135.17,99.63,134.3,100.54,133.39,101.43Z"/><path class="cls-2" d="M105.14,114.39c-.6,0-2,.75-1.11-.93a10.49,10.49,0,0,0,1.59-4.38c1.82-4.13,4-7.91,8.59-9.56,1.29-.36,2.36-.44,2,1.46A27.64,27.64,0,0,0,109.1,110C108.22,111.88,106.58,113.05,105.14,114.39Z"/><path class="cls-2" d="M139.16,141.69a51.15,51.15,0,0,1-19,7.26c-1,.09-2.28.91-2.5-1l20-7.75C138.72,140.16,139.64,140.21,139.16,141.69Z"/><path class="cls-2" d="M88.9,139.72v-3.26c.55.9.83,1.95,1.93,2.35,4,4.14,3.56,9.1,2.69,14.16-.12.7-.23,1.4-.35,2.09a.54.54,0,0,1-.9,0,18.93,18.93,0,0,1-2-8A62.91,62.91,0,0,0,88.9,139.72Z"/><path class="cls-2" d="M140.14,119.82a40.43,40.43,0,0,0,9.06-16.94,7.78,7.78,0,0,1,1.39-3.42c.81.2,1.06.93,1.46,1.52a40,40,0,0,0-3.26,8.14c-1.35,5-3.53,9.35-8.15,12.1C140,120.9,139.63,120.52,140.14,119.82Z"/><path class="cls-2" d="M160.28,124.58l0,.64c-1.16,2-2.28,4.09-3.5,6.09a11.49,11.49,0,0,1-4.57,4.7c-.92.21-1.37-.29-1.64-1.07l8.21-12C159.9,122.9,160.39,123.45,160.28,124.58Z"/><path class="cls-2" d="M149.7,88.55c-.48-1.14-1.49-1-2.41-1,2.07-1.87,4.63-2.66,7.23-3.39A39.57,39.57,0,0,0,159,82.63c1.44-.6,1.23.27,1.16,1.12a5.76,5.76,0,0,1-3.77,2.86Z"/><path class="cls-2" d="M91.79,114.48l-.46-1c2.22-3,3-6.52,3.82-10.06a1.29,1.29,0,0,1,1.85,0c1.89,4.75.55,8.15-3.6,9C92.09,112.64,92.32,113.78,91.79,114.48Z"/><path class="cls-2" d="M152.05,101c-1,0-1.07-.92-1.46-1.52.83-4,3.54-6.83,5.81-10,.82-.1,1.2.22,1,1.07A96.7,96.7,0,0,1,152.05,101Z"/><path class="cls-2" d="M81.14,101.76c0,1.56.07,3.11.08,4.67,0,.87,0,1.75.92,2.21,0,2.9.31,5.85-1,8.62a.59.59,0,0,1-.91,0h-.89A83.38,83.38,0,0,1,81.14,101.76Z"/><path class="cls-2" d="M126.6,88.87c.37,1.2,1.26.73,2,.63-2.44,3.31-4.89,6.61-8.6,8.67a1.87,1.87,0,0,1-1-1.48A65.39,65.39,0,0,0,126.6,88.87Z"/><path class="cls-2" d="M162.6,65.13l.94.94c.55.74.16,1.19-.48,1.56l-10-4c.82-.75,2.12-.09,2.89-1,1-.2,1.89.34,2.84.51C160.13,63.66,161.11,64.89,162.6,65.13Z"/><path class="cls-2" d="M101.78,142.65a17.39,17.39,0,0,1,1.11,5.23c-.27.72-.68,1.22-1.55,1-2.23-1.67-2-3.92-1.44-6.23C100.53,141.71,101.16,141.59,101.78,142.65Z"/><path class="cls-2" d="M83.65,99.13l.49-2.06c.2.13.39.33.6.36,1.88.28,3.44,1,3.46,3.17,0,2-1.21,3.15-3.08,3.68a1.4,1.4,0,0,1-.33-1.87C85.48,100.9,84.9,99.92,83.65,99.13Z"/><path class="cls-2" d="M157.44,90.57c-.35-.36-.7-.71-1-1.07-.17-1,2.15-1.93,0-2.89l3.77-2.86C160,86.32,160.77,89.26,157.44,90.57Z"/><path class="cls-2" d="M80.27,117.27h.91c0,1.93.48,3.27,2.8,3.87,2,.54,1,2.16.19,3.36-.7.32-1-.22-1.38-.62s-.53-1.12-1.32-.94a1.87,1.87,0,0,1-1.14.17Z"/><path class="cls-2" d="M101.78,142.65a1.52,1.52,0,0,0-1.88,0v-8.13c.63.4,1.26.6,1.87,0C101.77,137.21,101.77,139.93,101.78,142.65Z"/><path class="cls-2" d="M123.4,129.27c2.15-.76,3.88-2.47,6.2-2.87,1,.38,2.14,0,2.92,1-2.4,1.43-5.18,1.81-7.73,2.83C124,130.44,123,130.91,123.4,129.27Z"/><path class="cls-2" d="M169.22,82a10.75,10.75,0,0,0-5.11-5.44c0-.16-.08-.32-.11-.48-.44-.66,0-1,.47-1.33,3.42.93,4.55,3.83,5.73,6.68A1.27,1.27,0,0,1,169.22,82Z"/><path class="cls-2" d="M107,161.74c2.14-1.71,4.95-2,7.25-3.3.59-.21,1.24-.64,1.41.45-2.37,1.64-4.68,3.41-7.68,3.75C107.57,162.44,107.13,162.26,107,161.74Z"/><path class="cls-2" d="M132.52,127.36c-1-.19-2.29.41-2.92-1q2.35-1.23,4.69-2.48c1.07-.39,2-.52,1.59,1.13A5.38,5.38,0,0,1,132.52,127.36Z"/><path class="cls-2" d="M135.88,125.05c-.08-1-.81-1.11-1.59-1.13a19,19,0,0,1,5.85-4.1l.5,1.4A17.12,17.12,0,0,1,135.88,125.05Z"/><path class="cls-2" d="M83.65,99.13c2.37.21,2.77.81,1.82,2.9a3.08,3.08,0,0,0-.35,2.25l-2,1A13.72,13.72,0,0,1,83.65,99.13Z"/><path class="cls-2" d="M117.64,148c.52,1.14,1.61.8,2.5,1a13.91,13.91,0,0,1-5.84,1.89c-1,.15-2.12.72-2.37-1A27.41,27.41,0,0,1,117.64,148Z"/><path class="cls-2" d="M80.33,123.1l.89-.57a1.38,1.38,0,0,1,.41.49c.2.63.66,1.12.91,1.72a1.57,1.57,0,0,1-.35,1.61c-2.14,1.83-.46,3.27.5,4.78a1,1,0,0,1-1.49.09c-1.12-.62-1-1.69-1-2.7C80.27,126.71,80.3,124.91,80.33,123.1Z"/><path class="cls-2" d="M119.08,96.69a1.51,1.51,0,0,1,1,1.48c-.83,1.57-2.38,2.13-3.86,2.81,0-1.3-1-1.43-2-1.46Z"/><path class="cls-2" d="M111.93,149.89c.48,1.09,1.53.76,2.37,1a14,14,0,0,1-9.63-.94.63.63,0,0,1,0-.92C107,149.91,109.49,149.71,111.93,149.89Z"/><path class="cls-2" d="M123.4,129.27c0,1,.75.87,1.39.92-2.24,1.12-4.07,3.11-7.15,3.46A11.8,11.8,0,0,1,123.4,129.27Z"/><path class="cls-2" d="M81.17,139.81a9.76,9.76,0,0,1-.43-7.71c1.28-.66,1.8,0,1.82,1.16a20,20,0,0,1-.5,3.52Z"/><path class="cls-2" d="M150.54,134.94l1.64,1.07a4.42,4.42,0,0,1-3.91,1.86c-1,.24-1.82.3-2-1Z"/><path class="cls-2" d="M147.35,148.76a23.47,23.47,0,0,0,7.19-1.67.92.92,0,0,1-.06,1.28,9.42,9.42,0,0,1-8.1,1Z"/><path class="cls-2" d="M99.85,95.19c-2,2-2.18,4.73-2.78,7.27-1-.92-.52-2.28-1-3.36a12.63,12.63,0,0,1,2.85-5.29A2,2,0,0,1,99.85,95.19Z"/><path class="cls-2" d="M115.67,158.89c-.33-.57-.9-.41-1.41-.45,2-.93,3.5-2.93,5.89-3.24.14.74.29,1.47.43,2.21C118.81,157.46,117.37,158.6,115.67,158.89Z"/><path class="cls-2" d="M139.16,141.69c0-1-.88-1.09-1.48-1.47,1.09-1.39,2.86-1.28,4.28-1.95.73-.06,1.44-.09,1.46.95A10.39,10.39,0,0,1,139.16,141.69Z"/><path class="cls-2" d="M103.75,87.61c0,1-.42,2.24.93,2.84a4.45,4.45,0,0,1-3.37,2.82,1,1,0,0,1-1.08-.5A28.68,28.68,0,0,0,103.75,87.61Z"/><path class="cls-2" d="M143.42,139.22l-1.46-.95a7.53,7.53,0,0,1,4.34-1.42,2.83,2.83,0,0,0,2,1A9.31,9.31,0,0,1,143.42,139.22Z"/><path class="cls-2" d="M135.82,155.1a1.41,1.41,0,0,0-1.49-1.48,8.74,8.74,0,0,1,3.85-2.91c.85,0,.79.51.58,1.08A15,15,0,0,1,135.82,155.1Z"/><path class="cls-2" d="M82.06,136.78c-.77-1-.46-2.11-.1-3.15.43-1.23-.09-1.6-1.22-1.53l.46-.88,1.49-.09A4.14,4.14,0,0,1,82.06,136.78Z"/><path class="cls-2" d="M130.1,70.88l-1.52-1c1.3-1.62,3.12-.82,4.73-1,.81-.2,1.51-.21,1.46.94Z"/><path class="cls-2" d="M117.08,122.46c.26,1.06.53,2.09,2,1.53a8.34,8.34,0,0,1-1.88,3.39c-1.22.06-1.37-.63-1.1-1.6A7.73,7.73,0,0,1,117.08,122.46Z"/><path class="cls-2" d="M163.06,67.63l.48-1.56.56-.06,3.29,2c-.19,1.3-1.26.73-2,.92l-1.88-.6Z"/><path class="cls-2" d="M92.27,155.05h.9c.93,1.39,2.47,2.4,2.53,4.3a.67.67,0,0,1-.59.52C94.06,158.33,92.09,157.32,92.27,155.05Z"/><path class="cls-2" d="M115.65,130.18a7.69,7.69,0,0,1-2.28,3.89.83.83,0,0,1-1.07,0,7,7,0,0,1,2-3.82A1,1,0,0,1,115.65,130.18Z"/><path class="cls-2" d="M160.28,124.58a2.88,2.88,0,0,0-1.53-1.61,8.21,8.21,0,0,1,2.91-3.25c1,1.28,0,2.28-.43,3.36C160.91,123.58,160.59,124.08,160.28,124.58Z"/><path class="cls-2" d="M96.09,99.1c1.58.76.58,2.26,1,3.36,0,.31,0,.62-.07.93H95.15C94.82,101.82,95.49,100.47,96.09,99.1Z"/><path class="cls-2" d="M147.72,79.34c.16-.77-.58-.87-.92-1.26a6.79,6.79,0,0,1,3.83-1c.58.22,1.11.48.88,1.26Z"/><path class="cls-2" d="M115.65,130.18l-1.37,0a9.78,9.78,0,0,1,1.84-4.42,1.72,1.72,0,0,0,1.1,1.6C116.7,128.31,116.18,129.25,115.65,130.18Z"/><path class="cls-2" d="M160.27,75.49c-.87,0-2.14.61-2.2-.84,0-1.15,1.24-.91,2-1.13a2.94,2.94,0,0,1,2.61.6C162.12,75,161,74.89,160.27,75.49Z"/><path class="cls-2" d="M151.51,78.37l-.88-1.26.2-.12c1-.61,2-1.21,3.24-.71.12,0,.22.42.15.57C153.69,78,152.52,78.05,151.51,78.37Z"/><path class="cls-2" d="M160.27,75.49c.31-1.34,1.46-1.18,2.42-1.37l1.32.31.46.27c-.16.44-.31.88-.47,1.33Z"/><path class="cls-2" d="M134.77,69.75a1.69,1.69,0,0,0-1.46-.94,5,5,0,0,1,3.38-.92c.89-.25,1.44-.15,1,1Z"/><path class="cls-2" d="M95.11,159.88l.58-.52a7,7,0,0,1,3,2.76C96.87,162.2,95.69,161.54,95.11,159.88Z"/><path class="cls-2" d="M104.66,149c0,.3,0,.61,0,.92-1.21,0-2.47.1-3.33-1l1.55-1C103.66,148,104.07,148.6,104.66,149Z"/><path class="cls-2" d="M111.91,136.44a3.85,3.85,0,0,0,0,.48,2.16,2.16,0,0,1-1,2.05.52.52,0,0,1-.77-.31,1.62,1.62,0,0,1,.69-2.25A.78.78,0,0,1,111.91,136.44Z"/><path class="cls-2" d="M82.19,126.35l0-1.94a.53.53,0,0,1-.07-.55.9.9,0,0,1,1-.44,1.87,1.87,0,0,0,1.08,1.07C83.76,125.37,83.71,126.64,82.19,126.35Z"/><path class="cls-2" d="M100.23,92.77l1.08.5-1.46,1.92a1.27,1.27,0,0,1-.91-1.38A2.45,2.45,0,0,1,100.23,92.77Z"/><path class="cls-2" d="M107.13,162.8c-1.15.61-2.28,1.41-3.72.41.79-1,1.86-1,2.77-1.31C106.5,162.19,107,162.35,107.13,162.8Z"/><path class="cls-2" d="M161.23,123.08c.12-1.12.65-2.19.43-3.36l.46-.6.39-.05c.87,0,.91.46.61,1.1C162.46,121.12,162.17,122.31,161.23,123.08Z"/><path class="cls-2" d="M111.91,136.44l-1.07,0A2.6,2.6,0,0,1,112.3,134l1.07,0A6.54,6.54,0,0,1,111.91,136.44Z"/><path class="cls-2" d="M137.7,68.86c0-.69-.44-.89-1-1,.19-.12.39-.35.58-.35.68,0,1.62-1.12,2,.06C139.53,68.51,138.52,68.78,137.7,68.86Z"/><path class="cls-2" d="M148.7,62.7c1.35,0,2.76-.27,3.85.86C151.2,63.57,149.84,63.66,148.7,62.7Z"/><path class="cls-2" d="M138.76,151.79c-.06-.43-.11-.87-.58-1.08.52-.39,1.21-1.23,1.71-.47S139.55,151.56,138.76,151.79Z"/><path class="cls-2" d="M107.13,162.8c-.53-.08-1-.21-.95-.9l.83-.16,1,.9Z"/><path class="cls-2" d="M34.27,49.76c.42,0,.81-.07,1-.51a8,8,0,0,1,5.55-1.66c2.61.08,5.23,0,7.84,0a8.74,8.74,0,0,0,2.7-.12,2.86,2.86,0,0,1,1.13,0c1,.67,2.83.36,2.89,2.26a14.4,14.4,0,0,1-8.67,2.74c-5.81.15-11.54,1.13-17.3,1.73a22.24,22.24,0,0,0-4.7,1.53c-.48.16-1,.25-1.32-.17a.78.78,0,0,1,.18-1.24c2.54-1.63,4.65-3.78,7-5.62.15-.11.46,0,.7,0a1.36,1.36,0,0,1,1.14.63C32.83,50.44,33.39,50.85,34.27,49.76Z"/><path class="cls-2" d="M79.75,70.84C74.87,68,70.1,65,65.49,61.7a8.73,8.73,0,0,1-3.9-5.24c-.54-1.26-.54-2.31,1-2.76a2,2,0,0,1,1.35.36c4.83,3.46,10,6.45,14.4,10.49a8.31,8.31,0,0,1,2.09,2.58C80.7,68.46,81.74,70,79.75,70.84Z"/><path class="cls-2" d="M79.75,70.84c.93-1.26.63-2.53,0-3.8.34-.81-.29-1.66.09-2.48a7.14,7.14,0,0,0,.23-2.21q1-7.07,2.16-14.1c.42-.64,1.74-.52,1.4-1.89A1.12,1.12,0,0,1,84.93,45c2.72,6,1.82,12.09,0,18.13-.77,1,.13,2.44-.87,3.38-.57,1.27-1.17,2.54-1.72,3.82C81.74,71.83,80.88,72,79.75,70.84Z"/><path class="cls-2" d="M63.1,54c-1.62.12-1.5,1.31-1.51,2.42a11.21,11.21,0,0,1-1.89-5.89c-.13-2.65-.56-2.85-2.91-1.42-.71-.72-2.24-.66-2.09-2.2a3.19,3.19,0,0,1,1.87-1.3c.77-.1,1.63.28,2.3-.42a7.55,7.55,0,0,1,1.27-.8,25.48,25.48,0,0,1,1.56-2.28,1.82,1.82,0,0,0-.13-2.81l.06-1.15c1.27-.66,2,1.64,3.36.58a3.59,3.59,0,0,1,4.27.48l.48.91a1.52,1.52,0,0,1-.26,1.89,7.17,7.17,0,0,1-1.68.85,6.55,6.55,0,0,0-4.16,6.54C63.62,51,64.08,52.61,63.1,54Z"/><path class="cls-2" d="M46.68,86.11c.19-.44.4-.87.57-1.32a1.29,1.29,0,0,1,1.64-1A1.47,1.47,0,0,1,50,85.45a9,9,0,0,1-2.67,6,2.48,2.48,0,0,1-2.86.56,3,3,0,0,1-2-2.75,10.7,10.7,0,0,1,1.35-5.95c1.1-.52,1.27.25,1.42,1,0,.52,0,1,.1,1.57C45.58,87.3,46.17,86.47,46.68,86.11Z"/><path class="cls-2" d="M53.47,98.64c1.68-.06,2.38,1,2.66,2.44a8.62,8.62,0,0,1-1.23,6.36c-1,1.68-2.25,1.73-3.65.27-2-2.07-2.22-5.34-.64-8.61.6-.19,1,.12,1.25.59.62,1.85,0,4,1.12,5.71.06.31.38-.09.1,0-.1,0-.19,0-.15-.17C53.4,103.09,52.52,100.79,53.47,98.64Z"/><path class="cls-2" d="M66.35,95.32c.92,2.11,1.61,4.23,1,6.58-.57,2.08-2.62,3.74-4.23,3.33-1.45-.37-2.55-2.81-2.17-4.77.27-1.39.5-2.78.75-4.17,1.26-.13,1.29.84,1.45,1.65a10,10,0,0,0,.31,2.5c.48.65.74.25,1-.22.55-1.13,0-2.15-.25-3.22C63.79,95.2,64.44,94.74,66.35,95.32Z"/><path class="cls-2" d="M70.15,85.21c.35.76.45,2,1.55,1.75s.93-1.3,1-2.18c0-1.82.09-3.64.17-5.46,0-.19.24-.38.38-.58,2.51,2.59,3,7.2,1.15,10-1.73,2.61-3.87,2.15-5.57-1.2C68.5,85.55,68.6,85.37,70.15,85.21Z"/><path class="cls-2" d="M84.93,45c-1,.57-.83,1.57-.83,2.49,0,1.91-.85.49-1.37.35-2.32-1.76-3.57-6.29-2.49-9,0-1.34,1.27-1.67,1.94-2.48l.89-1c.57,1.58,1.41.21,2.13.19-1.51,2.21-2.29,4.42-.64,7C85,43.12,84.82,44.15,84.93,45Z"/><path class="cls-2" d="M15.15,69.86a3.55,3.55,0,0,0-.59,1c-.31,1.29-.9,3.13.54,3.58s1.37-1.56,1.79-2.58.67-2.49,1.68-2.23.84,1.84.69,2.91a10.09,10.09,0,0,1-1.17,3.6c-.67,1.2-1.31,2.57-3,2.2a3.69,3.69,0,0,1-2.84-3.18,5.56,5.56,0,0,1,.88-4.07c.42-.66,1.08-1.2,1.12-2.06C15.05,68.79,15.28,69.13,15.15,69.86Z"/><path class="cls-2" d="M56.32,79.42A19.43,19.43,0,0,1,57,76.26c.24-.67.79-.83.87.2.55,1.42-.29,3,.51,4.39,1.09-1.18.9-2.8,1.36-4.19.22-.68.49-1.18,1.27-1.12s1,.59,1.08,1.3a11.19,11.19,0,0,1-1,6c-.53,1-1.08,2.38-2.49,2.18a2.68,2.68,0,0,1-2.21-2.7A4.16,4.16,0,0,1,56.32,79.42Z"/><path class="cls-2" d="M71.24,120.66c1.18-.94,2,0,2.64.69a8.65,8.65,0,0,1,1.9,4.81,2.11,2.11,0,0,1-1.23,2.16,2.19,2.19,0,0,1-2.67-.16,5.14,5.14,0,0,1-2.07-5c1.65-.7,1.71,1.11,2.47,1.52C71.9,123.42,70.42,122.37,71.24,120.66Z"/><path class="cls-2" d="M144.81,59.45c0,.12.05.25.08.37-1.94-.32-4.13.8-5.81-1-.13-.29-.26-.58-.41-.85-.55-1-1.36-2.19-2.49-1.65s.52,1.58.21,2.48l-4.87.06a1,1,0,0,1,0-1.43c1.31.56,2.32.68,2.43-1.25a2.66,2.66,0,0,1,3.68-2.51,6.1,6.1,0,0,1,3.91,3.56C142.17,58.62,143.12,59.58,144.81,59.45Z"/><path class="cls-2" d="M13.32,100a19.69,19.69,0,0,1-1.11-4.77l.11.05c.7-.58,1.29-.17,1.88.21,1.36,1.64,1.39-.06,1.83-.73.31-1.15-.25-3.16,1.27-3.17,1.22,0,1.28,2,1.45,3.22C19.22,98,16.08,100.92,13.32,100Z"/><path class="cls-2" d="M40.93,75.74c.09,2.62-.41,5-2.42,6.91-1.79,1.66-3,1.33-3.8-1a6.91,6.91,0,0,1,.15-5.08c1.29-.09,1.21.94,1.45,1.74.15.48-.19,1.37.87,1.19.73-1.14,1.1-2.48,1.9-3.55C39.53,75.38,40.12,74.25,40.93,75.74Z"/><path class="cls-2" d="M27.14,106.09A5.58,5.58,0,0,1,30,109.67,4.1,4.1,0,0,1,28.72,114a1.91,1.91,0,0,1-2.2.37,3.48,3.48,0,0,1-1.86-3.75c.13-.93.14-2,1.44-2a1.53,1.53,0,0,1,.59.69c.21-.23,0-.44,0-.65a5.56,5.56,0,0,1,0-1.63A1.31,1.31,0,0,1,27.14,106.09Z"/><path class="cls-2" d="M43.81,122.62c-.47,1.36-.36,3.42-2.76,3.33-2.15-.08-2.25-1.87-2.53-3.43a1.54,1.54,0,0,1,0-.48c.16-1.17-.66-3.1.83-3.28,1.69-.21.88,1.76,1.18,2.77.08.29,0,.68.39.77s.75-.22.9-.6c.23-.58.29-1.37,1.21-1S43.86,121.72,43.81,122.62Z"/><path class="cls-2" d="M38.53,100a28.55,28.55,0,0,1-1.76,2.71c-.55.68-1,1.68-2.25,1.24a2.41,2.41,0,0,1-1.81-2.18c-.1-.93-.49-1.83.17-2.69.84-.36,1.3.58,2,.59C36.07,99.17,36,98,36.47,97c.43-.63.77-1.58,1.72-1.25s1,1.37.83,2.22C38.89,98.67,39.07,99.43,38.53,100Z"/><path class="cls-2" d="M87.44,67.44c1-1.16.56-2.34.11-3.57-.14-.4-.22-1.08,0-1.33.47-.53,1,.06,1.44.29a4.11,4.11,0,0,1,1.24,5.65c-1.16,2.08-2.75,1.18-4.27.49C85.67,67.7,86.79,67.8,87.44,67.44Z"/><path class="cls-2" d="M64.47,134.51a1.29,1.29,0,0,1,1.38-1.4,7,7,0,0,1,2.28,1.57c.05.09.1.19.14.28.1.54.2,1.08.28,1.62.48,3.17-.6,4.09-3.59,3.08-.6-1-.11-2.17-.6-3.18C64.28,135.82,63.91,135.14,64.47,134.51Z"/><path class="cls-2" d="M49.11,111.13c.85,1.46.67,3.06.58,4.64s-.66,2.7-2.23,3c-1.77.31-2.31-1-2.67-2.37-.37-.87,0-1.39.81-1.69,1.65.19,1.41-1,1.55-2S47.35,110.2,49.11,111.13Z"/><path class="cls-2" d="M125.75,42.57c.34-1.24-.78-2-.93-3.11,0-.43-.31-1,.24-1.25a1.49,1.49,0,0,1,1.08.31,6.61,6.61,0,0,1,2.69,4.59c.24,1.44-1.54,2.62-2.91,2a15.63,15.63,0,0,1-2-1.21C123.29,41.85,125.4,43.4,125.75,42.57Z"/><path class="cls-2" d="M23.93,84.47c1.2.47.46,1.68,1.12,2.29.76,0,.75-.72,1.07-1.12s.88-.63,1.11-.09a5.36,5.36,0,0,1,0,4.35,1.56,1.56,0,0,1-1.95,1,2.65,2.65,0,0,1-2-2.88C23.29,86.8,23.09,85.58,23.93,84.47Z"/><path class="cls-2" d="M57.26,126.86c1.56-1.63-.08-3.76.83-5.51,1.71,1.38,2.77,5.6,1.84,7.22a1.87,1.87,0,0,1-1.77,1,2.74,2.74,0,0,1-2.47-2.2C56.05,126.69,56.52,126.35,57.26,126.86Z"/><path class="cls-2" d="M68.31,128.27c.12-.43.44-.79.83-.7,1.51.34,3.93,3.88,3.78,5.42-.25,2.67-1.58,3.23-4.65,2l0,0a1.78,1.78,0,0,1-.45-1.7,1.11,1.11,0,0,1,.64-.77c.63-.1.84,1.27,1.66.48a2,2,0,0,0-.3-.95c-.17-.33-.34-.67-.49-1A16.3,16.3,0,0,1,68.31,128.27Z"/><path class="cls-2" d="M61.7,138.73a7.06,7.06,0,0,1,1.4,2.72c.39,1.53.5,3-1.32,3.53s-2.79-.57-3.05-2.34c.51-.69,1.36.06,1.92-.43l-.13-2.32C60.48,139.06,60.78,138.59,61.7,138.73Z"/><path class="cls-2" d="M62.06,118.79c.59-.46.46-1.13.49-1.75s0-1.4.77-1.49c.57,0,.91.56,1.2,1a4.19,4.19,0,0,1-1,5c-1.3.92-2.19.3-2.94-.82C60.1,119.32,60.94,119,62.06,118.79Z"/><path class="cls-2" d="M118.58,46.48c.13-.18.38-.37.36-.53-.09-.73-1.14-1.42-.33-2.14.55-.48,1.12.31,1.67.54a1.82,1.82,0,0,1,1.13,2.32c-.58,2.56-2.12,3.25-4.35,1.9a6.69,6.69,0,0,1-.87-.74C116.17,45.92,117.84,47,118.58,46.48Z"/><path class="cls-2" d="M40.93,75.74c-.44-.53-.82-.65-1.18.1-.71,1.47-1.44,2.92-2.17,4.38-.57.75-1,.3-1.11-.27-.28-2.13-1.1-4.36.75-6.24a1.35,1.35,0,0,1,1.38-.49C39.64,73.81,41,74.09,40.93,75.74Z"/><path class="cls-2" d="M30.05,71.37c-.62,1.1-1.48,1.69-2.74,1.12a2.56,2.56,0,0,1-1.52-2.93,32.2,32.2,0,0,1,.86-3.45c.16-.63.67-.65,1.11-.42s0,.6,0,1c-.29,1.27-.9,2.73,1.19,3.12C30.11,69.73,30.41,70.31,30.05,71.37Z"/><path class="cls-2" d="M75,113c1-1.2.69-2.72,1-4.09,2.12,1.34,2.66,3.38,1.32,5.3-1,1.42-2.16,2.52-3.8.71C73.31,113.68,74.21,113.36,75,113Z"/><path class="cls-2" d="M43.4,137.85a1.14,1.14,0,0,1,0-.45c.9-1.17.25-2.54.5-3.8,2.2-.62,2,1.66,3,2.47.11.18.21.37.31.55a4.91,4.91,0,0,0,.92,1.21,7.23,7.23,0,0,0-2.91,4.38c-.66-.73-.32-1.62-.37-2.43C44.79,138.79,44.67,137.91,43.4,137.85Z"/><path class="cls-2" d="M75,113l-1.43,1.92a5.6,5.6,0,0,1-1.35-6.68c.23-.51.44-1,1.22-.76s.47.68.5,1.1C74.05,110.06,73.56,111.74,75,113Z"/><path class="cls-2" d="M80.3,79.81c1.42-.1,1.63-1.25,2-2.27.15-.41.28-1,.87-1s.62.67.74,1.07a3.4,3.4,0,0,1-1.63,4.24c-1.38.86-2.37.24-3.14-1A1.5,1.5,0,0,1,80.3,79.81Z"/><path class="cls-2" d="M66.35,95.32c-1.79-.43-2.25.37-1.59,1.9a4.25,4.25,0,0,1,0,3.85c-.75,1.59-1.22.92-1.79,0-.2-2.25.47-4.55-.44-6.75C64.38,92.58,65.4,93.84,66.35,95.32Z"/><path class="cls-2" d="M53.47,98.64c.14,2.46.92,5-.71,7.36-1.79-2-1.13-4.28-1.25-6.45a2.56,2.56,0,0,1,1.55-1.47Z"/><path class="cls-2" d="M72.62,145.93c2,.34,1.87-1,1.84-2.27,0-1,.37-1.49,1.42-1a7.42,7.42,0,0,1,.56,1.53c.47,3.34-1,4.41-4.26,3.14C71.6,146.64,72,146.25,72.62,145.93Z"/><path class="cls-2" d="M33.93,126.74c.93-.41.07-2.64,1.51-2,1.08.47,1.18,2.25.49,3.44s-1.78,1.89-3.13.72a8,8,0,0,1-.9-1.09C31.93,126.23,33,126.58,33.93,126.74Z"/><path class="cls-2" d="M19.05,117.21l-2-2.33c-.45-.94-.15-1.4.89-1.39a1.21,1.21,0,0,0,1,.76c1.05-.39.13-2.48,1.93-2.22C21.93,115.1,21.62,116,19.05,117.21Z"/><path class="cls-2" d="M38.53,100a16.35,16.35,0,0,0,0-1.85c0-.66.3-1.67-.4-1.89S37,97,36.62,97.63c-.5.87-.95.61-1.25-.11A4,4,0,0,1,35.3,95a2.39,2.39,0,0,1,1.41-1.72C39.94,96,40.26,97.11,38.53,100Z"/><path class="cls-2" d="M46.79,136.52c-1.41-.53-1-2.86-2.86-2.92-.06-1.6,1.61-1.6,2.31-2.51a5,5,0,0,1,1.93,2.81C48.12,135,48.94,136.54,46.79,136.52Z"/><path class="cls-2" d="M70.15,85.21c-1.37.26-1.23,1.4-1.37,2.37-1.37-2.48-1-4.8.71-7.23C70.69,82,70,83.66,70.15,85.21Z"/><path class="cls-2" d="M49.11,111.13c-.8-.19-1.4-.11-1.36.94,0,.78,0,1.56,0,2.34,0,.56,0,1.14-.7,1.32s-.88-.47-1.21-.86c-1.14-1.58-.84-3.17,0-4.77C46.83,110.62,48.2,110.11,49.11,111.13Z"/><path class="cls-2" d="M99.89,62.19a6.27,6.27,0,0,1-2.43,2.39c.35-1.06-.16-2-.5-2.92-.46-1.27-.84-2.52.1-3.75,1.18,0,1.32.6,1,1.54C98.41,60.53,98.09,62.08,99.89,62.19Z"/><path class="cls-2" d="M62.06,118.79c-.6.56-1.52.87-1.47,1.93-1.71-2.07-1.72-4.28-.55-6.8C61.49,115.34,60.44,117.65,62.06,118.79Z"/><path class="cls-2" d="M33.93,126.74c-.81.11-1.7.06-2,1.07a3.32,3.32,0,0,1-.82-4.1c.19-.4.32-1,.92-.92s.6.69.73,1.13C33,124.91,32.44,126.26,33.93,126.74Z"/><path class="cls-2" d="M17.94,113.49a1.41,1.41,0,0,0-.89,1.39l-1-.55a3,3,0,0,1,0-.43L16.05,111c.22-.77.56-1.79,1.38-1.66,1,.16.51,1.3.58,2A15.22,15.22,0,0,1,17.94,113.49Z"/><path class="cls-2" d="M34.8,100.5l-1.92-1.42a5.23,5.23,0,0,1,1-4.3c.74-.43,1,0,1.29.62C35,97.1,36,98.88,34.8,100.5Z"/><path class="cls-2" d="M55.85,145.52v-1.91c0-1,.35-1.46,1.37-.93a4.48,4.48,0,0,1,0,4.74,1.37,1.37,0,0,1-1.75,0C54.88,146.76,55.41,146.09,55.85,145.52Z"/><path class="cls-2" d="M37.68,73.7c-1.27,1.78-1.27,3.77-1,5.82.07.56.3.87.91.7-1.15.52-1.53.34-1.78-1-.19-.93.25-2.08-.94-2.66a3.51,3.51,0,0,1,1.77-2.95A.81.81,0,0,1,37.68,73.7Z"/><path class="cls-2" d="M87.44,67.44,86,69c-1.54-.12-1-1.83-1.87-2.45.07-1.18-.46-2.52.87-3.38A5,5,0,0,0,87.44,67.44Z"/><path class="cls-2" d="M45.77,110.1l0,4.77c-.71.25-.89.85-1,1.5C43.3,112.55,43.4,111.92,45.77,110.1Z"/><path class="cls-2" d="M26.13,108.67c-1,.24-.7,1.49-1.47,1.91-.76-1.63,0-3.06.69-4.44.48-.94,1.17-1,1.79,0l-.05,1.18C26.67,107.67,26.74,108.4,26.13,108.67Z"/><path class="cls-2" d="M106.16,54a5.72,5.72,0,0,1-1.4-.77c-.59-.6-1.35-1.43-.75-2.21s1.4,0,2,.42,1.15.81,1.92.56a.61.61,0,0,1,.25.55A2.82,2.82,0,0,1,106.16,54Z"/><path class="cls-2" d="M62.55,94.27a1.09,1.09,0,0,1,1.14,1.42c-.44,1.76.09,3.63-.7,5.33-.74-.78-.32-1.74-.4-2.62s.16-1.74-.92-2.11Z"/><path class="cls-2" d="M54.89,46.92c0,1.32,2.35.57,1.9,2.23a1.56,1.56,0,0,1-1.41.63c-.5-1.37-2.43-.79-3-2.15C52.93,46.28,53.77,46.12,54.89,46.92Z"/><path class="cls-2" d="M98,59.45a1.67,1.67,0,0,0-1-1.54c1.53-2.09,2.32-2.14,4.16-.23C100.44,58.77,98.63,58,98,59.45Z"/><path class="cls-2" d="M108,52.55c0-.18,0-.35-.07-.53a1.75,1.75,0,0,1,0-.46c.19-.7-.32-1.59.49-2.1.13-.09.55.17.76.36a2,2,0,0,1,.72,2.47c-.26.63-.33,1.36-.92,1.83A2.61,2.61,0,0,1,108,52.55Z"/><path class="cls-2" d="M51.54,135l-1.77,1.94c-.67-.32-.66-1-.76-1.56,0-1.07-.61-2-.64-3.1a1.15,1.15,0,0,1,.29-.63l.93.46c.53-.3.86,0,1.21.36C51.23,133.25,51.93,134,51.54,135Z"/><path class="cls-2" d="M53.86,129.74c1.69,2.66,1.26,4.31-1.36,5.18-.57-.72-.08-1.39.09-2.08C53.18,131.88,52.27,130.29,53.86,129.74Z"/><path class="cls-2" d="M44.86,84.73c-.1-.65,0-1.44-1-1.47a7.43,7.43,0,0,1,.45-1.33c.41-.79,1.06-1.8,1.92-1.36,1.14.58,0,1.47-.21,2.21-.1.3-.21.6-.32.89C45.41,84,45.8,84.9,44.86,84.73Z"/><path class="cls-2" d="M55.85,145.52c-.08,1-.55,2.33,1.38,1.9-.13.19-.26.38-.38.58A3.84,3.84,0,0,1,53,146c0-.31-.06-.61-.08-.91a1.06,1.06,0,0,1,1.46,0C54.85,145.32,55.26,145.68,55.85,145.52Z"/><path class="cls-2" d="M57.26,126.86l-1.57.5c-1.25-1.26-.85-2.66-.49-4.37C56.7,124.1,56.33,125.83,57.26,126.86Z"/><path class="cls-2" d="M80.3,79.81a1.7,1.7,0,0,1-1.15,1.11c-1.4-1.15-1.2-2.58-.69-4.2C79.82,77.38,79.84,78.74,80.3,79.81Z"/><path class="cls-2" d="M118.58,46.48c-.68.65-2,.09-2.39,1.35a9.06,9.06,0,0,1-1.29-1c-.38-.45-1-1-.36-1.63s1,0,1.49.23A5.32,5.32,0,0,0,118.58,46.48Z"/><path class="cls-2" d="M72.62,145.93c-.15.47-.3.94-.44,1.41a4.18,4.18,0,0,1-1-.65,4.12,4.12,0,0,1-.9-2.61c0-.35.37-.44.71-.31A2.52,2.52,0,0,1,72.62,145.93Z"/><path class="cls-2" d="M64.47,134.51l.46,1.9c-.65.52-.71,1.49-1.44,2C61.82,135.65,62,134.8,64.47,134.51Z"/><path class="cls-2" d="M20.86,112c-.91.36-.87,1.16-.95,1.94s-.41,1-1,.28c0-.71,0-1.42.06-2.13s-.15-1.41.73-1.5S20.86,111.24,20.86,112Z"/><path class="cls-2" d="M14.15,95.74l-1.83-.48a4.13,4.13,0,0,1,.87-2.93c1.15-.6,1.13.41,1.4,1a1.2,1.2,0,0,1,0,.42C14.15,94.35,14.75,95.19,14.15,95.74Z"/><path class="cls-2" d="M71.24,120.66a3.68,3.68,0,0,0,.77,2.18c.38.66.88,1.35.43,2.22-1.41.08-1.24-2-2.63-1.94C70.29,122.3,70.77,121.48,71.24,120.66Z"/><path class="cls-2" d="M44.86,84.73c.29-.35.57-.7.85-1.06.17.88-.15,1.94,1,2.44-.11.82,0,2-1.18,1.89s-.52-1.37-.66-2.11A5,5,0,0,1,44.86,84.73Z"/><path class="cls-2" d="M50.51,132.62c-.31-.17-.62-.34-.92-.52,0-1.37-.37-3,2-2.86l.25.25a2.33,2.33,0,0,1,0,2.06A2.3,2.3,0,0,1,50.51,132.62Z"/><path class="cls-2" d="M63.49,138.38c0-1,.18-1.89,1.44-2a4,4,0,0,1,0,3.25C64.21,139.53,63.56,139.29,63.49,138.38Z"/><path class="cls-2" d="M131.5,57.41c0,.48,0,1,0,1.43-1.45-.43-.68-2.76-2.48-2.89.37-.66.84-1.25,1.67-.84S131.49,56.55,131.5,57.41Z"/><path class="cls-2" d="M125.75,42.57c-.33.85-1.9,0-1.87,1.38a2.9,2.9,0,0,1-1.49-1.08c-.32-.38-.53-.8-.14-1.25a.79.79,0,0,1,1.23,0C124.15,42.1,124.76,42.76,125.75,42.57Z"/><path class="cls-2" d="M50.51,132.62c.08-.55.32-.94,1-.93A1.38,1.38,0,0,1,52,132a11.17,11.17,0,0,1,.86.83c0,.09.1.17.14.26l-.49,1.85-1,.07Z"/><path class="cls-2" d="M34.82,95.29a1,1,0,0,0-.93-.51c.29-1.75,1.14-2.41,2.82-1.46l-.94,1.52C35.47,95,35.31,95.5,34.82,95.29Z"/><path class="cls-2" d="M48.66,131.64v.5c-.4.45-.36,1.23-1.08,1.43-.46-.82-1.26-1.46-1.34-2.47C47.46,129.41,48,130.79,48.66,131.64Z"/><path class="cls-2" d="M108,52.55c1,.07,1,.83,1,1.57a2.23,2.23,0,0,1-2.88-.1C106.47,53.14,107.43,53.08,108,52.55Z"/><path class="cls-2" d="M30.05,71.37a1.72,1.72,0,0,0-1.13-1.61c.38-.87.9-2,1.93-1S30.84,70.63,30.05,71.37Z"/><path class="cls-2" d="M68.69,132.67l-.43.45a.61.61,0,0,1-.87-.06c.18-1.1-1.51-2.44.43-3.31A3.44,3.44,0,0,1,69,131.06a1.72,1.72,0,0,1,.11,1.18A.79.79,0,0,1,68.69,132.67Z"/><path class="cls-2" d="M75.88,142.67a1.48,1.48,0,0,0-1.42,1c0-.06-.13-.11-.15-.18-.29-.81-1.45-1.8-.18-2.42S75.45,141.93,75.88,142.67Z"/><path class="cls-2" d="M49.56,135l.21,1.94-1.64.9c-.65,0-1.39.12-1.35-.91.82-.32,1.45-.68,1.55-1.76C48.41,134.39,49,134.07,49.56,135Z"/><path class="cls-2" d="M57.21,142.68a1.48,1.48,0,0,0-1.37.93c-.07-.05-.15-.08-.19-.15-.51-.79-1.35-1.84-.16-2.42S56.84,141.9,57.21,142.68Z"/><path class="cls-2" d="M14.15,95.74c.14-.66,0-1.4.48-2,.22.69-.39,2.57,1.4,1,.12.86.35,1.89-.64,2.27S14.35,96.38,14.15,95.74Z"/><path class="cls-2" d="M67.87,147.86c.33.54.66,1.08,1,1.62s.48,1.1-.07,1.5c-.78.58-1.11-.12-1.45-.65a.71.71,0,0,1,0-1C68,149,67.75,148.38,67.87,147.86Z"/><path class="cls-2" d="M68.79,131.15a1.37,1.37,0,0,1-1-1.4l.49-1.48a4,4,0,0,1,1.47,2.86A.68.68,0,0,1,68.79,131.15Z"/><path class="cls-2" d="M54.41,145H53c-.65-.64-1.37-1.68-.25-2S53.84,144.31,54.41,145Z"/><path class="cls-2" d="M67.34,149.34c0,.33,0,.66,0,1a1.05,1.05,0,0,0-1.07.5c-.74-.59-1.31-1.41-.55-2.18S67,148.72,67.34,149.34Z"/><path class="cls-2" d="M53.06,98.08c-.07,1-.88,1.14-1.55,1.47l-.9-.45C51,97.63,51.68,97.06,53.06,98.08Z"/><path class="cls-2" d="M61.7,138.73a2.3,2.3,0,0,0-1.18,1.16c-.69-.71-1.5-1.62-.4-2.36C61,136.93,61.44,137.94,61.7,138.73Z"/><path class="cls-2" d="M53.86,129.74c-1,.94.17,2.42-.87,3.33l0,0a4.37,4.37,0,0,1-.85-2,6.35,6.35,0,0,1,0-1.51c.2-.69.47-1.24,1.34-.76Z"/><path class="cls-2" d="M60.65,142.21c-.52.7-1.28.31-1.92.43-.43-.5-1.23-1.07-.59-1.69s1.22.05,1.58.68A1.09,1.09,0,0,0,60.65,142.21Z"/><path class="cls-2" d="M67.39,133.06l.87.06c0,.63,0,1.25,0,1.88-1.22-.11-1.78-1.08-2.46-1.89Z"/><path class="cls-2" d="M14.59,93.35c-.42-.4-.61-1.13-1.4-1,.19-.84.54-2,1.52-1.43S14.55,92.5,14.59,93.35Z"/><path class="cls-2" d="M15.15,69.86a1.16,1.16,0,0,0-.88-.83c.21-.8.69-1.23,1.53-1a1,1,0,0,1,.58.63C16.43,69.51,15.66,69.57,15.15,69.86Z"/><path class="cls-2" d="M53.41,128.78c-.65,0-.89.38-.93,1-.55.24-.69-.25-.94-.53v0c0-.67-.25-1.55.74-1.65A1,1,0,0,1,53.41,128.78Z"/><path class="cls-2" d="M58.33,80.85c-1.19-1.34-.35-2.93-.51-4.39C58.72,77.84,57.83,79.43,58.33,80.85Z"/><path class="cls-2" d="M85.18,35.51c-.2-.94-.12-1.73,1-2C85.87,34.2,86.08,35.14,85.18,35.51Z"/><path class="cls-2" d="M56.32,79.42v2.91A2.51,2.51,0,0,1,56.32,79.42Z"/><path class="cls-2" d="M37.68,73.7l-1,0c.52-.75,1.06-1.43,2-.43Z"/><path class="cls-2" d="M160.14,139.62c1.14-1.54,2.91-1.84,4.58-2.14,3.39-.62,6-2.17,7.52-5.37.77-1.88.31-3.86.44-5.79.07-1,0-2.09,1.35-2.33a42,42,0,0,1,1.15,4.8c.95,6.89-2,11-8.89,11.82-2,.25-4,.77-6,1.19C159,141.14,159.63,140.38,160.14,139.62Z"/><path class="cls-2" d="M174,124c-1.29,1.27-.79,2.91-.87,4.42-.06,1.3.22,2.67-.92,3.7-.06-3.1-.07-6.19-.18-9.28a11.11,11.11,0,0,1,2.6-7.7c1.58-1.89,2.5-3.8,1.36-6.27a2.25,2.25,0,0,1,.43-2.62c1.08-.56,1.15.42,1.5,1,.62,2.29,2.15,4.42,1,7a7.63,7.63,0,0,1-1.58,2.32A11,11,0,0,0,174,124Z"/><path class="cls-2" d="M160.14,139.62a2.26,2.26,0,0,0,.13,2.18,3.54,3.54,0,0,1-1.89,2.31.83.83,0,0,1-1.12-.05A6,6,0,0,1,160.14,139.62Z"/><path class="cls-2" d="M154.48,148.37l.06-1.28c.9-.25,1-1.27,1.75-1.72a.9.9,0,0,1,.71.7C156.3,147,155.77,148.1,154.48,148.37Z"/><path class="cls-2" d="M157,146.07l-.71-.7a1.59,1.59,0,0,1,1-1.31l1.12.05A2.31,2.31,0,0,1,157,146.07Z"/><path class="cls-2" d="M67.4,24.34c.87-.77,0-2.06.85-2.83.32,1.68-.47,3.46.49,5.08a2.68,2.68,0,0,0-.07.27,1,1,0,0,1-1,.43,1.49,1.49,0,0,1-.4-.15Z"/><path class="cls-11" d="M65,38.77c-1.37,1.26-2.23-.46-3.36-.58a4.53,4.53,0,0,0-1.8-2.37c-1.07-.92-1.37-1.87-.15-2.9,2-.29,4.06-.55,5.91.77a1.49,1.49,0,0,0,2-.17c.69-.73-.42-1.22-.42-1.89.87.14,1.14.74,1.16,1.53,0,1.71,1,1.24,1.89.8l.21.34c0,1-.58,1.34-1.36,1.59-1.67.3-3.39,0-5.07.22,1.6.31,3.34-.43,4.81.75-1.59,1.28-3.57.76-5.43,1C63.67,39,64.44,38.61,65,38.77Z"/><path class="cls-2" d="M67.68,27.29a1,1,0,0,1,1-.43c.69,1,.67,2.36,1.58,3.26-.1.38-.08.94-.32,1.09-.57.36-.85-.28-1-.64C68.45,29.51,68.09,28.39,67.68,27.29Z"/><path class="cls-2" d="M71.15,32.08l.1,1.88a.64.64,0,0,1-1-.05L70.2,34C70.46,33.31,69.55,32.06,71.15,32.08Z"/><path class="cls-10" d="M54.89,46.92c-1-.22-1.86-.3-2.46.71l-.9.29c-.79.38-1.7-.1-2.47.37-4.62,0-9.28-.62-13.79,1,.73-1.3,2.3-2,2.42-3.74a3.07,3.07,0,0,1,1.86-1.87A3.22,3.22,0,0,0,42,40.77c2.44-.18,3.84-2.46,6.09-3l.55-.49c1.18.51,1.91,1.75,3.24,2,.49.16.84.4.58,1A18,18,0,0,0,42.42,45.2C46,43.74,48.84,40.6,53,40.31c2.37.89,4.45,2.13,5.45,4.64-.08,1.06-1.05.68-1.6,1C56.07,46.05,55.79,47.1,54.89,46.92Z"/><path class="cls-2" d="M34.27,49.76c.24.48.6,1-.17,1.32s-1.42.47-2-.08,0-1.13.29-1.65A2.41,2.41,0,0,1,34.27,49.76Z"/><path class="cls-2" d="M52.48,40.17l-.57-.87A1.49,1.49,0,0,0,53,37.82l7.18,6.61a1.48,1.48,0,0,1-.94,1c-.53.26-.76-.13-1-.47A16.6,16.6,0,0,0,53,40.58.86.86,0,0,1,52.48,40.17Z"/><path class="cls-2" d="M68.79,36.86c-2.14-.38-4.4.41-7.14-.89,2.88-1,5.26-.47,7.58-.54.38.2.79.38.52.94Z"/><path class="cls-2" d="M69.75,36.37c-.17-.31-.34-.63-.52-.94a1.84,1.84,0,0,0,1.06-1.52l1,.05C72.31,35.74,71.44,36.31,69.75,36.37Z"/><path class="cls-2" d="M80.18,33.47c0,3,0,3.06-2,2C79.56,35.49,79.62,34.24,80.18,33.47Z"/><path class="cls-1" d="M80.24,38.81c.2,3.18.56,6.33,2.49,9-.22,5-1.31,9.87-2.06,14.79-1.33-.09-1.17-1.45-1.81-2.12-.34-.48-.74-.91-1-1.42-1.26-2.07-1-4.45-1.34-6.7-.5-3.57-1.18-7-3.16-10.12a1.68,1.68,0,0,1-.25-1.14C75,38.9,77.51,38.54,80.24,38.81Z"/><path class="cls-2" d="M73.08,41.14c3.38,3.79,3.75,8.56,4.26,13.27a15.79,15.79,0,0,0,1.1,4.7c.22.73.2,1.33-.77,1.42-1.19-.31-1.45-1.35-1.78-2.32a46.17,46.17,0,0,1-2.11-8c-.41-2.69-1.2-5.26-3.3-7.21a1.93,1.93,0,0,1-.74-1.44,1.11,1.11,0,0,1,0-1.36C70.93,40.22,72.24,39.89,73.08,41.14Z"/><path class="cls-2" d="M136.39,58.78a10.88,10.88,0,0,1-1.34-1.65c-.48-1,.18-1.58,1-1.79,1.37-.35,3.28,1.89,3,3.46Z"/><path class="cls-2" d="M167.34,109.51l1.09-11.39c.53-1-.39-2.93,1.82-2.86,1,3.71.19,7.37-.44,11-.36,2.08-.43,4.26-1.49,6.19C166.51,112,167.29,110.61,167.34,109.51Z"/><path class="cls-2" d="M170.25,95.26c-1.35.48-1.22,1.9-1.82,2.86-.46-5.43,1-10.76.79-16.17a1,1,0,0,1,1-.57C171.34,86,170.42,90.63,170.25,95.26Z"/><path class="cls-2" d="M167.34,109.51c.15,1,0,2.18,1,2.95a5.57,5.57,0,0,1-1.81,3.89c-1,.32-1.43.07-1-1Q166.42,112.42,167.34,109.51Z"/><path class="cls-2" d="M165.47,115.33a1,1,0,0,0,1,1c-.61,1.74-2,2.74-3.39,3.82a1.24,1.24,0,0,0-.61-1.1Q164,117.21,165.47,115.33Z"/><path class="cls-2" d="M83.09,123.42l-.84.61c-.58-.07-.68-.64-1-1l0-.52C82.55,121.35,82.7,122.63,83.09,123.42Z"/><path class="cls-2" d="M81.25,123.05a1.55,1.55,0,0,1,1,1c0,.13-.07.25-.11.38C81.14,124.41,81.23,123.71,81.25,123.05Z"/><path class="cls-2" d="M51,48.93c-2.52,1.31-5.07-.37-7.59,0Z"/><path class="cls-2" d="M49.06,48.29a4.12,4.12,0,0,1,2.47-.37C50.79,48.61,49.9,48.26,49.06,48.29Z"/><path class="cls-1" d="M69.74,41.52c3.3,2.17,4.1,5.66,4.79,9.18.65,3.31,1.32,6.61,3,9.57.28.33.68.55.87,1,.1,1.43,2.34,1.68,1.88,3.42-.17.8.4,1.76-.53,2.39C77,63.5,73.18,61.1,69.54,58.55Q66.33,56.29,63.1,54c-.05-1.1-.08-2.2-.14-3.3C62.72,45.42,64.1,43.54,69.74,41.52Z"/><path class="cls-2" d="M80.31,64.65c-.65-1.25-2.41-1.74-2.39-3.46a4,4,0,0,1,1.37-.88l1.38,2.33A2.84,2.84,0,0,1,80.31,64.65Z"/><path class="cls-2" d="M58.18,45l1,.47c-.58,1.22-1.44,1-2.38.49Z"/><path class="cls-2" d="M26.13,108.67a1.41,1.41,0,0,1,1-1.4c-.08,1.16.74,2.32.18,3.6C26.13,110.39,26.25,109.47,26.13,108.67Z"/><path class="cls-2" d="M34.82,95.29l1-.45c.45.88-1.06,2.35.85,2.79a2.56,2.56,0,0,1-1.82,2.87C34.81,98.77,34.81,97,34.82,95.29Z"/><path class="cls-2" d="M70.26,132.1l.51.94c-.71,1-1.32,1.24-1.72-.22C69.27,132.27,69.58,131.87,70.26,132.1Z"/><path class="cls-2" d="M69.22,132.66c.29,1.05.81,1.14,1.55.38.53.79,0,.91-.62,1-1,.11-1.41-.43-1.46-1.35l.14-.13Q69.09,132.38,69.22,132.66Z"/><path class="cls-2" d="M69.22,132.66l-.39-.12c0-.46,0-.93,0-1.39l1,0,.48,1Z"/><path class="cls-2" d="M49.56,135c-.54-.25-1-.23-.89.51.12,1.5-.92,1.39-1.89,1.42,0-.13,0-.27,0-.4,1.72-.6.73-1.92.79-3,.1-.67,0-1.48,1.08-1.43A6.81,6.81,0,0,1,49.56,135Z"/><path class="cls-2" d="M51.54,129.21c.31.18.62.36.94.53,0,.46,0,.92.07,1.37.16.78-.18,1.06-.93.93a3.73,3.73,0,0,0-.16-.35C51.49,130.87,51.51,130,51.54,129.21Z"/><path class="cls-2" d="M51.62,132l.93-.93c.71.52.43,1.25.4,1.93C52.27,133,51.71,132.85,51.62,132Z"/><path class="cls-2" d="M52.48,40.17l.49.41a19.78,19.78,0,0,0-6.58,3.14,24.44,24.44,0,0,1-3.86,2.33c-.47.21-.87.45-1.23-.06s0-.93.36-1.22C44.86,42.3,48.06,39.78,52.48,40.17Z"/><path class="cls-2" d="M79.29,60.31c-.07.89-.63,1-1.37.88l-.36-.92c.69-.08.8-.61.88-1.16Z"/></g></g></svg>