<svg xmlns="http://www.w3.org/2000/svg" viewBox="0 0 207.63 185.74"><defs><style>.cls-1{fill:#afd0a0;}.cls-2{fill:#1d1d1b;}</style></defs><g id="Capa_2" data-name="Capa 2"><g id="Capa_1-2" data-name="Capa 1"><path class="cls-1" d="M182.3,142.23a67,67,0,0,1-10.21,14.63c-13.51,15.29-30.85,23.45-50.63,27a105.24,105.24,0,0,1-20.65,1.82c-16.68-.26-32.71-3.35-47.74-10.92C44,170.25,34.86,166,26,161.05c-3.73-2.06-6.66-5.16-9.91-7.84-5.4-4.45-10.73-9-16.1-13.5L20.78,124c.56,1.1-.43,1.57-1,2.12-1.92,2-3.83,4-5.86,5.83-1.69,2.12.68,2.78,1.45,4,.74,1.6,1.65,3.09,2.49,4.64,1,2,3.05,3.21,4.38,5a35.11,35.11,0,0,0,16.37,13A30.78,30.78,0,0,1,44.13,162c3.56,2.44,7.68,3.88,11.1,6.52a3.25,3.25,0,0,0,1.28.62c5.28,1.16,10.22,3.54,15.6,4.33,1.56.45,3,1.37,4.7,1.26a3.92,3.92,0,0,1,1,.2,10.63,10.63,0,0,0,3.92.9,3,3,0,0,1,.62.26c.93.77,2.14.45,3.19.78a3.36,3.36,0,0,1,.68.28,9.42,9.42,0,0,0,3.5,1.48,90.08,90.08,0,0,0,19.64,1.55c6.16-.29,11.85-2.15,17.77-3.24,1.23-.23,2.16-1.33,3.46-1.5,9.74-2.24,17.82-7.8,26.31-12.7,8.68-5,15.46-11.95,22.52-18.71C180.24,143.22,180.79,141.89,182.3,142.23Z"/><path class="cls-2" d="M182.73,2.88c4.35,2.94,6.19,7.63,8.53,12,2.16,4.05,3.46,8.48,5.85,12.44a24.8,24.8,0,0,1,2.52,7.33c1,4.31,3.15,8.05,4.48,12.17,1.43,4.42,1.89,8.88,2.47,13.4a160.36,160.36,0,0,1,1,21.69c-.05,5.48-2.13,10.56-2.67,15.93-.5,5-2.59,9.49-4,14.2-.14.47-.59.45-1,.53-1-1-.18-1.92,0-2.87-1.16-.22-1.28,2.3-2.78,1,0-2.63,1.2-4.93,1.9-7.36a109.82,109.82,0,0,0,4.09-24,87.41,87.41,0,0,0-6.48-39.22,148.67,148.67,0,0,1-5.92-16.67c0-1.94-.32-3.78-2.24-4.87a3.91,3.91,0,0,1-1.19-2.94A7.88,7.88,0,0,0,185.2,11c-1.64-2.38-4.06-4.17-5.27-6.88C180.21,2.17,181.08,1.62,182.73,2.88Z"/><path class="cls-2" d="M182.3,142.23c-2.88,2.75-5.77,5.49-8.64,8.24-5,4.78-10.16,9.25-16.33,12.63-5.23,2.87-10.06,6.53-15.48,9.07a43.5,43.5,0,0,1-10.78,3.58c-.69.44-1.52.17-2.29.48-2.08.83-2.69.35-2.93-2a2.66,2.66,0,0,1,2.05-1.47,86.7,86.7,0,0,0,24.23-11.2,5.64,5.64,0,0,0,3-2c4.25-3.32,8.78-6.26,12.95-9.72a105.42,105.42,0,0,0,18.76-20.48c.61-.86.92-2.12,2.33-2.13,1.14.89.39,1.88.06,2.78a50.43,50.43,0,0,1-5,10Z"/><path class="cls-2" d="M120.79,44.93c2.5-4,6.41-6.49,10.1-9a112.42,112.42,0,0,0,11.45-9.35c5-4.37,10.1-8.6,15.18-12.86a9,9,0,0,1,1.66-.88c1-.5,1.58.07,2.13.78a1.53,1.53,0,0,1,.17.69,2,2,0,0,1-1.57,1.71c-1.75.24-2.52,1.83-3.73,2.79-3,2.4-5.83,5.09-8.83,7.54a4.53,4.53,0,0,0-1.74,2.21c-2.06,2.88-5.14,4.66-7.71,7-4.1,3.74-8.47,7.18-12.63,10.85-.56.45-.79,1.44-1.82,1.11C123.07,46.17,121.27,46.22,120.79,44.93Z"/><path class="cls-2" d="M68.75,86.61c2.56-1.92,4.59-4.56,7.74-5.67,1.55-.8,2.36.15,3.11,1.28-.06,2.2-1.56,3.18-3.33,3.93-1.47-.39-2.08.53-2.55,1.67-6.46,4.09-12.38,9-19,12.8-3.8,2.19-6.46,5.88-10,8.45-3,2.14-5.87,4.4-8.79,6.61a5.38,5.38,0,0,1-2.33,1.18c-1.06,0-2.19,0-2.17-1.54l0,0c8.37-7.1,17.13-13.72,25.94-20.26C61.09,92.25,64.85,89.33,68.75,86.61Z"/><path class="cls-2" d="M184.2,139.93c1-3.53,3.31-6.48,4.38-10,.25-.83,1.16-1.6.4-2.59-.41-.77,0-1.38.42-1.93a25.89,25.89,0,0,0,2.6-4.94,35.17,35.17,0,0,0,3.89-7.63c.3-.78.36-1.79,1.55-1.84a1.41,1.41,0,0,0,.4-.22c.83-.88,1.6-2.75,2.65-2.21,1.41.72-.69,1.9-.52,3a7.37,7.37,0,0,1,0,.94,2.81,2.81,0,0,1,.05,1.18c-2.8,6.71-5.36,13.54-10.17,19.21C187.93,135.25,186.65,138.06,184.2,139.93Z"/><path class="cls-2" d="M84.59,75.22l3.23-3c1.84-1.21,3.38-2.82,5.33-3.88.76-1.3,2.19-1.64,3.38-2.3,2.46-2,5-3.82,7.46-5.72,1.2-.91,2.51-1.59,3.46.37A3.61,3.61,0,0,1,106,64.31c-5.37,4.54-10.42,9.52-17,12.39a6,6,0,0,1-3,.76A2,2,0,0,1,84.59,75.22Z"/><path class="cls-2" d="M31.35,115.32c.51,1.15,1.54,1.05,2.52,1.06.16.67-.27,1.07-.73,1.38-4.41,3-7.71,7.12-11.44,10.81a22,22,0,0,1-4.48,3.56c-.74.26-1.31,1-2.09,1-1,.07-1.64-.4-1.48-1.54A86,86,0,0,0,20.78,124C24.06,120.8,27.13,117.36,31.35,115.32Z"/><path class="cls-2" d="M68.75,86.61c-2.51,2.92-5.89,4.75-8.86,7.09-8.84,7-17.78,13.77-26.7,20.63a15.17,15.17,0,0,1-1.86,1c1-2.21,3.06-3.53,4.76-4.86,5.4-4.24,10.29-9.15,15.88-13,3.45-2.38,7.09-4.64,10.65-7C64.65,89.19,66.18,87.07,68.75,86.61Z"/><path class="cls-2" d="M164.43,8.57C168,4.23,173,2.35,177.88.21a2,2,0,0,1,2.54.68,6.3,6.3,0,0,1-2,3.22c-1.71.63-3.24,1.7-5,2.15a4.9,4.9,0,0,0-1.56.44c-1.82.81-3.36,2.17-5.29,2.75a2.67,2.67,0,0,1-.69,0A2.17,2.17,0,0,1,164.43,8.57Z"/><path class="cls-2" d="M107.17,61c-.93-1.82-2.06-.94-3.12-.2-2.52,1.74-4.69,4-7.52,5.3a52.35,52.35,0,0,1,9-7.2c4.31-2.85,8.3-6.14,12.47-9.16a8.92,8.92,0,0,1,2.41-1.52,1.13,1.13,0,0,1,1.14.68,3.56,3.56,0,0,1-1.93,3.52c-2.09,1.27-4,2.77-6.12,4-.82.18-1.65.36-1.9,1.35C110.75,59.65,109.6,61.21,107.17,61Z"/><path class="cls-2" d="M84.59,75.22l1.48,1.91c-.4,3.38-3.14,5.5-6.77,5.23-.8-.73-1.58-1.51-2.81-1.42A36.51,36.51,0,0,1,84.59,75.22Z"/><path class="cls-2" d="M120.47,48.41c-4.25,3.76-9.06,6.76-13.52,10.25-.32.25-.9.16-1.37.22,1.26-1.86,3.21-3,4.89-4.34,2.8-2.29,4.86-5.27,7.51-7.68a1.82,1.82,0,0,1,1-.43A3.12,3.12,0,0,1,120.47,48.41Z"/><path class="cls-2" d="M164.43,8.57c.53.13,1.18-.09,1.56.5.29,1.18-.61,1.72-1.35,2.18-1.25.79-2,2.23-3.48,2.67-.66-.34-1.15-1-2-1A20.23,20.23,0,0,1,164.43,8.57Z"/><path class="cls-2" d="M120.47,48.41a2.35,2.35,0,0,1-1.44-2c0-1.16,1.17-1,1.76-1.5,1.23.42,2.52.8,2.56,2.47-.35.53-1,.81-1.26,1.39a.51.51,0,0,1-.57.11Z"/><path class="cls-2" d="M178.43,3.81c.63-1,.84-2.28,2-2.92a4.16,4.16,0,0,1,2.31,2c-1.52-.68-2.25-.06-2.42,1.48C179.49,4.85,178.91,4.48,178.43,3.81Z"/><path class="cls-2" d="M93.15,68.38a13.79,13.79,0,0,1-5.33,3.88A10.1,10.1,0,0,1,93.15,68.38Z"/><path class="cls-2" d="M77.84,175.34l-.93-.19A21.89,21.89,0,0,0,72,173.88c-2.49.05-4.7-1.1-7.06-1.63-.76-.17-1.45-.69-2.21-.83-6.92-1.32-12.56-5.24-18.41-8.81-4.22-2.57-8.58-4.91-12.92-7.27-4.18-2.27-6.9-6-9.64-9.62-.44-1.22-.22-2.12,1.19-2.44a3.36,3.36,0,0,1,2.42,1.37,33.63,33.63,0,0,0,9.16,6.85c7.25,3.68,14,8.17,21.19,12.06,6.23,3.39,13.13,4.82,19.67,7.31,3.63,1.39,7.7,1.34,11.06,3.55.52.35,1,.72,1.56,1s1.58.32,1.26,1.32-1.15,1-2,.9a4.29,4.29,0,0,1-1.77-.51h0c-1-.79-2.29-.56-3.43-.86l0,0C80.85,175.28,79.34,175.36,77.84,175.34Z"/><path class="cls-2" d="M85.54,177.16c1.13-.12,2.34.28,3.77-.52A8.2,8.2,0,0,1,86,174.82c1.76-1.21,3.75-.57,5.55-.44a114.2,114.2,0,0,0,31.31-1.79c1.24-.25,2.75-.86,3.42,1-.23,2.08.38,3.1,2.68,2.27a7.36,7.36,0,0,1,2.11-.13A44.15,44.15,0,0,1,116.56,180c-6.15.84-12.41,1.71-18.68.51-2.72-.52-5.49-.8-8.22-1.24A6.49,6.49,0,0,1,85.54,177.16Z"/><path class="cls-2" d="M23.29,143.65c-1.34.07-1.43,1.08-1.53,2.07-1.47-1.57-3.38-2.74-4.31-4.8-.14-1-.56-2.06.67-2.72C21,138.93,22.23,141.2,23.29,143.65Z"/><path class="cls-2" d="M13.65,131.62c1.06,2.51,2.33-.18,3.49.14-.14,1.12.1,2.29-.41,3.37a2.77,2.77,0,0,1-1.67,1c-1.3-.37-1.78-1.54-2.32-2.55C12.3,132.71,12.36,131.8,13.65,131.62Z"/><path class="cls-2" d="M15.06,136.09a1.56,1.56,0,0,1,1.44-1c1.15.81,2.17,1.7,2.07,3.29-1.24.48-.95,1.63-1.12,2.58C16.6,139.34,15.43,137.91,15.06,136.09Z"/><path class="cls-2" d="M77.84,175.34c1.75-1.08,3.16-.7,4.28,1C80.67,176.08,79.08,176.49,77.84,175.34Z"/><path class="cls-2" d="M72,173.88c1.76-.07,3.61-.44,4.91,1.27C75.05,175.6,73.58,174.53,72,173.88Z"/><path class="cls-2" d="M82.1,176.3c1.45-1,2.53-.4,3.43.86C84.41,176.77,82.91,177.92,82.1,176.3Z"/><path class="cls-2" d="M191.3,23.09A8.91,8.91,0,0,1,189,18.2C191.08,19.2,191.45,21,191.3,23.09Z"/><path class="cls-2" d="M187.93,15.44c-1.37-1.34-1.78-3.16-2.38-4.87C187.1,11.82,187.58,13.6,187.93,15.44Z"/><path class="cls-1" d="M173.24,5.82c5.2,7.82,10.43,15.63,14.69,24,5.59,11,9.5,22.54,10.6,34.92a139.13,139.13,0,0,1-6,54.65,8.12,8.12,0,0,0-.14,1.41c-.45,2.52-2.38,4.29-3.37,6.55a114.46,114.46,0,0,1-30.64,30.51c-1,.66-2,1.29-3,1.93-1.29,1-2-.19-2.79-.85a36.92,36.92,0,0,1-2.6-3.09,18.52,18.52,0,0,0-2.94-4.3c-.45-.33-.68-1.37-1.39-.82-.54.42.29.91.49,1.37.77,1.35,2.05,2.25,3,3.46.71,1.15,1.87,1.94,2.58,3.07.56.92,1.63,1.8.77,3.11a65.38,65.38,0,0,1-20.32,10.12c-2,.54-3.73,1.72-5.85,1.72a2.16,2.16,0,0,0-2.18-.6,106.93,106.93,0,0,1-21.52,2.54c-3.17.1-6.36-.23-9.54-.37-2.35-.11-4.69-.24-7-.36-1.4-1.35-3.37-1.4-5-1.8-13.25-3.22-25.82-8-37.19-15.68A44,44,0,0,0,38,154.09a52.38,52.38,0,0,1-14.67-10.44l-4.72-5.31-2.07-3.29c.34-1.07-.53-2.37.64-3.29,4.21-3.15,7.38-7.39,11.3-10.83,1.78-1.56,3.62-3,5.43-4.55,6.24-4.76,12.53-9.43,18.43-14.67,4.52-4,10.3-6.51,15.1-10.31,1.86-1.47,3.66-3.08,6.1-3.59,1.2,1.32.3,2.73.08,4-.6,3.62-.46,4,2.91,5.33A3.51,3.51,0,0,1,78.63,99c.7,2.1-.88,3.43-1.69,5a30.46,30.46,0,0,0-3.83,6.36,13.23,13.23,0,0,0-1.65,3.19,17.17,17.17,0,0,1-3.81,4.55c-1,1.07-2.56,1.9-1.72,3.81a2.67,2.67,0,0,1,.25,1.62c-.11.86-1.16,1.48-.68,2.53.75-.06.7-.76,1-1.15A15.78,15.78,0,0,0,67.84,122a11,11,0,0,1,1.07-2,24.07,24.07,0,0,0,3.16-6.18,28.24,28.24,0,0,1,1.2-2.77A23.6,23.6,0,0,0,77,104.66c.62-1.29,1-2.74,2.48-3.43,3.57,1.3,6.87,0,10.21-1,1.49.56,1.25,1.87,1.23,3,0,1.57-.49,3.11-.42,4.7a10.09,10.09,0,0,1-.49,3.53,2.26,2.26,0,0,1-.44.62,1.29,1.29,0,0,1-.65.27c-1,0-2.33-1.21-3,.61-.48,1.33-.44,2.5,1.07,3.16,2,.73,2,2.47,2,4.18a23.06,23.06,0,0,1-.17,3.9c-1.08,3.33-.84,6.75-.82,10.26,1-1.46,1-1.46,1.14-3.67,1.25-4.09.61-8.34,1.06-12.5a80.72,80.72,0,0,0,.76-10.87,16.28,16.28,0,0,1,.37-5c.33-1.22.85-2.24,2.27-2.43a3.62,3.62,0,0,1,1.23.1q4.59,1.88,9.32,3.4a4.66,4.66,0,0,1,2.64,1.45c.68,2.78,1,5.62,1.59,8.42s1.33,5.38,2,8.07c-.09,1.77.75,3.31,1.28,4.92.45,2.23,1.36,4.32,2,6.5a8,8,0,0,0,1.9,4.06c.76-1.4-.06-2.42-.38-3.51-.38-2.49-1-4.94-.29-7.52a3,3,0,0,0-1.42-3.51,6.44,6.44,0,0,1-2.64-3.57c-.44-2.74-2.34-5-2.54-7.83,0-2-1.23-4.08.16-6.06a2.79,2.79,0,0,1,.9-.62c1.31-.16,1.21-2.31,2.84-2a4.67,4.67,0,0,1,1.31,1.52c.7,1.49,1.6,2.87,2.42,4.29a19.75,19.75,0,0,0,2,3.08,28.72,28.72,0,0,0,2.53,4.49c.56,1,1.26,2.07.24,3.23-2.41,2.43-2.07,4.11,1.07,5.37,1.3,0,1.13-2,2.56-1.83,2.39,1.48,3.41,4.08,5,6.18a38.34,38.34,0,0,0,2.55,3.77,29,29,0,0,0,3.62,5.36,15.42,15.42,0,0,0,2.86,3.8c.25.1.09.61.54.52l-.23-.42a15.28,15.28,0,0,0-2.75-4.59,25.14,25.14,0,0,0-3.33-5.24,28.52,28.52,0,0,0-2-3.43,64.61,64.61,0,0,0-7.31-11.21,47.64,47.64,0,0,1-3.72-5.63c.2-1.8,1.27-1.15,2.25-.82.6.21,1.39,1,1.77-.12a1.83,1.83,0,0,0-1-2c-.72-.49-1.49-.64-2,.32-.36.66-.39,1.65-1.54,1.48-1.22-.7-1.81-2-2.77-2.95-.72-1.16-1.55-2.25-2.23-3.45-.4-1.11-1-2.2-.53-3.44.73-.78,2.09-.38,2.67-1.44a5.11,5.11,0,0,0,.88-4.5,3.94,3.94,0,0,1,1.1-4.14,3.23,3.23,0,0,0,1-2.33A8.31,8.31,0,0,1,123.85,81c1.45-.84,2.81-.34,4.06.4a29.67,29.67,0,0,0,6.74,3c-1.71-1.06-3.56-1.82-5.29-2.8s-3.2-2.13-3.26-4.35c.12-2.76.71-5.24,3.63-6.4,2.71-.43,5.24,1.1,8,.72,2.34.42,4.67.95,7,1.2a6.92,6.92,0,0,0,6.09.82c2.52-.33,5.16.31,8-1-.1,0-.66-.14-.44.09-2.32.59-4.66.12-7,.21a5.71,5.71,0,0,1-1.16-.18,39.17,39.17,0,0,0-4.15-1c-4.13-.06-8.19-.89-12.3-1.14-1.79-.1-3.1-.62-3.52-2.51a4.57,4.57,0,0,1,1.21-6c1.14-1,1.66-2.35.41-3.54-1.87-1.79-3.15-3.74-3-6.44,0-.38-.35-.7-.61-1-1.81-1.28-3.72-2.48-3.43-5.15l20.64-17.68c2.31-2.87,5.4-4.86,8.2-7.17,2.08-1.71,3.64-4,6.08-5.28a3.53,3.53,0,0,0,1.42-1.47,40.23,40.23,0,0,1,5.16-4.69,9.94,9.94,0,0,0,5.3-3.41C172,5.63,172.65,5.77,173.24,5.82Z"/><path class="cls-2" d="M152.45,161.77c-.22-2.7-2.84-3.91-3.82-6.13a1.26,1.26,0,0,1,1.64-.08c1.22.72,1.66,2.1,2.59,3.08a3.45,3.45,0,0,0,2.5,1.18A2.9,2.9,0,0,1,152.45,161.77Z"/><path class="cls-2" d="M159.77,15.86c-4.16,4.85-9.31,8.54-14.28,12.45-.76-.69.1-1,.4-1.25,4.22-3.78,8.47-7.53,12.71-11.28C159,15.41,159.42,15.31,159.77,15.86Z"/><path class="cls-2" d="M124.85,46a7.67,7.67,0,0,0,3.77,4.78c-1.24.45-1.61,1.77-2.56,2.51-1.84-1.09-2.42-3.33-4.16-4.5-.64-1.64.67-1.23,1.45-1.38C124.42,47.54,124.13,46.23,124.85,46Z"/><path class="cls-2" d="M166.43,10c-1.75,1.45-3.12,3.35-5.24,4.36a3.71,3.71,0,0,1,0-.47c1.11-2.12,3.62-2.83,4.83-4.84l.46,0A.58.58,0,0,1,166.43,10Z"/><path class="cls-1" d="M121.9,48.78c1.26-.06,2.26.32,2.41,1.71s1.86,1.44,1.86,2.77c.66.5.65,1.24.72,2,0,2.36,0,4.71,0,7.07-.39,5.24-1.55,10.18-5,14.4s-5.19,9.28-6.68,14.43a6.12,6.12,0,0,0-.28,2.08c-.18,2.89-.54,3.29-3.37,3.81-.21.09-.43.16-.64.23A4,4,0,0,0,109,98.46c-1.27.56-1.11,2.39-2.51,2.83a4.45,4.45,0,0,1-2-.83c-2-1.18-4.09-2.18-6.54-1.19A1.89,1.89,0,0,1,96.63,99c-4-2.61-8.07-3.59-12.56-1.29a4.11,4.11,0,0,1-3.9-.24A12.24,12.24,0,0,1,76.43,90c-.2-1.38-1.28-2.78-.36-4.27,1.43-.81,3-1.5,3.23-3.41a8.28,8.28,0,0,0,6.77-5.23c4.37-1.17,8-3.7,11.47-6.46,2.23-1.77,4.49-3.51,6.66-5.35,1.36-1.16,2.94-2.24,3-4.34,1.92-.63,3.52-1.61,4.19-3.67.27-1,1.2-1,1.91-1.29,2-1.32,3.91-2.7,6-3.92a6.12,6.12,0,0,0,2.3-3.2A.64.64,0,0,0,121.9,48.78Z"/><path class="cls-2" d="M76.07,85.77c.86,4,1.41,8.13,4.28,11.38a3.58,3.58,0,0,1-1.44,2.12.54.54,0,0,1-.59-.13,5,5,0,0,0-2.8-1.62c-2.7-.71-3.33-1.8-2.8-4.56a22.43,22.43,0,0,0,.78-5.15C73.54,86.1,74.15,85.11,76.07,85.77Z"/><path class="cls-2" d="M166.43,10l0-.91,5.2-2.83C170.84,8.83,168.8,9.65,166.43,10Z"/><path class="cls-2" d="M113.27,56l-1.91,1.29C111.29,55.84,112.35,56,113.27,56Z"/><path class="cls-2" d="M110.44,96.83a.35.35,0,0,1,.39-.13c.35-.23.81-.08,1.14-.23.83-.39,1.69.86,2.18.23a4.44,4.44,0,0,0,.69-4.48c-.17-.46-.46-.84-.14-1.32,1.14-4.9,2.79-9.67,6-13.58a26.53,26.53,0,0,0,5.65-14.6c.39-2.41-.2-4.92.75-7.28.07-.18.41-.53.06-.66-.14-.05-.47.36-.83.27,0-.6-.09-1.19-.13-1.79.26-1.38.31-3,2.45-2.49,1.22.49,1.2,1.51,1,2.56A3.61,3.61,0,0,0,131.21,57c2.81,2.27,2.86,3.84.08,6.07-1.75,1.4-1.28,2.81-.66,4.41a4.15,4.15,0,0,1-1,3.92c-2.23,1.45-3,3.62-3,6.15,0,1.82-1.27,2.77-2.42,3.83-2.42,1.79-4.56,3.73-4.21,7.18a1.94,1.94,0,0,1-.57,1.5c-2,1.54-2.1,3.44-1.52,5.7a3.72,3.72,0,0,1-1.28,3.86,6.18,6.18,0,0,1-4.59.15,2.64,2.64,0,0,1-.71-.31C110.61,98.74,109.82,98,110.44,96.83Z"/><path class="cls-2" d="M78.78,99.19c.43-.75.64-1.67,1.57-2a5.39,5.39,0,0,0,4.32-.32c4.51-2,8.59-1,12.35,1.9.74,2.15-.78,1.87-2,1.89l-.83-.08a4.4,4.4,0,0,0-4.81,0c-3.19,2-6.49,2.7-10,1C78,101,78.71,100,78.78,99.19Z"/><path class="cls-2" d="M51,125.4l4.4-6.55A35.5,35.5,0,0,1,61.54,112c1.18-1,3.1-1.56,2.37-3.77,1.38-.86,2.31-.29,3,1L52.54,126.92C51.14,127.31,50.65,126.79,51,125.4Z"/><path class="cls-2" d="M113.34,133.11a22.53,22.53,0,0,1-2-6.66c-.27-1.63-.81-3.2-1.16-4.81.09-1.06-.72-2.47,1.12-2.85a6.75,6.75,0,0,0,3.06,3.38,2.41,2.41,0,0,1,1.36,3c-.89,2.81-.3,5.56,0,8.34.27.81.25,1.68-.63,1.95s-.93-.82-1.37-1.28C113.5,133.89,113.58,133.43,113.34,133.11Z"/><path class="cls-2" d="M138,98.27l-4.19-2.45c-1.85-1.31-.16-2.61,0-3.92.46-2.33,1.06-2.7,3.17-1.9a8.3,8.3,0,0,1,.86.38c4.47,2.22,4.62,2.77,1.88,6.78C139.48,98,139,98.48,138,98.27Z"/><path class="cls-2" d="M95,100.62c.74-.56,2.23-.32,2-1.89,3.69-1.22,6.74.15,9.58,2.37,1.09,1.11,2.63,2,1.76,4a1.63,1.63,0,0,1-1.84-.17C102.66,103.54,98.61,102.65,95,100.62Z"/><path class="cls-2" d="M92.41,115c.22-1.14.42-2.39.71-3.63A2,2,0,0,1,95,109.73a2.22,2.22,0,0,1,2.18,1.2c1.08,1.62.66,5.11-.77,6.46a2.19,2.19,0,0,1-2.63.47C92.57,117.29,92.37,116.24,92.41,115Z"/><path class="cls-2" d="M54.75,116.74c-1.34,0-2.54-.26-3-1.72s.59-2.18,1.44-3c1.53-1.45,3.23-2.54,5.48-2.34,1.77.84,1.76,2.13.74,3.49A9.34,9.34,0,0,1,54.75,116.74Z"/><path class="cls-2" d="M129,128.83l-4.77-6.21c-1.15-.67-1.18-2-1.85-3-.28-1.25-1.32-2.86,1.29-2.78a40.77,40.77,0,0,1,7.37,11.46C130.61,129.34,130,129.85,129,128.83Z"/><path class="cls-2" d="M66.93,109.21c-1-.42-1.85-1.15-3-1-1.78-1.27-1.76-2.57-.2-4,2.78-2.62,3.68-2.79,5.59-.83,1,1.15.56,2.29,0,3.43C68.63,107.74,68.13,108.81,66.93,109.21Z"/><path class="cls-2" d="M173.15,82.86a46,46,0,0,1,17.46,2.4c-1.49,1-2,1.09-3.29.92-4.87-.67-9.75-1.32-14.62-2C172.17,83.53,172.55,83.15,173.15,82.86Z"/><path class="cls-2" d="M90.88,118.33c-.26,4.29.51,8.67-1.12,12.84-2.15-.52-1.91-2.23-1.65-3.71a10.77,10.77,0,0,0,.21-3l.16-4.27c.23-2.73.63-5.44.86-8.17,0-.15.08-.29.13-.44a1.06,1.06,0,0,1,1.23-.13C91.38,113.74,91,116,90.88,118.33Z"/><path class="cls-2" d="M157.05,92.8c4.09,1.11,7.58,3.49,11.31,5.37.26.87-.28,1.2-1,1.44a47.72,47.72,0,0,1-12.47-5.7C154.78,91.91,156.07,92.65,157.05,92.8Z"/><path class="cls-2" d="M152.57,132.12a43.25,43.25,0,0,1-9.15-9.94c-.19-.79-.11-1.42.9-1.47a37.46,37.46,0,0,1,9.24,10A3.11,3.11,0,0,1,152.57,132.12Z"/><path class="cls-2" d="M77,125.88a4.73,4.73,0,0,1-1.2,3.73,2.08,2.08,0,0,1-2.51.77,2,2,0,0,1-1.44-2.2,10.36,10.36,0,0,1,2.07-5.2c.82-1.14,2.49-.66,2.92.79A9.76,9.76,0,0,1,77,125.88Z"/><path class="cls-2" d="M136.6,49.77c-1.17-.11-2.14-.44-2.45-1.63s.46-1.9,1.48-2.37a6,6,0,0,1,3.91-.75,2.22,2.22,0,0,1,1.88,1.62c.23,1-.49,1.64-1.24,2.11A9.7,9.7,0,0,1,136.6,49.77Z"/><path class="cls-2" d="M90.88,118.33c-.56-2.23.55-4.59-.51-6.79-.29-1.07.29-2.27-.47-3.28-.44-1.78.41-3.45.45-5.19,0-.95.5-2.16-1-2.54,1.65-2,2.68-2,4.81,0a1.79,1.79,0,0,0-2.08,1.75,20,20,0,0,0-.27,3.78A91.36,91.36,0,0,1,90.88,118.33Z"/><path class="cls-2" d="M138,57.72c-1.26-.25-2.86,0-3-1.91-.12-1.54,1.64-2.94,3.94-2.86,1.13,0,2.73-.14,2.9,1.69C142,56.23,140.14,57.68,138,57.72Z"/><path class="cls-2" d="M172.19,61.31c-4,.75-7.92.45-12.37-.18,6.67-2.42,13.15-1.65,19.54-1.69-.44,1.49-1.74.93-2.71,1.07C175.15,60.72,173.53,60.2,172.19,61.31Z"/><path class="cls-2" d="M144.88,100.24c3.3.82,5.24,3.78,8.15,5.2.54,1.16.39,1.78-1.07,1.4a45.65,45.65,0,0,1-9.47-5.32A7.27,7.27,0,0,1,144.88,100.24Z"/><path class="cls-2" d="M123.7,116.85c-2.14.42-.87,1.83-.83,2.88a1.31,1.31,0,0,1-1.21,1.1c-1-.4-1.56-1-1.22-2.19.84-1.19,0-2.08-.58-3-.93-1.45-2-2.8-2.36-4.56a1.09,1.09,0,0,1,1.36-.74c.63.16.8.75,1.12,1.2Z"/><path class="cls-2" d="M129.62,71.39c.34-1.31.67-2.62,1-3.92.31,2.08,1.55,2.51,3.57,2.6,4.07.18,8.13.79,12.19,1.23-1.08,1.09-2.48.61-3.76.75-1.61.18-3.25-.37-4.85.19C135,72.85,132.38,71.27,129.62,71.39Z"/><path class="cls-2" d="M130.05,105.34c1.86-.55,5.69,1.26,6.33,3a1.73,1.73,0,0,1-.48,1.93,1.48,1.48,0,0,1-2,.21c-1.14-.71-2.2-1.54-3.3-2.32C129.87,107.3,129.27,106.47,130.05,105.34Z"/><path class="cls-2" d="M124.25,81.37c.28-1.61,2.11-2.24,2.42-3.83,0,1.69,1.12,2.62,2.37,3.31,2.41,1.33,4.9,2.51,7.38,3.77-.59.9-1.34.58-2.11.35a21.94,21.94,0,0,1-6.08-2.7C127,81.47,125.79,80.75,124.25,81.37Z"/><path class="cls-2" d="M107.07,126c-.06,1.24.2,2.87-1.81,2.9-1.68,0-2.11-1.26-2-2.66s-.36-3.61,2-3.61C107.37,122.66,107,124.56,107.07,126Z"/><path class="cls-2" d="M172.19,61.31c.12-1.49,1.2-1.39,2.27-1.47,1.64-.12,3.33.46,4.9-.4h.52c1.09.65,2.27.4,3.44.37.89,0,1.92-.3,2.28,1A31,31,0,0,1,172.19,61.31Z"/><path class="cls-2" d="M154.38,57c1.17,0,2.52,0,2.38,1.56-.18,1.94-1.93,2.15-3.42,2.22-1.2,0-2.75-.35-2.64-1.77C150.86,56.8,152.84,57.09,154.38,57Z"/><path class="cls-2" d="M179.45,75.56c-3.5.54-6.72-.83-10-1.58,3.82-.52,7.63-1.58,11.41.19C181.13,75.38,179.91,75.09,179.45,75.56Z"/><path class="cls-2" d="M133.85,91.9c1.13,1.31-1,2.61,0,3.92a25,25,0,0,1-7.21-5.19c-.19-.31-.58-.62-.39-1s.61-.37,1-.11c1.51.31,2.6,1.42,3.91,2.12C132,92.1,132.83,93,133.85,91.9Z"/><path class="cls-2" d="M185.6,60.76c-1-.75-2.16-.28-3.24-.38-.92-.09-2,.21-2.48-1a51,51,0,0,1,13.57.06C190.89,61.23,188.2,60.73,185.6,60.76Z"/><path class="cls-2" d="M51,125.4a1.44,1.44,0,0,0,1.52,1.52,22.08,22.08,0,0,1-4.43,5.69c-1.44.44-1.69-.24-1.39-1.45A17,17,0,0,1,51,125.4Z"/><path class="cls-2" d="M111.32,118.79a3.18,3.18,0,0,0-.89,2.84c-.13.22-.25.23-.36,0a30.76,30.76,0,0,1-2.08-8.06c-.19-1-.7-2.18,1-2.45C109.23,113.82,111.47,115.94,111.32,118.79Z"/><path class="cls-2" d="M108.5,104.86l-1.9-3.76c.94-.88.38-2.93,2.34-3a2.78,2.78,0,0,1,2.14,1.26,10.59,10.59,0,0,1-1.18,5.5l-.79.11A.39.39,0,0,1,108.5,104.86Z"/><path class="cls-2" d="M88.32,124.47c.94.87.57,1.89.32,2.87a3.6,3.6,0,0,0,1.12,3.83c.25,2-.32,3.7-2.35,5.45C87.59,132.24,87,128.32,88.32,124.47Z"/><path class="cls-2" d="M149,68c-1.26,0-2.78.16-2.72-1.71.05-1.6,1.39-1.73,2.63-1.63s2.9-.19,3,1.5C152.07,68.05,150.43,68,149,68Z"/><path class="cls-2" d="M120,111.58l-1-.94a.37.37,0,0,1,.06-.54c.54,0,.91-.19.92-.81,0-1.83,1-2.12,2.51-1.59s2.45,2.5,1.87,3.61c-.68,1.27-1.52.52-2.4.19C121.37,111.28,120.54,109.64,120,111.58Z"/><path class="cls-2" d="M120.44,118.64c.37.75.61,1.59,1.43,2,1.59,1.42,1.38,2.84,0,4.28-1.67-.43-3.16-1.22-3.43-3A2.88,2.88,0,0,1,120.44,118.64Z"/><path class="cls-2" d="M54.75,116.74c.84-1.29,2.32-1.84,3.37-2.88,1.24-1.22,2.28-2.53.52-4.16,1.71-.16,1.74,1.79,2.9,2.32-1.46,2.8-3.88,4.73-6.12,6.83C55.37,118.09,56,117.12,54.75,116.74Z"/><path class="cls-2" d="M138.83,38.9a3.57,3.57,0,0,1-3.1,3.35c-1,0-1.65-.48-1.68-1.56,0-1.32,1.93-3.23,3.33-3.25C138.35,37.43,138.8,38,138.83,38.9Z"/><path class="cls-2" d="M130.53,119.09c-1.4-.06-3.3-2.42-3.22-3.82,0-.75.24-1.41,1.22-1.39,1.3,0,3.51,2.49,3.43,3.79C131.89,118.7,131.13,118.88,130.53,119.09Z"/><path class="cls-2" d="M147.33,46.07c-1.17-.09-2.4-.28-2.37-1.75,0-1.66,1.17-2.23,2.76-2.22,1.33,0,2.27.57,2.25,1.87C150,45.55,148.7,46,147.33,46.07Z"/><path class="cls-2" d="M144.88,100.24c-.37,1.22-1.4,1.22-2.39,1.28A8.23,8.23,0,0,1,138,98.27l1.72-1.11A13.44,13.44,0,0,1,144.88,100.24Z"/><path class="cls-2" d="M79.41,115.74c0,1.45-.54,2.48-2,2.49s-1.53-1.32-1.54-2.43c0-1.46.47-3,2-3C79.64,112.83,79.17,114.65,79.41,115.74Z"/><path class="cls-2" d="M86.39,116.47a3.17,3.17,0,0,1-.67-4.59c1.13-1.56,2.14-.63,3.12.25C89.46,115.07,88.68,116.44,86.39,116.47Z"/><path class="cls-2" d="M86.38,125.2c-.55,1.17-.15,3.13-2.21,3.32a1.37,1.37,0,0,1-1.49-1.72c.23-1.46.34-3.21,2.07-3.64C85.94,122.86,86.18,124.1,86.38,125.2Z"/><path class="cls-2" d="M137.78,72.24c1.48-1.53,3.39-.73,5.11-.88,1.16-.11,2.33,0,3.5-.06a10.17,10.17,0,0,1,3.87,1c-1.64,1.19-3.64.64-5.43,1.12C142.39,73.56,140.1,72.81,137.78,72.24Z"/><path class="cls-2" d="M173.15,82.86l-.45,1.34-8.15-.93c-.31-.28-1.14-.13-.94-.76.29-.9,1.07-1,1.91-.67C168.07,82.08,170.76,81.36,173.15,82.86Z"/><path class="cls-2" d="M56.43,103.56c-.2,1.85-1.61,2.4-3.12,2.7a1.26,1.26,0,0,1-1.64-1.47c.36-1.74,1.82-2.51,3.44-2.81C56.23,101.78,56.29,102.74,56.43,103.56Z"/><path class="cls-2" d="M167.4,99.61l1-1.44c2.87.38,4.72,2.72,7.23,3.77-.33,1.38-1.25.69-2,.57C171.52,101.56,169.15,101.24,167.4,99.61Z"/><path class="cls-2" d="M130.05,105.34c-.3,1,.58,1.8.58,2.77-3.44-1.07-5.47-3.65-7.14-6.62a1.11,1.11,0,0,1,1.4,0c.92.88,1.85,1.73,2.74,2.62C128.31,104.79,128.94,105.53,130.05,105.34Z"/><path class="cls-2" d="M72.69,110.17a18.07,18.07,0,0,1,3.78-6.25c1-.4,1.29,0,.93,1a15.39,15.39,0,0,1-3.73,6.35C73.05,111.15,72.85,110.69,72.69,110.17Z"/><path class="cls-2" d="M65.52,122.05c-1.38-2.22.45-3.18,1.71-4.37,2-.2,2.62.66,2,2.52l-1,1.87A1.89,1.89,0,0,1,65.52,122.05Z"/><path class="cls-2" d="M69.26,120.2a2.25,2.25,0,0,0-2-2.52c1.68-1.05,2.44-2.92,3.83-4.23.66-.34,1.1,0,1.48.5A17.29,17.29,0,0,1,69.26,120.2Z"/><path class="cls-2" d="M144.32,120.71l-.9,1.47a15.1,15.1,0,0,1-5.24-6.28c-.14-.47,0-.62.5-.5A19.56,19.56,0,0,1,144.32,120.71Z"/><path class="cls-2" d="M151.11,72.38a23,23,0,0,1,8.21.44c-2.93,2.06-5.85,1.46-8.68,1.4C150,73.41,150.6,72.9,151.11,72.38Z"/><path class="cls-2" d="M133,131.56a13.32,13.32,0,0,1,3.31,5.37c-.14.61-.22,1.26-1.12,1.06a17,17,0,0,1-3.66-5.37A2.11,2.11,0,0,1,133,131.56Z"/><path class="cls-2" d="M152,83.43c-1.17-.24-2.82,0-3-1.89A1.4,1.4,0,0,1,150.69,80c1.48.16,3,.54,3.15,2.3C153.94,83.27,153,83.44,152,83.43Z"/><path class="cls-2" d="M108.5,104.86l.61.09a3.65,3.65,0,0,0-.44,3.6,5.07,5.07,0,0,1,.3,2.55c-1.16.48-.8,1.57-1,2.45a47.37,47.37,0,0,1-1.47-8.62Z"/><path class="cls-2" d="M67.26,96.68c-.3,1.28-.77,2.45-2.36,2.5-1.08,0-2-.4-1.8-1.63.2-1.45,1.3-2.07,2.67-2.24C66.76,95.19,67.24,95.68,67.26,96.68Z"/><path class="cls-2" d="M179.25,123.14a11.5,11.5,0,0,1-7.56-4.28A9.28,9.28,0,0,1,179.25,123.14Z"/><path class="cls-2" d="M151.11,72.38l-.47,1.84a4.78,4.78,0,0,1-5.81-.84c1.51-1.83,3.62-.75,5.43-1.12Z"/><path class="cls-2" d="M129,94.85a3,3,0,0,1,2.76,2.32c.16.88-.71,1.22-1.47,1.09-1.37-.23-2.71-.63-3-2.25C127.07,95.05,127.69,94.75,129,94.85Z"/><path class="cls-2" d="M56.41,142.55c0-3.06,1.56-5.21,3.44-7.31C60.34,137.83,59,140.69,56.41,142.55Z"/><path class="cls-2" d="M143.9,89.58c-1.4-.5-1.84-1.52-1.1-2.74s1.78-.47,2.62,0a11.41,11.41,0,0,1,1.43,1.17C146.67,90.09,146.5,90.17,143.9,89.58Z"/><path class="cls-2" d="M46.72,131.16c.07.86.45,1.42,1.39,1.45-1.1,1.75-2.29,3.4-4.73,4.21C43.34,134.08,45.53,132.89,46.72,131.16Z"/><path class="cls-2" d="M150.27,155.56l-1.64.08a7.41,7.41,0,0,1-2.84-3.3c-.34-1.59.48-1.49,1.54-1.06A10.32,10.32,0,0,1,150.27,155.56Z"/><path class="cls-2" d="M181.77,74.28A14.7,14.7,0,0,1,190,75.76c-2,1.43-2.92,1.42-5.45,0-.27-.82-1-.49-1.52-.59S181.75,75.2,181.77,74.28Z"/><path class="cls-2" d="M157.88,108.21A5.94,5.94,0,0,1,162,112c-2.4,0-3.68-1.52-5.13-2.79C156.71,108.38,157.06,108.06,157.88,108.21Z"/><path class="cls-2" d="M158.87,136.89a9.77,9.77,0,0,1,4.31,4.36c-.22.45-.52.71-1.05.49a15.28,15.28,0,0,1-4.23-4.36A1.21,1.21,0,0,1,158.87,136.89Z"/><path class="cls-2" d="M135.22,138l1.12-1.06a8.56,8.56,0,0,1,2.9,4.76.87.87,0,0,1-1.18.07A6.84,6.84,0,0,1,135.22,138Z"/><path class="cls-2" d="M142.11,79.87a2.21,2.21,0,0,1-2.3-1.72,1.26,1.26,0,0,1,1.53-1.37c1,.13,2.12.33,2.25,1.66C143.69,79.49,142.9,79.73,142.11,79.87Z"/><path class="cls-2" d="M86.39,116.47c2.61-.44,1.69-2.86,2.45-4.34l.5-.1c1.4,2.9-.47,5.46-.86,8.17C88.41,118.61,88.78,116.76,86.39,116.47Z"/><path class="cls-2" d="M133,131.56a1.55,1.55,0,0,1-1.47,1.06,9.84,9.84,0,0,1-2.53-3.79c.87.56,1.39-.23,2-.52C132.29,129.05,132.54,130.37,133,131.56Z"/><path class="cls-2" d="M109.9,104.84c.34-1.89-.12-3.94,1.07-5.68.09-.24.23-.26.41-.09a1.41,1.41,0,0,0,.45.07,1.86,1.86,0,0,1,1.06,1.55,2,2,0,0,1-.59,1.82C110.91,102.68,111.34,104.72,109.9,104.84Z"/><path class="cls-2" d="M113.34,133.11l1.6,2.08a2.54,2.54,0,0,0,.83-1.69c.85,1.42,1.9,3.53.26,4.23-1.79.78-1.49-2-2.37-3C113.36,134.33,113.44,133.65,113.34,133.11Z"/><path class="cls-2" d="M107,114c-.14.84-.39,1.76-1.47,1.75s-1.49-.72-1.43-1.75.44-1.78,1.46-1.81S107,113,107,114Z"/><path class="cls-2" d="M87.85,148a7.14,7.14,0,0,1-.7,4.67c-1.81-1.8-.74-3.77-.62-5.63C87.48,146.27,87.48,146.27,87.85,148Z"/><path class="cls-2" d="M143.9,89.58c1.16-.15,2.74.48,2.95-1.53l2.47,1.84a1,1,0,0,1-.11,1.09C147.34,90.88,145.34,91.29,143.9,89.58Z"/><path class="cls-2" d="M69.27,106.8l0-3.43,1.89-.87c.62-.36,1.23-.65,1.39.44A9.89,9.89,0,0,1,69.27,106.8Z"/><path class="cls-2" d="M137.22,103.4c-1.16-.2-2-.69-2.16-1.87-.07-.76.54-1,1.25-1.07a1.88,1.88,0,0,1,2.21,1.62C138.62,102.84,137.94,103.28,137.22,103.4Z"/><path class="cls-2" d="M152.57,132.12c0-.73,0-1.38,1-1.41,1.77.71,1.78,2.92,3.3,3.84a1.59,1.59,0,0,1-1.89,0C154.24,133.67,153,133.26,152.57,132.12Z"/><path class="cls-2" d="M119.07,110.1l-.06.54-1.51.48a4.26,4.26,0,0,1-1.82-2.88c-.09-.87.28-1.25,1.15-1.08A8.1,8.1,0,0,1,119.07,110.1Z"/><path class="cls-2" d="M157.88,108.21a1.66,1.66,0,0,0-1,1,6.62,6.62,0,0,1-3.38-1.78,1.51,1.51,0,0,1,.08-1.69A9.71,9.71,0,0,1,157.88,108.21Z"/><path class="cls-2" d="M149.21,91c0-.36.07-.72.11-1.09,1.5.25,3,.43,4.21,1.55.3.89-.51,1-.95,1.41C151.38,92.36,149.91,92.36,149.21,91Z"/><path class="cls-2" d="M121.89,125a5.12,5.12,0,0,0,0-4.28l1-1c.89.76,1,1.9,1.39,2.89C123,123,123.61,125.13,121.89,125Z"/><path class="cls-2" d="M181.26,46.41l-6.19,1.49a.33.33,0,0,1-.14-.36c0-.12.07-.19.12-.19.78-1.66,2.94-.45,3.85-1.85C181,45.05,181.16,45.13,181.26,46.41Z"/><path class="cls-2" d="M116.83,107.16a1.94,1.94,0,0,0-1.15,1.08,9.3,9.3,0,0,1-2.35-4.33.94.94,0,0,1,1.37,0Z"/><path class="cls-2" d="M46,118.14c-.67,1.72-1.12,3.62-3.3,4.39C42.26,119.82,44.7,119.41,46,118.14Z"/><path class="cls-2" d="M167.9,115.37a4.29,4.29,0,0,1,3.28,2.46c.14.29,0,.77-.35.74-1.67-.19-2.52-1.49-3.43-2.68C167.28,115.43,167.4,115.22,167.9,115.37Z"/><path class="cls-2" d="M171.27,35.47c-.84.56-1.65,1.16-2.52,1.67-.47.28-1.16.43-1.52,0s.23-1,.59-1.34a4.67,4.67,0,0,1,3-1.23C170.38,35.13,170.92,35.25,171.27,35.47Z"/><path class="cls-2" d="M172.68,48.89a2.61,2.61,0,0,1-2.45.85c-.55-.57-1.51-.59-1.9-1.4a3.81,3.81,0,0,1,3.45-.87C172.22,47.86,173.1,48,172.68,48.89Z"/><path class="cls-2" d="M165.52,81.84c-.38.44-2.46-.28-1,1.43a3.62,3.62,0,0,1-3-1c-.31-.32,0-.84.29-1a3.14,3.14,0,0,1,3.33.26A3.4,3.4,0,0,1,165.52,81.84Z"/><path class="cls-2" d="M72.54,114l-1.48-.5a5.12,5.12,0,0,1,1.63-3.28c.33.35.66.7,1,1.06C73.29,112.13,72.92,113,72.54,114Z"/><path class="cls-2" d="M152.58,92.85c-.08-.74.69-.9.95-1.41a5.33,5.33,0,0,1,3.52,1.36c-.78.23-1.94-.27-2.12,1.11Z"/><path class="cls-2" d="M121.91,153.23a12.1,12.1,0,0,1,1,4.36c-2.06-.77-2.12-2.26-2.07-3.81C120.85,152.9,121.3,152.92,121.91,153.23Z"/><path class="cls-2" d="M114.7,103.93l-1.37,0a1.74,1.74,0,0,1-1-1.4l.12-2a1,1,0,0,1,1.41.16Z"/><path class="cls-2" d="M181.77,74.28c.71.68,1.63.31,2.45.45s1,.44.33,1l-5.1-.2,1.37-1.39Z"/><path class="cls-2" d="M77.4,104.88c0-.59-.3-.95-.93-1,.23-1.74,2.4-2.73,1.85-4.78a2.4,2.4,0,0,1,.46,0c.29.75-.2,1.68.53,2.33Z"/><path class="cls-2" d="M121.91,153.23a1.11,1.11,0,0,0-1,.55,3.33,3.33,0,0,1-.94-1.94c-.15-1-.7-2.16,1-2.41A11.73,11.73,0,0,1,121.91,153.23Z"/><path class="cls-2" d="M127.22,89.53c-.9,0-.69.58-.58,1.1a5.05,5.05,0,0,1-2.41-1.41c-.34-.38-1-.78-.56-1.34s1-.27,1.52.06C125.89,88.43,126.54,89,127.22,89.53Z"/><path class="cls-2" d="M72.58,102.94c-.32-.58-.89-.42-1.39-.44.12-.21.23-.42.36-.62a4.16,4.16,0,0,1,2.26-2c.12,0,.47.27.48.43A2.81,2.81,0,0,1,72.58,102.94Z"/><path class="cls-2" d="M65.52,122.05l2.71,0A4.28,4.28,0,0,1,66.86,125c-1.17.06-1.31-.58-1-1.51Z"/><path class="cls-2" d="M168.33,48.34c.8.24,1.8.22,1.9,1.41a17,17,0,0,1-1.89,0c-.72,0-1.94.34-2-.68S167.61,48.49,168.33,48.34Z"/><path class="cls-2" d="M65.84,123.47a1.65,1.65,0,0,0,1,1.51c-.21.83-.27,1.8-1.27,2.07-.23.06-.74-.37-.88-.68C64.12,125.06,65.37,124.4,65.84,123.47Z"/><path class="cls-2" d="M173.59,102.51c.68-.15,1.5.22,2-.57a3.84,3.84,0,0,1,2.34.55c.49.69.19,1.1-.47,1.4C176,104,174.86,103,173.59,102.51Z"/><path class="cls-2" d="M120.92,149.43c-1.16.46-.82,1.54-1,2.41-.64-.61-.31-1.48-.57-2.2s-1.22-1.72.17-2S120.94,148.44,120.92,149.43Z"/><path class="cls-2" d="M177.46,103.89l.47-1.4c1,.47,2.21.59,3.33,1.72C179.72,104.4,178.56,104.78,177.46,103.89Z"/><path class="cls-2" d="M155,134.55h1.89c1,.52,1.28,1.61,2,2.34a1,1,0,0,1-1,.49Z"/><path class="cls-2" d="M113.83,100.63l-1.41-.16c-.2-.45-.4-.89-.59-1.33a14.38,14.38,0,0,0,4.84.47C116.07,100.9,114.82,100.4,113.83,100.63Z"/><path class="cls-2" d="M147.33,151.28c-.75,0-1.45.1-1.54,1.06-.6-.49-1.43-.89-1.13-1.87a1.26,1.26,0,0,1,.83-.75C146.6,149.58,146.91,150.53,147.33,151.28Z"/><path class="cls-2" d="M181.26,46.41c-.31-1.56-1.55-.66-2.36-.91.6-.72,1.44-.45,2.18-.51s1.65-1.08,1.94.11S182.09,46.27,181.26,46.41Z"/><path class="cls-2" d="M110.07,121.61l.36,0a7.43,7.43,0,0,1,.93,4.82C110.64,124.91,109.75,123.42,110.07,121.61Z"/><path class="cls-2" d="M162.13,141.74l1.05-.49c.27.15.55.28.81.46.47.33,1.29.61.58,1.37-.55.58-1.14.29-1.59-.24C162.68,142.49,162.41,142.11,162.13,141.74Z"/><path class="cls-2" d="M172.68,48.89l-.9-1.42,3.27-.12c0,.19,0,.37,0,.55A3.28,3.28,0,0,1,172.68,48.89Z"/><path class="cls-2" d="M167.9,115.37l-.5.52c-.77-.58-2.19-.28-2.31-1.7,0-.16.23-.5.37-.5C166.65,113.67,167.1,114.78,167.9,115.37Z"/><path class="cls-2" d="M89.9,108.26c1.43.91.9,2.1.47,3.28l-.9,0C89.61,110.48,89.75,109.37,89.9,108.26Z"/><path class="cls-2" d="M87.85,148c-.55-.17-.13-1.68-1.32-1,0-.64-.33-1.85.57-1.66C88.33,145.62,87.83,147,87.85,148Z"/><path class="cls-2" d="M172.2,34c.4-.54.88-.92,1.57-.49a.64.64,0,0,1,.15.6c-.45.65-1.14.3-1.73.35-.14-.11-.19-.21-.14-.31S172.15,34,172.2,34Z"/><path class="cls-2" d="M138.06,141.76l1.18-.07c.33.4.88,1.06.36,1.29C138.69,143.39,138.34,142.49,138.06,141.76Z"/><path class="cls-2" d="M172.2,34c0,.15,0,.31,0,.46l-.93,1c-.75,0-.85-.36-.49-.95Z"/><path class="cls-2" d="M153.56,105.74l-.08,1.69-1.52-.59c.9,0,1.13-.61,1.07-1.4Z"/><path class="cls-2" d="M138.68,115.4l-.5.5c-.47-.35-1.4-.69-.64-1.35C138,114.11,138.42,114.91,138.68,115.4Z"/><path class="cls-2" d="M124.89,101.49h-1.4C123.87,100.52,123.88,100.52,124.89,101.49Z"/><path class="cls-2" d="M114.7,90.9c1.6,2.22,1.26,5.46-.71,6.79-.65.45-.46.36-.86-.55s-1.55-.1-2.3-.44c3.07,0,3.83-1.81,3.51-4.5A3.69,3.69,0,0,1,114.7,90.9Z"/><path class="cls-2" d="M126.3,55.05l1.36-1.63c0,3.58-1.16,6.39-1.34,9.3C126.32,60.16,126.31,57.61,126.3,55.05Z"/><path class="cls-2" d="M111.38,99.07a.58.58,0,0,1-.41.09c-.86,0-1.66-.14-2-1.08,0-1,.75-1.13,1.5-1.25Z"/></g></g></svg>