<svg xmlns="http://www.w3.org/2000/svg" viewBox="0 0 210.53 203.03"><defs><style>.cls-1{fill:#f9f2a2;}.cls-2{fill:#1d1d1b;}.cls-3{fill:#f4ee97;}.cls-4{fill:#f2eb95;}</style></defs><g id="Capa_2" data-name="Capa 2"><g id="Capa_1-2" data-name="Capa 1"><path class="cls-1" d="M58.69,16.23A93.82,93.82,0,0,1,96.36,1.42,91,91,0,0,1,114.4,0a99.41,99.41,0,0,1,39,9,97.64,97.64,0,0,1,55.67,72.65c3.52,21.25.64,41.6-9.17,60.75a96.32,96.32,0,0,1-49.08,45.86,10.08,10.08,0,0,1-1.36.37c.79-2.28,2.94-2.9,4.79-3.79a21.61,21.61,0,0,0,7-5.43,56.75,56.75,0,0,0,6.15-6,11.83,11.83,0,0,0,6.43-5.78,45.92,45.92,0,0,1,5.64-7.91,48.91,48.91,0,0,0,9.74-18.92c1.22-4.65,3.05-9.21,3.84-13.91.73-4.33,2.89-8.49,2-13.07,0-.32.16-.63.17-.94.18-10.82,1-21.7-1.25-32.38-.84-4.06-2.6-8-4.18-11.87a90,90,0,0,0-5.69-12.59,80.65,80.65,0,0,0-7.67-11.17c-2.43-2.86-4.16-6.2-6.49-9.14a64.59,64.59,0,0,0-7.21-7.21c-3.87-3.56-8.89-4.89-13.11-7.69-3.31-2.2-6.44-4.68-10.08-6.35-3-1.35-5.86-2.85-9.17-3.2-1.85-1.47-4.06-1-6.17-1.15a5.16,5.16,0,0,1-1.16-.22,23.26,23.26,0,0,0-12-1.28,11,11,0,0,1-2.63.07,3.46,3.46,0,0,1-1.18-.33c-.64-.26-1-1-1.9-.85-5.09.83-10.15-.56-15.23-.28a6.34,6.34,0,0,0-3,0A25.27,25.27,0,0,0,75.68,9.69c-.93.62-2.36.25-3,1.49-1.67,1.61-3.92,2.18-5.89,3.28a52.34,52.34,0,0,1-5.89,1.87C60.15,16.49,59.4,16.93,58.69,16.23Z"/><path class="cls-2" d="M107,202c-4.85,1.56-9.74,1-14.63.3-5.57-.79-11-2.36-16.48-3.54-4.91-1-9.7-3-14.7-3.62-7.24-.91-13.19-4.74-19.46-7.85a12.3,12.3,0,0,1-6.14-6.69c-.8-1.52-.3-2.57,1.16-3.27a2,2,0,0,1,1.9.78c5.22,5.74,12,8.62,19.29,10.63,3.62,1.7,7.6,1.81,11.43,2.56,8.87,2.5,17.79,4.83,26.8,6.75a10.16,10.16,0,0,1,2.28.69c1.64,1.18,3.54,1.09,5.43,1.21C105.26,200.06,106.84,200,107,202Z"/><path class="cls-2" d="M16.48,55a16.57,16.57,0,0,1,4.06-8.16c2.64-3,4.85-6.42,7.78-9.22,2.08-2,4.56-3.37,6.83-5.06,1.48-.93,3.34-1.31,4.29-3,1.32-1.12,2.57-2.36,4.34-2.77a.8.8,0,0,1,1-.09c.41,1.08-.46,1.61-1,2.19A101.52,101.52,0,0,0,28.76,48a27.31,27.31,0,0,0-3.56,7.52c-.53,2-2.13,3.24-3.13,4.91a7,7,0,0,1-3.68,2.3,1,1,0,0,1-.16-1.18c0-.14.09-.21.24-.19-.14-.1-.21-.06-.23.16-1.14,2.1-2.26,4.2-4.29,5.6a2.4,2.4,0,0,1-1.81-3.09h0c1.2-1.2,1-3,1.91-4.36l0,0C15.29,58.39,15.8,56.63,16.48,55Z"/><path class="cls-2" d="M23.76,170.41a.37.37,0,0,1-.12-.34,12.4,12.4,0,0,0-1.44-2.5c-2.91-3.82-6.56-7-9.75-10.53-2.59-2.92-4.06-6.54-5.5-10.13-.4-1-.53-2.09-1.46-2.78-.52-1.09,0-2.3-.36-3.4a.83.83,0,0,1-.12-.44c-.82-1.34-.42-3.07-1.4-4.35v0c-.64-2-.47-4.24-1.4-6.2-1.92-2.84-.89-6.13-1.3-9.19a53.74,53.74,0,0,1-.14-6.6c1.8.46,1.8,2,2,3.38a47.21,47.21,0,0,1,.07,4.76c0,1.55.67,2.38,2.3,2.26a20.42,20.42,0,0,1,2.3,10c.21,1.44-.11,3,1.24,4.14a68.85,68.85,0,0,1,4.4,8.43,25.58,25.58,0,0,0,5.22,7.3c.63.92,1,2,1.62,2.92.87,1.37,2.55,2,3.25,3.53a8.72,8.72,0,0,0,2.28,2.67,4,4,0,0,1,.34,1.7,5.89,5.89,0,0,0,1.4,3.89c.58.79,1.62,1.58.4,2.58a1.86,1.86,0,0,1-2.88-.36A5.45,5.45,0,0,0,23.76,170.41Z"/><path class="cls-2" d="M5,124.46c-1.74,1.06-2.54.77-2.77-1.21a32.83,32.83,0,0,1-.05-5,5.84,5.84,0,0,0-1.4-4.36,9.5,9.5,0,0,1-.58-5.84A157.3,157.3,0,0,1,3.34,90.3c.69-2.66,1.71-5.18,2-8,.19-1.59,1.16-3.36,1.8-5A7.51,7.51,0,0,0,8,74C8,73,8.64,72.65,9.33,72.27c2-1.2,1.77.49,2.06,1.53a12.11,12.11,0,0,1-.17,3.4c-1.55,2.7-1.4,5.61-1.05,8.52.27-.29.46-.67.94-.61a1.52,1.52,0,0,1,.69,1.16,7.53,7.53,0,0,1-.1,2.55c-.31,1-.52,2.11-.8,3.15a2.08,2.08,0,0,1-.51.93c-.71.19-1-.34-1.26-.79-.42,1.29,0,2.62-.3,3.9C7.9,99.81,7.28,103.68,6,107.4A23.66,23.66,0,0,0,5.43,123,1.55,1.55,0,0,1,5,124.46Z"/><path class="cls-2" d="M161.65,179.63c-1.43,2.48-3.73,4-6.16,5.24-2.11,1.09-4.34,2-6,3.75l-3.59,1.94a76.83,76.83,0,0,1-18.63,5.16c-1.08.15-2.21.51-3.08-.54.31-1.43,1.64-1.49,2.66-1.89a30.67,30.67,0,0,0,4.36-1.58,8.34,8.34,0,0,0,3.43-1.58c8.25-2.72,15.48-7.33,22.64-12.1a4.69,4.69,0,0,1,2.18-.91C160.92,177.32,162.12,177.74,161.65,179.63Z"/><path class="cls-2" d="M124.24,194.94c2,1,3.89-.11,5.78-.4a86.71,86.71,0,0,0,14.24-3.72,9.89,9.89,0,0,1,1.63-.26c-3.07,2.38-7,2.73-10.38,4.26a87.52,87.52,0,0,1-13,4.55c-4.26,1.16-8.61,2-12.94,2.93A4.67,4.67,0,0,1,107,202c-.88-1.49-2.33-1.46-3.78-1.46-1.74,0-3.54.17-4.85-1.36,1.47-1.29,3.35-.81,5-1a109.06,109.06,0,0,0,16-2.62C121,195.43,122.49,194.18,124.24,194.94Z"/><path class="cls-2" d="M23.76,170.41c.71,0,1.1.52,1.59.9a1.59,1.59,0,0,0,2.12-.28c.77-.68-.22-1-.56-1.46a6,6,0,0,1-1.76-4.44c1-.1,1.39.73,1.64,1.4a8.16,8.16,0,0,0,5.43,5.13,6.8,6.8,0,0,1,2.23,1.3c1.13,1.4,3.19,2.25,2.77,4.59-1.42.56-1.63,1.76-1.61,3.08-.42-.23-1.08-.36-1.22-.7-1.3-3.13-4.61-3.6-6.9-5.39A31.33,31.33,0,0,1,23.76,170.41Z"/><path class="cls-2" d="M50.52,22.5c1.58-3.06,4.52-4,7.52-4.92a.5.5,0,0,1,.31.47,1.1,1.1,0,0,0,.36,1.33A1.83,1.83,0,0,1,59,20a5.38,5.38,0,0,1-6.64,4.66A8.09,8.09,0,0,0,50.52,22.5Z"/><path class="cls-2" d="M10.78,73.7c-.09-.87.14-2.07-1.45-1.43-.09-2.66,1.26-5,1.76-7.5.12-.6.56-.68,1.05-.71.62,1,.62,2.44,2,2.94a.78.78,0,0,1,1,0c-1,2.57-1,5.45-2.61,7.79C11.71,74.8,11.31,74.14,10.78,73.7Z"/><path class="cls-2" d="M58.68,19.61h-.52a1.08,1.08,0,0,1,0-1.44c0-.19-.09-.38-.14-.58-.22-.65.1-1,.64-1.35L66.84,14c.78,1.09-.85,2.52.48,3.54C64.34,17.79,61.57,19,58.68,19.61Z"/><path class="cls-2" d="M48.58,24a.43.43,0,0,1,.4-.12c1.34-.54,1.9.29,2.34,1.33-.43,2.22-2,3.2-4,3.66-.72-.53-.95-1.47-1.65-2C46,25.21,47.2,24.53,48.58,24Z"/><path class="cls-2" d="M39.44,29.54c-.49,2.34-2.15,3-4.29,3C35.53,30,38,30.48,39.44,29.54Z"/><path class="cls-2" d="M51,25.39a2.39,2.39,0,0,0-2-1.52l1.54-1.37c1.41-.12,2,.55,1.92,1.92C52.19,25.09,51.84,25.59,51,25.39Z"/><path class="cls-2" d="M2.21,129.72c2,1.73,1.26,4.06,1.4,6.2C2.2,134.07,2.35,131.86,2.21,129.72Z"/><path class="cls-2" d="M14,59.71c.06,1.76,0,3.47-1.91,4.36C12.68,62.59,11.81,60.48,14,59.71Z"/><path class="cls-2" d="M16.48,55c.32,2.19-.81,3.62-2.48,4.78C14.87,58.17,14.77,56.09,16.48,55Z"/><path class="cls-2" d="M48.58,24a11.19,11.19,0,0,0-2.88,2.78.69.69,0,0,1-1,.08l-1-.08C44.87,25,46.8,24.61,48.58,24Z"/><path class="cls-2" d="M3.61,135.94c2,1,1.32,2.78,1.4,4.35C3.52,139.17,3.52,137.57,3.61,135.94Z"/><path class="cls-2" d="M22.2,167.57a2.09,2.09,0,0,1,1.44,2.5A2.54,2.54,0,0,1,22.2,167.57Z"/><path class="cls-2" d="M5.13,140.73c.75,1.07.37,2.25.36,3.4A6.17,6.17,0,0,1,5.13,140.73Z"/><path class="cls-2" d="M130.64,10.92c4.18.06,7.66,2.15,11.13,4,5.43,2.95,10.4,6.6,16,9.4A34.51,34.51,0,0,1,171.1,36.17a81.18,81.18,0,0,0,6.83,9.51,39.29,39.29,0,0,1,4.3,6.11c1.51,2.54,3.12,5,4.44,7.67a36.38,36.38,0,0,1,2.14,4.34c1.73,5,3.76,10,5.52,15,1.4,4,1.48,8.3,1.6,12.5.19,6.69.11,13.39.13,20.09a5,5,0,0,1-.52,2.54c-.53.61.36,2-1,2s-1.6-1.12-1.85-2.13c-.46-1.93.11-3.93-.37-5.86a134.16,134.16,0,0,1-1.19-14.72,70.53,70.53,0,0,0-4.53-20.68C181.46,58.83,173.07,47,164,35.68c-3-3.78-7.13-6.31-11.46-8.44-3-1.61-5.63-3.88-9.24-4-5.39-3.62-11.59-5.64-17.2-8.8a.56.56,0,0,1,.05-.62c.53-.61,1.25-.5,1.91-.62-.93-.15-2-.74-2.28.94a5.3,5.3,0,0,1-2.29.39c-8.89-1.29-17.91-.88-26.79-2.24-4.26-.65-8.55.36-12.83.58-.94,0-1.89.26-2.84.23-.63-.05-1.64,0-1.77-.43-.3-1-1-.85-1.69-1s-1.89-.23-1.95-1.39,1.07-1.1,1.81-1.49c3.13-1.64,6.71-1,9.94-2.08a2.09,2.09,0,0,1,2.41,0c5,1.14,10,.88,15,.84a5.16,5.16,0,0,1,2.72.53l.91.1a24.3,24.3,0,0,0,7.26.63,34,34,0,0,1,7.73.66l.81.14C126.26,10.7,128.62,10,130.64,10.92Z"/><path class="cls-2" d="M192.79,107.69c.79,1.08.29,2.32.39,3.47.08.79-.06,1.61.06,2.38s.29,1.94,1.3,2,.27-1.3,1-1.64c.63,2.89-.35,5.55-.87,8.35-.68,3.61-1.51,7.23-2.42,10.74-1.15,4.38-2.55,8.76-4.05,13.07a48,48,0,0,1-6,11c-2.59,3.84-6.31,6.81-8.08,11.28a8.52,8.52,0,0,1-6.73,5.49c-1.22-1.07-2.36-2.19-2.51-3.94.17-2.67,1.85-4.54,3.5-6.36,11.49-12.68,16.91-28.06,19.77-44.55.44-2.49.17-5.14,1.77-7.3A45.81,45.81,0,0,0,192.79,107.69Z"/><path class="cls-2" d="M87.37,6.76A4.94,4.94,0,0,1,83,8.08c-2.51-.6-4.18,1.73-6.52,1.63-.5,0-.58,1-.17,1,1.81-.09,2.83,1.65,4.5,1.74a1,1,0,0,1-1.14.94c-2.93-.07-5.41,1.41-8.07,2.25a7.26,7.26,0,0,0-4,1.55h-.34c-1-.33-2.79-.32-.8-1.94.29-.23.26-.84.38-1.28l5.58-3.05c.83-.8,2.3-.28,3-1.43a1.23,1.23,0,0,1,1-1.16C80.06,7.75,83.54,6.05,87.37,6.76Z"/><path class="cls-2" d="M165.37,169.82c-.12,1.73,1.95,2.38,2,4-1.15,2.67-3.53,4.14-5.72,5.78a2.1,2.1,0,0,0-2.41-2c-.06-1.44,1.34-1.82,2-2.71C162.58,173.17,163.89,171.42,165.37,169.82Z"/><path class="cls-2" d="M107.55,8.1c-4.54,0-9.07,0-13.6,0a5.92,5.92,0,0,1-4.17-1.41,37.1,37.1,0,0,1,8.81.21A20,20,0,0,0,105,7,2.07,2.07,0,0,1,107.55,8.1Z"/><path class="cls-2" d="M123.45,9.49c-3.66,0-7.33,0-11,.07-1.5,0-2.7-.79-4-1.36C113.54,7.68,118.61,7.25,123.45,9.49Z"/><path class="cls-2" d="M130.64,10.92c-2.18-.15-4.61.9-6.38-1.29C126.52,9.37,128.8,9.05,130.64,10.92Z"/><path class="cls-2" d="M75.39,9.5c0,2.47-1.88,1.16-3,1.43C72.59,8.77,74.36,9.89,75.39,9.5Z"/><path class="cls-1" d="M71.17,15.35a20.62,20.62,0,0,1,9.6-2.88c7-.8,14-1.66,20.89-.41,7.32,1.33,14.77.27,22,1.84.77.48,1.69,0,2.48.37,5.93,2.53,12.06,4.66,17.2,8.76.12.87-.47,1.14-1.12,1.37a6.23,6.23,0,0,1-2.75-.08c-6.45-2.27-12.86-4.66-19.62-5.93-3.21-.61-6.45-.88-9.69-1.23-6.51-1.9-13.09-1.31-19.66-.49a16.82,16.82,0,0,0-3.31.47,7.41,7.41,0,0,1-1.55.21,10.17,10.17,0,0,0-5.22,1.38,28.88,28.88,0,0,1-5.9,1.64,11.67,11.67,0,0,0-5.61,2.32,3.87,3.87,0,0,1-1,.37,16.22,16.22,0,0,0-5.35,2.09A12.69,12.69,0,0,0,58.37,27a5.74,5.74,0,0,1-.92.38c-2.58.76-4.42,2.56-6.18,4.47a96.5,96.5,0,0,1-8.65,9c-.36.25-.73.47-1.1.71-2.16.92-3.62,2.69-5.19,4.32C30.15,51.75,25.65,58.82,21.8,66.34c-.65,1.28-1.22,2.59-1.95,3.82-.35.57-.55,1.63-1.67,1a3.79,3.79,0,0,1,.26-3,36.54,36.54,0,0,1,3.32-8l2.93-4.58c2.53-4.92,6.22-9,9.46-13.45,2.59-3.54,6.14-6.21,8.6-9.9a10.5,10.5,0,0,1,4.42-3.51A8.89,8.89,0,0,0,51,25.39l1.43-1c3.4.13,5.77-1.7,6.24-4.81L61.84,18c1.35-.69,2.68-1.39,4.22-.38a.83.83,0,0,0,1.2-.41v0C68.6,16.65,69.82,15.87,71.17,15.35Z"/><path class="cls-2" d="M47.17,28.73a2.06,2.06,0,0,1-.31.63c-8.43,7.68-15.24,16.71-21.8,26a1.68,1.68,0,0,1-.37.27c.34-2.85,2-5.14,3.37-7.52,4.54-7.86,10.42-14.7,16.69-21.22l1-.08C47.21,26.66,47.21,27.68,47.17,28.73Z"/><path class="cls-2" d="M18.48,62.83A9.18,9.18,0,0,1,14.93,67h-.81c1.38-2,2.3-4.26,4.31-5.74h0Z"/><path class="cls-2" d="M18.43,61.26c0-.65.24-1.16,1-1.29.09.89-.32,1.22-1,1.29Z"/><path class="cls-2" d="M67.68,189.18,61,187.75c-4.78-2.66-9.58-5.28-14.32-8a81.44,81.44,0,0,1-11-7.93,69.63,69.63,0,0,1-9.41-8.42c-1.09-1.06-1.48-3.13-3.71-2.54-.57-1.6-2.54-1.89-3.2-3.4.49-.54,1.17.08,1.73-.16-.29-1.4-1.63-1.84-2.18-2.89-1.26-3.21-3.26-6.2-3.08-9.86a6.27,6.27,0,0,1,.57-2.74c.41-.82.9-1.55,2-.91,1.19,1.28,1.4,3,2,4.55,4.28,10.44,11.48,18.46,20.55,24.94a147.87,147.87,0,0,0,27.23,15.39c.75.37,1.57.58,2.28,1a1.61,1.61,0,0,1,.84,1.23C70.63,190,69.2,189.74,67.68,189.18Z"/><path class="cls-2" d="M6.94,134.57a4.5,4.5,0,0,1,1.36,4.25C6.46,137.85,7,136.1,6.94,134.57Z"/><path class="cls-2" d="M5.44,107.22,5,123C2.94,117.69,3.43,112.43,5.44,107.22Z"/><path class="cls-2" d="M12.25,74.75c.24,2.14-.66,4.09-1,6.14-1.88-.88-.83-2.16-.46-3.35,0-1.28,0-2.56,0-3.84C11.55,73.67,12.19,73.8,12.25,74.75Z"/><path class="cls-2" d="M10.77,77.54c.19,1.11-.42,2.33.46,3.35a.47.47,0,0,1,0,.46,2.9,2.9,0,0,0-.66,1.09,21,21,0,0,0-.25,4.27c-.23.31-.82.74-.83.37-.12-3.13-.6-6.32.89-9.3C10.44,77.66,10.64,77.62,10.77,77.54Z"/><path class="cls-2" d="M9.27,95.77l-.92,0c-.18-1.87-.36-3.74.7-5.49.55.5.23,1.11.38,1.62s.51,1.27.33,1.84c-.29.93.56.47.75.76a1.23,1.23,0,0,1-.15,1.38A1,1,0,0,1,9.27,95.77Z"/><path class="cls-2" d="M10.32,86.71a5.33,5.33,0,0,1-.07-4.93c1.31,1,1.08,2.23.62,3.53Z"/><path class="cls-2" d="M10.87,85.31c-.35-1.16.45-2.51-.62-3.53l1-.43c-.15,1.61,1.06,3.2,0,4.82Z"/><path class="cls-2" d="M10.28,94.28c-.18.24-.33.63-.56.69-.43.12-.39-.31-.39-.58,0-.85.07-1.69.1-2.54l.8,1A1,1,0,0,1,10.28,94.28Z"/><path class="cls-1" d="M165.37,169.82c-.86,3.52-4.05,5.22-6.13,7.79-5.07,2.92-9.78,6.45-15,9.11a54.51,54.51,0,0,1-9.46,3.8c-1.34.07-1.76-.68-1.65-1.88,1.46-1.95,3.69-2.73,5.79-3.6a33.46,33.46,0,0,0,8.33-5c7.75-5.87,15.63-11.6,21.48-19.54,8.44-11.46,13.34-24.38,15.68-38.34,2.78-16.61.86-32.83-4.05-48.8-.52-1.67-1.17-3.31-1.6-5a33.85,33.85,0,0,0-5.92-12.65,4.14,4.14,0,0,1-.34-1c-.5-2.17-.87-4.39-2.5-6.1A25.14,25.14,0,0,0,162.73,41c-2.94-2-4.68-5.16-7.33-7.44-1.37-1.2-2.53-2.63-4-3.72a2.11,2.11,0,0,1-1.07-1.76c.3-1.15,1.21-1.36,2.21-1.46a35.54,35.54,0,0,1,14.79,12.1C175.72,50,183.6,61.51,188.16,75c2.84,8.4,3.71,17,4.09,25.81.1,2.31.36,4.6.54,6.9a3.37,3.37,0,0,1-1.58,3.37c-1.79,1.3-2,3.48-2.29,5.57-2.18,17.6-8.1,33.63-19.92,47.17C167.44,165.59,165.7,167.28,165.37,169.82Z"/><path class="cls-3" d="M120.11,196.1a6.42,6.42,0,0,0-3-.11,89.77,89.77,0,0,1-33.57-4.45c2.08-1.16,4.24,0,6.35-.21,9.24,1.81,18.51,1.06,27.76.18a38.4,38.4,0,0,1,4.28-.26,7,7,0,0,0,5.19-1.05,5,5,0,0,1,2-.29c1.24.22,2.51.41,2.42,2.14-2.09,1.76-5,1.47-7.24,2.89Z"/><path class="cls-2" d="M131.48,192.05a2.65,2.65,0,0,0-2.6-1.62c1-1.94,2.56-2.28,4.49-1.71a2.25,2.25,0,0,0,1.4,1.8A4,4,0,0,1,131.48,192.05Z"/><path class="cls-2" d="M58.18,18.16c0,.48,0,1,0,1.44C57.39,19.11,56.63,18.62,58.18,18.16Z"/><path class="cls-2" d="M105.13,10.93h-23C83.57,9,100.19,8.89,105.13,10.93Z"/><path class="cls-2" d="M152.53,26.65c-.42.86-1.82.56-2,1.69a1.37,1.37,0,0,1-1.55.05c-1.85-1-3.78-1.89-5.61-2.93A1.66,1.66,0,0,1,142.31,24a1.87,1.87,0,0,0,1.06-1c.71-.15,1.26-.86,2.18-.29C147.81,24.15,150.37,25,152.53,26.65Z"/><path class="cls-2" d="M121.83,12.15c-4.06.33-8.12.5-12.09-.82C113.79,11.27,117.89,10.21,121.83,12.15Z"/><path class="cls-2" d="M126.16,13.86l-1.88-1.17c2.12-.35,3.84-.65,5.9,1.17Z"/><path class="cls-2" d="M126.17,14.27a3.94,3.94,0,0,1-2.48-.37l2.47,0h0C126.16,14,126.17,14.13,126.17,14.27Z"/><path class="cls-2" d="M71.17,15.35C70.34,17,68.78,17,67.26,17.18,68.27,16,69.37,14.89,71.17,15.35Z"/><path class="cls-2" d="M89.77,191.89c-2.11.25-4.18-.23-6.28-.35a22,22,0,0,0-5.68-1.1c-.47-1.6.83-1.66,1.75-1.88a24.85,24.85,0,0,0,3.29-.48,46,46,0,0,1,9.16,0c2.5.67,5,.22,7.58.35a7.82,7.82,0,0,1,2.36.21c1,.37,1,1,.26,1.57a4.78,4.78,0,0,1-3.12,1c-2.3.11-4.61,0-6.9.09C91.36,191.31,90.4,191,89.77,191.89Z"/><path class="cls-2" d="M67.68,189.18c1.24-.29,3,.48,3.36-1.61a2.12,2.12,0,0,1,1.9-.34,12.34,12.34,0,0,1,3.46,1.48c.52.34,1.43.6.86,1.58l-8.54.28C68.38,190.1,68,189.64,67.68,189.18Z"/><path class="cls-2" d="M77.26,190.29c-.9-1.7-3-1.53-4.25-2.63,3.1-1.37,6.16-.89,9.21.18a.67.67,0,0,1,.37.79c-.68.75-1.59.37-2.41.48-1,.13-2.08,0-2.37,1.33Z"/><path class="cls-2" d="M85.47,16.81l1.27-.16c7.91-.59,15.82-1.18,23.74,0,8.68.25,16.91,2.56,25,5.54,1.4.52,2.78,1.12,4.17,1.68a37.2,37.2,0,0,0-4.71,3,6.9,6.9,0,0,1-4.68.13,205.87,205.87,0,0,0-33.81-4.85c-3-.21-6.06,0-9-.89C86,20.47,86,18.76,85,17.67,84.67,17.33,85.09,17,85.47,16.81Z"/><path class="cls-2" d="M135.26,26.32a4.54,4.54,0,0,1,4.37-2.43l2.68.13a46.26,46.26,0,0,0,8.21,4.32c4.65,3.62,8.29,8.27,12.51,12.34.33,1.31-.65,1.9-1.42,2.62-2.14.73-3.66-.69-5.25-1.63-4-2.34-7.53-5.33-11.29-8a91.89,91.89,0,0,0-7.83-5C136.32,28.13,135.1,27.79,135.26,26.32Z"/><path class="cls-2" d="M18.36,72.07c0-.22,0-.44.05-.66,3.26-5.8,6-11.87,10-17.25a50.7,50.7,0,0,1,7.69-8.73c2.1,0,2.6.51,3,3.12A11.92,11.92,0,0,1,35.32,55c-1.8-.19-2.92.77-3.8,2.22-.61,1-1.28,2-2,3a7.75,7.75,0,0,0-1.62,6,53,53,0,0,1-5,8.27c-.73.92-1.45,1.9-2.79,2a2.45,2.45,0,0,1-2.06-1A4.87,4.87,0,0,1,18.36,72.07Z"/><path class="cls-2" d="M38.58,48.87c.05-1.78-.62-3-2.48-3.44,1.38-1.91,2.94-3.6,5.31-4.29.46.09.77,0,.85-.54q4.38-4.5,8.74-9c1.62,0,2.12,1,2.38,2.36-1.06,4.33-4.42,6.67-7.86,8.86a6,6,0,0,0-2.58,2.63C42.12,47.28,40.13,47.84,38.58,48.87Z"/><path class="cls-2" d="M68.53,22.37c1.63-1.87,3.94-2.25,6.18-2.71a40,40,0,0,0,5.51-1.38,3.46,3.46,0,0,1,1.71,2.19c-.17,1.52-1.38,2-2.52,2.58-2.24,1.07-4.77,1.2-7,2.15a2.08,2.08,0,0,1-2-.42A10.08,10.08,0,0,0,68.53,22.37Z"/><path class="cls-2" d="M52.91,34A3.3,3.3,0,0,0,51,31.58a10.81,10.81,0,0,1,6.25-4.67A4.14,4.14,0,0,1,59,29C58.38,32.39,55.73,33.28,52.91,34Z"/><path class="cls-2" d="M110.48,16.67l-23.74,0C94.65,15.33,102.57,14.11,110.48,16.67Z"/><path class="cls-2" d="M62.46,24.77c1.49-1.41,3.4-1.81,5.31-2.22.4.78,1.16,1.38,1.23,2.34-1.47,3-4.1,3.88-6.82,2.19A2.16,2.16,0,0,1,62.46,24.77Z"/><path class="cls-2" d="M81.78,20.19c-.76-.44-1.48-.91-1.56-1.91a7.93,7.93,0,0,1,5.25-1.47c-.16.35-.46.87,0,1,1.35.45,1.2,1.62,1.44,2.63C84.73,22.07,83.49,22,81.78,20.19Z"/><path class="cls-2" d="M62.46,24.77l0,2.52c-.1,1.84-1.27,2-2.7,1.72a4.2,4.2,0,0,1-1.71-2.3C59.22,25.34,60.82,25,62.46,24.77Z"/><path class="cls-2" d="M68.81,24.49c-.56-.54-1.76-.72-1-1.94l.76-.18c1,.25,2.62,0,1.6,1.95A.89.89,0,0,1,68.81,24.49Z"/><path class="cls-2" d="M58.08,26.71c.74.45,1.51.88,1.51,1.92a.55.55,0,0,1-.83.14c-.74-.42-1.45-.88-1.51-1.86Z"/><path class="cls-2" d="M42.26,40.6c.63.56.23,1.08-.24,1.28s-.56-.35-.61-.74Z"/><path class="cls-2" d="M10.71,95.71c.3-.94-.09-2,.53-2.9,1.62-1.14,1.11-2.74.91-4.28,1.65-5,3-10.14,5.26-15,1,1,.45,2.13.2,3.16-2.66,10.74-2.7,21.62-1.84,32.56a16.6,16.6,0,0,0,.76,2.76,30.38,30.38,0,0,1,.22,5.8c-.12,3.16.12,6.32,0,9.47,0,1.09.08,2.24-.86,3.09-2.6.72-2.94.57-3.71-1.64-1.91-2.61-1.37-5.76-1.63-8.65-.3-3.33-1.18-6.64-.77-10,.82-3.24-.13-6.53.26-9.78C10.26,98.77,9.72,97.14,10.71,95.71Z"/><path class="cls-2" d="M15.94,112c-1.42-2.54-1.09-5.42-1.24-8.1a96.77,96.77,0,0,1,1.79-25.74c.33-1.53,1.29-2.94.92-4.61a2.61,2.61,0,0,1,.95-1.49c0,1.18.05,2.37.08,3.56.75.73.34,2,1.29,2.68a3,3,0,0,1-.52,3,.81.81,0,0,1-.62.22c-1.3-.91-1.07.37-1.41,1,.54-.43.66-2,1.68-.53.44,1.58.11,3.2.29,4.79,0,5.41-1.19,10.69-1.67,16a67.52,67.52,0,0,1-.7,7.09C16.62,110.65,16.68,111.49,15.94,112Z"/><path class="cls-1" d="M18.85,81.36A6,6,0,0,0,19.33,78a1.58,1.58,0,0,1,1-1.94c2.6-1.73,3.83-4.5,5.36-7,.6-1,1.26-2,1.89-3a.42.42,0,0,1,.63.09c.67,1.62-.13,3.14-.39,4.67-.89,5.19-.12,6.88,4.47,9.59,1.14.67,2.57,1,3.08,2.48-.31,1.47-1.51,1.7-2.71,2a16,16,0,0,1-3.24,0c-5.43-.94-7.08.07-8.39,5.4A38.43,38.43,0,0,0,20,103.45c.23,2.14.05,4.31.1,6.46.16,6.54,4.57,10.86,11.06,11,5.05.12,10-.75,15-1.23a24.76,24.76,0,0,1,3.34-.21c1.19.21,2.5.23,2.73,1.85-.38,1.18-1.49,1.32-2.43,1.69-3.9,1.53-8,1.92-12.13,2.53a21.57,21.57,0,0,0-8.17,2.53c-2.76,1.67-3.61,3.47-3,6.61A44.2,44.2,0,0,0,41.3,161c4.05,3.47,7.84,3.82,12.5,1.13a11.33,11.33,0,0,1,2.89-1.65,1.65,1.65,0,0,1,1.8,1.11c.27,1.57-.83,2.71-1.3,4-.22.5-.43,1-.64,1.52-1.53,3.78-1.39,4.31,1.83,6.75a5.94,5.94,0,0,0,3.43,1.85c4.17,1.16,7.57,4,11.6,5.45.45.16.88.37,1.33.52,6.17,2.14,8.91,1.22,12.51-4.22a5.18,5.18,0,0,1,1-1.3,2.63,2.63,0,0,1,3-.22c.74.87.52,2,.65,3a4.54,4.54,0,0,0,3.21,4,20,20,0,0,0,11.27.51c3.7-.84,7.56-1,11.19-2.28.45-.16.91-.28,1.38-.4,4.76-1.28,6.06-4,4.65-9.19a50.62,50.62,0,0,1-1.27-5.31c.1-1.52-.48-3.31,1.58-4.07a1.41,1.41,0,0,1,.55.45,9.23,9.23,0,0,0,1.71,3.25c1.42,1.93,2.56,4,4.07,5.89,2.49,3,5.34,3.6,8.6,1.47a148.44,148.44,0,0,0,12.45-8.85c4.45-3.59,5.33-7.87,2.59-12.87-.53-1-1.37-1.81-1.15-3.05.95-1.85,2.69-1.7,4.35-1.77a6.43,6.43,0,0,0,4.12-.77c3.71-2.64,6-6.37,7.91-10.38a63.66,63.66,0,0,0,2.32-6.46c2.84-5.86,3.24-12.11,2.8-18.45-.4-5.77-3.34-8.68-9.13-8.49-6.69.22-13.33-.22-20-.46-8-.29-15.89.65-23.78,1.74a6.51,6.51,0,0,1-1.65,0c-2.51-.39-4,1-5.17,2.93-2.14.84-2.51.61-3.5-2.19a8.68,8.68,0,0,0-1.33-2.56,3.64,3.64,0,0,0-1.44-1.47c-.8-.67-1.55-1.38-2.41-2-.57-.51-1.27-.86-1.83-1.4-2.48-2.12-4.94-2.32-7.76-.42-2.41,1.62-5.23,1.68-8,1-1.61-.26-2.64.5-3.54,1.79-2,2.88-2.49,6.25-3.21,9.55a6.47,6.47,0,0,0-1.06,2.57,3.89,3.89,0,0,1-3.51,4,35.84,35.84,0,0,1-4.8,1.09,14.72,14.72,0,0,1-2.3,0c-1.15-.22-2.28-.47-2.66-1.82,1.11-2.06,3.31-2.52,5.16-3.5a5.69,5.69,0,0,0,4.21-3.16c.51-1.16.86-2.37,1.26-3.57.94-2.89.55-3.63-2.29-4.51a8.38,8.38,0,0,0-1.41-.19c-1.91-.65-4,0-5.88-1-2-1.75-4.53-2.18-7.08-2.39-2.89-.81-5.7-1.87-8.56-2.75a5.46,5.46,0,0,1-.67-.26C50.17,92.16,48,91.79,47,89.76c.51-1.51,1.81-1.67,3.11-1.83,2.56-.41,4.76.76,7.05,1.58a92.65,92.65,0,0,0,19.55,5.85c3.8.71,5.22-.09,6.76-3.5a2.77,2.77,0,0,1,1.88-1.69c1.39,0,2.24,1,3.3,1.66C90.82,93.1,92,93,93.93,91.25c1.95-3.46,1.29-7.25,1.4-10.94.46-3-.09-5.92,0-8.89-.18-3.19.7-6.33.49-9.53-.56-8.66-.5-17.34-.5-26a15.43,15.43,0,0,0-.73-4.47,4.89,4.89,0,0,0-3.73-3.67c-8.29-1.64-16.21-.72-23.4,4-9.78,6.41-9.54,17-3.51,24.66A11.73,11.73,0,0,0,67.09,61a60.22,60.22,0,0,1,6.79,10.86c1.37,2.62,3.18,4.92,4.72,7.41.82,2.32,2.72,3.78,4.31,5.49a3.05,3.05,0,0,1,.22,1.07,2.49,2.49,0,0,1-2.22,2.64,5.06,5.06,0,0,1-2.66-1.12,2.33,2.33,0,0,1-.4-.57c-1.06-3.4-3.56-5.85-5.72-8.53-3.23-4.34-6.56-8.62-9.56-13.14-1.7-5.25-5.42-9.11-9-13.1-2.66-3-5.88-3.19-9.38-1.95a24.36,24.36,0,0,0-6.46,4c-.68.52-1.24,1.28-2.26,1.15l-.3-.18c.63-2.33,3-3.7,3.38-6.2.46-.87.76-1.84,2-2a1.71,1.71,0,0,0,1.57-1.29c.17-2.24,2-2.6,3.46-3.52,3.17-2,6-4.37,7.29-8.12a2.72,2.72,0,0,1,1.88-1.22,5.46,5.46,0,0,0,4-4l.83-.14a2.21,2.21,0,0,0,2.9-1.34c2.68.34,5.11.15,6.32-2.8l1.32-.17c3.08.76,10-1.7,11.65-4.13,1.66,1.17,3.39.84,5.14.28,2.84,1,5.84.66,8.75.87,11.75.86,23.43,2.17,34.89,5a11.8,11.8,0,0,0,4.7,0c.23.31.39.75.69.9,7.45,3.82,13.64,9.48,20.67,13.91,1.51.95,2.92,2.25,4.92,2.08,1.9,2.6,4,5,7,6.41.21.24.48.52.42.82-.43,2.47.83,4.17,2.53,5.68.54,4.75,1.38,9.4,4.13,13.47a4.17,4.17,0,0,1,.54,2.28,17.45,17.45,0,0,0,.8,6.14,87.77,87.77,0,0,1,4,31.37c-.72,16.2-4.34,31.53-13.78,45.1a79,79,0,0,1-13.55,14.73,18.92,18.92,0,0,0-5.31,6.64c-6.7,2.1-12.57,6.14-19.32,8.17a99.34,99.34,0,0,1-20.35,3.86c-3.09.26-6.18.51-9.27.73a38.63,38.63,0,0,0-5.16.14,3.94,3.94,0,0,1-2-.05l-9.61-.07c-3.08-1.44-6.35-1-9.58-1l-2-.09-.87-.49c-.46-.68-1.27-.77-1.91-1.16a86.53,86.53,0,0,1-23.78-16.57,98,98,0,0,1-19.37-25.58,83,83,0,0,1-9-26L15.94,112l2.55-25.22C19,85,18.37,83.15,18.85,81.36Z"/><path class="cls-2" d="M15.56,130.2a59.61,59.61,0,0,1,2.78,11c-2.42.19-1.42,2.22-1.87,3.48a55.34,55.34,0,0,1-4.26-15.93C12.81,130.45,14.22,130.24,15.56,130.2Z"/><path class="cls-2" d="M68.22,186.22l.46-.43c.65.25,1.4.4,1.49,1.29A4,4,0,0,1,68.22,186.22Z"/><path class="cls-2" d="M148.17,175.63c0-2.6,1.76-4.17,3.55-5.64a76.7,76.7,0,0,0,18.83-22.32c5.54-10.06,8.16-20.93,9.28-32.28a92.14,92.14,0,0,0-3.58-37.48,14.22,14.22,0,0,1-.69-6.12c.61-1.11,1.53-2,1.84-3.33.14-.66.83-1.78,1.82-.49a114.25,114.25,0,0,1,6.93,34.44c.79,21.34-4.36,41-16.91,58.4a57.12,57.12,0,0,1-14.82,14.43c-2.49,1.65-4.36,4.11-7.17,5.28a.93.93,0,0,1,.27-1.24C149,178.25,148.91,177,148.17,175.63Z"/><path class="cls-2" d="M148.17,175.63c2,1.16,1.77,2.34.08,3.61a6.37,6.37,0,0,0-1,1.28c-1.95,2.29-4.68,3.37-7.26,4.66a40.06,40.06,0,0,0-6.62,3.54,7.11,7.11,0,0,0-4.49,1.71l-1.75.18c-1.58.66-3.31.74-4.91,1.29-5.93.43-11.86,1-17.8,1.23a50.89,50.89,0,0,1-14.65-1.24c-.61-1.55.6-1.34,1.39-1.35,2.54,0,5.08,0,7.61,0a6.09,6.09,0,0,0,3.87-1.17c-3.68-.77-7.15.35-10.44-.66l1.79-.13c1.76-.51,3.59.1,5.36-.34,5.62-1.12,11.38-1,17-1.92a80.53,80.53,0,0,0,24.26-8C143,177.05,145.34,175.6,148.17,175.63Z"/><path class="cls-2" d="M179.22,68c-1.19-.67-1.53.41-1.56,1a2.66,2.66,0,0,1-2.1,2.78,4.52,4.52,0,0,0-.79-2.42c-2.69-4-3.57-8.57-3.63-13.32-.17-.4.05-.56.39-.64.53,1.09,1.08,0,1.61,0A28.58,28.58,0,0,1,179.22,68Z"/><path class="cls-2" d="M168.16,49.89c-3-1.44-5.69-3.19-6.62-6.68.09-1.08,1.28-1.52,1.49-2.53,2.95,2,5.74,4.25,7.29,7.63C170.09,49.51,169.54,50.27,168.16,49.89Z"/><path class="cls-2" d="M168.16,49.89c1.1,0,1.41-1.1,2.16-1.58,2,1.6,2.19,4,2.7,6.27-.39.41-.74.89-1.38.92l-.5.55a4.23,4.23,0,0,1-2.82-4.61C168.36,50.9,168.53,50.37,168.16,49.89Z"/><path class="cls-2" d="M171.64,55.5a1.43,1.43,0,0,1,1.38-.92l.12.84c-.31.52-.54,1.18-1.28,1.14C171.77,56.56,171.71,55.87,171.64,55.5Z"/><path class="cls-2" d="M122.22,191.9a6.19,6.19,0,0,1,4.91-1.29C125.84,192.35,124,191.94,122.22,191.9Z"/><path class="cls-2" d="M28.08,66.06h-.51c-.93-2.14,0-3.89,1.18-5.6s2.35-3.39,3.47-5.12c.91-1.4,1.87-1.45,3-.27l0-.06c.74,1.08-.18,1.78-.65,2.51a52.3,52.3,0,0,0-4.22,7.14C29.78,65.47,29.29,66.34,28.08,66.06Z"/><path class="cls-2" d="M20.32,76.09l-1,1.94c-2.06-.15-.37-1.69-.89-2.4A3.18,3.18,0,0,1,20.32,76.09Z"/><path class="cls-2" d="M18.44,81.37C17.59,82,18.22,83.48,17,84c-1-1.12-.06-2.19.17-3.24a.73.73,0,0,1,.86-.65c.59.18.4.77.45,1.22Z"/><path class="cls-2" d="M18.85,81.36c-.21,1.81.24,3.65-.36,5.43,0-1.81,0-3.62,0-5.42h.41Z"/><path class="cls-2" d="M152.88,149a20.56,20.56,0,0,1,2.6,4.79c1.41,4.12.25,7.87-3.53,10.95a158.15,158.15,0,0,1-13,9.27c-3.28,2.16-6,1.66-8.68-1.26-1.82-2-3-4.46-4.61-6.65a12.35,12.35,0,0,0-1.41-3.35h0a37.9,37.9,0,0,0-2-3.67c-1.76-4.59-3.12-9.35-5.59-13.65a6.39,6.39,0,0,1-.24-1.9c.1-1.62.33-3.17,2.21-3.73,1.9-.07,2.84,1.28,3.69,2.63a28.07,28.07,0,0,1,2.68,6.12,113.17,113.17,0,0,0,5.74,13.92,17.08,17.08,0,0,0,1.86,3.07c1.61,2,3.28,2.37,5.43,1a64.46,64.46,0,0,0,8.64-6.8c2.51-2.35,2.52-4.58,0-7-4.78-4.48-10.16-8.22-15.42-12.1a39.91,39.91,0,0,1-6.11-5,4.21,4.21,0,0,0-1.68-3.89c-1.3-1.17-2.88-1.94-4.14-3.16-.39-.38-.78-.77-1.14-1.18a12.29,12.29,0,0,0-3.15-2.91,9.29,9.29,0,0,0-2.62-1.1c-.62-.22-1.22-.57-1.07-1.35.11-.61.64-.88,1.21-1a10.81,10.81,0,0,1,2.84-.1c3.22.53,5.4,2.82,7.77,4.72,1.72,1.38,3.41,2.8,5.16,4.15a50.81,50.81,0,0,0,9.64,7.78,76.61,76.61,0,0,1,10.55,8.17C149.86,147,151.74,147.51,152.88,149Z"/><path class="cls-2" d="M56.7,160.82l-1.13.86c-5.27,4-9.84,3.88-14.88-.39-7.84-6.64-12.45-15.16-14.55-25.09-1.2-5.66.16-7.82,5.71-9.9,3.78-1.42,7.79-1.52,11.68-2.25a38.47,38.47,0,0,0,8.41-2.53,2.45,2.45,0,0,1,1-.47c1.85-.19,3.83.25,5.45-1.11a3.09,3.09,0,0,1,.66-.25,12.5,12.5,0,0,1,1.72-.16,3.56,3.56,0,0,0,1.81-.76,4.2,4.2,0,0,1,2.4-.56c.9.18,1.6.56,1.56,1.63-.25,1-2.27.84-1.61,2.44a2.32,2.32,0,0,1-2.72,1c-.42-.26-.35-1.33-1.3-.76.42.23,1,.19,1.2.72-.86,1.87-2.75,2.33-4.39,3a73.9,73.9,0,0,1-17.93,5,28.29,28.29,0,0,0-3,.64c-3.65,1-4.53,2.54-3.42,6.22,1.6,5.38,4.69,9.93,8.31,14.13a18.72,18.72,0,0,0,3.83,3.92c2.25,1.45,3.79,1.44,5.89-.24a11.65,11.65,0,0,0,2.82-3.23,27.26,27.26,0,0,1,2.68-4c1-1.16,2.06-2.26,3.8-2.14A3.31,3.31,0,0,1,63,150.12c-.35,2.33-1.8,4.14-2.9,6.12C58.81,157.63,58.15,159.52,56.7,160.82Z"/><path class="cls-2" d="M63.78,57A16.46,16.46,0,0,1,65.3,32.45c7.64-6.11,16.52-6.93,25.77-5.46,2.55.4,4.08,2.37,4.45,5,.72,5.22.25,10.48.42,15.73.27,7.86.82,15.72,0,23.59-.34.66.09,2-1.47,1.58-1.28-1-.89-2.42-1-3.73-.18-2.19.47-4.5-1-6.49a.91.91,0,0,1-1.2-.21c-1.17-2.95-1.06-6.08-1.17-9.15-.18-5.09-.4-10.17-1-15.23-.6-4.79-2.44-6.11-7.29-5.47-1,.14-2,.26-3.07.47-9.2,1.81-13.3,7.49-12.1,16.83a9.43,9.43,0,0,1,.17,3.55C65.89,54.74,66.13,57,63.78,57Z"/><path class="cls-2" d="M122.79,166.14c.4,3.17,2.26,6,2,9.37-.18,2.44-1.08,4.17-3.29,5-4.15,1.55-8.31,3.17-12.84,3.11a9.73,9.73,0,0,0-3,.72c-4.11,1.22-8.06.45-11.84-1.1-1.66-.68-2.44-2.4-2.65-4.22-.11-.94,0-1.9-.07-2.85a18.43,18.43,0,0,1,.12-7.29,41.11,41.11,0,0,0,.74-7.32c1.55-5.45,1.4-11.23,3.08-16.66.36-.65.27-1.83,1.31-1.72s1.17,1.2,1.19,2.07c.08,3.16.11,6.33.13,9.23.23-.4.06-1.12.1-1.83s-.14-1.83,1.18-1.83c.93,1.4.39,3,.55,4.46-1,4.92-1.22,9.95-2.32,14.84a17.9,17.9,0,0,0-.49,5.69A3.17,3.17,0,0,0,99.64,179a18.87,18.87,0,0,0,8.52-.39c2.22-.66,4.36-1.55,6.53-2.34,2.84-1,3.56-2.25,2.69-5.13a162.56,162.56,0,0,0-6-17.41c-.93-2.18-2.09-4.35-1.42-6.88.57-.39,1.16-.66,1.47-1.44.49-1.19,1.3-1.35,2,0a4.62,4.62,0,0,0,1.6,2,4.79,4.79,0,0,1,1.18,1.28c2.08,4.25,3.89,8.62,5.58,13C122.25,163.17,122.2,164.73,122.79,166.14Z"/><path class="cls-2" d="M49.39,120.06c-5.88.41-11.68,1.61-17.58,1.63-7.49,0-12.09-4.31-12.4-11.83-.27-6.65-.84-13.35.93-19.92.15-.54.31-1.07.49-1.59,1.61-4.7,3.72-5.7,8.62-4.1,1.16.76,2.53.72,3.82,1a1.58,1.58,0,0,1,.56.36c.09,1.84-2.32,1.92-2.53,3.56-3.48,1.07-4.52,3.49-4.72,7-.23,4.05-.29,8.09-.24,12.13,0,4.21,2.11,6.1,6.4,6.34a52.67,52.67,0,0,0,13.7-1.43,32.53,32.53,0,0,1,6.59-1,11.08,11.08,0,0,1,8.11,3.07A.61.61,0,0,1,61,116c-1.7.71-3.76.24-5.27,1.59a9.61,9.61,0,0,1-2.37,1.45A17.86,17.86,0,0,0,49.39,120.06Z"/><path class="cls-2" d="M120.91,103a145.18,145.18,0,0,1,36-1.19,77,77,0,0,0,7.87-.29c6.16-.13,9.43,2.37,10.07,8.42.71,6.86.46,13.69-3.08,20-.67-1.46-1.18-3-2.93-3.62a33.15,33.15,0,0,1,0-8.56,14.36,14.36,0,0,0,.21-2.61c-.31-4.78-1.56-7.31-7.24-7.21-6.36.11-12.71.18-19.08-.24a42.77,42.77,0,0,0-9.48.64,2.81,2.81,0,0,1-1.87-.73c-.6-1.09-1.53-1.13-2.63-.92a11.12,11.12,0,0,1-8.3-1.83C119.55,103.89,119.73,103.28,120.91,103Z"/><path class="cls-2" d="M88.45,176.64c-4.25,7.15-7.22,8.19-15.08,5.24a16.52,16.52,0,0,1-3.24-1.43,55.73,55.73,0,0,0-8.6-4.31c-.12-1.37.86-1.75,1.88-1.88A3.78,3.78,0,0,0,65.57,173c1-.43,2,0,3,.22a55.79,55.79,0,0,0,7.24,1.42c3.11.31,4.48-.43,5.79-3.34.75-1.66,1.36-3.39,2.07-5.07.33-.79.51-1.7,1.39-2.15,1.25.69,1.18,1.57.51,2.56,1.09-1.83.51-3.88.59-5.85-.66-3.56.33-7,.65-10.52,1.67-4.54.6-9.24.8-13.87,0-1.38,0-2.76,0-4.15a31.77,31.77,0,0,1,.14-4.14c.33-1,.75-1.92,2.07-1.77a2,2,0,0,1,.43.77c.4,8,.1,16,.17,24a9.9,9.9,0,0,0,.24,3.3c.24,2.68.54,5.36-.34,8A11.3,11.3,0,0,0,89.12,170a3.66,3.66,0,0,1,0,.74,26.72,26.72,0,0,0-.13,4.1A5,5,0,0,1,88.45,176.64Z"/><path class="cls-2" d="M81.08,108.65a20.08,20.08,0,0,1,3.43-10.36c1-1.37,2.1-2.08,3.8-1.52a13.64,13.64,0,0,1,1.49,3.41c.29,1.44-.22,2.81-.34,4.22-.34,3.93,1.13,7.4,2.6,10.89a3.85,3.85,0,0,1-.25.88c-.12.44-.93-.14-.58.25a12.07,12.07,0,0,0,2.57,2.42c.47.3,1,.72,1.52.45,2.39-1.26,5.09-2.18,6.12-5.09,1.52-1.65,3.31-3,4.68-4.83,1.33-.31,1.68-1.26,1.73-2.49s0-2.42,1.4-2.69,1.92.85,2.43,1.87c.5,1.38.25,2.8.3,4.2a6.68,6.68,0,0,1-3.67,6.73c-4,2.31-7.93,4.91-12,7.12a3.35,3.35,0,0,1-4.64-.75c-.73-1.54-2.15-2.14-3.64-2.64a40.92,40.92,0,0,1-5.43-3.42A8.53,8.53,0,0,1,81.08,108.65Z"/><path class="cls-2" d="M29.93,64.62c.6-2.71,2.51-4.68,3.87-7A6.76,6.76,0,0,0,35.18,55c1.69-.46,2.71-1.89,4-2.84,2.77-2,5.58-3.67,9.16-3.49A5.4,5.4,0,0,1,52,49.83c4.66,4.35,9.26,8.77,11,15.22.07,1.67-1.17,2.25-2.39,2.84-1.74.24-2.84-.72-3.74-2-1.38-2-2.69-4.14-4.25-6-3.1-3.83-6.2-4.2-10.12-1.22a30.62,30.62,0,0,0-5.46,6c-1.25,1.64-2.53,3.34-4.91,3.41C30.49,67.43,29.2,66.69,29.93,64.62Z"/><path class="cls-2" d="M169.17,75.14c.52,2,1.14,3.91,1.54,5.9,1.61,8-1.2,12.52-9.17,14.32-4.4,1-8.74,2.38-13.33,2.37-4,.18-8.05.16-12.08.14a6.53,6.53,0,0,1-3-.37c-.89-.67-.65-1.5-.34-2.34,1.07-2,3-2.57,5-2.88,4.86-.74,9.8-.86,14.62-1.88l4.2-.88c5.23-1.14,8.33-4.31,9.25-9.6a28.74,28.74,0,0,0,1.13-3.55C167.14,75.42,167.45,73.75,169.17,75.14Z"/><path class="cls-2" d="M29.93,64.62a2.76,2.76,0,0,0,2.41,2.87c.23,4.86,3.18,7.56,7.39,9.22a60.18,60.18,0,0,1,9.32,4.77,6.21,6.21,0,0,1,2.52,2.11c-.36.92-.68,1.8.91,1.68a3.42,3.42,0,0,1,1.38.15,18.28,18.28,0,0,0,2.89,1.39,3.12,3.12,0,0,0,3.73.48,1.06,1.06,0,0,1,.91,1c-.63,2.56-2.49,2-4.28,1.71-2.42-.19-4.48-2.06-7.06-1.5a12,12,0,0,1-4.82-1.72,50.34,50.34,0,0,0-10-4c-1.94-1.2-3.93-2.34-5.81-3.62A5.68,5.68,0,0,1,26.87,73c.43-2.32.81-4.65,1.21-7A3.67,3.67,0,0,0,29.93,64.62Z"/><path class="cls-2" d="M99.9,44a25.22,25.22,0,0,1,.21-12.18,4.81,4.81,0,0,1,3.94-3.66,7.53,7.53,0,0,1,.89-.36c3.82-1.36,4.11-1.16,4.36,3a7.24,7.24,0,0,1-1,2.42,22,22,0,0,0-2.54,10.55c0,6.91,0,13.83,0,20.74,0,2.43-.49,4.74-2.44,6.47-2.37.27-2.57-1.53-2.66-3.07a62.07,62.07,0,0,1,0-10,15.68,15.68,0,0,0-.17-6.15C99.78,49.19,100.71,46.55,99.9,44Z"/><path class="cls-2" d="M146.28,52.64c.88-.52,1.78-1,2.63-1.59,1.41-.95,2.76-1.15,4.07.15.3,1.52-1.06,2.82-.57,4.37-.26,1.51-1.41,2.47-2.3,3.56a98.63,98.63,0,0,1-19.29,17.94,1.53,1.53,0,0,1-.67.23.78.78,0,0,1-.78-.56c0-.51.34-.81.65-1.14a11.28,11.28,0,0,1,1.65-1.39,6.9,6.9,0,0,0-1.59,1.33,6.24,6.24,0,0,0-1.41,1.7,3.75,3.75,0,0,1-2,1c-1-.23-1.07-1-1.21-1.84a1.56,1.56,0,0,1,.17-.64c1.65-2.2,4.07-3.71,5.49-6.11,1.85-3,4.75-5.11,7-7.83,2-2.46,4.07-4.89,6.07-7.35A6.88,6.88,0,0,1,146.28,52.64Z"/><path class="cls-2" d="M161.58,146.41c-1.16,1.35-2.73.91-4.2,1-4.52-.77-8.19-3.31-11.72-6-2.78-2.09-5.51-4.25-8.31-6.32a7.23,7.23,0,0,1-2.91-3.36c0-1.9,2-1.81,2.84-2.87,2.54-.12,4.62,1.15,6.5,2.54,5.32,3.89,10.75,7.54,17,9.85a4.69,4.69,0,0,1,1.05.94C163.53,144.36,163.53,144.36,161.58,146.41Z"/><path class="cls-2" d="M152.05,55.59c-.86-1.71.31-3,.93-4.39,5.07.63,8,3.08,8.94,8a16.25,16.25,0,0,0,3.39,7.21c2.09,2.56,3.8,5.24,3.86,8.68-1.43-.58-1.82.53-1.76,1.42.11,1.38-.65,2.36-1.09,3.5a20.21,20.21,0,0,1-3.95-6c-2.41-5.75-6-10.81-9.16-16.1A8.61,8.61,0,0,1,152.05,55.59Z"/><path class="cls-2" d="M117.13,83.32c-2.94,2.55-5.83,5.18-8.84,7.65s-4.91,2.13-7-1.47c1.5-2.57,1.79-5.65,3.43-8.17a3.74,3.74,0,0,1,2.13-1.67c1,.07,1.68,1,2.66,1.14,1.1.65,1.57-.33,2.18-.87,2.36-2.05,4.13-4.64,6.36-6.81.94-.91,1.92-1.73,3.37-1a5.29,5.29,0,0,1,1.68,2.57C121.69,77.94,120,81,117.13,83.32Z"/><path class="cls-2" d="M122.81,74.65c-.42-.9-1.53-1.4-1.51-2.56-.47-1.16.32-2,.81-2.85a25.53,25.53,0,0,1,3.94-5.37,169.14,169.14,0,0,0,13.41-15.16c1.32-.53,3.69-4.45,2.94-5.18-.4-.4-.79-.62-.85-1.23a1.35,1.35,0,0,1,.6-1,2.13,2.13,0,0,1,.82-.22c1.77.06,1.93,1.39,2.06,2.68a12.62,12.62,0,0,1-.6,3.75l-.12,2.62c-2.54,5.33-6.59,9.56-10.41,13.9-3.1,3.53-6.64,6.65-9.9,10C123.68,74.43,123.39,74.87,122.81,74.65Z"/><path class="cls-2" d="M57.11,90c1.53-.21,3.41.31,3.92-1.93a4.17,4.17,0,0,1,4.28-1.53,15.56,15.56,0,0,1,7.1,2.6c.59,1.14-.3,1.08-1.07,1.26a14.33,14.33,0,0,0,3.18.48c1.86.31,2.08-.39,1.23-1.85.33-1.31,1.69-1.26,2.54-1.89l2.38.89C82.22,89,83.69,90,84,92c-1.21,3.65-2.78,4.79-6.53,4.13A80.06,80.06,0,0,1,57.11,90Z"/><path class="cls-2" d="M105.09,81.44c-.81,2.33-1.64,4.66-2.43,7a1.36,1.36,0,0,1-1.35,1.06,8.35,8.35,0,0,1-1.48-5.17q0-20.14.07-40.3c.9.62,1.66,1.14.74,2.45-.79,1.14-.11,2.39.26,3.63a19.22,19.22,0,0,1,.47,8.18,66.44,66.44,0,0,0-.08,9.78c0,1.21.26,2.4,1.74,2.76C105.63,74,106.51,77.49,105.09,81.44Z"/><path class="cls-2" d="M122.81,74.65c6.06-6.32,12.43-12.36,17.76-19.36,1.28-1.69,1.77-3.95,3.74-5.13.63.85.34,2.42,2,2.48a165.08,165.08,0,0,1-14.84,17.28c-1.75,2.22-4.06,3.92-5.78,6.17h0c-.52,1.44-1.88,2.29-2.53,3.64-1.32,1.75-2.61,3.53-4.66,4.53l-1.34-.93Q120,79,122.81,74.65Z"/><path class="cls-2" d="M108.94,30.65c-.3-2.46-1.08-4.11-4-2.46-.24.14-.62,0-.94,0a2.82,2.82,0,0,1,2.41-1.32c3.89-.21,7.79-.47,11.58.91a8.47,8.47,0,0,0,3,.57c4-.1,7.94.24,11.31,2.81.66,1.43-.56,1.83-1.34,2.47a8.4,8.4,0,0,1-6,.65c-2.55-.57-5.09-1.19-7.63-1.79a2.78,2.78,0,0,0-3.39-.11A6,6,0,0,1,108.94,30.65Z"/><path class="cls-2" d="M56.72,165.6l1.52-3.72c.66-1.47,2-2.52,2.49-4.09a70,70,0,0,1,7.16-10.58A7,7,0,0,1,69.55,146c1.34-.67,1.94.24,2.53,1.19a1.83,1.83,0,0,1,.08,2c-3.09,5.28-5.3,11.09-9.49,15.7a9.6,9.6,0,0,1-4,2.94C57.5,167.56,56.62,167,56.72,165.6Z"/><path class="cls-2" d="M134.73,131.75a11,11,0,0,0,1.57,1.75c6.83,4.93,13,10.9,21.08,13.88-1.64.15-3.48-.23-4.5,1.64a10.74,10.74,0,0,1-4.87-2.91,92.91,92.91,0,0,0-11.82-8.89,38.48,38.48,0,0,1-8.09-7,3.32,3.32,0,0,1,1.54-2.05A12.67,12.67,0,0,1,134.73,131.75Z"/><path class="cls-2" d="M161.58,146.41c1.66-2,.34-3.32-1-4.68,1.53-4.63,3.19-9.2,6.37-13,.66-.78,1.19-1.73,2.37-1.85,1.26-1.6,1.84-.45,2.2.64a9.25,9.25,0,0,1,.15,2.37c-1.3,6.15-4.68,11.17-8.67,15.84C162.73,146.08,162.08,146.18,161.58,146.41Z"/><path class="cls-2" d="M78.28,79.46c-2.77-3.1-4.65-6.77-6.58-10.39a50.61,50.61,0,0,0-5.07-7.72,4,4,0,0,1,2.18-2.27c3.37.64,5.22,3.21,6.85,5.79,2.33,3.7,3.71,7.87,5.18,12A11.74,11.74,0,0,1,78.28,79.46Z"/><path class="cls-2" d="M31.42,88.69c-.24-.67-.89-1.47.54-1.59a2.5,2.5,0,0,0,1.78-1.28,1,1,0,0,1,1.08-.26c3.83,1.19,7.72,2.19,11.47,3.63a2,2,0,0,1,.89.75L52,92.84a9.73,9.73,0,0,0-2.12,2.4,1.26,1.26,0,0,1-.85.37c-6-.78-11.91-1.75-16.78-5.78A2.83,2.83,0,0,1,31.42,88.69Z"/><path class="cls-2" d="M60.44,67.56A7.38,7.38,0,0,0,63,65.05l9.53,13c.23.38,0,.6-.27.81a4.3,4.3,0,0,1-1.46.82C65.81,78.91,59.86,72,60.44,67.56Z"/><path class="cls-2" d="M61.08,115.87c-.26-.29-.48-.78-.77-.83-2.43-.41-4.3-2.65-7-2.11,0-.24.06-.58.29-.6,4.28-.47,7.59-3.81,12-4.06a5,5,0,0,1,2.55.1,5.38,5.38,0,0,0,2.42,1.27c1,.2,2,.48,2,1.83l-5.23,3A8.25,8.25,0,0,1,61.08,115.87Z"/><path class="cls-2" d="M89.3,100a4.32,4.32,0,0,1-1-3.27,10,10,0,0,0,8.76-1.44c3.3-2.36,4.73-.9,7.5,1.37-.29.86-1.2,1-1.76,1.63a36.22,36.22,0,0,1-6.27,3.26A6,6,0,0,1,89.3,100Z"/><path class="cls-2" d="M47.18,89.94,33.74,85.82l-.45-.15c-.48-.33-1-.65-.6-1.36a3.25,3.25,0,0,0,2.5-1.5c2.73-.22,5.12.92,7.48,2s4.93,2.47,7.38,3.72A3.16,3.16,0,0,0,47.18,89.94Z"/><path class="cls-2" d="M89.68,162.77a25.17,25.17,0,0,0,.49-8.16c0-1.24-.86-2.78,1.15-3.32.78,1.06.55,2.29.56,3.47a20.86,20.86,0,0,0,.8,6.57c0,5-1,9.9-1.54,14.84a4.07,4.07,0,0,0-2.69.47l0-1.75c.56-1.44-.26-3,.49-4.45v0C89.09,167.9,89,165.29,89.68,162.77Z"/><path class="cls-2" d="M111.32,105.79c-.82-.23-1.17-1.6-2.14-1.19-1.2.51-.63,1.79-.72,2.75-.14,1.44,0,3.11-2.34,2.27a1.85,1.85,0,0,1-1-1.49c-.39-2.71-1.29-5.37-.87-8.16.94-.34.67-1.89,1.93-1.92s1.61,1.22,2.32,2a13.23,13.23,0,0,0,1.45,1.45,2.88,2.88,0,0,1,1.42,2.35A2.08,2.08,0,0,1,111.32,105.79Z"/><path class="cls-2" d="M142.47,41.65l-.19,0h-.19c-3.64-.09-6.93-2.78-8.47-6.92a2.88,2.88,0,0,1,2.09-2.12c3.9,1.81,6.31,5.13,8.65,8.53C143.83,41.69,143,41.06,142.47,41.65Z"/><path class="cls-2" d="M72.51,111.47a2.92,2.92,0,0,0-2.81-1.36c-1.14,0-1.59-.46-1.48-1.55.22-.64-.37-1.11-.36-1.71a1.53,1.53,0,0,1,.42-1c1-.87,2.26-.67,3.45-.74,1.79.09,3.69-.42,5.22,1a2.55,2.55,0,0,1-.1,2.06C76.33,110.5,74.51,111.1,72.51,111.47Z"/><path class="cls-2" d="M133.33,95.21l-.46,2c.68,1.15-.38,1.07-1,1.35a35.2,35.2,0,0,1-9.11.49c-.82-.37-1.73,0-2.55-.32l-.17,0-.15-.09c-.58-1.26.51-1.37,1.2-1.76,1.18-.39,2.44-.18,3.65-.45.53-.12,1.11-.21.64-1a1.08,1.08,0,0,1,.38-1C128.45,93.35,131,93,133.33,95.21Z"/><path class="cls-2" d="M94.14,92c-1.76,1.88-3.7,1.79-5.71.47-1-.64-1.9-1.37-2.85-2.06-.63-.38-.58-1-.46-1.55a9.35,9.35,0,0,0,1.69-4.15,1,1,0,0,1,.65-.17,5.06,5.06,0,0,1,3.12,2.18A4.31,4.31,0,0,0,93.17,90C94,90.33,94.66,90.91,94.14,92Z"/><path class="cls-2" d="M52.4,92.93,61,95.81A4.09,4.09,0,0,1,58.44,99c-4.39.58-6.75-.53-8.19-3.87C50.25,93.71,51.53,93.52,52.4,92.93Z"/><path class="cls-2" d="M87.28,84.74l-.38,0c-1.47-.46-3-1.34-4.37.09-2-1.34-3.64-2.92-4.25-5.35A2.93,2.93,0,0,1,80.79,77a1,1,0,0,1,1.54.24c.5,3.19.86,3.47,4,3C88.75,81.85,89,83,87.28,84.74Z"/><path class="cls-2" d="M94.14,92a1.53,1.53,0,0,0-1.25-1.52c-2.08-.48-2.75-1.91-2.64-3.88a8.47,8.47,0,0,1,.88-3.86.93.93,0,0,1,1.25.24c.44.57.17,1.39.69,1.91,1.13-.89.62-2.35,1.21-3.41.42-.55.82-1.11,1.63-1,0,3.36.48,6.76-.83,10C94.85,91,94.75,91.65,94.14,92Z"/><path class="cls-2" d="M56.72,165.6a5.25,5.25,0,0,0,2,2c2,1.18,3.42,2.73,2.92,5.31-1.08.75-2.13,1.59-3.58,1.37C54.35,172,54.17,170.86,56.72,165.6Z"/><path class="cls-2" d="M58.64,98.52,61,95.81c2.69-.12,5.22.24,7.26,2.22.15,1.31-.91,1.93-1.59,2.77a6.88,6.88,0,0,1-3.05.35A7.52,7.52,0,0,1,58.64,98.52Z"/><path class="cls-2" d="M113.21,92.85c1.05-3,3.33-5.26,5.26-7.71a10.77,10.77,0,0,1,2.25,2.12c.63,2.77-1,4.47-2.86,6-1.21.69-2.45.22-3.68.1A1.57,1.57,0,0,1,113.21,92.85Z"/><path class="cls-2" d="M61.08,115.87l6.2-1.45a3.13,3.13,0,0,0,2.45,1.45c-1,2.14-3.35,1.72-4.9,2.79l-2.34.56c-.41,0-.82.07-1.23.06a15.34,15.34,0,0,0-1.91.24c-1-.11-1.51-.59-1.43-1.63.61-1.37,2-1.54,3.17-2Z"/><path class="cls-2" d="M111.32,105.79l0-2c.83,1,.06,3.77,2.84,2.44.61-.39,1-.12,1.33.42.42,2.56.25,5.24,1.47,7.65a1.31,1.31,0,0,1-1,1.44c-1.46.17-2.09-.83-2.64-1.91a11.91,11.91,0,0,0-1.94-3.2Z"/><path class="cls-2" d="M72.06,115.92l4.79-1.11c2-.4,3,.58,3.52,2.4-1.44,1.39-1.41,3.63-2.9,5-1-.48-2.26-.43-3.08-1.34a1.46,1.46,0,0,1-.17-.64c.09-.73.65-1.25.93-1.93-.86-.78-1.88-.25-2.75-.51-.64-.14-1.24-.39-1.32-1.1S71.72,116.15,72.06,115.92Z"/><path class="cls-2" d="M120.5,87.15a2.16,2.16,0,0,1-2-2v-.89l4.36-4.77A6.56,6.56,0,0,1,125,81.56C125.2,84.81,123.59,86.78,120.5,87.15Z"/><path class="cls-2" d="M68.75,59.26a4.86,4.86,0,0,1-2.12,2.09A7.17,7.17,0,0,1,63.78,57c1.77-.52,1.29-2.7,2.62-3.56C69.6,55,70.37,56.88,68.75,59.26Z"/><path class="cls-2" d="M76.85,108.19v-2c-.77-1.65-2.61-.91-3.77-1.67-.58-1-1.54-.37-2.32-.51-1.08-.19-2.41.42-3.1-1,.84-1.06,2-.63,3.1-.72.71-.06,1.43,0,2.14,0s1.65.24,1.92-.54-.87-1-1.26-1.51c-.51-1,.53-.77.88-1.09,1.27-.17,2.26.55,3.31,1a2,2,0,0,1,1.11,2.74A28.52,28.52,0,0,1,76.85,108.19Z"/><path class="cls-2" d="M72.11,78.5l.41-.46c2.41,2.51,4.82,5,5.69,8.55-1.17.64-1.9-.46-2.84-.7a8.92,8.92,0,0,0-4.45-3.08c-.75-.93-1.12-1.89-.27-3C71.42,79.71,71.6,78.93,72.11,78.5Z"/><path class="cls-2" d="M131.92,98.51c.35-.43,1-.62,1-1.35,4.3,0,8.61,0,12.91,0,.83,0,1.78-.34,2.43.54-2.53,1.21-5.25,1-7.93,1S134.71,98.57,131.92,98.51Z"/><path class="cls-2" d="M80.24,117.26c-1-1-1.54-2.64-3.39-2.45A3.33,3.33,0,0,0,79.77,111a2.69,2.69,0,0,1,1.31-2.37c.3,3-.27,6.13,2.15,8.55-.89.87-.66,2.48-2,3A4.73,4.73,0,0,1,80.24,117.26Z"/><path class="cls-2" d="M114.23,92.86c1.1-.29,2.21.78,3.32,0,.38.33.91.5,1.08,1-.85.89.25,1.67.13,2.51a1,1,0,0,1-.35.53,5.08,5.08,0,0,1-4.5,0,2,2,0,0,0-2.17.29c-1-1.51-.26-2.57.92-3.52A3.42,3.42,0,0,0,114.23,92.86Z"/><path class="cls-2" d="M111.74,97.24c.07-1,.33-2,1.5-1.21,1.69,1.19,3.46.66,5.22.69,1-.18,2.09-.42,2.93.52-.4.54-1.54.31-1.45,1.38a14.31,14.31,0,0,1-5.89.35A2.31,2.31,0,0,1,111.74,97.24Z"/><path class="cls-2" d="M58.18,117.75a1.34,1.34,0,0,0,1.44,1.44c.22.5-.14.69-.49.88a3.43,3.43,0,0,1-.44.19,18.84,18.84,0,0,1-5.85,1.26h-.9c-.32-1.42-1.54-1.26-2.55-1.46.94-1.42,2.38-1.46,3.86-1.41a21.77,21.77,0,0,0,3.5-1.25A1.47,1.47,0,0,1,58.18,117.75Z"/><path class="cls-2" d="M58.09,174.27a9.74,9.74,0,0,1,3.55-1.55c1.83-1.43,2.67-1.32,3.74.49.49,1,.3,1.63-1,1.51a2.57,2.57,0,0,0-2.87,1.42A3.86,3.86,0,0,1,58.09,174.27Z"/><path class="cls-2" d="M82.53,84.81c1-2.12,2.26-2.14,4.37-.09.2,1.53.43,3.08-1.44,3.83a3,3,0,0,1-2.8-3Z"/><path class="cls-2" d="M72.06,115.92c-.21.27-.65.59-.6.82.1.5.67.48,1.1.55.07,1-.92,1.11-1.37,1.67a10.15,10.15,0,0,1-4.45,1.4.76.76,0,0,1-.56-.32c.14-1.05-.62-1.2-1.35-1.38,1.09-1.88,3.54-1.37,4.9-2.79Z"/><path class="cls-2" d="M82.66,85.57c.55,1.35,2,1.88,2.8,3l.12,1.84A3.43,3.43,0,0,0,84,92l-3.31-3.89C82.21,87.93,82.57,86.86,82.66,85.57Z"/><path class="cls-2" d="M61.05,158a6,6,0,0,1-2.81,3.91,1.64,1.64,0,0,0-1.54-1.06,10,10,0,0,1,3-4.74C61,156.16,61.52,156.71,61.05,158Z"/><path class="cls-2" d="M95.91,80.41c-.43.31-.55,1-1.28.94a10.6,10.6,0,0,1-.07-8.6c1.06.1.81-1,1.36-1.43C95.94,74.35,96.65,77.38,95.91,80.41Z"/><path class="cls-2" d="M122.79,166.14c-1.24-1.18-1.34-2.74-1.43-4.3-.34-1.34-.51-2.6,1.37-2.89a4.93,4.93,0,0,1,1.5,3.82C122.48,163.35,123.1,164.94,122.79,166.14Z"/><path class="cls-2" d="M135.71,32.62a5.4,5.4,0,0,1-2,1.93c-1.81,1-2.56.64-2.81-1.49.74-.44,1.52-.84,1.48-1.9A4.6,4.6,0,0,1,135.71,32.62Z"/><path class="cls-2" d="M115.2,106.77a.82.82,0,0,0-1-.52c1-3.6,3.81-3.57,6.73-3.28-.33.37-1,.62-.45,1.3C118.8,105.3,116.93,105.88,115.2,106.77Z"/><path class="cls-2" d="M74.43,99.15l-1,.79c-1.31,1.31-3,.4-4.52.88a1.71,1.71,0,0,1-1.69.14,1.16,1.16,0,0,1-.47-.51C66.48,99.15,68,99,68.27,98Z"/><path class="cls-2" d="M75.47,85.67c1.15-.38,1.79.72,2.74.92l.08.59c.06,1.67-1.59,1.09-2.3,1.76-.34.31-.59.11-.84-.14a9.79,9.79,0,0,0-.83-1.09c-.59-.69-1.07-1.39-.26-2.24A1.23,1.23,0,0,1,75.47,85.67Z"/><path class="cls-2" d="M142.47,41.65c.47-.77,1.24-.4,1.89-.5,2,2.32,2,2.78.07,6.39,0-1.35-.13-2.69-.05-4S143.92,41.43,142.47,41.65Z"/><path class="cls-2" d="M106.15,98.05c-1,0,.14,2.08-1.46,1.53-1-.32-1.3-1.33-2-2l1.87-.92C105.06,97.19,106,97.11,106.15,98.05Z"/><path class="cls-2" d="M32.69,84.31l.6,1.36c-1.47,0-2.93,0-3.84-1.42Z"/><path class="cls-2" d="M124.24,162.77a2.78,2.78,0,0,1,1.41,3.35A4,4,0,0,1,124.24,162.77Z"/><path class="cls-2" d="M52.4,92.93c-.34.91-1.3,1.17-1.88,1.84a.3.3,0,0,1-.48,0c-.62-1.93,1.16-1.4,2-1.9A.44.44,0,0,1,52.4,92.93Z"/><path class="cls-2" d="M99.35,188.23c-1.74.8-3.57.29-5.36.34C95.75,188,97.55,188.22,99.35,188.23Z"/><path class="cls-2" d="M114.23,92.86c-.22.85-.56,1.46-1.57.86l.55-.87Z"/><path class="cls-2" d="M109.92,101.46a1.34,1.34,0,0,1-1.45-1.45C109.28,100.17,109.92,100.49,109.92,101.46Z"/><path class="cls-2" d="M120.26,98.68c.87-.05,1.77-.35,2.55.32A3.69,3.69,0,0,1,120.26,98.68Z"/><path class="cls-1" d="M125.21,135.46c6.67,5,13.5,9.8,19.93,15.13.43.35.87.69,1.28,1.07,3.83,3.5,3.9,5.44,0,9a86.07,86.07,0,0,1-7.61,6.13c-3.12,2.25-5.33,1.73-7.26-1.63a102.35,102.35,0,0,1-7.42-17.21c-1-3-1.88-6.14-5.09-7.71-1.75-.68-2.14-2.19-2.31-3.82a2.1,2.1,0,0,1,2.06-1.77c2.61,1,4.2,3.29,5.91,5.3a30.17,30.17,0,0,0,6.28,5.72c.33.14.64.56,1,.32s.22-.66,0-1a4.64,4.64,0,0,0-1-1c-2.22-2.57-4.83-4.81-6.53-7.82A.82.82,0,0,1,125.21,135.46Z"/><path class="cls-4" d="M111.35,110.65c1.36-.12,1.55,1,2,1.86.6,1,.69,2.45,2.09,2.92,2.26.7,3.37,2.82,5.11,4.17,2.69,2.08,5.56,4,7.83,6.55.53.62,1.46,1.08,1.09,2.16a2.19,2.19,0,0,1-1.4,1.88c-2.72-1.39-4.78-3.65-7.13-5.51a17.8,17.8,0,0,0-5.25-3.2c-1.16-.24-2.34-.43-3.51-.57-2.14-.26-2.9.44-3.12,2.55a11.49,11.49,0,0,0,1.19,6.23,4,4,0,0,1,.06,1.88,1.71,1.71,0,0,1-1.27,1.28,2.58,2.58,0,0,1-2.12-1.32c-1-1.4-2.33-2.56-3.43-3.89a3.52,3.52,0,0,0-4.18-1.3c-1.9,2.72-2.08,5.95-2.56,9s-.63,6.47-1.18,9.67c-1.34,5.36-1.4,10.95-2.92,16.28-1.45-1.07-1.35-2.71-1.44-4.21-.12-1.94,0-3.9,0-5.85-.95-1-.67-2.22-.7-3.38-.15-6.41.26-12.83-.23-19.23a5.35,5.35,0,0,0-.5-2.3h0c-1.1-2.53-.49-3.62,1.92-3.44,2.52,1.63,4.77,1.33,7.21-1,2.26-2.11,5.28-3,7.78-4.66S111.64,114.16,111.35,110.65Z"/><path class="cls-2" d="M108.9,132.6a1.62,1.62,0,0,0,1-.93c.88-.37,1.28.34,1.81.77a59.6,59.6,0,0,1,5.38,11.18l.1,1.75c.27,1.45.76,3-1.41,3.45l-1-.92c-2.94-4.13-4.28-8.94-5.79-13.68A2,2,0,0,1,108.9,132.6Z"/><path class="cls-2" d="M115.75,148.82c1.28-.83,1.29-2.16,1.41-3.45,2.78,4.14,3.87,9,5.57,13.58a3.25,3.25,0,0,0-1.37,2.89Z"/><path class="cls-2" d="M109.81,129.82a9.86,9.86,0,0,1-1.42-6.59c.18-2.53,1.26-3.43,3.76-2.93a9,9,0,0,1,3.57,1.18c-.23,0-.47,0-.7.09-1.12.22-3-.58-3.22.59-.25,1.39,1.78.58,2.64,1.2.45.33,1,.55,1.17,1.11a5.61,5.61,0,0,1-.71,1.65,1.7,1.7,0,0,1-.85.88.6.6,0,0,1-.23,0c-2.8-1.16-2.8-1.16-2.79,1.8A2.33,2.33,0,0,1,109.81,129.82Z"/><path class="cls-2" d="M117.06,143.62q-2.93-5.49-5.86-11a1.74,1.74,0,0,1,1.48-.83c2.28.75,3.35,2.66,4.41,4.58.59,1.3.83,2.79,2,3.81C117.12,140.6,117.14,142.14,117.06,143.62Z"/><path class="cls-2" d="M125.21,135.46l-.3.48c-2.49.06-3.54-1.92-4.89-3.46-.43-1-1.42-1.86-1.33-3.13a1.63,1.63,0,0,1,.78-1.1,25.69,25.69,0,0,1,5.6,4.37A1.89,1.89,0,0,1,125.21,135.46Z"/><path class="cls-2" d="M114.68,125.89a1.39,1.39,0,0,1,.93-1.42c1.14.78,2.48,1.34,3,2.81a1.33,1.33,0,0,1-1.09.7A5.07,5.07,0,0,1,114.68,125.89Z"/><path class="cls-2" d="M117.52,127.82c.2-.47.6-.54,1-.54l.9,1a1,1,0,0,1-.49,1C118.24,129,117.47,128.85,117.52,127.82Z"/><path class="cls-1" d="M74.47,120.69c.71,1,2.5-.34,2.85,1.37-1,3.85-3.57,6.84-5.67,10.06-3,4.58-6.92,8.49-9.31,13.47a2.34,2.34,0,0,1-1.82,1.34c-2.38.6-3.56,2.51-4.75,4.4a19.49,19.49,0,0,1-3.91,5.07c-2.39,2-4.59,2.2-6.87.14-5.8-5.26-10.27-11.48-12.52-19.08-.95-3.23,0-5,3.4-5.89,4.21-1.1,8.54-1.77,12.76-2.84,4.75-1.21,9.42-2.72,13.44-5.69l0,0a5.23,5.23,0,0,0,2.85-1,1.15,1.15,0,0,1,.65-.32,1.07,1.07,0,0,1,1.15,1.16,2.56,2.56,0,0,1-1.09,1.77c-.84.58-1.7,1.11-2.57,1.62a31.32,31.32,0,0,0-9.12,6.78c-1.24.87-2.74.46-4.07.84s-2.79.68-3.68,2.27c1.7-.08,2.4-1.59,3.67-2.06,1.75-.57,3.74.28,5.4-.88a42.93,42.93,0,0,0,8.85-6.14c.8-.58,1.63-1.13,2.48-1.65a15,15,0,0,0,5.25-3.62A5.22,5.22,0,0,1,74.47,120.69Z"/><path class="cls-2" d="M60.52,146.93c1.74-1.7,2.4-4.09,3.86-6a153.13,153.13,0,0,0,12.94-18.89c1.12-1.51.5-4.08,2.92-4.8,1.25.63.93,1.82,1,2.87a2.32,2.32,0,0,1,.35,2.14c-2.24,5.79-5.72,10.82-9.52,15.65a44.59,44.59,0,0,0-4.94,7.6c-1.44,1.7-2.16,4.11-4.62,4.83A3.29,3.29,0,0,0,60.52,146.93Z"/><path class="cls-2" d="M62.51,150.35a34.6,34.6,0,0,0,4.18-5,7.62,7.62,0,0,1,1.49,2.08L61.05,158a2.33,2.33,0,0,0-1.32-1.89Z"/><path class="cls-2" d="M52.84,121.52c2.06.06,3.71-1.74,5.85-1.26C57,122,54.92,121.69,52.84,121.52Z"/><path class="cls-2" d="M62.07,123H59.86c.48-1.41,1.49-1.77,2.42-1.38s-.31.9-.26,1.42Z"/><path class="cls-2" d="M65.37,122.07l-.5,0c-1.49-1.93.42-1.64,1.31-2l.18.14C66.65,121.14,66,121.6,65.37,122.07Z"/><path class="cls-2" d="M59.13,120.07c.16-.29.32-.59.49-.88.56-.7,1.31-.43,2-.38a1.16,1.16,0,0,1-.66,1.27Z"/><path class="cls-2" d="M61,120.08l.66-1.28c.34,0,.68,0,.85.42A1.26,1.26,0,0,1,61,120.08Z"/><path class="cls-1" d="M68.75,59.26c1.08-2.68-.59-4.25-2.35-5.78-.23-2.61-.79-5.19-.58-7.85.44-5.45,2.88-9.48,8-11.75a27.76,27.76,0,0,1,9.72-2.15c3.72-.23,5.82,1.69,6.2,5.73.44,4.76.7,9.53,1,14.3a61.49,61.49,0,0,0,1.07,10.91c1.7,1.74.78,3.94,1,5.94a14.07,14.07,0,0,0,.41,2.73c0,1.43.05,2.87-1.19,3.93-1.16.24-1.26-.71-1.52-1.42-.38-1-.63-2.14-1.17-3.35-1,2.2.06,3.92.81,5.68a6.54,6.54,0,0,1,.23,1.76c-.25,1.69.37,3.27.65,4.89a3.79,3.79,0,0,1-.8,3.75l-3-1.84c1.1-2,.61-3.39-1.44-4.3-1-.6-1.13-1.68-1.3-2.66A74.14,74.14,0,0,0,81.25,65.7,6.24,6.24,0,0,1,81,64.21a5.46,5.46,0,0,0-.39-2.49c-.84-1.94-1.83-3.84-1.56-6.06a5.76,5.76,0,0,0-1.77-4.54c.3,2-.13,4.3,1.31,6.22a4.36,4.36,0,0,1,.24,1.07,10.15,10.15,0,0,0,.33,2.85c.23,1.35.86,2.57,1.2,3.88a84.65,84.65,0,0,1,2.49,9.92c.16.9.76,2.08-.78,2.52A1.29,1.29,0,0,0,80.79,77c-1.62-1.94-2.09-4.39-3-6.64C75.85,65.77,73.64,61.44,68.75,59.26Z"/><path class="cls-2" d="M91.64,75.17c1-1.13,1-2.57,1.08-4,.36-1-.32-1.93-.3-2.92.12-2-.24-4.06.16-6.08.16-.47.35-1.07.71-.14a15,15,0,0,1,.82,4.61c.1,2-.32,4.1.45,6.07,0,2.87,0,5.73.07,8.6-.17,1.25-.32,2.5-.51,3.75-.17,1.08-.63,1.44-1.53.56a6.72,6.72,0,0,1-.18-2.23,28.21,28.21,0,0,0-1.56-4.9,4.35,4.35,0,0,1,0-2.6A1.38,1.38,0,0,1,91.64,75.17Z"/><path class="cls-2" d="M92.58,62.21l.09,6.72a.26.26,0,0,1-.45-.05,34.93,34.93,0,0,0-.43-6.21Z"/><path class="cls-1" d="M110.38,146.48c-.44,2.42.59,4.54,1.48,6.65,2.52,6,4.33,12.28,6.37,18.47.65,2,.37,3.91-1.64,4.67-4.57,1.73-9,4-14.15,3.77-5.66-.26-7.48-1.82-6.31-7.34,1.05-5,1-10.13,2.56-15a12.3,12.3,0,0,0,.29-2.12c.56-1.9-.48-4,.57-5.82,1.2.6.78,1.75.91,2.71.15,1.14-.3,2.42.8,3.32,1.3-.32.71-1.59,1.16-2.34s.66-1.93,2-1.12c1.07,2.22,1.28,4.67,1.84,7a71.32,71.32,0,0,1,1.18,7.94c2.09-5.33-.21-11.15-.9-17a16.34,16.34,0,0,1-.17-3.63c.24-1.3.12-2.8,1.79-3.32C109.79,143.72,110.33,144.93,110.38,146.48Z"/><path class="cls-2" d="M110.38,146.48l-1.92-2.88c-1-1.08-1.24-2.52-1.6-3.87a16.49,16.49,0,0,0-3-6.36c-.88-2.07-3.52-2.13-4.59-4-.43-1.3-1.63-2.62,0-3.9a5.14,5.14,0,0,1,5.12,2.2c1.35,1.74,2.93,3.29,4.42,4.92,1.14,3.31,2.36,6.59,3.41,9.92.6,1.9,2.35,3.26,2.41,5.38-1.34-.53-1.64-1.82-2.15-3-1,.14-.76,1.09-1,1.64C111,147.66,110.75,146.55,110.38,146.48Z"/><path class="cls-2" d="M99.36,125.48c-1,1.42.25,2.59.42,3.88.15,1.7-.57,3.28-.7,4.94a33.45,33.45,0,0,0,.84,8.76c-.53,2.56-.59,5.18-1.07,7.74-1,1.26,0,3-1.2,4.31-1.34-3.8-.16-7.85-1-11.75-1,.39-.41,1.34-1,1.69a56,56,0,0,1,2.31-18C98.15,126.27,98.29,125.46,99.36,125.48Z"/><path class="cls-2" d="M98.85,150.8a14.72,14.72,0,0,1,.57-7.67c2.31.05,2.43,1.53,2.14,3.28-1,.94-.86,2.48-1.81,3.45-1,1.8.31,3.92-.77,5.71C98.94,154,98.89,152.39,98.85,150.8Z"/><path class="cls-2" d="M112.65,150.46c-.84-.16-1-.7-1-1.47C112.57,149.19,112.78,149.66,112.65,150.46Z"/><path class="cls-1" d="M50,94.74a1.94,1.94,0,0,0,.48,0c1.63,3.57,4.62,4.21,8.12,3.75,1.89,0,2.81,2.23,4.77,2.11a1.14,1.14,0,0,1-.82,1.27c-2.24.45-4.5.14-6.76.22-3.35-.52-5,1.79-6.68,4,4.73,1.2,9.51,1,14.3.62,1.62-.13,3.29-.72,4.77.51.53.43.76.85,0,1.28-3.71.67-7.52.9-10.59,3.64-1.1,1-3-.11-4.32.73-4.62.23-9,1.65-13.6,2.22a34.51,34.51,0,0,1-8.31.19c-3.49-.39-5.5-2.41-5.73-5.88a98.9,98.9,0,0,1,.53-16.41c.31-3.17,2.93-3.56,5.22-4.36C36.27,92.61,42.06,94,48,95,48.75,95.06,49.43,95.37,50,94.74Z"/><path class="cls-2" d="M58.18,117.75l-1.42-.06c-.56,0-1.13.11-1.47-.49,1.68-1.54,3.74-1.44,5.8-1.33C60.34,116.84,59.08,117,58.18,117.75Z"/><path class="cls-2" d="M55.29,117.2c.51.11,1.1,0,1.47.5-.94,1.18-2.23,1-3.51,1Z"/><path class="cls-1" d="M169.37,126.86a30.73,30.73,0,0,0-7.39,13c-.19.7,0,1.9-1.35,1.82-5.82-1.89-10.85-5.19-15.7-8.82-2.29-1.71-4.67-3.32-7.61-3.74a4.31,4.31,0,0,1-4.33-3.46c.59-1.94,2.09-1.34,3.34-1.1,1.62.32,3.18,1,5.26.66-3.87-1.61-7.63-1.55-11.36-1.74-2.2-.75-3.36-2.86-5.25-4-1.14-.71-2.23-1.52-3.33-2.31-.7-.5-1.53-.93-1.44-2,.51-1.11,1.54-1.26,2.58-1.38a8.54,8.54,0,0,1,1.89.11c5.42,2.11,10.67,4.65,16.32,6.16,2.29.61,4.68.82,6.65,1.51-1.8-1.15-4.16-1.87-6.34-3a52,52,0,0,0-7.32-2.93c-2.42-.81-4.82-1.66-7.3-2.3-1.44-.93-3.44-.9-4.46-2.56.79-1.51,2.27-1.25,3.6-1.4,1.51,0,3,0,4.55,0a13.86,13.86,0,0,1,3.28.22c2.86,1.34,6,1.52,9,1.9,3.07,1,6.11,2.19,9.8,1.63-2.35-1.83-5-1.83-7.51-2.49-2.84-.68-5.65-1.5-8.61-1.38a7.33,7.33,0,0,1-1.93-.22c-.65-.32-1.61-.3-1.58-1.39,7.12-1.4,14.3-.41,21.45-.45,3,0,6.06-.07,9.09-.07,3.63,0,5.35,1.52,6,5.14a21.4,21.4,0,0,1,.11,5.71A56.71,56.71,0,0,0,169.37,126.86Z"/><path class="cls-2" d="M122.88,114.36a2.87,2.87,0,0,0-2.52,1.13,3.17,3.17,0,0,1-3.74-1.16c-1.77-2.28-1.65-4.91-1.42-7.56,1.19-2,3.25-2.2,5.26-2.5a12.68,12.68,0,0,0,8.41,1.74c.86-.12,2.6-1.05,2.52,1.2a2.4,2.4,0,0,1-2.42.5,12.89,12.89,0,0,0-5.14.09,9.71,9.71,0,0,0-3.7.56c-1.93.82-2.11,1.51-.83,3.3C120.24,112.9,122.56,112.31,122.88,114.36Z"/><path class="cls-2" d="M123.32,107.26c2.68-1,5.38-.13,8.07-.05l1.46.48c.23.82,1.22.26,1.57.85-1,1.25-2.82.43-3.92,1.48l-4.79,0C124.64,109.32,122.93,109.2,123.32,107.26Z"/><path class="cls-1" d="M65.38,173.21c-1.06-1.6-2.42-.94-3.74-.49-.26-2.1-1.56-3.62-2.89-5.13,4-2.91,6.64-6.94,8.91-11.24,1.25-2.38,2.56-4.72,3.83-7.09.31-.59,1-1.15.25-1.89-.93-.89-.19-1.55.35-2.17a20.46,20.46,0,0,0,3-4.51A24.39,24.39,0,0,0,79,134.36c.72-1,1.16-2.29,2.62-2.52,2,.58,1.47,2.34,1.68,3.74a52.73,52.73,0,0,1-.15,6c-.7,2.41-1.82,4.74-1.25,7.38,1-1.18,1-1.18,1.64-3.6.49-1.33.17-2.93,1.34-4,.45-.42.66-1.11,1.36-1.24a.93.93,0,0,1,.58.52,15.2,15.2,0,0,1,.11,5.82c-1.16,3.68-.44,7.52-1,11.25a10.5,10.5,0,0,0-.29,3.26c-.07,1.1.25,2.28-.59,3.24-1.12,2.79-2.19,5.6-3.39,8.35-1,2.31-2.74,3.18-5.35,2.84C72.61,174.92,69.06,173.76,65.38,173.21Z"/><path class="cls-2" d="M91.7,122.92c-2.72,0-1.58,2.13-1.92,3.44a3,3,0,0,0-1.44,1.46c-1,1.16-.71,2.63-.89,4-.55,1.8-.71,3.75-2.07,5.22-2.32-.68-1.83-2.66-2-4.33,0-2.29.17-4.6-1.1-6.68a3.69,3.69,0,0,1-.16-1.89A4.46,4.46,0,0,1,86,121a3,3,0,0,0,2.14-.74C89.54,120.88,91.45,120.83,91.7,122.92Z"/><path class="cls-2" d="M89.78,126.36c1.85,2.67,1.55,5.73,1.55,8.72,0,5.4-.08,10.79-.12,16.19-1.19.84-1,2.13-1,3.34-.63-.68-.39-1.51-.39-2.28Q89.76,139.34,89.78,126.36Z"/><path class="cls-2" d="M86.53,146.45l0-6.18a3.43,3.43,0,0,1,.07-2c.37-.81.45-1.9,1.72-1.89-.14,3.39.38,6.78.07,10.18a11.93,11.93,0,0,1-1,3.88C85.6,149.39,86.7,147.79,86.53,146.45Z"/><path class="cls-2" d="M86.53,146.45c.94,1.18-.13,2.78.8,4,.06,3.45-1.14,6.84-.48,10.31-.21.48-.43.95-1.07.52a7.63,7.63,0,0,1-.32-3.25c.07-3.45-.23-6.91.48-10.34C86,147.18,86.06,146.72,86.53,146.45Z"/><path class="cls-2" d="M88.3,136.35c-1,.33-.78,1.42-1.31,2.05-1.07.24-.27,1.43-.95,1.88-.13.47,0,1.06-.62,1.3a4.42,4.42,0,0,1,0-4.74L87,131.67c.7-.59,1-.08,1.33.46Z"/><path class="cls-2" d="M85.94,161.36l.91-.64c-.16,2.17.73,4.5-1,6.58-.86-1,.09-2.28-.81-3.09l0-3.3C85.61,160.61,85.6,161.32,85.94,161.36Z"/><path class="cls-2" d="M89.68,162.77c-.05,2.59.73,5.26-.8,7.7A8.11,8.11,0,0,1,89.68,162.77Z"/><path class="cls-2" d="M88.29,132.13,87,131.67c.05-1.43-.6-3.11,1.38-3.85C88.32,129.26,88.3,130.69,88.29,132.13Z"/><path class="cls-2" d="M66.89,175c1.13-.42,1.93-.51,2.52.36a.64.64,0,0,1-.15.59C68.28,176.28,67.73,175.63,66.89,175Z"/><path class="cls-2" d="M88.89,170.44c-.48,1.44.19,3-.49,4.45C88.53,173.4,87.77,171.81,88.89,170.44Z"/><path class="cls-1" d="M102.7,97.62c1.75-.46,1.26,1.38,2,2a50,50,0,0,0,1.43,10c-.64,2.35-2.7,3.36-4.4,4.72a7.67,7.67,0,0,1-5.1,3.93c-2.33.66-3.81-.22-4.86-2.58-3.19-4.85-3.41-10.16-2.46-15.65,3.31,2.26,6.54,1.75,9.74-.26C100.24,99,101.48,98.34,102.7,97.62Z"/><path class="cls-2" d="M88.18,120.23a1.37,1.37,0,0,1-1.66,1.47c-1.89-.19-3,.8-3.94,2.27-1.08.09-1.57-.38-1.45-1.47l.11-2.37c.8-.88-.09-2.91,2-2.93Z"/><path class="cls-2" d="M91.76,115.69c2.76,2.82,4.66,2.94,7.84.48.74-.57,1.42-1.21,2.12-1.83.26,2.54-2.07,3.2-3.47,4.06-3.94,2.41-4.2,2.19-7.3-1.63l-.59-.71C90.67,115.13,91.52,116.7,91.76,115.69Z"/><path class="cls-1" d="M71.07,79.93c-1.13,1,.22,1.92,0,2.88l-.26.15a12.7,12.7,0,0,1-1.5.15,1.3,1.3,0,0,1-1-.68c-1.78-2.47-4.72-3.32-7-5.07-1.34-.91-2.45-2.26-4.66-2.39.57,2.06,2.3,2.41,3.58,3.22a49.31,49.31,0,0,0,8.2,5.53,6.16,6.16,0,0,1,1.11.78c1.22,1.79,3.69,2.27,4.61,4.37-.35.79-.87,1.19-1.74.72a39.82,39.82,0,0,0-5.92-2.24c-2-.72-3.66.17-5.42.76a1,1,0,0,0-.92-.53,12.64,12.64,0,0,1-3.81-1.06c-.71-.3-1.42-.62-2.12-.94a4.47,4.47,0,0,1-2.72-1.78,62.19,62.19,0,0,0-12.77-6.89c-3.22-1.27-5.72-3.42-6.63-7-.22-.85-.54-1.7.28-2.43,2.21-.31,3.33-2,4.48-3.63a26.85,26.85,0,0,1,6.28-6.48c3.13-2.19,5.51-2.1,8.37.46a26.31,26.31,0,0,1,5,6.37c.92,1.57,1.83,3.25,4,3.35,1.38,5.91,5.19,9.66,10.63,12,.14.09.19.18.14.26S71.12,79.93,71.07,79.93Z"/><path class="cls-1" d="M118.51,93.89c-.6-.08-1.13-.23-1-1a6.93,6.93,0,0,0,3-5.71c2.55-1.09,4.36-2.72,4.27-5.77.31-1.24,1.37-1.87,2.22-2.66a13.33,13.33,0,0,1,3-1.66c7.69-5.68,14.83-11.94,20.7-19.53.49-.63.91-1.29,1.36-1.94A94.89,94.89,0,0,1,160.58,69c1.67,3,2.69,6.28,5,8.93a6.8,6.8,0,0,1,.77,2.17,11.22,11.22,0,0,1-8.92,10,126.22,126.22,0,0,1-19.35,2.81,6,6,0,0,0-4.72,2.38,10.42,10.42,0,0,0-7.61-.35,1.75,1.75,0,0,1-1.38.33,1.34,1.34,0,0,1-.63-.36c.14-1.47,1.5-1.69,2.41-2.36a85,85,0,0,0,16.74-8.64,2.79,2.79,0,0,1,1.46.07,1.85,1.85,0,0,1,1.36,1.6,2.82,2.82,0,0,1-1,1.83c-.64.74-1.93.82-2.13,2.12.8.37,1.08-.36,1.53-.68a9.68,9.68,0,0,1,2.9-2.13c1-.57,2.23-1,2.37-2.44-.24-.93-.81-1.8-.59-2.83,0-1.1,2-1.84,1-2.79s-2.09.5-3.11,1c-.42.21-.81.49-1.23.71a16.1,16.1,0,0,0-4.83,2.87,142.55,142.55,0,0,0-15.68,8.56c-1.13.58-2.24,1.17-3.42,1.65C120.49,93.54,119.64,94.48,118.51,93.89Z"/><path class="cls-2" d="M51.46,83.8c1.2,0,1.84,1.11,2.88,1.44,0,.38,0,.64-.48.44-1.49.27-2.92.3-4.11-1.06Z"/><path class="cls-2" d="M56.32,85.91l3.79,1.67c-1.45,2.1-2.36.46-3.37-.49C56.31,86.8,55.85,86.52,56.32,85.91Z"/><path class="cls-2" d="M56.32,85.91l.42,1.18a3,3,0,0,1-2.88-1.41l.48-.44C55.17,85,55.68,85.63,56.32,85.91Z"/><path class="cls-1" d="M130.89,33.06c.48,1.36,1.32,2,2.81,1.49,2.14,3.15,4.38,6.18,8.39,7.11l-.2.75c-.16,2.34-.2,4.73-2.22,6.43-3.08,5.07-7.26,9.22-11.37,13.41a34.15,34.15,0,0,0-7,9.84c-1.88,0-3,1.24-4.07,2.58-1.91,2.45-4.12,4.62-6.25,6.86-1.21,1.27-1.45.58-1.62-.61-.21-2,1.16-3.52,1.33-5.39.91-2.76,2.81-5.07,3.58-7.89a13.25,13.25,0,0,1,1-1.4,4.54,4.54,0,0,0,.54-1c.26-.79,1.64-1.76.5-2.3-1-.46-1.07,1.19-1.55,1.9s-.79,1.59-1.16,2.4c-1.21,2.32-2,4.84-3.35,7.11a14.4,14.4,0,0,0-1.82,3.53c-.27.79-.39,1.74-1.46,1.94l-1.83,1.64A19.77,19.77,0,0,0,103,70.83c2.1-2.5,2.19-5.52,2.15-8.56-.07-6-.2-12.08-.2-18.12a24.72,24.72,0,0,1,4-13.5l5.23,1.5c.77.86.35,1.83.16,2.72-.56,2.82-.87,5.66-1.18,8.51a6.52,6.52,0,0,0,.56,3.48A9.73,9.73,0,0,0,115,42.68c.17-2.38.56-4.73.57-7.13,0-1.32.11-2.75,1.54-3.51,2.79,0,5.37,1.14,8.08,1.62A8.8,8.8,0,0,0,130.89,33.06Z"/><path class="cls-2" d="M127.13,79a9.05,9.05,0,0,1-2.36,2.38c-1.26,0-1.49-1.07-1.94-1.9.65-1.38,1.32-2.74,2.83-3.4l1,2C127,78.24,127.42,78.44,127.13,79Z"/><path class="cls-2" d="M125.66,76.09a19.37,19.37,0,0,1,5.78-6.17C130.09,72.52,127.79,74.23,125.66,76.09Z"/><path class="cls-2" d="M127.13,79c-.16-.33-.33-.65-.49-1,.66-.28,1.08-1,1.92-1,.26-.28.42-.76,1-.48l.46.48A4.67,4.67,0,0,1,127.13,79Z"/><path class="cls-2" d="M130,75.62c.24-1.68,1.91-1.8,2.92-2.65-.73,1.16-1.42,2.35-2.93,2.65Z"/><path class="cls-2" d="M129.53,76.58l-1,.48A1.35,1.35,0,0,1,130,75.62h0A1,1,0,0,1,129.53,76.58Z"/><path class="cls-2" d="M116.62,114.33l3.74,1.16c3.21,2.5,6.89,4.42,9.59,7.57,1,1.13,2.25,1.88,3.29,2.91,1.24,1.22,2.18,2.83,4.08,3.2-.36,1.36-2.47,1-2.59,2.58a29.15,29.15,0,0,1-5.23-3.44c-1.85-2.6-4.4-4.46-6.86-6.42s-5.21-3.83-7.17-6.46C116.14,115.36,116.58,115.06,116.62,114.33Z"/><path class="cls-2" d="M111.24,75.59a16.08,16.08,0,0,1-1.88,5.33c-1.41.93-1.57-.87-2.44-1.12,1.24-1.73,1-4.25,2.9-5.63C111.05,73.89,110.65,75.24,111.24,75.59Z"/><path class="cls-2" d="M139.67,48.84l2.22-6.43c1.38,1.35,1.55,2.77.13,4.19-.56.56-.39,1.33-.7,1.94C140.94,49.33,140.43,49.89,139.67,48.84Z"/><path class="cls-2" d="M72.37,89.59a1.85,1.85,0,0,0,1.61-1,.43.43,0,0,1-.16-.39q0-.21.09-.21c.68-.27,1.1.15,1.5.58l.58.34c.67.53,1.67,1,1.2,2s-1.4.71-2.29.58c-1.7-.25-3.53,0-5-1.31C70.65,89.55,71.71,90.33,72.37,89.59Z"/><path class="cls-2" d="M117.06,32c-1.59,3.19-.87,6.72-1.34,10.08a33.28,33.28,0,0,1-1.23,5c-.12.42-.33,1-.91.94s-.68-.62-.79-1.08c-.65-2.7-.17-5.38.19-8,.31-2.28.79-4.54,1.19-6.81C115.08,30.54,116,30.57,117.06,32Z"/><path class="cls-2" d="M81.13,122.5A3.09,3.09,0,0,0,82.58,124l.1,1.89c-.66,1.5-1.76,2.79-2.19,4.4a14,14,0,0,0-1.95,3.81c-1.74,1.3-2.68,3.22-3.89,4.94-1.87,2.36-3.29,5-5.09,7.42l-1.38,1c-1.69.16-1.31-1.16-1.49-2.08,1.53-3.91,4.37-7,6.81-10.29,2.6-3.52,5.17-7,6.68-11.2A6.36,6.36,0,0,1,81.13,122.5Z"/><path class="cls-2" d="M69.56,146.43a19.08,19.08,0,0,1,4.88-7.66c1,.36,1.49,1,1,2A11,11,0,0,1,72.16,146a1.25,1.25,0,0,0-.42,1.38C71,147.18,70.84,145.47,69.56,146.43Z"/><path class="cls-2" d="M71.07,79.93a1.34,1.34,0,0,1,0-.4c0-.64.34-1,1-1C72.11,79.23,72.06,79.93,71.07,79.93Z"/><path class="cls-2" d="M107.18,102.13l-.44.93a2.58,2.58,0,0,1-.59-.6c-.12-.25-.13-.65.29-.64A2.26,2.26,0,0,1,107.18,102.13Z"/><path class="cls-2" d="M48.15,105.81c.9-.87,1.85-1.69,2.67-2.63a4.36,4.36,0,0,1,4.42-1.63c1.73.79,3.56.22,5.34.41.87.1,1.94-.37,2.48.79-1.61,1.53-3.64.45-5.42.91,4.44.74,8.94-.39,13.4.28,1,.34.86,1.06.57,1.81-1.12.11-2.29-.14-3.33.47-2.36.59-4.76.22-7.13.27-3.35.07-6.7,0-10,0C50.08,106.47,49,106.59,48.15,105.81Z"/><path class="cls-2" d="M48.15,105.81c6.71.11,13.43-.43,20.13.41l-.06,1.06c-4,.13-7.94.34-11.91.35a66.32,66.32,0,0,1-6.89-.51C48.77,107.05,47.58,107.18,48.15,105.81Z"/><path class="cls-2" d="M71.61,105.75a.92.92,0,0,1,0-1.31.9.9,0,0,1,1.36-.15c1.39.41,3.7-1,3.83,1.91Z"/><path class="cls-2" d="M123.69,94.76l.61.07c.38.45,1,.46,1.45.81l1.44.18c-1.88,1.69-3.92,1.21-5.8,1.42-1-.25-2.06.28-2.93-.52a1,1,0,0,0,.05-.46c.94-1,2.32-1.17,3.44-1.83A1.62,1.62,0,0,1,123.69,94.76Z"/><path class="cls-2" d="M125.75,95.64c-.68.08-1.43.29-1.45-.81l1.42,0Z"/><path class="cls-2" d="M82.1,77.58c1-.59.42-1.39.25-2.1-.83-3.47-1.69-6.93-2.54-10.39a1.63,1.63,0,0,1,1.84.48c2.12,4.1,2.79,8.62,3.75,13.06.13.61.3,1.21.44,1.81-.62.83-1.36,1.32-2.34.57S81.27,79.25,82.1,77.58Z"/><path class="cls-2" d="M91.31,78.48a6.38,6.38,0,0,1,1.26,4.82c-.15.19-.28.17-.39,0-.26-.44-.69-.44-1.13-.43-1.58-1.31-1.29-3.09-1.2-4.82C90.48,77.72,90.87,78.17,91.31,78.48Z"/><path class="cls-2" d="M92.18,83.26l.39,0c0,.79,0,1.57,0,2.36C91.87,85,92.27,84.07,92.18,83.26Z"/><path class="cls-2" d="M63,101.44l.46-.81,3.39-.18.46.16a.73.73,0,0,1-.16,1.13C65.68,102.27,64.27,102.48,63,101.44Z"/><path class="cls-2" d="M71.07,118.67c0-1,1.07-.83,1.49-1.38.16,0,.31,0,.47,0,1,.09,2.41-.72,2.93.52.42,1-1.06,1.52-1.49,2.39a3.18,3.18,0,0,1-2.44.09A2.37,2.37,0,0,1,71.07,118.67Z"/><path class="cls-2" d="M72,120.06c.84-.52,1.64-.07,2.45.13v.5c-.4,1.1-1.77.7-2.34,1.54-.66-.15-1.43-.13-1.65-1A1.38,1.38,0,0,1,72,120.06Z"/><path class="cls-2" d="M63,101.44h4.31c1.22-.71,2.72-.19,4-.75a2.69,2.69,0,0,1-2.87-.14c1.62-.94,3.46-.06,5.12-.62a2.33,2.33,0,0,1,1.55.46c.5.47,1.31.86,1.06,1.66s-1.06.86-1.77.87c-2.19,0-4.38,0-6.58,0a4.12,4.12,0,0,1-4.74-.12c-1.89-.79-3.89-.23-5.84-.43-.74-.08-1.66.25-1.92-.88Z"/><path class="cls-2" d="M63,102.86l4.74.12c1.67.82,3.45.21,5.16.41,1.37.16.22.59.11.9l-1.37.15a63.4,63.4,0,0,0-9.93.25c-1.67.25-3.44-.23-5.16-.4-.5-.05-1-.27-1-.79,0-.67.62-.59,1.07-.59C58.73,102.88,60.87,102.88,63,102.86Z"/><path class="cls-2" d="M75.47,85.67H74c-1.83-.1-3-.87-2.88-2.89l0,0C73.36,82.51,74.75,83.58,75.47,85.67Z"/><path class="cls-2" d="M121.93,94.83a5,5,0,0,1-3.42,1.43c-.18-.79-2.13-1.58,0-2.37l2.87-1A2.11,2.11,0,0,1,121.93,94.83Z"/><path class="cls-2" d="M72,120.06l-1.36,1.12A4.76,4.76,0,0,1,66.31,123a.85.85,0,0,0-.94-.92l1-1.89,4.71-1.51A1.41,1.41,0,0,1,72,120.06Z"/><path class="cls-2" d="M68.36,100.56h3.79c-1.79,1.48-3.42.68-4.89.89v-.84C67.63,100.53,68,101.21,68.36,100.56Z"/><path class="cls-2" d="M71.1,82.78c.44,1.48,1.75,2.1,2.88,2.89a2,2,0,0,0,1,1.9c-.19.42-.77.25-1,.65,0,.13,0,.27,0,.4a13.79,13.79,0,0,1-4.76-3.92,4.35,4.35,0,0,1,.42-2C70.17,81.9,70.61,82.81,71.1,82.78Z"/><path class="cls-2" d="M74,88.22c.12-.52.53-.61,1-.65a.9.9,0,0,1,.44,1Z"/><path class="cls-2" d="M120.36,132.14c1.43,1.37,2.63,3,4.55,3.8q3.24,3.87,6.49,7.75c.52,1,1,1.92-.55,2.4-2.73-1.41-4.64-3.74-6.66-6a35.51,35.51,0,0,0-5.14-5.19,1.78,1.78,0,0,1-.47-.64C118.54,133.06,118.32,131.68,120.36,132.14Z"/><path class="cls-2" d="M119,134.52c0,.15,0,.29.08.43a2.32,2.32,0,0,0-2,1.44l-4.21-4.33a4.49,4.49,0,0,1-2-3.32c0-1.23-1.76-2.7-.23-3.59s2.25,1.28,3.5,1.8C115.86,129.41,118.13,131.51,119,134.52Z"/><path class="cls-2" d="M140.29,157.11a12.45,12.45,0,0,1-7-7.19A12.51,12.51,0,0,1,140.29,157.11Z"/><path class="cls-2" d="M129.06,149.79a5.56,5.56,0,0,1,2.44,2.84c0,1,0,2-1.47,1.49l-2.52-3.77C127.89,149.77,128.48,149.8,129.06,149.79Z"/><path class="cls-2" d="M130,154.12c1,0,1.09-.88,1.47-1.49a1,1,0,0,1,.2.14c.82.86,1.79,1.67,1.47,3a1.09,1.09,0,0,1-1,.89C130.65,156.56,130.61,155.1,130,154.12Z"/><path class="cls-2" d="M129.06,149.79c-.36.62-1,.5-1.55.56-.81-.79-2.29-1.83-1.47-2.75s1.34,1.06,2.27,1.34C128.62,149,128.81,149.5,129.06,149.79Z"/><path class="cls-2" d="M130.85,146.09c.94-.62.49-1.57.55-2.4.32.23.65.44,1,.68.78.64,1.08,1.53.4,2.26S131.39,146.64,130.85,146.09Z"/><path class="cls-2" d="M110.88,128.74a9.26,9.26,0,0,1,2,3.32l-1.68.58-1.33-1-.06-1.85C109.93,129.22,110.16,128.74,110.88,128.74Z"/><path class="cls-2" d="M119,134.52c-1.43-2.63-4.07-4.5-4.82-7.57,0-.42.1-.83.53-1.06a6.76,6.76,0,0,1,2.84,1.93l1.46,1.42c-.06,1.22,1.23,1.79,1.38,2.9C118.7,132.25,119.06,133.51,119,134.52Z"/><path class="cls-2" d="M53.77,132.53A23.67,23.67,0,0,1,63,125.86a4.19,4.19,0,0,1,1.46,1.47,27.62,27.62,0,0,1-8.74,6.12C54.83,133.58,53.93,133.8,53.77,132.53Z"/><path class="cls-2" d="M59.59,137.29a22.53,22.53,0,0,1,9.29-8.67,14.37,14.37,0,0,1-7,8A5.59,5.59,0,0,0,59.7,138,.46.46,0,0,1,59.59,137.29Z"/><path class="cls-2" d="M66.31,123l4.35-1.81c.35.55,1.26.31,1.47,1a12,12,0,0,1-5.36,3.6,1.94,1.94,0,0,1-1.5-1.44Z"/><path class="cls-2" d="M53.74,146.09a8.2,8.2,0,0,1-3.48,4.26c-.43.24-.81.5-1.25.05a1,1,0,0,1,0-1.29A5.59,5.59,0,0,1,53.74,146.09Z"/><path class="cls-2" d="M49.56,134.48a5.35,5.35,0,0,1-4.29,2.67c.33-2.74,2.21-3.29,4.27-3.61A.63.63,0,0,1,49.56,134.48Z"/><path class="cls-2" d="M49.56,134.48c0-.31,0-.63,0-.94,1.26-1,3,0,4.23-1,.43.73,1.31.53,1.9.92C53.92,135.54,51.58,134.09,49.56,134.48Z"/><path class="cls-2" d="M65.27,124.39a3.09,3.09,0,0,1,1.5,1.44l-2.36,1.5A1.39,1.39,0,0,1,63,125.86Z"/><path class="cls-2" d="M59.59,137.29c0,.24.07.47.11.7-.13.86-1.07.86-1.48,1.41a.46.46,0,0,1-.08-.68A1.42,1.42,0,0,1,59.59,137.29Z"/><path class="cls-2" d="M57.21,140.24c-.34.29-.4,1.28-1.07.68s.37-.62.54-1a8.87,8.87,0,0,1,.51-.74A.72.72,0,0,1,57.21,140.24Z"/><path class="cls-2" d="M57.21,140.24c0-.34,0-.68,0-1,.19-.4.57-.44,1-.49,0,.22,0,.45.08.68A.87.87,0,0,1,57.21,140.24Z"/><path class="cls-2" d="M81.65,65.57a2.74,2.74,0,0,1-1.84-.48c-.39-1.24-1.3-2.32-1.09-3.73-.45-.94.07-2-.35-3l-.17-.88c0-1,.07-1.94,1.42-2-.17,2.21,1,4.08,1.57,6.1.45.77,0,1.67.35,2.45Z"/><path class="cls-2" d="M79.62,55.57c-.78.42-1,1.24-1.42,2-2-2-1.31-4.53-1.45-7.41C78.85,51.67,80,53.18,79.62,55.57Z"/><path class="cls-2" d="M91.64,75.17l-.38.46a1.76,1.76,0,0,1-1.53.54,6.39,6.39,0,0,1-.34-7.43Z"/><path class="cls-2" d="M81.11,37.82l1,6c-2.58-1-2.41-3-2.51-5C79.66,37.81,80.07,37.34,81.11,37.82Z"/><path class="cls-2" d="M81.11,37.82c-.76-.06-1.15.43-1.48,1-.76-1.12-1.55-2.23-1.31-3.69.09-.51.15-1.23.8-1.25.35,0,.82.46,1.07.82A5.26,5.26,0,0,1,81.11,37.82Z"/><path class="cls-2" d="M75.19,39c.81.48,1.6,1.06,1.57,2.16a.89.89,0,0,1-1.15.89c-1-.3-1.19-1.2-1.18-2.12C74.43,39.46,74.38,38.89,75.19,39Z"/><path class="cls-2" d="M89.73,76.17c.36-.62,1-.54,1.53-.54,0,1,0,1.9,0,2.85A2.1,2.1,0,0,1,89.85,78Z"/><path class="cls-2" d="M92.22,68.88a1.16,1.16,0,0,0,.45.05,1.58,1.58,0,0,1,0,2.28C92.67,70.41,91.92,69.76,92.22,68.88Z"/><path class="cls-2" d="M78.37,58.4c.73.91.33,2,.35,3A5.65,5.65,0,0,1,78.37,58.4Z"/><path class="cls-2" d="M81.54,64.12c-.66-.74-.33-1.62-.35-2.45A3.43,3.43,0,0,1,81.54,64.12Z"/><path class="cls-2" d="M101.27,146.47a2.93,2.93,0,0,0-1.85-3.34c-1.23-4.62-1.91-9.24.36-13.77a5,5,0,0,0,2.51,1.56c.95.39,1.83.87,1.9,2.08.4,1.33-.8,2.31-.79,3.56a38.38,38.38,0,0,0,1.26,11.54c.11,1.43.58,2.9-.61,4.13-1.27.41-1.22,1.58-1.3,2.53a2.58,2.58,0,0,1-1.48,2.25c-1-2.11,0-4.3-.21-6.46C100.93,149.21,100.27,147.78,101.27,146.47Z"/><path class="cls-2" d="M104.05,152.23l0-4.21a15.82,15.82,0,0,1-.31-3.7c-.08-.94-.06-2.35,1.68-2,1.31,1.13.92,2.87,1.51,4.25l.08,3.69c.34,2.26.18,4.57.6,6.83a2.91,2.91,0,0,1-.7,2.45c-.46.53-.91.6-1.28-.11Z"/><path class="cls-2" d="M105.67,159.4c1.7.33,1.27-1.06,1.31-1.81.11-2.45.06-4.91.07-7.36.9,6.13,3.41,12.25.12,18.77C106.64,165.57,106.15,162.49,105.67,159.4Z"/><path class="cls-2" d="M107,146.54c-1.09-1.07-1.07-2.56-1.47-3.89-1.33-2.05-.88-4.84-2.77-6.65l1.46-3c2.92,2.93,3.33,6.87,4.27,10.6C106.92,144.06,107.26,145.46,107,146.54Z"/><path class="cls-2" d="M101.27,146.47a31.87,31.87,0,0,1,0,10.54c-1.64-1-1.41-2.59-1.45-4.12,0-1,0-2-.07-3C100,148.63,99.39,147,101.27,146.47Z"/><path class="cls-2" d="M31.35,105.35a8.43,8.43,0,0,1,5.3-1c.64,0,1.63-.34,1.78.67A1.78,1.78,0,0,1,37,107a8.33,8.33,0,0,1-1.88.15C34.09,106.05,32.08,107.06,31.35,105.35Z"/><path class="cls-2" d="M37.24,95.76c-1.72,1.44-3,2.3-4.66,2.52-.71.1-1.62.17-1.8-.58s.53-1.27,1.22-1.6C33.52,95.37,35.1,95.8,37.24,95.76Z"/><path class="cls-2" d="M31.35,105.35c1.11.89,3.14-.15,3.77,1.77-1.88,0-3.76.14-5.63.13-.53,0-1.44.25-1.41-.73,0-.77.79-.91,1.39-1A16.81,16.81,0,0,1,31.35,105.35Z"/><path class="cls-2" d="M126.78,112.89a80.49,80.49,0,0,1,22,9c-8.61-.57-16.38-3.86-24.06-7.48C124.72,112.9,125.54,112.59,126.78,112.89Z"/><path class="cls-2" d="M136.23,108.75c3.16-.31,6.11.65,9.1,1.44.72.34.66.81.13,1.24a2.39,2.39,0,0,1-2.54.58c-3.15-.25-6.39,0-9.22-1.85a2.26,2.26,0,0,1,2.17-.72C136.89,109.54,136.07,108.94,136.23,108.75Z"/><path class="cls-2" d="M133.24,126a3.65,3.65,0,0,1-3.29-2.91c4.38,0,8.8-.26,13.14,2.48a8.66,8.66,0,0,1-6.51-.25C135.35,124.85,134,124.15,133.24,126Z"/><path class="cls-2" d="M142.92,112c.87-.52,2.49-.05,2.41-1.82,2.94.62,6.16.61,8.41,3.61A18.41,18.41,0,0,1,142.92,112Z"/><path class="cls-2" d="M123.32,107.26c.33,1.32,1.83,1.61,2.39,2.73-1.17.28-2.56-.16-3.42,1.09a6.26,6.26,0,0,1-3.34,1c-2-1.9-1.86-3,.66-4.11A6.69,6.69,0,0,1,123.32,107.26Z"/><path class="cls-2" d="M119,112c.87-1.18,2.15-.9,3.34-1a10.12,10.12,0,0,1,4.49,1.81,2.49,2.49,0,0,0-2,1.47h-1.86C122,112.89,119.85,113.5,119,112Z"/><path class="cls-2" d="M136.23,108.75c.05.33,1.05.45.22,1s-1.83.29-2.75.43l-3.2-.14c.7-2.09,2.58-1.07,3.92-1.48Z"/><path class="cls-2" d="M78.77,146.49q-2.42,6.67-4.84,13.36c-1.43.05-1.68-.79-1.49-2a37.89,37.89,0,0,1,4.5-13.27C78.2,144.61,78.85,145.2,78.77,146.49Z"/><path class="cls-2" d="M85.39,136.84l0,4.74c-1.52.92-.45,2.79-1.44,3.9-2-.51-1.62-2-1.49-3.42l.16-6.52c.67-.91-.65-2.69,1.31-3C84.16,134,83.68,135.8,85.39,136.84Z"/><path class="cls-2" d="M84,132.5c-1.25.66-.82,2.05-1.31,3-.53-1.12.81-3-1.46-3.41a2.79,2.79,0,0,1-1-2,5.35,5.35,0,0,1,2.49-4.3C84.63,127.78,83.68,130.26,84,132.5Z"/><path class="cls-2" d="M75.48,140.82c0-.87-.77-1.33-1-2,.9-1.87,1.62-3.88,3.7-4.85a1.29,1.29,0,0,1,1.22.67A14.67,14.67,0,0,1,75.48,140.82Z"/><path class="cls-2" d="M82.49,142.06A6.13,6.13,0,0,0,84,145.48c-.24,2-.61,3.84-2.45,5.39A12.52,12.52,0,0,1,82.49,142.06Z"/><path class="cls-2" d="M79.88,156.14c1.53,3.15.49,5.88-.5,8.74C77.76,162.62,77.93,159.5,79.88,156.14Z"/><path class="cls-2" d="M78.77,146.49a5.23,5.23,0,0,0-1.83-1.88c.12-.36.21-.74.36-1.09.39-.91.9-1.82,2.06-1.2s1,1.51.54,2.45A3.56,3.56,0,0,1,78.77,146.49Z"/><path class="cls-2" d="M79.36,134.59a1.55,1.55,0,0,1-1.22-.67,5.43,5.43,0,0,1,2-3.76,1.66,1.66,0,0,1,1,2Z"/><path class="cls-2" d="M72.44,157.88a2.55,2.55,0,0,0,1.49,2c-.47,1.33-.93,2.67-1.45,4.16C71.22,161.77,71.22,161.48,72.44,157.88Z"/><path class="cls-2" d="M68.17,161.5c0,.55-.24,1-.76,1.09s-1-.41-1.08-1a.89.89,0,0,1,.75-1.06C67.76,160.41,68,160.94,68.17,161.5Z"/><path class="cls-2" d="M85.94,161.36c-.71.66-.48-.46-.85-.45,0-1-.56-2,.37-2.92C86.07,159.05,85.69,160.25,85.94,161.36Z"/><path class="cls-2" d="M86,140.28c0-.77-.06-1.53,0-2.29,0-.31.24-.62.58-.37s.27.51.4.78c-.22.61.32,1.41-.48,1.87H86Z"/><path class="cls-2" d="M61.57,77l5.87,3.52c.7.41,1.36.84,1.16,1.82-.12.57.27,1.24-.34,1.7A26.68,26.68,0,0,1,60,78.62C59.88,77.45,60.43,77,61.57,77Z"/><path class="cls-2" d="M55.81,79.4C59,81,62,82.87,64.05,86c-3.81-.85-6.8-3.17-9.71-5.62A1.47,1.47,0,0,1,55.81,79.4Z"/><path class="cls-2" d="M61.57,77A3.32,3.32,0,0,0,60,78.62a6.37,6.37,0,0,1-3.91-2.86c-.62-1.1-.17-1.48.9-1.41C59,74.47,60.26,75.76,61.57,77Z"/><path class="cls-2" d="M55.81,79.4c-.32.59-1,.71-1.47,1l-3.31-2a1.33,1.33,0,0,1,0-1.9A8.47,8.47,0,0,1,55.81,79.4Z"/><path class="cls-2" d="M41.35,69.09c-.44.6-.77,1.28-1.49,1.09a1.54,1.54,0,0,1-1.27-1.48c0-.78.62-.82,1.18-.68S41.09,68.38,41.35,69.09Z"/><path class="cls-2" d="M68.26,84.07c0-.58-.22-1.22.34-1.7.26.38.66.33,1,.32.34.77.72,1.55-.42,2Z"/><path class="cls-2" d="M45.68,65.22c-.35-1-1.92-1.1-1.84-2.53,1.25-.33,1.45.72,1.89,1.43A.76.76,0,0,1,45.68,65.22Z"/><path class="cls-2" d="M51,76.53c0,.63,0,1.26,0,1.9-.78-.28-1.46-.72-1.21-1.66C50,76.18,50.44,75.83,51,76.53Z"/><path class="cls-2" d="M45.68,65.22l0-1.1c1.06.08,1.17,1,1.59,1.75A1.88,1.88,0,0,1,45.68,65.22Z"/><path class="cls-2" d="M124.66,91.3a89.05,89.05,0,0,1,15.73-8.56,1.74,1.74,0,0,1,2.51,1.41,59.62,59.62,0,0,1-16.64,8.77C125.12,93,124.51,92.51,124.66,91.3Z"/><path class="cls-2" d="M141.59,75.69a14.18,14.18,0,0,1-7,4.28,3.74,3.74,0,0,0-1.58,1c-.46.38-1,.7-1.42.1s-.36-1.49.27-1.68c3.1-1,4.79-4.2,8.06-4.82a2.65,2.65,0,0,1,1.16.38A1.14,1.14,0,0,1,141.59,75.69Z"/><path class="cls-2" d="M141.59,75.69l-.6-.5a5.24,5.24,0,0,1,0-1.48c2.11-2.2,4.44-3.95,8.06-3.83A20.14,20.14,0,0,1,141.59,75.69Z"/><path class="cls-2" d="M142.9,84.15a5.24,5.24,0,0,0-2.51-1.41,9.61,9.61,0,0,1,4.85-2.84c1.22-.48,1.8.16,2.16,1.2a4.77,4.77,0,0,1-3.08,3Z"/><path class="cls-2" d="M144.32,84.13l2.89-2.84a1.45,1.45,0,0,1,1.84-.09c0,1.15.65,2.08,1,3.11-.94.63-2.22.62-3,1.55-.58.37-1.17.74-1.69-.09C145.42,85,144.6,84.72,144.32,84.13Z"/><path class="cls-2" d="M149.05,81.2l-1.84.09a2.39,2.39,0,0,0-2-1.39,9.17,9.17,0,0,1,3-1.88c.88-.43,1.81-.93,2.52.17s-.33,1.54-.88,2.15C149.6,80.64,149.32,80.92,149.05,81.2Z"/><path class="cls-2" d="M124.66,91.3a3.24,3.24,0,0,0,1.6,1.62l-2.57,1.84-1.76.07c-.76-.47-.5-1.23-.55-1.91Z"/><path class="cls-2" d="M144.36,89c-.39.79-.86,1.55-1.82,1.57-.5,0-.82-.53-.86-1-.1-1.14.77-1.6,1.62-2l1-.51A1.45,1.45,0,0,1,144.36,89Z"/><path class="cls-2" d="M146.7,85.62a2.9,2.9,0,0,1,3.36-1.31c-.27,1.63-1.52,2.21-2.87,2.7A1.68,1.68,0,0,1,146.7,85.62Z"/><path class="cls-2" d="M146.7,85.62c.62.3.52.86.49,1.39l-2.83,2c0-.64,0-1.29,0-1.94l1-1.33A1.37,1.37,0,0,0,146.7,85.62Z"/><path class="cls-2" d="M141,73.71c.67.5.57,1,0,1.47a1.25,1.25,0,0,1-1.05-.64Z"/><path class="cls-2" d="M109.66,57.8a24.35,24.35,0,0,1-3.36,13A18.32,18.32,0,0,1,109.66,57.8Z"/><path class="cls-2" d="M111.24,75.59c-1,.07-.73-1.16-1.42-1.42A55.94,55.94,0,0,1,113.18,67c.72-.31,1.46-.66,1.57.61C114.3,70.57,112.21,72.83,111.24,75.59Z"/><path class="cls-2" d="M127.55,38.76c-.93,1.12.29,3-1.32,3.85-.64.26-1.27-.21-1.91,0,.09-1.85,1.16-3.42,1.48-5.2C126.89,37.2,127.24,38,127.55,38.76Z"/><path class="cls-2" d="M114.22,64.62c.27-.65.49-1.32.82-1.94s.86-1.28,1.68-.73a1.45,1.45,0,0,1,.54,2c-.49.88-1.06,1.72-1.59,2.58C115,66.08,114.74,65.25,114.22,64.62Z"/><path class="cls-2" d="M127.55,38.76l-1.75-1.37c.32-1,.27-2.29,1.59-2.62a1.14,1.14,0,0,1,1.15.67C129.35,36.89,128.21,37.75,127.55,38.76Z"/><path class="cls-2" d="M130.69,51.24l-2.11,4.29a1.1,1.1,0,0,1-1.51,0q1-2.15,2-4.29A1.1,1.1,0,0,1,130.69,51.24Z"/><path class="cls-2" d="M125.62,45.41a2.1,2.1,0,0,1-1.32,2.25c-.5.18-.88-.23-1.16-.61-.66-.88-.09-1.63.3-2.39.21-.41.47-.8.71-1.2C125.05,43.81,125.16,44.74,125.62,45.41Z"/><path class="cls-2" d="M127.07,55.51l1.51,0a7.13,7.13,0,0,1-.23.91c-.27.65-.54,1.36-1.41,1.39a.94.94,0,0,1-1.07-.74C125.79,56.28,126.43,55.86,127.07,55.51Z"/><path class="cls-2" d="M130.69,51.24l-1.59,0a3.33,3.33,0,0,1,2.3-3,2.3,2.3,0,0,1,.07,2.12Z"/><path class="cls-2" d="M126.64,61.91c-.14.75-.49,1.47-1.38,1.54-.56,0-.77-.57-.72-1,.08-.8.4-1.56,1.38-1.59C126.5,60.84,126.64,61.33,126.64,61.91Z"/><path class="cls-2" d="M114.22,64.62c1.33,0,1.41,1,1.45,2-.31.33-.62.67-.92,1-.36-.63-1-.57-1.57-.61Z"/><path class="cls-2" d="M125.62,45.41a2.38,2.38,0,0,1-1.47-1.95c.06-.29.11-.58.17-.87.65-1.14,1.28-.3,1.91,0C125.39,43.41,126,44.51,125.62,45.41Z"/><path class="cls-2" d="M131.47,50.32c0-.71-.05-1.42-.07-2.12l.52-.68c.13.14.4.33.37.43C132.05,48.75,131.75,49.53,131.47,50.32Z"/><path class="cls-2" d="M102.73,136c1.57.24,1.83,1.6,2.16,2.75a31.36,31.36,0,0,1,.61,3.9c-1.59-.23-1.12,1.21-1.27,1.85a16.45,16.45,0,0,0-.14,3.52A30.41,30.41,0,0,1,102.73,136Z"/></g></g></svg>