<svg xmlns="http://www.w3.org/2000/svg" viewBox="0 0 179.99 213.28"><defs><style>.cls-1{fill:#fab95b;}.cls-2{fill:#1d1d1b;}.cls-3{fill:#f9b85b;}</style></defs><g id="Capa_2" data-name="Capa 2"><g id="Capa_1-2" data-name="Capa 1"><path class="cls-1" d="M149,28.16c9.77,7,16.62,16.39,21.6,27.21,5.67,12.31,8.35,25.33,9.16,38.81A144.91,144.91,0,0,1,171,153.07a42.4,42.4,0,0,1-8.81,14.66c-7.52,8-14.39,16.65-22,24.61-9.63,10.1-21,17.29-34.93,19.9-12,2.25-23.8.63-35.39-2.73a98.38,98.38,0,0,1-19-7.53c.84-.78,1.81-.34,2.72-.22,2.67.36,5.3,1,8,1.06a6.8,6.8,0,0,0,3.67-.7c3.53.67,7.12.28,10.68.43a54,54,0,0,0,13.52-.92c2-.43,4.08-.55,6.09-1.12A112.53,112.53,0,0,0,114,193.63c6-2.19,11-6.14,16.55-9.23,4.84-4.19,10.2-7.79,14.12-13,1.75-2.34,4.24-4.11,5.76-6.65a38.61,38.61,0,0,1,3.92-5.94A73.16,73.16,0,0,0,171,124.13C172.51,116.07,174,108,175,99.84a24.19,24.19,0,0,0-.07-6,107.93,107.93,0,0,1-1.2-15.23c.06-3.71-2-6.85-2.65-10.35-.19-2.69-1.22-5.16-2-7.7-1.87-3.21-2.77-6.87-4.75-10-.85-1.35-1.89-2.53-2.71-3.87-1.24-1.86-1.81-4.15-3.73-5.55a50.15,50.15,0,0,0-6.52-8.7C150.24,31.24,148.58,30.24,149,28.16Z"/><path class="cls-2" d="M26.8,192.91c-8.13-2.66-14.92-7-19.57-14.5-2.57-4.12-5.1-8.18-6.29-13a30.74,30.74,0,0,1,2.25-21.16c3.64-7.61,8.2-14.78,12.17-22.25,1.51-2.86,4.52-4.17,6.16-6.81,2.29-.17,2.56.13,2.61,3a6.42,6.42,0,0,1-1.47,3c-6.35,8.56-11.12,18-15.45,27.68C3.88,156.33,4.91,163.27,9,170c.45,1.05,1.34,1.92,1.43,3.15.55,3.82,2.75,6.68,5.44,9.21,4.23,4,9.44,6.39,14.55,9,.88.44,2,.61,2.38,1.79a.92.92,0,0,1-.5.56A6.09,6.09,0,0,1,26.8,192.91Z"/><path class="cls-2" d="M61.37,77.94a8.88,8.88,0,0,1,1.71-4.37,3.21,3.21,0,0,0,.75-1.72c.14-3.29.94-6.65,0-9.84a20.54,20.54,0,0,1,.72-14.45,28.89,28.89,0,0,0,2-11.14c.07-5.26,1.1-10.07,4-14.47,1.53.59,1,1.93,1,3A10.91,10.91,0,0,1,71,28.42a3.62,3.62,0,0,0,.58,3.35C72.09,33,71.26,34,70.93,35c-.74,3.11-1.82,6.19-.54,9.44a8.49,8.49,0,0,1,.12,2.81,2,2,0,0,1-.86,1.55c-1.88.63-3.17,4-1.86,6,1.18,1.85,1.31,3.79,1.62,5.78a2.59,2.59,0,0,1,0,1c-1.63,1.52.21,2.62.48,3.91a1.94,1.94,0,0,1-.11,1.28c-1.07.83-.19,1.57.12,2.33A12.14,12.14,0,0,1,68.56,75c-1,.63-1.84,1.31-1.62,2.67a2.85,2.85,0,0,1-2,2c-1.31-1.48-1.49.15-2.05.76s-.91.68-1.42.15A1.94,1.94,0,0,1,61.37,77.94Z"/><path class="cls-2" d="M94.42,2.86a.93.93,0,0,1,.41-.12,17.29,17.29,0,0,0,3.89-.89c5.09-2.43,10.17-2.35,15.43-.43,6.82,2.49,12.13,7,17.12,12,.63,1.12,2.06,1,2.87,1.82,2.44,1.15,4.15,3.23,6.23,4.85.61.84,1.77,1.47,1.13,2.81a1.51,1.51,0,0,1-1,.44,2.52,2.52,0,0,1-1.65-.54c-.61-.49-1.11-1.08-1.7-1.58a3.94,3.94,0,0,0-3.16-1.1,5.28,5.28,0,0,1-2.28-.48c-.59-.3-1.12-.71-1.72-1a2.73,2.73,0,0,1-1-.82c-1.34-2.54-3.85-3.9-5.86-5.76a11.38,11.38,0,0,1-1.87-1.8c-.78-1.25-2.08-1.59-3.4-1.88-4.31-2.14-8.73-3.84-13.69-3.55-1.51.09-3,.49-4.5.51s-2.85.23-4.16-.33C94.65,4.68,93.12,4.38,94.42,2.86Z"/><path class="cls-2" d="M61.37,77.94c0,.54,0,1.07,0,1.6.16,1.4.77,1,1.41.33a1.46,1.46,0,0,1,.5,1,3.32,3.32,0,0,1-.7,2.37c-.86.49-1.59,1.07-1.39,2.23-1.2,2.47-.26,4.94,0,7.41a4.56,4.56,0,0,0-1.13,2.81,1.05,1.05,0,0,1-.6.24c-.66-.05-1.31-.14-2-.21-1,.18-1.08-1.68-2.07-1-1.37,1-2.8,2-3,4a6.32,6.32,0,0,1-4.28,2c-1.57-1.1-2.55.74-3.89.8-1.45-.59-1.08-2-1.3-3.06,2-2.89,3.56-6.11,7.69-6.75,1.64-.25,2.23-2.34,2.92-3.72a30,30,0,0,1,6-8.66C60.17,78.79,60.84,78.47,61.37,77.94Z"/><path class="cls-2" d="M43,98.46c1.28.55.11,2.43,1.57,2.88l.21.28c0,1.34-.83,2.37-1.41,3.49-2.25,2.23-2.58,5.07-2.51,8a2.74,2.74,0,0,1-.21.67,11,11,0,0,1-2.26,2.1.74.74,0,0,1-.62-.18,1.74,1.74,0,0,1-.28-.64c-.5-2.75-.5-2.75-3.35-2.12a6.68,6.68,0,0,0-3.51.75,16.51,16.51,0,0,0-4.52,3.41c-.68.71-1.26,1.69-2.48,1.61-.19-1.47.61-3.52-2.08-3.51,2-1.55,3.78-3.52,6.25-4.47a3.48,3.48,0,0,1,.85-.37C35.23,109.54,39,105.13,42,99.74A9.3,9.3,0,0,1,43,98.46Z"/><path class="cls-2" d="M140.26,23l1.07-.05c1.85.08,3,1.44,4.44,2.34l3.2,2.92c1.35,3.32,4.75,5,6.34,8.16.84,1.65,2.71,2.68,2.82,4.75-.57,1.52-1.84,1.87-3.27,2a7.77,7.77,0,0,1-4.44-3c-2-2.43-4-4.89-5.92-7.44.78-3.44-2-5.18-3.57-7.48A3.4,3.4,0,0,1,140.26,23Z"/><path class="cls-2" d="M65.25,202.47c-.66,1.2-1.77,1.07-2.9,1.05-3.89-.1-7.67-1.06-11.5-1.54L48,201c-1.33-.63-2.78-1-4.09-1.66-.73-.37-1.68-.57-1.77-1.65.1-.13.21-.3.35-.3a2.07,2.07,0,0,0,2-2c5.47,0,10.83.55,15.51,3.81,0,.95-.91.61-1.35,1C60.75,201.34,63.38,200.83,65.25,202.47Z"/><path class="cls-2" d="M71.59,32c-2.19-.34-1.68-1.91-1.38-3.25.49-2.27,1.34-4.5.32-6.83-.22-1.5.61-2.35,1.85-2.94,3,1.29,2.53,4,2.56,6.47A9,9,0,0,1,72.31,32,.8.8,0,0,1,71.59,32Z"/><path class="cls-2" d="M94.42,2.86c-.52,1.79,1,1.62,1.89,1.78a20.85,20.85,0,0,0,3.45.1c-1.1,1.7-3.19,1.75-4.72,2.08a31.79,31.79,0,0,1-7.18,1,3,3,0,0,1-1.25-1.75C88.42,3.05,91.38,2.86,94.42,2.86Z"/><path class="cls-2" d="M26.8,192.91a25,25,0,0,0,5.85.42c2.69-.38,7.05,2,7.51,4a10.77,10.77,0,0,1-5.66-1.12c-2.1-.59-4.2-1.23-6.32-1.76A1.54,1.54,0,0,1,26.8,192.91Z"/><path class="cls-2" d="M34.5,196.25c2-.3,3.84.83,5.82.92a1.49,1.49,0,0,1,1.88.52L48,201a26.8,26.8,0,0,1-7-2,14,14,0,0,0-4.76-1.31C35.2,197.64,34.8,197,34.5,196.25Z"/><path class="cls-2" d="M74.39,25.86c.13-2.52,0-5-2-6.85-.21-1.59.85-2.45,1.91-3.32,1.75-.46,1.87.75,2,2A29.1,29.1,0,0,0,75.4,24C75.43,24.7,75.4,25.58,74.39,25.86Z"/><path class="cls-2" d="M80.05,9.48a8.57,8.57,0,0,1,5.28-2.83,2.6,2.6,0,0,1,1.11,2.22c-1,1.69-2.58,2-4.31,2.2C81.21,10.84,79.7,11.37,80.05,9.48Z"/><path class="cls-2" d="M75.78,17.67c0-1-.18-1.94-1.49-2a6.48,6.48,0,0,1,3.83-3.37,1.36,1.36,0,0,1,.43.6A4.3,4.3,0,0,1,75.78,17.67Z"/><path class="cls-2" d="M145.77,25.24c-1.8-.16-3-1.47-4.44-2.34.31-1.16-.89-1.79-1-2.81C142.57,21.38,144.79,22.66,145.77,25.24Z"/><path class="cls-2" d="M78.14,12.86l0-.54a2.61,2.61,0,0,1,1.93-2.84c.31,1.55,1.6.74,2.44,1C81.56,12.22,80.36,13.47,78.14,12.86Z"/><path class="cls-2" d="M86.31,8.56a2.64,2.64,0,0,1-1-1.91l1.28-.59c1,.1,1.13.87,1.18,1.67C87.62,8.59,87.23,9,86.31,8.56Z"/><path class="cls-2" d="M98.72,1.85c-1.16.88-2.3,1.89-3.89.89C95.76.86,97.48,2.38,98.72,1.85Z"/><path class="cls-2" d="M134.14,15.24c-1.38.07-2.55-.21-2.87-1.82C132.19,14.08,134.1,13.19,134.14,15.24Z"/><path class="cls-2" d="M171.49,67.9c2.65,5.66,3,11.74,3.31,17.83.17,2.94.53,5.87.9,8.79.52,4.27-.43,8.42-1,12.58-1.17,8-2.74,16-4.59,23.88-1.32,5.64-4.51,10.49-6.47,15.84-1.47,4-4.52,6.81-7.08,10-.72.89-.87,2.27-2.24,2.61-.9-1-.46-2,.27-2.72a3.94,3.94,0,0,0,.85-4.36,2.68,2.68,0,0,1,0-.69,15.55,15.55,0,0,1,1.54-3.08c1.68-2.31,3.49-4.56,2.18-7.73-.33-.8.25-1.64.33-2.17a47.71,47.71,0,0,0-2.41,6.75,14.51,14.51,0,0,0-2.41,4.33,21.5,21.5,0,0,0-1.85,3.44c-.54,1.32-1.49,2.57-.7,4.12-1.76,4.3-3.76,5.57-7.32,4.62a1.38,1.38,0,0,1-.42-1,37.75,37.75,0,0,1,4.44-7.66c2.06-1.75,2.58-4.09,2.6-6.64a161.28,161.28,0,0,0,6.27-22.75c.6-1.41,0-3.19,1.32-4.39,1.92-.58,3,.56,4.1,1.87a7.8,7.8,0,0,1,.79,5.37A119.6,119.6,0,0,0,168,98.58c.15-7.57-.42-15.09-.93-22.64a51.82,51.82,0,0,0-1.93-11.7,5.93,5.93,0,0,1-.32-2.58,1.52,1.52,0,0,1,.47-.92c.14-.11.79.2.35-.44.23-1.07.7-2,1.9-2,1,0,1.09,1.16,1.43,1.91s.44,1.65.82,2.41C170.28,64.39,170.82,66.17,171.49,67.9Z"/><path class="cls-2" d="M65.25,202.47c-2.73-.82-5.87-.54-8.58-3H60c1.51-1.15,3.25-1,5-1a37.61,37.61,0,0,0,6.92-.92c5.59-.2,11.17-.91,16.78-.64a29.74,29.74,0,0,0,14.16-3,26.29,26.29,0,0,1,8.75-3c1.41.51,2.88,1,2.91,2.86a28.37,28.37,0,0,1-5.93,3c-2.64,1-5.57,1.22-8,3-2.24,1.62-5.17,1.5-7.71,2a61,61,0,0,1-16,1.33C73,202.91,69.06,203.92,65.25,202.47Z"/><path class="cls-2" d="M144.68,161.74c4,.76,5.66-1.89,7.19-4.78a9.09,9.09,0,0,1,1.63-3.09c.73-.56,1-1.69,2.16-1.72,1.29,1.74,1.13,3.33-.55,4.7a2.69,2.69,0,0,0-.82,2.58A95.9,95.9,0,0,1,146,171c-4.08,4.94-9.23,8.57-13.71,13a2.09,2.09,0,0,1-1.41.8c-1.12.38-2.26.82-3.09-.52.15-2.83,2.42-4.31,4-6.23a5.79,5.79,0,0,0,1.64-1.44,2.59,2.59,0,0,1,.46-.41c1.14-.55,1.44-1.67,1.82-2.74a64.78,64.78,0,0,1,6.38-8.7C143.68,164.37,143.06,162.07,144.68,161.74Z"/><path class="cls-2" d="M165.76,60.71l-.58.65c-4.48-3.36-7.38-7.48-6.43-13.44.84-1,1.71-1.84,3.16-1.56a27.58,27.58,0,0,1,5.86,10.4,26,26,0,0,0,1.81,3.57,2.46,2.46,0,0,1,0,2.34,1.76,1.76,0,0,1-.92-1.51c0-1-.12-2.32-1.21-2.46s-1.2,1.24-1.66,2Z"/><path class="cls-2" d="M127.91,183.7c.6,1.42,1.9.9,3,1.05-5,3-9.71,6.58-15.18,8.79a7.35,7.35,0,0,1-1.14.3,5.71,5.71,0,0,0-3-2.46c0-.08,0-.21,0-.23,2.13-1.53,2.49-3.48,1.37-5.78a1.57,1.57,0,0,1,1.95-.49c3.1,2.55,4.5,2.61,8.47.41C124.77,184.5,126.08,183.36,127.91,183.7Z"/><path class="cls-2" d="M161.91,46.36c-1.06.3-1.75,1.37-2.93,1.45-1.82.64-2.66-.64-3.33-1.89a6.6,6.6,0,0,1-.92-3.39c1.4.13,2.33-.82,3.4-1.46C160.68,41.91,160.73,44.54,161.91,46.36Z"/><path class="cls-2" d="M169.54,62.67l0-2.34c.68,2.51,2,4.86,1.91,7.57A7.74,7.74,0,0,1,169.54,62.67Z"/><path class="cls-1" d="M113,185.77c2.48,2.57,2.38,3-1.47,5.61a33.9,33.9,0,0,0-8,2.87c-1.75.94-3.75,1.11-5.6,1.78-2,.73-3.17-1.1-4.05-2.61a76,76,0,0,1-4.09-8.11,132.78,132.78,0,0,0-6.7-13.46,20,20,0,0,0-2.4-5.82c-.84-1.38-1.7-2.84-1.42-4.6a4.39,4.39,0,0,1,2-1.93c1.18-.72,1-1.7.46-2.69a50.66,50.66,0,0,0-3.36-6.3c-.31-.32-.56-.9-1.13-.5s-.27,1.13-.18,1.73a2.36,2.36,0,0,1,0,1c-.91,1.92-1.89,1-2.88.08a4,4,0,0,1-.48-.44c-.33-.4-.61-.85-.93-1.26q-.19-.26-.36-.51a14.73,14.73,0,0,0-1.94-2.71c-.15-.13-.29-.27-.45-.39-2,.45-.45,1.64-.53,2.48A132.09,132.09,0,0,0,79.93,170.3c.51.8,1.06,1.59,1.51,2.43,2.27,4.9,3.75,10.13,6.43,14.85a42.85,42.85,0,0,0,3.64,5.59c.79,1,1.81,2,1.17,3.39s-1.94.73-3,.85a2.34,2.34,0,0,0-.69.18l-17.55.64c-2,.55-3.26-.15-4-2.14-.51-1.47-1.37-2.81-1.78-4.32-1.3-7.33-2.34-14.71-4-22-.55-2.4-1.35-4.72-1.85-7.13a24.36,24.36,0,0,0-1.69-5.59c-.47-1.73-1.58-3.19-2-4.92-.29-1.28.26-2.51.26-3.77a4.46,4.46,0,0,0-1.5-3.21c.78,3.08,0,5.79.71,8.44A41,41,0,0,0,57,158.05a34.5,34.5,0,0,0,1.47,6.24c1.37,9.36,2.55,18.77,5.79,27.75a31.84,31.84,0,0,0,1.45,4.43c.43.94.73,2-.53,2.61l-5.17.4c-5-2.7-10.4-3.3-15.89-3.73-1.83-.05-2.32-1.47-2.88-2.82-.35-3.11,0-6.29-.9-9.36-1.16-9.87.15-19.92-2-29.72a21.86,21.86,0,0,0-.53-2.53c-.14-.51-.28-1.22-1-1s-.54.88-.48,1.42c.13,1,.52,2,.67,3a106.15,106.15,0,0,0,1.51,27.74c0,3.48,1,6.8,1.54,10.19-.67,1.56-1.94,1.7-3.35,1.3s-2.54-.85-3.81-1.27a60.15,60.15,0,0,1-10.31-6.52c-1.44-2.45-1.35-5.28-2-7.93a70.28,70.28,0,0,1-.06-7.68c0-1.18.76-2.44-.38-3.75-1.48,1.77-.24,3.53-.3,5.19a17.64,17.64,0,0,0,.28,6.06,15.55,15.55,0,0,0,.14,3.27c.12,1.25-.12,2.37-1.63,2.65-2.26-.54-3.43-2.37-4.78-4a18.87,18.87,0,0,1-3.82-6.7l-1.38-2.88a27.68,27.68,0,0,1,.62-14.62,79.3,79.3,0,0,1,19.67-32.57c.63-.64,1.22-1.55,2.39-1.19.77,1.18.5,2.6.88,3.87a12.15,12.15,0,0,0,.14,2.28c.31.87.35,0,.51-.17.25-2.52-.05-5,.13-7.55a3.85,3.85,0,0,1,.23-1.11c1.35-1.54,2.64-3.16,4.77-3.7a1.65,1.65,0,0,1,.37.2c.68,5.26.8,10.6,2,15.8.41,4.12-.19,8.36,1.37,12.35.25.19.07,1.21.81.46a1.2,1.2,0,0,0,.1-1.14c-.84-2.77-.44-5.61-.52-8.43a11.46,11.46,0,0,0-.4-2.79c-.39-2.83.23-5.71-.41-8.52a54.46,54.46,0,0,0-1.22-6.46,4.2,4.2,0,0,1,.13-3.19l.16-.54a13,13,0,0,1,5-4.47.78.78,0,0,1,.56.4,25.55,25.55,0,0,0,3,8.95c.65,3,1.58,5.94,2,9a17.59,17.59,0,0,0,2.78,7.24c.34.67.43,1.53,1.49,1.94a12.66,12.66,0,0,0-.87-6c-.87-4.74-3.38-9-4.38-13.64-.69-3.2-1.3-6.42-1.84-9.64a2.56,2.56,0,0,1,.09-.73c1.42-2.23,3.68-3.53,5.65-5.16a.93.93,0,0,1,.64.21c1.19,2.45,1.52,5.32,3.52,7.39a71.19,71.19,0,0,1,5.73,11.9,7.8,7.8,0,0,0,.6,1.19c1.08,2.18,1.86,4.54,3.85,6.56,0-3.12-1.61-5.41-2.77-7.84a27.09,27.09,0,0,1-1.1-2.88c-1-3.89-3.65-6.94-5.18-10.55a54.77,54.77,0,0,1-2.79-8,2.08,2.08,0,0,1,.1-.7c1-1.11,1.53-2.65,3.22-3l.38.1a4.44,4.44,0,0,1,1.75.84c1.88,1.61,3.17,3.77,5,5.42a15.28,15.28,0,0,0,5.55,3.41c-1.06-2.89-3.09-4.84-5.29-6.64a47.12,47.12,0,0,1-3.91-3.14c-.59-.79-1.69-1.15-1.91-2.25a18.35,18.35,0,0,1,3.91-5.45,1.92,1.92,0,0,1,.67-.15,8.81,8.81,0,0,1,2.57,1,139.82,139.82,0,0,0,18,11.67c3.14,1.74,6.24,3.86,10,4.36.73.1,1.82.72,2.14-.18s-.91-1.09-1.55-1.47c-8.47-5-17.29-9.5-25.69-14.68C69.94,87,67.65,87,66.77,85.08a15.5,15.5,0,0,1,3.12-6.83c1.67-.45,3,.66,4.42,1.07a20.63,20.63,0,0,1,2.46,1.19c.33.21.61.48.92.7.63.42,1.51,1.22,2,.39.65-1.1-.68-1.23-1.34-1.62s-1.47-.47-2.18-.79c-1.61-1.46-3.68-2-5.6-2.92a1,1,0,0,1-.31-.62,22.18,22.18,0,0,1,1.52-6.38,1.75,1.75,0,0,1,.67-.36c2.32-.11,4.42,1,6.65,1.31,1.81.47,3.61,1,5.37,1.6,4.88,2,10.05,3,15.13,4.23,2.77.69,5.6,1.14,8.37,1.86,1.25.33,2.5.5,3.38-.26-4.56-1.09-9-3.22-13.77-4-5.78-2.06-11.83-2.89-17.84-3.88-2.38-.85-4.92-1-7.33-1.81a1.59,1.59,0,0,1-.68-.85,16.55,16.55,0,0,1,.48-3.84,1,1,0,0,1,.45-.52c1.14-.38,2.34-.45,3.5-.72,2.41-.51,4.92-.41,7.32-1a8.07,8.07,0,0,0,4.65-2.9,78.87,78.87,0,0,0-12.65,2.94,6,6,0,0,1-2.53.27,1.29,1.29,0,0,1-.47-.59c-.37-1.93.18-3.77.61-5.62,1.52-1.57,3.57-2.14,5.5-2.95,1.64-.48,3.22-1.14,4.88-1.54,6.44.51,12-1.81,17.16-5.36.13-.09.27-.16.39-.25.78-.57,2.27-1.1,1.69-2.1s-1.54.45-2.4.6c-5.79,3-12.26,3.7-18.48,5.23A16.26,16.26,0,0,0,76.19,51c-.83.28-1.66.73-2.53.1-.9-1.89-.37-3.77.09-5.64a2.53,2.53,0,0,1,.29-.65c1.41-1.51,3.39-2.06,5.15-3a12,12,0,0,0,5.12-4.81c-3.36,1.18-6,3.43-9.37,4.15a.87.87,0,0,1-.44-.52c-.07-1.81.62-3.52.75-5.3.19-.84.63-1.58.86-2.41,4.18-15,20-22.57,31.36-22.22a5.47,5.47,0,0,1,2.56.36c.4,2-1.64,1.93-2.48,2.88-.49.25-1,.39-1.53.6-.23.15-.62.2-.57.55s.36.14.57.11c.51-.12,1-.3,1.49-.46,2.39-.47,4.35-2,6.58-2.81a3.09,3.09,0,0,1,1.45,0,80.06,80.06,0,0,1,11.27,3.95,10,10,0,0,1,2.55,1.75l.93.46c-.24,2.28-1.3,3.31-3.9,3.44s-4.89.45-7.32.75c-5.07.53-9.49,2.92-14,4.91-.22.09-.46.14-.67.25-.55.29-1.34.53-.95,1.35s1.07.49,1.68.26c.37-.14.71-.36,1.07-.53,6.08-1.8,11.9-4.45,18.25-5.32,2.69.32,4.73-1.61,7.18-2.11a4.51,4.51,0,0,1,2.62,1.95,29.55,29.55,0,0,1,5.07,9.38,4,4,0,0,1-2.8,3.26,17.66,17.66,0,0,1-3,.69,35.42,35.42,0,0,0-6.41.78c-2.87.45-5.83-.11-8.73.87,3.83,2.06,7.62,1.08,11.4.08,1.58-.38,3.17-.69,4.76-1,1.13-.08,2.21-.4,3.32-.56s2.22-.61,3.36-.16a5.2,5.2,0,0,1,2,2.34c2.14,3.8,4.41,7.53,6.73,11.23,1.75,2.81,1.18,4.38-2,5.64a4.53,4.53,0,0,1-1.16-.07c-3.93-.59-7.89-.3-11.84-.44a6.82,6.82,0,0,1-2.35-.5c-2.64-.8-5.25-1.83-8.09-1A21.72,21.72,0,0,0,111.57,57c7.08-.51,14.14-1.27,21.23-.57,4.15.38,8.29.64,12.39-.42a4.87,4.87,0,0,1,1.85-.32c1,.13,1.93-.42,2.92-.34a5.47,5.47,0,0,1,4.27,3.43c1,2.09,1.82,4.25,2.65,6.39,1.11,2.87-.19,4.57-3.26,4.29-4.27-.4-8.58-.48-12.78-1.43a34.81,34.81,0,0,0-7.13-.42c-3.85-.48-7.68-1.25-11.59-.81a9.23,9.23,0,0,0-3.91.21c-.82.21-1.7.1-3,.42,1.24,1.08,2.4.77,3.47.81a9.71,9.71,0,0,1,1.52.06,97.46,97.46,0,0,0,23.16,2.26,12.07,12.07,0,0,1,2.61.18c2.52.65,5,.11,7.47-.35,1.54-.29,3.13-.63,4.42.74,2.15,4.55,2.3,9.52,2.73,14.38.24,2.66.42,5.36.43,8-1.08,2.88-2.16,3.55-5,3A86.64,86.64,0,0,1,144.1,93.3c-3.47-1.59-7.21-1.9-10.94-2.22a17.76,17.76,0,0,1-3.76-.6c-1.21-.31-2.09-1.38-3.89-1.67.94,1.68,2.31,1.75,3.48,2.14a123,123,0,0,0,13,2.73c2.64.65,4.92,2.18,7.48,3a21.87,21.87,0,0,0,7.71,1.19c1.31,0,2.75-.2,3.61,1.23a39.51,39.51,0,0,1-.52,8.82,1.46,1.46,0,0,1-.63.55,11,11,0,0,1-3.29.26,46.41,46.41,0,0,1-13.28-4c-2.81-1.88-6.16-1.92-9.28-2.72s-6.18-1.45-8.84-3.33c-1.32-.88-2.33-2.23-4-2.59a19.72,19.72,0,0,0-3.91-1A4.07,4.07,0,0,0,114.6,95c0,.72.66.49,1,.71a6.43,6.43,0,0,1,1.56.7c2,1.83,4.56,2.07,7,2.73,3.26,1.35,6.06,3.67,9.56,4.53a17.86,17.86,0,0,0,1.8.55,63.41,63.41,0,0,1,7,2.76,41.79,41.79,0,0,0,12.93,2.6,4.85,4.85,0,0,0,2.92.06,1.53,1.53,0,0,1,1.44.56c.85,2.93.38,5.81-.38,8.67-.85,1.39-2.13,1.36-3.54,1.13a53.38,53.38,0,0,1-12.53-4.19,23.72,23.72,0,0,0-6.63-3.47c-2.91-1.71-6.2-2.38-9.38-3.32a39.7,39.7,0,0,1-5.77-2.17c-2.16-.77-3.81-2.51-6-3.15-.84-.45-1.57-1.08-2.42-1.53-.55-.3-1.29-.83-1.71-.18-.57.88.45,1.16,1,1.56a6.37,6.37,0,0,0,.63.35c2.15,1.86,4.94,2.35,7.46,3.41A37.5,37.5,0,0,0,130,110.8a19.63,19.63,0,0,1,4.16,1.66c1.61,1,3.27,1.93,4.86,3a27.92,27.92,0,0,0,15.19,5.86,8.64,8.64,0,0,1,2.79.63c.84.39,1.55.88,1.2,2a113.44,113.44,0,0,1-6.37,22.86c-1.4,2.56-2.67,2.9-5.12,1.13-4.56-3.3-9.1-6.65-13.93-9.56-1.43-.86-3-1.46-4.35-2.46a9.27,9.27,0,0,0-2-1.56c-.37-.2-.73-.39-1.08-.62a20.61,20.61,0,0,0-2.44-1.92c-1.24-1.22-2.93-1.74-4.29-2.76-.38-.2-.91-.93-1.13-.44-.33.73.61,1.14,1.06,1.64s1,.73,1.54,1.15a46.77,46.77,0,0,0,4.84,4.27,101.74,101.74,0,0,0,21.91,13.65c1.69.81,3.14,2,2.24,4.31q-2.21,3.6-4.39,7.22c-.72.52-1.38.15-2-.22-4.46-2.72-9.09-5.14-13.48-8-2.64-1.86-5.1-4-7.7-5.89a14.14,14.14,0,0,0-3.83-3.88c-2.62-2.65-5.66-4.85-8.19-7.58-.83-.87-1.68-1.72-2.55-2.54a31.64,31.64,0,0,0-10.75-8c-2-1.49-3.34-3.6-5-5.43-1.33-1.66-2.41-3.54-4.37-4.6-.69-.38-1.53-1-2.17-.33-.82.81,0,1.62.48,2.3,1,1.49,2.7,2.15,4.1,3.16a29.17,29.17,0,0,0,5.77,4.48c2.17,4.38,6,7,10,9.35a11.73,11.73,0,0,0,3.37,2.51,74,74,0,0,1,7.77,7.14,19.18,19.18,0,0,0,3.81,4,20.94,20.94,0,0,0,6.29,5.71c3.54,3.62,8.44,5,12.59,7.63a15.28,15.28,0,0,1,2.61,1.64c.83.78,1.62,1.62.76,2.87q-3.1,4.32-6.22,8.62a31.43,31.43,0,0,1-2.46,2.82h0c-.38.55-.91,1-1.31,1.52-1.47,1.89-2.94,3.77-4.4,5.66-2.67.78-4.8,2.72-7.47,3.5-2.9.85-3.83.56-5.61-2-3.25-2.82-5-6.74-7.25-10.25a40.75,40.75,0,0,1-4-8.61c-1.59-4.71-4.54-8.52-8-12-2.89-4.28-5.39-8.84-9.07-12.54a7.34,7.34,0,0,0-3.27-3.45c-1.13-1.09-.75-2.55-.84-3.85a11.32,11.32,0,0,0-2.6-6c-.28-.39-.65-.84-1.16-.58a.89.89,0,0,0-.17,1.45c2.25,2.58,2.41,6.23,4.57,8.85a11.32,11.32,0,0,0,2.1,3.32,62.78,62.78,0,0,0,9.7,13.82c1.74,2.65,3.58,5.24,5.25,7.94a19.69,19.69,0,0,1,2.44,5.9,34.27,34.27,0,0,0,9.4,14.78A3.28,3.28,0,0,1,113,185.77Z"/><path class="cls-2" d="M23,186.18l9.65,6.13a.34.34,0,0,1,.11.37c0,.12-.1.18-.14.18C26.17,190.23,20,187,14.78,182.32c-2.36-2.13-3.75-5.06-5-8a.93.93,0,0,1,.24-1.08c2.3,3.86,4.67,7.64,8.3,10.44C19.75,184.8,21.56,185.16,23,186.18Z"/><path class="cls-2" d="M32.65,192.86l0-.55a10.43,10.43,0,0,1,3.63.95,3,3,0,0,0,3.52-.4c.84-.64,1.43-.33,1.9.49.69.91,1.25,2,2.41,2.4.2.53,1.19.51,1,1.13s-.94.7-1.56.76c-.46,0-.94,0-1.41.05l-1.88-.52a21.55,21.55,0,0,0-7.67-3.84Z"/><path class="cls-2" d="M74.21,45c-1.51.59-3.19.87-4.19,2.35-.77-4.2-1.46-8.4.41-12.51C72,35.34,72,36.62,72,37.92a2.69,2.69,0,0,1-.16.68c-.52,1-1.12,2-.46,3.21,1.29.33,2.14-1.24,3.45-.81l.06.21c.66,1.3.12,2.43-.53,3.54A1.89,1.89,0,0,1,74.21,45Z"/><path class="cls-2" d="M70.45,55.4c-1.3.35-1.58,1.25-1.45,2.48a24.5,24.5,0,0,1,0,2.84c-.61-1.9-.58-3.9-1.82-5.73-1.43-2.1,0-4.49.62-6.61.42-1.38,1.15,0,1.72.35-.29,1.59-.8,3.15-.43,4.79C69.63,54.06,70.76,54.19,70.45,55.4Z"/><path class="cls-2" d="M71.5,38.28a4.45,4.45,0,0,0-1.07-3.44c.38-.94.77-1.87,1.16-2.81l.3-.05a3.11,3.11,0,0,0,2.44.55,2,2,0,0,1,2.24.94l-.88,1.84C74.47,36.54,72.62,36.9,71.5,38.28Z"/><path class="cls-2" d="M69.05,61.65c1.35.23,2.55-.42,3.83-.61l0,.2c.65.81.12,1.38-.4,1.95,0,.11,0,.22,0,.33-.91.84-2.19,1.09-3.06,2-.22-.41-.33-1-.67-1.19C66.53,63.14,68,62.43,69.05,61.65Z"/><path class="cls-2" d="M68.08,75.08c.63.81,1.62.49,2.42.78a1.71,1.71,0,0,0,.13.23,1.32,1.32,0,0,1-.75,2c-1.1,0-2-1-3.22-.59C65.89,76,66.43,75.2,68.08,75.08Z"/><path class="cls-2" d="M69.59,66.93l2.5.29a3.27,3.27,0,0,0,.35.3,1.34,1.34,0,0,1-.12,1.66l-.42.16a4.16,4.16,0,0,0-2.37-.48c-.52-.36-1.48-.31-1.37-1.25S69,66.93,69.59,66.93Z"/><path class="cls-2" d="M64.68,79.36a3.24,3.24,0,0,1-1.85,1.5l0-1a1.52,1.52,0,0,1,.92-1.51C64.54,78.08,64.08,79.28,64.68,79.36Z"/><path class="cls-2" d="M138.92,32.49c-1.86-4-3.74-8-7.16-11-1.16-.76-.91-1.56,0-2.36a4.52,4.52,0,0,0,2.43.45c1.1.54,2.4.61,3.37,1.44A3.27,3.27,0,0,1,139,22.39c-1,1-.51,1.91.34,2.72a23.82,23.82,0,0,1,2.16,4,8.83,8.83,0,0,0,2.9,3.37,1.49,1.49,0,0,1,.1,1.36,5.3,5.3,0,0,1-3,1.71A4.14,4.14,0,0,1,138.92,32.49Z"/><path class="cls-2" d="M131.72,19.09c0,.79-.63,1.59,0,2.36-1.63.16-2.56,1.74-4.18,2a10.13,10.13,0,0,1-3,.29c-1.72-1.3-4.06-.71-5.82-1.9a40.83,40.83,0,0,1,7.47-.87c2,0,3.57-.69,4.1-2.84Z"/><path class="cls-2" d="M121.6,10.06l-6.33,2.31H114c-1-.05-2.35.62-2.9-1,2.37-1.14,5-1.86,7.18-3.33C119.81,8.07,121.06,8.47,121.6,10.06Z"/><path class="cls-2" d="M138.93,25.29c-.86-.44-1.55-1-1.4-2.11.12-.82.81-.78,1.43-.79l1.31.56,1,1.91A2.21,2.21,0,0,1,138.93,25.29Z"/><path class="cls-2" d="M137.52,21c-1.19-.33-2.46-.46-3.37-1.44C135.5,19.49,136.74,19.69,137.52,21Z"/><path class="cls-2" d="M48,100.57a19.56,19.56,0,0,0,.5,5.66l-.12.47a4.42,4.42,0,0,1-2.88,2.52,1.7,1.7,0,0,0-.31-.06c-1.09-1-.72-2.27-.71-3.48.22-1.41.77-2.83.12-4.27l-.07-.07C45.6,100.64,46.31,98.38,48,100.57Z"/><path class="cls-2" d="M53.79,101.44a4.2,4.2,0,0,0-1.52-3c-.23-1.3,2.7-5,4-5,.55,0,.75.21.54.7-.33.81.18,1,.78,1.08a10.78,10.78,0,0,0-1,3.33l-.11.48a3.93,3.93,0,0,1-2.38,2.48A1.87,1.87,0,0,0,53.79,101.44Z"/><path class="cls-2" d="M65.22,87.94c-1.35-1.09-2.61-2.35-4.35-2.85-1-1.8.08-1.94,1.45-1.87l4.32,2c.62,1.26-.31,2-1,2.75h-.43Z"/><path class="cls-2" d="M60.92,93.27l.48,0c.58.69,1.52,1,1.88,1.94.31,1.91-.9,1.68-2.08,1.48a1.71,1.71,0,0,1-1.26-1.07C60.1,94.78,58.22,93.07,60.92,93.27Z"/><path class="cls-2" d="M40.19,113.9c.27,3.19,1.66,6.2,1.61,9.45a35.09,35.09,0,0,1,.15,6.4c0,1.33-.55,2.34-2.21,1.88-1.1-5.21-2.09-10.44-1.39-15.81C38.41,114.66,39.37,114.34,40.19,113.9Z"/><path class="cls-2" d="M34.15,112.47c-1.35,2.19-.47,4.57-.58,6.86-.07.24-.14.47-.22.71-.42.77-.88,1.51-1.94,1.42a13.85,13.85,0,0,1,.13-4,4.33,4.33,0,0,0-1.27-4.06C31.31,112.1,32.79,112.51,34.15,112.47Z"/><path class="cls-3" d="M144.28,33.88l0-1.42c.15-.16.28-.15.41,0,2.2,1.83,3.73,4.25,5.55,6.41a10.34,10.34,0,0,0,4.53,3.63c.41.45.89.79.92,1.55A3.71,3.71,0,0,0,159,47.81c.06,4.73,1.17,9,5.29,11.93.61.44.48,1.16.91,1.62.36,1.54.78,3.07,1.07,4.62a161.73,161.73,0,0,1,2.36,33.6,106.55,106.55,0,0,1-4.27,27.69c-.14.51-.37,1-.79,2.06-.16-3,.12-5.56-1.16-7.8a1.11,1.11,0,0,1,0-1.35c2.75-3.33,2.63-7.46,3-11.38a116.76,116.76,0,0,0-1.94-35.91c-.45-2.22-1.09-4.34-2.94-5.86a3.39,3.39,0,0,1-1.11-2.31c-.74-8.66-4.79-15.92-9.74-22.78-1.68-2.33-3.52-4.54-5.1-6.93A1.83,1.83,0,0,1,144.28,33.88Z"/><path class="cls-2" d="M144.65,32.49h-.21l-.2,0c-1.51.2-2-1-2.61-2-1-1.68-1.8-3.46-2.7-5.19a3,3,0,0,1,2.34-.43c1,1.12,1.94,2.23,2.88,3.38S146,30.9,144.65,32.49Z"/><path class="cls-2" d="M160.58,66.41c2,.77,2.76,2.61,3.16,4.45a115.89,115.89,0,0,1,2.67,33.63c-.13,1.83-.24,3.65-.38,5.48-.33,4.13-.93,8.18-3.64,11.56a4.28,4.28,0,0,0-3.27-1.9c-.29-.14-.31-.31-.08-.51.1-3,.9-6,.43-9a1.88,1.88,0,0,1,.51-2.07q.22-4.45.44-8.91c-.57-1.81.52-3.59.11-5.39-.73-6.11-.52-12.32-1.92-18.36-.33-1.38-.67-2.75-1-4.13C156.77,68.06,157.75,66.45,160.58,66.41Z"/><path class="cls-2" d="M125.58,133.47l.92.48c.65.48,1.23,1,1.92,1.45,6.54,3.11,12.35,7.37,18.09,11.71,2.72,2,2.94,2,5.3-.34.24,2.74-.35,5.14-2.72,6.83,0-2.52-1.68-3.51-3.66-4.43-7.53-3.51-14.68-7.62-20.87-13.24C123.68,134.6,123.6,133.61,125.58,133.47Z"/><path class="cls-2" d="M129.34,152.17q6.51,3.78,13,7.56a5,5,0,0,0,2.35,1.09c0,.3,0,.61,0,.92-.92,1-.3,3.15-2.39,3.35.11-1.58-.83-2.44-2.1-3.11-3.08-1.62-6.15-3.24-9.19-4.92a14.47,14.47,0,0,1-5-3.84C126.43,150.76,128,151.82,129.34,152.17Z"/><path class="cls-2" d="M159,119.12c0,.17.05.34.08.51-.83,1.31-.16,3-.94,4.28-.39-1.92-2.08-1.74-3.38-1.91-4.11-.53-8.17-1.19-11.88-3.19a16.34,16.34,0,0,1-4.44-3.16c-.36-1.62,1-1.33,1.76-1.42,1.16-.15,2.11.57,3.11,1,4.31,1.44,8.37,3.67,13,4.12C157.25,119.46,158.2,119.82,159,119.12Z"/><path class="cls-2" d="M156.59,145.35c.6-2.59,1.08-5.23,3-7.51.49,4.14,1.29,8.11-2.41,11C155.57,147.94,156.1,146.64,156.59,145.35Z"/><path class="cls-2" d="M156.59,145.35c.14,1.19-.14,2.45.58,3.54a7.43,7.43,0,0,1-1.52,2.75c-1.18-.11-1.52-.87-1.46-1.92C154.56,148,155.07,146.41,156.59,145.35Z"/><path class="cls-2" d="M154.19,149.72l1.46,1.92c0,.17,0,.34,0,.51a6.64,6.64,0,0,1-1.85,2c-.95.31-1.81.5-1.49-1A6.31,6.31,0,0,1,154.19,149.72Z"/><path class="cls-2" d="M152.32,153.12c.06,1,.78,1,1.49,1-.67.92-.79,2.23-1.94,2.82-1.27-.26-1.06-1.07-.66-1.89C151.54,154.4,152,153.76,152.32,153.12Z"/><path class="cls-2" d="M167.85,67.4c.75,1.23,2.26,2.26,1.46,4.18C167.48,70.59,168.63,68.65,167.85,67.4Z"/><path class="cls-2" d="M167.14,64.28a.65.65,0,0,1,.5.77c0,.3-.06.72-.5.48-.2-.11-.3-.52-.33-.8S167,64.41,167.14,64.28Z"/><path class="cls-2" d="M165.75,60.72c.59.3,1.06.67.83,1.48-1.12,0-.69-.92-.82-1.49Z"/><path class="cls-2" d="M163.75,129.59l-.61,1.83C162.83,130.66,162.75,130.16,163.75,129.59Z"/><path class="cls-2" d="M89,197.59c4.26-1,4.25-1,1.36-4.88-3.26-4.37-5.33-9.36-7.26-14.41-.7-1.85-1.41-3.69-2.11-5.54a2.54,2.54,0,0,1,2.56-1c3.77,5.64,5.9,12.08,9,18,.81,1.54,1.6,3.11,2.55,4.56a2.77,2.77,0,0,0,3.88,1.1,26.77,26.77,0,0,1,4.52-1.18c-2.71,1.19-5.33,2.76-8.36,2.87C93.08,197.19,91.09,198.08,89,197.59Z"/><path class="cls-2" d="M66.16,191.91a29.43,29.43,0,0,1,1.88,4,2.86,2.86,0,0,0,3.41,2.34c-2.08.33-4.09,1.15-6.25.85.76-1.21,0-2.23-.38-3.33s-.65-2.25-1-3.37C64.59,192,65.29,191.56,66.16,191.91Z"/><path class="cls-2" d="M133.61,176.53a3.92,3.92,0,0,1,2.46-2.82C135.76,175.1,135.52,176.54,133.61,176.53Z"/><path class="cls-2" d="M132.31,178a1.36,1.36,0,0,1,1.31-1.52A1.3,1.3,0,0,1,132.31,178Z"/><path class="cls-2" d="M103.92,166.06c1.53,1.19,1,3.18,1.89,4.71,2.8,4.95,5.85,9.74,9,14.46-.65,0-1.39-.24-1.81.54a34,34,0,0,1-10.94-16.37C101.63,166.51,101.81,166.19,103.92,166.06Z"/><path class="cls-2" d="M160.58,66.41c-2.89.46-2.55,2.89-3,4.86-2-1.13-4-.17-6,.16a11,11,0,0,1-5.57-.14c-2.42-1.71-5.34-1.71-8.07-2.39-1.51-.37-3.4,0-4.29-1.86,4.26-.55,8.37.67,12.55,1.08,2.77.27,5.54.42,8.31.66,2,.18,2.49-1.13,2-2.56a80.76,80.76,0,0,0-3.37-8.12,4.17,4.17,0,0,0-3.2-2.26c-.56-.37-1.29.1-1.82-.39,2.85-2.53,2.82-2.58.7-6-2.58-4.18-5.07-8.41-7.6-12.62a1.05,1.05,0,0,1,.13-1.47,5.75,5.75,0,0,1,2.88-1.46c6.27,7.86,12.43,15.77,15,25.79C159.86,61.9,159.58,64.28,160.58,66.41Z"/><path class="cls-2" d="M71.44,88c5.3,3.31,10.91,6.06,16.29,9.22,3.43,2,6.74,4.35,10.52,5.75.85.32,1.73.79,1.34,1.9-.34.95-1.23.77-2,.69-4.33-.39-7.8-2.87-11.48-4.76-3-1.54-5.71-3.63-8.69-5.23A62.63,62.63,0,0,1,68.09,89C68.75,87,70.06,87.39,71.44,88Z"/><path class="cls-2" d="M38.77,153.13a36.33,36.33,0,0,1,1.54,11.54c-.06,5.38-.13,10.76.87,16.1a9.9,9.9,0,0,1-.32,2.82c0,1.5.46,3.72-1.48,3.85-1.49.11-.63-2.14-1.12-3.25-.19-.42,0-.94-.25-1.37a81.82,81.82,0,0,1-1.92-14.34,95,95,0,0,1,.31-14.31C36.63,152.55,37.34,152,38.77,153.13Z"/><path class="cls-2" d="M66.16,191.91c-.76.22-1.37,1.12-2.31.47C60.41,183.27,59,173.75,58,164.13c.39-2.35.7-2.61,2.3-1.89A187.09,187.09,0,0,1,66.16,191.91Z"/><path class="cls-2" d="M83.55,171.73c-.83.39-1.48,1.24-2.56,1a106.52,106.52,0,0,1-12-22.95c-.15-1.22-.81-2.75,1.51-2.45h0c.78,1.13,1.49,2.31,2.38,3.37h0c.37.44.47,1.07,1,1.4a.89.89,0,0,0,.32.08,55.43,55.43,0,0,1,5.26,9.08,15.57,15.57,0,0,0,2.25,5.4A12.67,12.67,0,0,1,83.55,171.73Z"/><path class="cls-2" d="M133.69,67c3,1.53,6.44,1.28,9.55,2.31,1.09.36,2.61.24,2.81,1.94a97.83,97.83,0,0,1-26.25-2.51c-.39-1.69.52-2.27,2-2.38C125.82,65.68,129.76,66.25,133.69,67Z"/><path class="cls-2" d="M101.15,45.46c-5.24,4-11,6.4-17.75,5.65-2.65-.67-3-1.14-1.91-2.8a16.85,16.85,0,0,1,6.42-1.47c4.54-.27,8.37-2.73,12.59-4,.76-.21,1.42-.11,1.72.7C102.58,44.58,101.53,44.84,101.15,45.46Z"/><path class="cls-2" d="M132.71,54.06l1.92.48c.61.54,1.16,1.22.69,2-.66,1.06-1.74.58-2.68.39-7.7-.72-15.38.87-23.09.32,4.68-2.78,9.48-4.89,15-4.14C127.32,53.21,129.94,54.23,132.71,54.06Z"/><path class="cls-2" d="M126.94,125.37c-5.78-2.28-11.64-4.4-16.06-9.08-.37-.39-.91-.67-1-1.56a64.91,64.91,0,0,1,21.36,9.68C130.37,126.23,129.74,126.37,126.94,125.37Z"/><path class="cls-2" d="M160,108.06a3.14,3.14,0,0,1-.51,2.07l-1.21,0a4.31,4.31,0,0,1-2.68,0c-5.85.26-11.23-1.55-16.5-3.81-1.3-.56-2.63-1-4-1.55-1.1-.73-.34-1.14.29-1.49,1.14-.65,2.32-.33,3.48-.08a27,27,0,0,1,4.34,1.16,82.6,82.6,0,0,0,13,3.9,7.65,7.65,0,0,0,3.3,0Z"/><path class="cls-2" d="M118.71,21.85c2.05.31,4.46-.5,5.82,1.9-6.42,1.05-12.36,3.77-18.62,5.38-1.51-.14-2.25-.73-1.35-2.29C109.14,24.8,113.51,22.13,118.71,21.85Z"/><path class="cls-2" d="M53.32,134.93a12.8,12.8,0,0,1-2.56-5.31c-.8-3.79-1.58-7.58-2.37-11.36,0-1.3.54-2,1.94-1.52,1.34,4.65,3.7,9,4.37,13.84a18.6,18.6,0,0,1,.68,3.63c0,.53.12,1.14-.55,1.39A1.09,1.09,0,0,1,53.32,134.93Z"/><path class="cls-2" d="M97.74,73.22c5.13.48,9.69,2.86,14.73,4.2A3.12,3.12,0,0,1,109,78.81c-8.08-2-16.33-3.33-24.21-6.14a2.57,2.57,0,0,1-.57-.38c2.46-1.46,4.87-.18,7.24.28C93.56,73,95.58,73.63,97.74,73.22Z"/><path class="cls-2" d="M160.53,93.76c1.5,1.82.19,3.6-.11,5.39-2.26-1-4.69-.41-7-.73-4.2-.56-7.71-2.88-11.58-4.26-1.14-.89-.26-1.3.45-1.54a2.66,2.66,0,0,1,2,.15C148.15,94,152.07,95,156,95.89,158.36,96.45,159.7,95.9,160.53,93.76Z"/><path class="cls-2" d="M96.37,124.35c4.56,1.54,8,4.59,10.95,8.22-.12,1.6-.89,2.1-2.36,1.4-4.28-2.24-8.51-4.53-10.16-9.56A1.24,1.24,0,0,1,96.37,124.35Z"/><path class="cls-2" d="M115,168.38c-3.91-3-6.84-6.94-9.68-10.92a1.63,1.63,0,0,1,2.54-1c3.5,3.27,6.83,6.67,8.93,11.07A2.86,2.86,0,0,1,115,168.38Z"/><path class="cls-2" d="M94.42,155.49a45.79,45.79,0,0,1-9.66-13.84,1.6,1.6,0,0,1,2.12-.08c3.8,3.59,6.39,8,9,12.51A3.7,3.7,0,0,1,94.42,155.49Z"/><path class="cls-2" d="M61.2,96.71c.87-.24,1.89-.28,2.08-1.48,3.3,2.35,6.7,4.59,8.78,8.24a5,5,0,0,1,1,2.67,12.92,12.92,0,0,1-6.92-4C64.49,100.36,62.86,98.52,61.2,96.71Z"/><path class="cls-2" d="M94.42,155.49a1.33,1.33,0,0,1,1.42-1.41,26.48,26.48,0,0,1,8.08,12c-2,.35-1.87,1.87-1.84,3.34C100.84,164,96.92,160.15,94.42,155.49Z"/><path class="cls-2" d="M75.25,60.68c4.43-2.13,9.29-2.35,14.31-3.48A9.7,9.7,0,0,1,81.9,62c-1.89.25-3.79.37-5.69.55C75.72,62,74.85,61.67,75.25,60.68Z"/><path class="cls-2" d="M97.74,73.22c-1.18,1.15-2.54,1-4,.61a29.08,29.08,0,0,0-9.52-1.54l-5.15-1.58c-.47-.29-1.45-.22-1-1.16.33-.74,1-.43,1.65-.29C85.82,70.12,92,70.82,97.74,73.22Z"/><path class="cls-2" d="M134.08,112.92c-3.88-1.3-7.76-2.58-11.62-3.93a12.55,12.55,0,0,1-2.22-1.31c.16-.81.91-1,1.46-1.46,3.57,1.81,7.52,2.52,11.27,3.81A10.38,10.38,0,0,1,137,112,2.75,2.75,0,0,1,134.08,112.92Z"/><path class="cls-2" d="M143.24,104.3c-1.85.2-3.57-.48-5.36-.75-1.12-.17-2.4-.55-2.75,1.16-4.06-.94-7.58-3.06-11.12-5.15a3.08,3.08,0,0,1,1-1.39c4,2.67,8.72,3.09,13.21,4.22C140,102.83,141.86,102.9,143.24,104.3Z"/><path class="cls-2" d="M74.32,44.75c-.23-1.24.36-2.36.53-3.54L85.3,35.75C83.47,41.55,78.62,42.81,74.32,44.75Z"/><path class="cls-2" d="M50.33,116.74c-1,0-1.5.75-1.94,1.52-1.75-2.77-3-5.68-2.88-9,.66-1.19,1.94-1.66,2.88-2.52Q49.36,111.73,50.33,116.74Z"/><path class="cls-2" d="M144.27,92.77c-.92.29-2.5-.6-2.46,1.39a64.84,64.84,0,0,1-13.37-2.84c-.38-.65-.67-1.27.46-1.42,4.26.72,8.63.56,12.81,1.78A6.07,6.07,0,0,1,144.27,92.77Z"/><path class="cls-2" d="M129.84,38.64c-4.53,1.58-9,2.16-13.65-1.18a86,86,0,0,1,10.65-.75C129.82,36.38,130.09,36.55,129.84,38.64Z"/><path class="cls-2" d="M132.64,56.92c1.69.07,3.1-.1,2-2.38,4.17.16,8.41-.76,12.48.87.16.13.2.24.13.34s-.12.14-.18.14C142.4,58.24,137.5,57.41,132.64,56.92Z"/><path class="cls-2" d="M63.26,121.12c-1.39-4.27-3.84-8-5.75-12,.65-.63,1.33-1.25,2-1.92,1.84,3.47,4.45,6.55,5.22,10.54C64.16,118.83,64.06,120.12,63.26,121.12Z"/><path class="cls-2" d="M39.74,131.63c1.53-.24,2-1.21,2-2.66,0-1.87,0-3.75,0-5.62,1,3,.07,6.09.5,9.12.43,3.43,0,6.88.26,10.32a1.38,1.38,0,0,1-1.24,1.67C39.34,140.36,39.88,136,39.74,131.63Z"/><path class="cls-2" d="M59.46,107.17c.11,1.42-.6,2-2,1.92-2.21-2-2.74-4.83-3.38-7.57A7.62,7.62,0,0,1,56.51,99Z"/><path class="cls-2" d="M89.06,120.16A10.4,10.4,0,0,1,84.71,117c-.66-.94-1.66-2.09-.78-3.16,1-1.26,2.33-.34,3.38.33a11.56,11.56,0,0,1,4.25,4.93C91.11,120.41,90.24,120.65,89.06,120.16Z"/><path class="cls-2" d="M82.85,138.31a4.7,4.7,0,0,1-2-2.57A15,15,0,0,0,78.13,130c-.66-.82-1.43-2-.06-2.88s1.89.57,2.52,1.37a11.4,11.4,0,0,1,2.5,8,2,2,0,0,0,.48,1.74A.5.5,0,0,1,82.85,138.31Z"/><path class="cls-2" d="M129.34,152.17c-1.19.15-2.64-.54-3.38,1.05a15.53,15.53,0,0,1-6.28-5.69c.09-1.54,1-1.6,2.14-1.18Z"/><path class="cls-2" d="M79.44,161.3c-2.7-2.48-3.63-6-5.26-9.08.9-.19,1.38,2.6,2.57.36a9.47,9.47,0,0,1,4.74,7.25Z"/><path class="cls-2" d="M81.49,159.83a28.08,28.08,0,0,0-4.74-7.25c0-.3-.07-.6-.11-.9.07-1.29.82-1.66,2-1.47,1.89,2.18,2.82,4.89,4.09,7.41C83.26,158.72,82.88,159.64,81.49,159.83Z"/><path class="cls-2" d="M116,143.51l-7.7-7.13a2,2,0,0,1,1.51-1.53L118,142.5A2.53,2.53,0,0,1,116,143.51Z"/><path class="cls-2" d="M38,182.82c.93,1.28.88,2.79.88,4.65,1.81-1,1.4-2.69,2-3.88,1.28,3.16.81,6.48.87,9.76a3.05,3.05,0,0,0-1.9-.49C38.34,189.68,38.15,186.25,38,182.82Z"/><path class="cls-2" d="M121.7,106.22c0,1-.9,1-1.46,1.46-2.71-.75-5.4-1.55-7.59-3.44.36-2.13,1.74-1.26,2.92-1C118.06,103.31,119.39,105.76,121.7,106.22Z"/><path class="cls-2" d="M65.76,120.43a17.79,17.79,0,0,1,3.13,9.34c-3-2-4-4.91-5.12-7.77A8.89,8.89,0,0,1,65.76,120.43Z"/><path class="cls-2" d="M23,186.18c-1.82-.35-3.82-.37-4.71-2.48,1.61-.35,1.62-1.54,1.32-2.75-.25-1-.57-2,.09-2.93.7-.55,1.06-.09,1.39.47C22.1,181,21.85,183.75,23,186.18Z"/><path class="cls-2" d="M81.49,48.31c-1.14,2.15,1.39,1.79,1.91,2.8a20.24,20.24,0,0,1-4.74,1.49c-1.73.39-2.9.09-2.51-2.08C77.6,49,79.57,48.72,81.49,48.31Z"/><path class="cls-2" d="M107.89,156.43c-1-.15-1.73.59-2.54,1a5.89,5.89,0,0,1-3.06-4.5c-.11-1.23.33-1.81,1.64-1.08C105.82,152.92,106.85,154.68,107.89,156.43Z"/><path class="cls-2" d="M125,98.17c.1.78-.15,1.31-1,1.39-2.59-.46-5.28-.66-7.17-2.88,1.27-1.14,2.92-.48,4.34-.92C122.92,95.83,123.83,97.23,125,98.17Z"/><path class="cls-2" d="M60.33,162.24c-1.82-.65-1.62,1.16-2.3,1.89a11.94,11.94,0,0,1-1.43-6.23c.16-1.27.89-1.4,1.91-1C59.76,158.49,60,160.39,60.33,162.24Z"/><path class="cls-2" d="M126.94,125.37c1.44-.34,3.2.77,4.34-1,1.84.09,3,1.29,4.26,2.47-.85,2.1-2.36,1.4-3.83.9C129.94,127.34,128.19,126.85,126.94,125.37Z"/><path class="cls-2" d="M139.38,129.27c2.11,1.12,4,2.42,4.72,5.16-3.07-.28-5.09-2-7.07-3.81A3.92,3.92,0,0,1,139.38,129.27Z"/><path class="cls-2" d="M55.07,153.7c-.66-.95-.3-2-.33-3-.06-2.12.26-4.3-1.17-6.32A3.78,3.78,0,0,1,57,149.11a12.18,12.18,0,0,0-.4,3.06c-.22.34-1.33-.86-1,.57A.93.93,0,0,1,55.07,153.7Z"/><path class="cls-2" d="M139.38,129.27a3,3,0,0,1-2.35,1.35,9.88,9.88,0,0,1-5.32-2.84c1.32-.11,2.76.29,3.83-.9C137.23,127,138.21,128.3,139.38,129.27Z"/><path class="cls-2" d="M134.08,112.92l2.94-1c2.34.67,4.63,1.43,6.33,3.3-1.63,0-3.39-1.51-4.87.4C137,114.7,135.34,114.16,134.08,112.92Z"/><path class="cls-2" d="M89.06,120.16a3.92,3.92,0,0,0,2.5-1l4.81,5.22-1.57.06C92.36,123.71,90.7,122,89.06,120.16Z"/><path class="cls-2" d="M116,143.51c.39-.92,1.23-.92,2-1,1.78.79,2.78,2.34,3.82,3.85a2,2,0,0,0-2.14,1.18A10.52,10.52,0,0,1,116,143.51Z"/><path class="cls-2" d="M21.12,178.49,19.73,178a9.7,9.7,0,0,1-.43-6.22c.44-.82.29-2.2,1.86-1.92Z"/><path class="cls-2" d="M48.36,178c1.16,2.44.39,4.67-.83,7.3-1-2.62-1.82-4.83-.91-7.3A1.23,1.23,0,0,1,48.36,178Z"/><path class="cls-2" d="M111.13,11.42l2.9,1c-2.11,1.21-4.1,2.7-6.65,2.94a1.25,1.25,0,0,1-.07-1.66l2.81-2Z"/><path class="cls-2" d="M31.41,121.46c.71-.38,1.05-1.29,1.95-1.42.1,2.93.69,5.87-.17,8.78-.91-.59-.33-2-1.43-2.51-.75-1.39-.5-2.91-.58-4.38Z"/><path class="cls-2" d="M69.88,78.08l.75-2a8.69,8.69,0,0,1,5.74,2.73c-.41.88-1.26.83-2,1L70,78.42A.59.59,0,0,1,69.88,78.08Z"/><path class="cls-2" d="M125.58,133.47a1.73,1.73,0,0,0-1,2.46c-1.7-1.33-3.66-2.37-4.86-4.28,1.1-2.13,2.32-.42,3.5-.12A3.81,3.81,0,0,1,125.58,133.47Z"/><path class="cls-2" d="M55.07,153.7c.75-.27-1.31-3.26,1.49-1.53.84,1.52,1.83,3,1.95,4.78a2.63,2.63,0,0,0-1.91,1A9.21,9.21,0,0,1,55.07,153.7Z"/><path class="cls-2" d="M76.15,50.52a2.21,2.21,0,0,0,2.51,2.08l-5.32,2.49L73.27,55a2.68,2.68,0,0,1,.09-3.31l.35-.48Z"/><path class="cls-2" d="M129.84,38.64c.12-2.39-1.75-1.68-3-1.93,2.25-.52,4.46-1.3,6.84-.84.7.41,1.29.88.94,1.83Z"/><path class="cls-2" d="M79.71,69.26c-.44.12-1.08.11-1.27.4-.36.54.49.65.65,1l-6.77-1.53c-.35-.58,0-1.11.12-1.66C74.86,68.13,77.42,68.14,79.71,69.26Z"/><path class="cls-2" d="M141.4,35.34l-.13,1.47c-1.15-.27-2.22.26-3.33.39a11,11,0,0,1-1.45-1.93,5.42,5.42,0,0,0,2.43-2.78Z"/><path class="cls-2" d="M71.44,88c-1.19,0-2.46-.17-3.35,1a4.35,4.35,0,0,1-2.44-1c-.22-1.11,1-1.73,1-2.75a1.92,1.92,0,0,1,.4-.09C68.41,86.21,70.32,86.52,71.44,88Z"/><path class="cls-2" d="M21.16,169.88c-.92.35-1.26,1.27-1.86,1.92-.17-1.47-.91-2.9-.41-4.41.21-.62.24-1.61,1.14-1.58s1,.86,1.31,1.53A3.88,3.88,0,0,1,21.16,169.88Z"/><path class="cls-2" d="M38.77,153.13c-1.2-.58-1.79.2-2.37,1a9,9,0,0,1-.82-3.43c-.06-.81.21-1.42,1.13-1.52a1.36,1.36,0,0,1,1.6,1.1C38.53,151.24,38.62,152.19,38.77,153.13Z"/><path class="cls-2" d="M41.32,144.46c1.42-2,.83-4.37.92-6.59.08-1.8,0-3.6.06-5.4.7,1.08.36,2.3.43,3.46.14,2.49-.38,5,.64,7.47a1.68,1.68,0,0,1-.09,1.37c-.24.6-.54,1.36-1.18,1.33C41.08,146.07,41.35,145.13,41.32,144.46Z"/><path class="cls-2" d="M28.33,167.5c-.08-1.73-.24-3.46.8-5,.29-.44.53-1.11,1.16-1s.46.89.49,1.38a8.72,8.72,0,0,1-1,3.6C29.87,167.62,29.19,167.69,28.33,167.5Z"/><path class="cls-2" d="M109.79,134.85a3.12,3.12,0,0,1-1.51,1.53c-1.56-.18-2.45-1.28-3.32-2.41a2.24,2.24,0,0,0,2.36-1.4Z"/><path class="cls-2" d="M115.57,103.24c-1,.29-2.29-.33-2.92,1a11.78,11.78,0,0,1-1.48-.69c-.71-.45-1.24-1.07-.76-2s1.31-.75,2.06-.42A8.41,8.41,0,0,1,115.57,103.24Z"/><path class="cls-2" d="M46.62,176.11c-.19-1.16-.42-2.3-.55-3.46-.11-1,0-2.23,1-2.36s1.23,1.14,1.37,2a7.42,7.42,0,0,1-.05,1.41C47.74,174.47,47.92,175.85,46.62,176.11Z"/><path class="cls-2" d="M132.71,54.06c-2.87,1-5.53.27-8.13-1C127.45,52.14,130.07,53.19,132.71,54.06Z"/><path class="cls-2" d="M121.18,95.76c-1.15,1.71-2.92.49-4.34.92l-1.36-.54c-.64-1.64.18-1.82,1.5-1.5A8.6,8.6,0,0,1,121.18,95.76Z"/><path class="cls-2" d="M82.85,138.31l.72-.11a4.72,4.72,0,0,1,3.31,3.37l-2.12.08A3.48,3.48,0,0,1,82.85,138.31Z"/><path class="cls-2" d="M24,149.3a4.42,4.42,0,0,1-.75-1.16c-.29-1-.56-2.21.82-2.53s1.33,1,1.54,1.85c.11.46.19.92.29,1.38C25.35,149.38,24.8,149.9,24,149.3Z"/><path class="cls-2" d="M24,149.3l1.9-.46c.17.85.39,1.71.5,2.57s.08,1.52-.92,1.62-1.27-.6-1.38-1.34A23.75,23.75,0,0,1,24,149.3Z"/><path class="cls-2" d="M128.9,89.9c-.56.34-.5.88-.46,1.42a5.06,5.06,0,0,1-2.86-1c-.56-.49-1-1.05-.47-1.83s1.13-.45,1.68-.09C127.52,88.84,128.2,89.38,128.9,89.9Z"/><path class="cls-2" d="M78.55,79.55a9,9,0,0,1,1.48.67c.58.4,1.21.88.62,1.71a1.47,1.47,0,0,1-2,.57,4.93,4.93,0,0,1-2-1.64C77.05,80.07,77.91,80,78.55,79.55Z"/><path class="cls-2" d="M65.76,120.43c-.12,1.21-.84,1.66-2,1.57a1,1,0,0,1-.51-.88c0-1.33-.1-2.71,1.42-3.41Z"/><path class="cls-2" d="M136.49,35.27a1.51,1.51,0,0,1,1.45,1.93l-3.32.5c-.32-.61-.63-1.22-.94-1.83Z"/><path class="cls-2" d="M53.32,134.93c1.62.92,2,.13,1.75-1.32a8.91,8.91,0,0,1-.37-3c1.35,1.66.59,3.84,1.38,5.65a.74.74,0,0,1-.48,1,1.26,1.26,0,0,1-1.52-.31A3.47,3.47,0,0,1,53.32,134.93Z"/><path class="cls-2" d="M28.33,167.5l1.5-1a1.92,1.92,0,0,1,.36.61c.2,1,1,1.93.11,2.92a1,1,0,0,1-1.3.28C27.83,169.62,28.41,168.47,28.33,167.5Z"/><path class="cls-2" d="M118.36,68.79a17.18,17.18,0,0,1-2.59-.05c-.73-.11-1.38-.57-1.25-1.46s.84-.74,1.49-.71,1.25,0,1.88,0A2.81,2.81,0,0,1,118.36,68.79Z"/><path class="cls-2" d="M118.36,68.79c-.3-.71-1.12-1.31-.47-2.23,1.29-.29,2.57-1,3.92-.16-.91.59-1.85,1.16-2,2.38Z"/><path class="cls-2" d="M104.56,26.84c-.22,1.16.53,1.74,1.35,2.29a2,2,0,0,1-.32.33c-1.06.65-2.29,1.22-3-.26C101.78,27.4,103.4,27.22,104.56,26.84Z"/><path class="cls-2" d="M118.25,172.35c-.85-.34-.91-1.3-1.46-1.87a1.63,1.63,0,0,1,1.06-1.52c1.33.73,2.39,1.66,2.45,3.31A1.55,1.55,0,0,1,118.25,172.35Z"/><path class="cls-2" d="M123.2,131.53c-1.15.37-2.37-1.18-3.5.12l-1.33-1.05a1.65,1.65,0,0,1,.47-2C120.35,129.52,122.12,130,123.2,131.53Z"/><path class="cls-2" d="M75.25,60.68c.23.67,1,1.06,1,1.88a11.63,11.63,0,0,1-3.69.63c.13-.65.27-1.3.4-1.95A4.06,4.06,0,0,1,75.25,60.68Z"/><path class="cls-2" d="M101.15,45.46c.23-1,1.63-2.24-.65-2.57.53-.33,1.06-.68,1.61-1,.7-.38,1.22,0,1.61.54a.93.93,0,0,1-.3,1.43C102.64,44.38,102.28,45.48,101.15,45.46Z"/><path class="cls-2" d="M46.62,176.11c.54-.84.67-2,1.79-2.37,0,1.41,0,2.83,0,4.25H46.62Z"/><path class="cls-2" d="M78.55,79.55c-.19,1.07-1.1,1.11-1.89,1.31l-2.32-1.07a3.55,3.55,0,0,1,2-1Z"/><path class="cls-2" d="M31.76,126.31c.75-.43,1.35-.52,1.37.64,0,.62,0,1.25.06,1.87s-.23,1-.76,1-.73-.53-.75-1C31.66,128,31.73,127.17,31.76,126.31Z"/><path class="cls-2" d="M118.84,128.63a3.39,3.39,0,0,1-.47,2,5.71,5.71,0,0,1-.92-.67c-.55-.59-1.57-1.23-.72-2.09C117.73,126.83,118.32,127.85,118.84,128.63Z"/><path class="cls-2" d="M99.7,92.78a2.1,2.1,0,0,1,.46.08c.68.32,1.6.41,1.73,1.35a1.21,1.21,0,0,1-.93,1.21c-1,.34-1.29-.57-1.78-1.14A1.51,1.51,0,0,1,99.7,92.78Z"/><path class="cls-2" d="M99.7,92.78c0,.56,0,1.14-.52,1.5l-2.31-.59a1.29,1.29,0,0,1-.06-1.88Z"/><path class="cls-2" d="M114.57,87c-.22-.08-.45-.15-.66-.24-.76-.32-1.42-.74-1.34-1.72,0-.4.15-.86.56-1,.92-.22,1.44.41,1.89,1.09A2,2,0,0,1,114.57,87Z"/><path class="cls-2" d="M117.85,169c-.3.55-.44,1.2-1.06,1.52l-1.76-2.1a1.57,1.57,0,0,1,1.79-.88A2.31,2.31,0,0,0,117.85,169Z"/><path class="cls-2" d="M117,94.64c-.9.1-1.69.31-1.5,1.5a14.13,14.13,0,0,1-1.6-.31.78.78,0,0,1-.58-.92.89.89,0,0,1,.9-.65A5.87,5.87,0,0,1,117,94.64Z"/><path class="cls-2" d="M114.57,87c0-.65-.26-1.36.45-1.83.78.34,2.18.28,1.77,1.57S115.34,87,114.57,87Z"/><path class="cls-2" d="M78.62,150.21c-.73.4-1.56.65-2,1.47-.65-1-.76-1.93.44-2.54S78.47,149.33,78.62,150.21Z"/><path class="cls-2" d="M96.81,91.81l.06,1.88c-.48-.37-1-.7-1.44-1.1s-.63-1-.06-1.38C96.11,90.65,96.65,90.83,96.81,91.81Z"/><path class="cls-2" d="M118.25,172.35l2-.08c.43.46.71,1.06,0,1.35C119.19,174.08,118.54,173.43,118.25,172.35Z"/><path class="cls-2" d="M70.5,147.36c-1.76,0-1.34,1.43-1.51,2.45a13.81,13.81,0,0,1-.66-2c-.15-.8.62-1.05,1.12-1.3C70.16,146.18,70.39,146.76,70.5,147.36Z"/><path class="cls-2" d="M107.31,13.66c0,.55,0,1.11.07,1.66l-1.45.44c-1.32-.46-.61-1-.07-1.54Z"/><path class="cls-2" d="M72.86,150.74a4.34,4.34,0,0,1-2.38-3.37A5.69,5.69,0,0,1,72.86,150.74Z"/><path class="cls-2" d="M105.86,14.22c-.08.52-.68,1.06.07,1.54-.54.45-1.15.74-1.41-.18S105,14.25,105.86,14.22Z"/><path class="cls-2" d="M159.5,108.23a3.32,3.32,0,0,1-3.3,0Z"/><path class="cls-2" d="M147.06,55.89c0-.16,0-.32.05-.48l1.06,0a2,2,0,0,1,1.82.39Z"/><path class="cls-2" d="M128.42,135.4A2.14,2.14,0,0,1,126.5,134,2.55,2.55,0,0,1,128.42,135.4Z"/><path class="cls-2" d="M73.86,152.14c-1,0-1-.69-1-1.4A1.38,1.38,0,0,1,73.86,152.14Z"/><path class="cls-2" d="M155.58,110.07h2.68A2.75,2.75,0,0,1,155.58,110.07Z"/><path class="cls-2" d="M73.36,51.65,73.27,55a6.31,6.31,0,0,1-2.82.44l-1.4-1.88C70.77,53.56,71.75,51.87,73.36,51.65Z"/><path class="cls-2" d="M71.36,38.71l-.48,3.79C70.3,41.14,70,39.81,71.36,38.71Z"/></g></g></svg>