<svg xmlns="http://www.w3.org/2000/svg" viewBox="0 0 164.31 210.61"><defs><style>.cls-1{fill:#1d1d1b;}.cls-2{fill:#f5f3bf;}.cls-3{fill:#f6f3bf;}</style></defs><g id="Capa_2" data-name="Capa 2"><g id="Capa_1-2" data-name="Capa 1"><path class="cls-1" d="M1.08,93.64C-.53,84.87.47,76,.06,67.21c-.41-8.57,1.41-16.55,4.46-24.39a6.66,6.66,0,0,1,2.21-3.29c2.21-.53,2.42-2.47,2.79-4.19.11-.52-.68.37-.95-.13a6.82,6.82,0,0,1,2-4.28c1.57.48,1.6-.35,1.27-1.49A1.5,1.5,0,0,1,13,28.53c1.29-.14,1.45.87,1.42,1.67,0,1,.63,1.06,1.21,1.36.71,2.72-.64,4.71-2.36,6.55-.91.41-.93-.51-1.32-.89-1.65,1.33-.6,2.61,0,3.9a9.18,9.18,0,0,1-2.83,5.24c-1.48-.55-.4-1.68-.55-2.41a14.41,14.41,0,0,0-1.9,5.7c-.06.69-.42,1.48.76.5.34-.29.72.67.77,1.2.16,1.58,0,3.16.18,4.75-.61,13,0,26.06-1.05,39.06C4.78,98,6.86,101,7,104c0,.59.61-.19.82.18a1.59,1.59,0,0,1,.3,1,5.65,5.65,0,0,0,1.46,5.62c4,5.94,5.51,12.79,7.06,19.59.49,2.14,1.62,4.17,1.45,6.46-.38.79-.92,1.27-1.87,1-1.2-.18-1.32-1.36-1.8-2.12a38.07,38.07,0,0,1-4.94-11.54c-.75-3.17-2.37-6.16-3.8-9.14a26.27,26.27,0,0,1-2.27-8.4c-.58-1.4-.19-3.1-1.36-4.31l-.15-.83C2.1,98.77,1.25,96.24,1.08,93.64Z"/><path class="cls-2" d="M116.24,64.82c.93.56,1,1.58,1.3,2.46,3.78,11.9,7.46,23.83,11.32,35.7a523.18,523.18,0,0,0,20.94,53.79,54.09,54.09,0,0,1,4.86,15.9c-1.89,0-2.46-1.6-3.13-2.83a76.46,76.46,0,0,1-5-11.75,15.8,15.8,0,0,0-1.71-3.62,22.78,22.78,0,0,0-3.18-8.94c-2.4-4.17-3.38-8.95-5.72-13.12-1.61-2.86-2.72-5.93-4.15-8.86-1.32-4.81-4.2-9-5.68-13.75a27.87,27.87,0,0,0-.53-12.48,17,17,0,0,0-2.94-6.18A33.87,33.87,0,0,1,117.88,84a8.63,8.63,0,0,0-.55-3c-2.17-4.51-2-9.36-2.08-14.17C115.36,66.05,115.25,65.16,116.24,64.82Z"/><path class="cls-1" d="M160.76,185.62c2.5,3.21,3.17,7.09,3.52,10.92.37,4.1-2.2,6.58-5.61,8.55a22.27,22.27,0,0,1-7.76,3,1.1,1.1,0,0,1-.95.13c.25-1.75-.2-2.61-2.13-1.77a1.57,1.57,0,0,1-1.36-.12c-1.23-.73.35-1.38.05-2.08.51-.61,1.27-.61,1.94-.84,5.79-2,8.9-6.31,9-12.42a12.77,12.77,0,0,1,.24-3.8A2.93,2.93,0,0,1,160.76,185.62Z"/><path class="cls-1" d="M51.3,174.06c-2.09-.61-3.46-2.32-4.58-3.87C44.39,167,41,165.24,38,162.9c-2.63-2.1-5.34-4-7.44-6.7-1.07-1.36-2.53-2.33-3.72-3.6a8.25,8.25,0,0,1-2-3.4c.12-1.77,1.43-1.48,2.56-1.5,2,.49,3.09,2.22,4.49,3.45,6.56,5.8,13.53,11.13,19.65,17.42A38.53,38.53,0,0,1,54.55,172c.48.63,1.09,1.24.52,2.13A3.21,3.21,0,0,1,51.3,174.06Z"/><path class="cls-1" d="M145.17,154.35c2,1.6,1.82,4.22,2.84,6.28,2,4.12,2.88,8.88,6.65,12l.5,1.89c1.13,2.91,1.85,5.83.37,8.85-1,.86-1.63,0-2.13-.66-6.3-7.8-10.48-16.48-10.91-26.69A3,3,0,0,1,145.17,154.35Z"/><path class="cls-1" d="M116.24,64.82c-.67.56-.17,1.35-.42,2a18.51,18.51,0,0,0-.42,2.32c-.21,1.2-.47,2.49-1.84,2.77s-2-.94-2.5-2.05c-1.51-5-2.6-10.13-4.18-15.12-1-3-2.08-6-3.17-9a9.07,9.07,0,0,1-.78-3c0-1.14,1-1.63,1.56-2.42a1.76,1.76,0,0,1,1.51,1,90.35,90.35,0,0,1,9.4,19,4.07,4.07,0,0,1,.07.71C115.72,62.34,116,63.58,116.24,64.82Z"/><path class="cls-1" d="M146.56,206.14a6.35,6.35,0,0,0,1.79-.45,1.59,1.59,0,0,1,2.39.61c.81,1.13-.86,1-.94,1.69a9.39,9.39,0,0,1-4.73.85c-1.15,0-2.35-.2-3.23.84a35.79,35.79,0,0,1-9.13.47c-3.66-.62-7-2.34-10.79-2.69-1.25-.12-2.54.13-3.76-.29a14,14,0,0,1-6-1.45,2.93,2.93,0,0,1-2.3-.18c-2.91-1-6-1.43-8.86-2.72l-1.87-1c-.66-1.25-.52-1.41,1.43-1.73,1.19.22,2.34.56,3.51.81a43.06,43.06,0,0,1,5,1.5,33.37,33.37,0,0,1,4.8,1.3c3.47,1.26,7.05,0,10.57.37a15.11,15.11,0,0,1,4.17.64c1.82.44,3.56,1.25,5.56,1.27-.34-.43-1.11-.46-.93-1.12s.7-.57,1.16-.65a13.62,13.62,0,0,1,2.12-.09,3.55,3.55,0,0,1,1.7.34c1.14.39-1,1.5.37,1.79a1.81,1.81,0,0,0,2.21-.9c.3-.55,1.09-.76,1.42-.4C143.44,206.31,145.14,205.66,146.56,206.14Z"/><path class="cls-1" d="M39.29,7c4.5-2.52,9.54-3.6,14.33-5.34,4.7-1,9.27-1.1,13.83.88,3.1,1.36,6.6,1.54,9.75,2.86a2.23,2.23,0,0,1,.33,2,2.92,2.92,0,0,1-3.25,1.5c-3.23-.42-6.47-.91-9.4-2.48C65,5.12,65,5.12,67,5a5,5,0,0,0-1.12-.3c-1.14-.22-2.45-1-2.87,1-.09.43-1,.47-1.46.69-.21.1-.44.18-.66.26a3,3,0,0,1-1.84.1,28.76,28.76,0,0,0-17,.55c-.82.27-1.6.76-2.51.4A.46.46,0,0,1,39.29,7Z"/><path class="cls-1" d="M51.3,174.06c1.26-.2,2.65.53,3.81-.5,2.43,0,3.77,1.93,5.21,3.37a40.72,40.72,0,0,0,9.78,7.51c1.2,1.49,3,2,4.58,2.88.86.49,2,.72,2.08,2-.67.78-1.26,1.7-2.53,1.5A54.51,54.51,0,0,1,56,178.74C54.46,177.17,52.24,176.26,51.3,174.06Z"/><path class="cls-1" d="M97.78,22.27c4,5.26,6.19,11.43,9.14,17.22-.91.57-1.84.11-2.76.06-1.37-.33-1.89-1.58-2.71-2.52-1.8-2.07-3.1-4.6-5.6-6-.92-.83-1-2.07-1.49-3.1A5.94,5.94,0,0,1,94,24.08a7.78,7.78,0,0,0,1-1.46C95.63,21.49,96.66,21,97.78,22.27Z"/><path class="cls-1" d="M39.29,7v.43c.15,1-.74,1.34-1.36,1.73C31.41,13.36,27,19.27,23.66,26.12c-.56,1.14-1.07,2.31-1.74,3.39-.45.71-.89,1.66-2,.81-.27-2.49.76-4.66,1.68-6.85a4.62,4.62,0,0,0,1.29-3.37,2.66,2.66,0,0,1,1-2.21c4-3,6.42-7.92,11.63-9.44C36.83,8.08,38.05,7.51,39.29,7Z"/><path class="cls-1" d="M103.93,39.06a6.36,6.36,0,0,1,3,.43c1.46-.11,1.84,1.54,2.07,2.09,1.22,3,3.32,5.53,4.23,8.7.84,2.94,1.8,5.82,2.39,8.83a2.41,2.41,0,0,1-.14,2c-2.59-4.81-4.23-10.08-7.17-14.71-1.26-2-2.06-4.29-3.9-5.9C103.34,40.31,103.55,39.72,103.93,39.06Z"/><path class="cls-1" d="M100.58,200.41c-.65.29-2-.09-1.44,1.39l-12-3.43a3.51,3.51,0,0,1-2.35-1.79c-1.37-2-3.91-1.71-5.7-2.88l-.52-.5c.15-1.76,1.52-1.41,2.63-1.51a20.54,20.54,0,0,1,5.4,2.05,6.33,6.33,0,0,1,.83.61,6,6,0,0,0,3.23,1.42,20.1,20.1,0,0,0,3,.83A26.17,26.17,0,0,1,98.4,198C99.41,198.48,100.72,198.83,100.58,200.41Z"/><path class="cls-1" d="M23.92,17.89a4.65,4.65,0,0,0-.42,2.51A3.2,3.2,0,0,1,22,23.8a4.54,4.54,0,0,0-3,2.94c-1.19,1.56-1.59,3.75-3.62,4.66l-1.05,1.41c-.93-1.54.4-3.39-1.36-4.28,1.75-4.45,6-6.7,9-10C22.47,17.89,23.26,18.11,23.92,17.89Z"/><path class="cls-1" d="M97.78,22.27c-2.37-.43-2.79,0-2.32,2.17-.63.18-.67-.59-1.11-.7-3-1.58-4.56-4.28-5.54-7.39a2.54,2.54,0,0,1,.73-3,3,3,0,0,1,3.34-.12A35.41,35.41,0,0,1,97.78,22.27Z"/><path class="cls-1" d="M27.87,148.19c-1.05.13-2.32-.35-3,1A15.43,15.43,0,0,1,18.83,142c-.61-1.61-2.79-2.17-2.63-4.22l1.66-1.18a1.4,1.4,0,0,1,1.67.58c2.6,3.08,5.21,6.16,7.74,9.3A2,2,0,0,1,27.87,148.19Z"/><path class="cls-1" d="M77,5.68A62.37,62.37,0,0,1,64,2.13C60.46.7,57.05,2,53.62,1.69,61.11-1.54,68.12.27,75,3.71l2.13,1C77.38,5.08,77.41,5.4,77,5.68Z"/><path class="cls-1" d="M155.13,183.74c.93-3.05.36-6.12,0-9.18,2.35,3.44,5.31,6.57,5.6,11.06L158,187c-1.52.14-1.87-1.19-2.59-2.06A1.46,1.46,0,0,1,155.13,183.74Z"/><path class="cls-1" d="M82.36,7.06c2.85-.39,4.47,1.64,6.33,3.22-.38.74-.08,1.71-.82,2.33C84,14,80.93,12.55,79.8,8.77,80.19,7.5,81.77,8,82.36,7.06Z"/><path class="cls-1" d="M81.57,192.19c-1,.24-2.35-.35-3,1-1.45-.78-3.65-.18-4.33-2.36.86-.31,1.23-1.41,2.27-1.43A6.87,6.87,0,0,1,81,190.55C81.52,191,81.88,191.48,81.57,192.19Z"/><path class="cls-1" d="M118.16,207.17a24.43,24.43,0,0,1,14.55,3c-.67.78-1.5.36-2.2.17A125.52,125.52,0,0,0,118.16,207.17Z"/><path class="cls-1" d="M101,202.82c3.9.27,7.51,1.64,11.16,2.9-.34.5-.94.88-1.4.72C107.48,205.34,103.71,205.5,101,202.82Z"/><path class="cls-1" d="M88.13,12.22c-.38-.81-.95-1.67.56-1.94,2.11,0,3,1.6,4.19,2.94a7.94,7.94,0,0,0-3.38.47C88.51,13.71,87.94,13.32,88.13,12.22Z"/><path class="cls-1" d="M82.36,7.06c.07,2-1.46,1.17-2.4,1.38a2.06,2.06,0,0,1-2.81-.91c0-.62-.08-1.23-.13-1.85l.09-.94C78.41,6.52,80.7,6.08,82.36,7.06Z"/><path class="cls-1" d="M8.57,35.21,10.2,34a9.71,9.71,0,0,1-1.09,4.61c-.5,1-1.13,1.78-2.38,1Z"/><path class="cls-1" d="M141.84,209.68a2.11,2.11,0,0,1,2.6-1.52c1.86.47,3.58-.25,5.36-.17l1.11.11C148.12,209.93,144.9,209.35,141.84,209.68Z"/><path class="cls-1" d="M79.08,193.7c2.28.21,4.71.11,5.7,2.88-1.4-.48-2.79-1-4.19-1.41C79.82,194.92,79.05,194.74,79.08,193.7Z"/><path class="cls-1" d="M1.08,93.64c.7,2.55,1.85,5,.8,7.77A16.55,16.55,0,0,1,1.08,93.64Z"/><path class="cls-1" d="M2,102.24c.35-.18.86-1.16,1,0,.2,1.43.79,2.85.34,4.34C2.59,105.22,1.78,103.9,2,102.24Z"/><path class="cls-1" d="M11.85,29.44c.59.06,1.16.22,1,1A2.13,2.13,0,0,1,11.54,32c-.76.27-.35-.93-1-1A2.6,2.6,0,0,1,11.85,29.44Z"/><path class="cls-1" d="M9.05,46.22c-1.29,3-.65,6.18-1.31,9.23V50.39c-.84.66-.37,1.74-1.18,2a9.25,9.25,0,0,1,2.75-9.74C9.66,43.94,8.35,45,9.05,46.22Z"/><path class="cls-1" d="M6.65,96c-.12,2.76.74,5.42.95,8.15-.54.7-1,.7-1.17-.23-.41-2.16-.7-4.34-1.16-6.49C5,96.15,6.5,96.79,6.65,96Z"/><path class="cls-1" d="M12.87,38.08,11.52,41c0-1-1.85.37-1.39-1.1s.56-3.3,2.41-4.06C13.13,36.59,12,37.47,12.87,38.08Z"/><path class="cls-1" d="M7.74,105c.81,1.87.84,3.91,1.32,5.85A4.72,4.72,0,0,1,7.74,105Z"/><path class="cls-1" d="M118.21,84.11c4.05,5.58,8.64,10.85,8.93,18.33a26.36,26.36,0,0,1-.76,7.48c-1.27,2.14-2.44,2.69-4.62,2.13-1-.27-2.07-.84-3.1,0a3.28,3.28,0,0,1-2.52-3.33c0-.39,1-.26.45-.95a1.46,1.46,0,0,1,.11-2c.18,0,.23-.1.11-.22a.33.33,0,0,1-.27.3,24.38,24.38,0,0,1-3,.07c-3.49-1.64-5.76-6.12-4.93-9.72.14-.64.32-1.26,1.12-1.34,1.08.68,2.2-.51,3.46.11.44.23.91-1.42.61-2.4s-.84-2-1.12-3.12a2.77,2.77,0,0,1,.48-2.68C114.8,85.76,116,84,118.21,84.11Z"/><path class="cls-1" d="M145.17,154.35c-.58.84-1.6,1-2.38,1.52a2.26,2.26,0,0,1-1.71-1.17c-5.71-8.11-10.7-16.56-12.19-26.61a8,8,0,0,1,0-3.54,2.43,2.43,0,0,1,3.39-1.29q6,13.33,12,26.68A8.47,8.47,0,0,1,145.17,154.35Z"/><path class="cls-1" d="M118.21,84.11,113.55,87a6.54,6.54,0,0,0-1.37-1.36c-.48-1.54-.23-3.16-.57-4.73a8.82,8.82,0,0,0-6.67-7,22.37,22.37,0,0,1-4.33-1.33c-1.13-.59-2.33-1.16-2.28-2.74.74-1.65,2.24-1.1,3.48-1.11s2.17.09,2.74-1.14c2.72-.65,5.16-.36,7,2.07.55.69.52,2,1.76,2s1.16-1.32,1.53-2.14.68-1.73,1-2.6c.47,2.7,0,5.43.36,8.17a31.13,31.13,0,0,0,1.93,6.23A4.81,4.81,0,0,1,118.21,84.11Z"/><path class="cls-1" d="M132.32,123.26c-1.22.1-2.37.33-3,1.52-.16.06-.35.1-.45,0-3.89-3.9-7.64-7.91-10.1-12.92.14-1,.57-1.41,1.57-.86a4.53,4.53,0,0,0,6.07-1.08c1.92,3.89,4.2,7.63,5.23,11.9A3,3,0,0,0,132.32,123.26Z"/><path class="cls-1" d="M138.39,204.82l8.07-.15c.52.45-.57,1,.1,1.47-1.57.23-3.36,1.57-4.44-.86a1.08,1.08,0,0,0-.88.07c-2.15,1.89-2.14,1.9-4.42.76C137,205.29,138,205.41,138.39,204.82Z"/><path class="cls-3" d="M155.53,184.55c-.26.39-.69.73-.77,1.15-1.92,10-8.39,15.4-17.73,18.07a6.47,6.47,0,0,0-1,.48c-1.12.48-2.36,0-3.49.41-5.38-.48-10.33-2.59-15.41-4.17-6.84-2.13-13.73-4.11-20.44-6.63a3.73,3.73,0,0,1-.6-.37c-1.55-1.62-3.73-1.92-5.69-2.7a47.17,47.17,0,0,0-4.72-3A4.05,4.05,0,0,0,83.22,186a4,4,0,0,1-1.08-.66,7,7,0,0,0-2.82-2,12.5,12.5,0,0,1-2.47-1.86c-7.85-8-16.53-15.19-24.29-23.31a18.86,18.86,0,0,1-2.24-2.48c-1.73-2.16-3.84-4-5.51-6.21a5.8,5.8,0,0,1-1.24-2,4.53,4.53,0,0,0-.84-1.72c-1.85-3.14-3.94-6.13-5.83-9.24-1.13-1.79-2.17-3.63-3.29-5.41-1.83-2.71-3-5.85-5.24-8.27-3-6.36-6.45-12.54-8-19.5a12.61,12.61,0,0,0-.82-2.73,164.18,164.18,0,0,1-4.24-20.38,6.69,6.69,0,0,1,.29-2.81c.88-3.09.25-6.28.66-9.39a46.07,46.07,0,0,1,1.75-8c2.41-8.25,4.46-16.61,6.87-24.86,2.25-7.74,5.94-14.58,12.69-19.4A33,33,0,0,1,45,11.94,129.8,129.8,0,0,0,57.53,6.77a3.61,3.61,0,0,1,1.86-.36l1.39-.27c5,1.08,9.58,3.49,14,6.05a83,83,0,0,1,20.13,15.9L96.24,31c2.11,3,3.9,6.16,6.68,8.6,1,.83,0,2,.49,2.92,2,6.19,4.46,12.22,6,18.56.68,2.86,1.42,5.7,2.13,8.55a11.34,11.34,0,0,0-7.13-1.77c-.89.57-1.69,0-2.48-.25-9-3.14-17.65-2.33-26.08,1.86-1.65.93-3.24,1.91-3.7,4.25,2-1,3.27-2.73,5.31-3.12,6-.53,12-1.75,18.09-1.58,1.09,0,2.27-.19,3.1.84.6,1.87,2.27,2.24,3.84,2.72,1.36.41,2.79.63,4.1,1.16,4.21,1.7,5.75,5.16,6,9.42,0,1,0,1.9,0,2.85a.68.68,0,0,1,.15.85c-1.63,2.49-1.87,5.42-2.55,8.2-1-.07-.91.63-1,1.26a9.61,9.61,0,0,0,4.73,9.35c1.31.52,2.59,1.07,2.41,2.85a5.37,5.37,0,0,0,2.4,3.37c3.43,4.38,6.74,8.85,10.55,12.92.16,6.66,2.39,12.71,5.42,18.52a87.83,87.83,0,0,0,8.08,12.57c.74,5,1.59,10,3.78,14.73a50.07,50.07,0,0,0,8.56,13.14Z"/><path class="cls-1" d="M103.41,42.49a7.1,7.1,0,0,0-2.43-4A17.3,17.3,0,0,1,96.24,31c1.71.06,2.3,1.58,3.22,2.6,1.57,1.75,3,3.65,4.47,5.49,0,.53-.09,1.09.47,1.43C104.81,41.52,103.4,41.66,103.41,42.49Z"/><path class="cls-1" d="M113,70.65c-.81-1-1-1.76-.53-2.84A1.9,1.9,0,0,1,113,70.65Z"/><path class="cls-1" d="M96.32,193.17q15.9,5.36,32,10.09c1.27.38,2.57.65,3.85,1-.67,1.86-2.09,1.18-3.36,1l-4.3-.49c-2.26-.69-4.68.27-6.92-.63-1.48-2.25-4-2.11-6.2-2.63s-4.47-1.2-6.68-1.93c-2.52-1-5.2-1.35-7.76-2.18-1.65-.53-3.34-1.07-4.17-2.83.19-.9.92-.75,1.48-.64A1.91,1.91,0,0,0,96.32,193.17Z"/><path class="cls-1" d="M108.73,202.88l1.89-.58c2.7-1,5,.2,7.19,1.48,2.13,1.08,4.59-.23,6.71.93-3.11-.31-6.23.66-9.32,0C113,204.22,110.88,203.49,108.73,202.88Z"/><path class="cls-1" d="M128.82,205.2a4.68,4.68,0,0,0,3.36-1l3.81,0,.61.41-3.11.15,1.87,1.14C132.82,207.41,130.88,205.8,128.82,205.2Z"/><path class="cls-1" d="M59.39,6.41A91,91,0,0,1,46.53,12C35,15.83,28.58,24.28,25.39,35.58c-2.3,8.16-4.53,16.34-6.79,24.51-1.5-.59-.71-1.69-.71-2.35-1.13,3-2.24,6.36-2.07,9.63-.24.63-.56.34-.26.47a.11.11,0,0,0,.17-.07c.19-.55.08-1.52.95-1.32.61.14.32.92.16,1.45-.14,3.31.14,6.64-.65,9.91-1.38-.58-1.16.89-1.72,1.36-1.09,1-1.85,1-1.79-.7a15.27,15.27,0,0,0-.43-3,69.35,69.35,0,0,1,.16-8.28c.32-8.16,1.93-16.17,3-24.25,1.14-3.72,2.79-7.27,3.66-11.08a1.58,1.58,0,0,1,1.13-1.4c1.28-.25,1.38-1.47,1.79-2.33,2.6-5.49,5.63-10.69,10-15,2.2-2.18,4.89-3.76,7.32-5.65,4.47-1.49,9-2.89,13.76-2.35C55.18,5.34,57.47,5,59.39,6.41Z"/><path class="cls-1" d="M64.68,6H61.31c-.19-.66,2.34.17.78-1.44-.23-.23,1.13-.94,1.9-.83A8.72,8.72,0,0,1,68.63,5.3C67.28,5.94,65.84,5,64.68,6Z"/><path class="cls-1" d="M59.42,5c-.23,0-.66.08-.58-.36,0-.2.4-.41.66-.48s.63,0,.62.41S59.76,5,59.42,5Z"/><path class="cls-1" d="M20.2,30.44c-1.44,4.22-2.21,8.7-4.79,12.48.26-4.14,1.93-7.93,2.93-11.9.37-1.47,1.36-2.91.32-4.49.27-2,1.3-3,3.34-2.73A36.2,36.2,0,0,0,20.2,30.44Z"/><path class="cls-1" d="M87.17,194.66c1.2,0,2.49-.3,3.33,1,.13.11.17.22.13.33s-.09.16-.13.16C89.18,196.11,87.92,196,87.17,194.66Z"/><path class="cls-1" d="M90.5,196.12v-.49a5.16,5.16,0,0,1,2.89,1.43A4.52,4.52,0,0,1,90.5,196.12Z"/><path class="cls-1" d="M76.12,184.76a2.74,2.74,0,0,1-1.89-.13c-.89-1.67-2.43-2.71-3.8-3.9-12-10.41-23.33-21.45-32.44-34.56a94.05,94.05,0,0,1-10.24-18c-.06-1.59,1.09-1.75,2.24-1.91,2.1,1,2.49,3.32,3.82,4.9,1.23,1.74,2,3.74,3.29,5.46,1.73,3.08,3.8,5.94,5.73,8.89.23.75,1.1,1.09,1.21,1.92,1.79,3,4.52,5.21,6.61,8a104.64,104.64,0,0,0,7,9A157.42,157.42,0,0,0,71.82,180.2a16.7,16.7,0,0,0,3,2.41C75.53,183.08,76.55,183.49,76.12,184.76Z"/><path class="cls-1" d="M30.19,126.68a2.93,2.93,0,0,0-2.44,1.53,72.11,72.11,0,0,1-10.6-24.48c-1.16-5.42-3.41-10.56-4.36-16a13.19,13.19,0,0,1-.3-3.79c.27-2.53-.62-5-.41-7.49.12-.2.15-.48.44-.52,1.11,1,.87,2.17.41,3.34.77.46,1-.39,1.46-.42.91,1,.8,2.37,1,3.59.94,5.93,2.71,11.67,4.17,17.48.09.34.12.8.58.94,1.9,7.74,5.42,14.85,8.69,22C29.55,124,30.74,125,30.19,126.68Z"/><path class="cls-1" d="M12.52,75.88l-.44.52c-1-3.12-.18-6.17.33-9.23C12.1,70.08,13.51,73,12.52,75.88Z"/><path class="cls-1" d="M110.15,95c-.69-3,.53-5.56,1.89-8.07a3.52,3.52,0,0,0,.51-1c1.2-.54.88.45,1,1-1,1.54-.1,2.87.47,4.23s1.24,2.63.19,4c-.42.53-.87,1.27-1.66,1.12s-.25-1.11-.67-1.57C110.54,96.18,110.54,96.18,110.15,95Z"/><path class="cls-1" d="M116.34,108.49c-.45-1.25-1.57-1.93-2.41-2.85,1-.81,1.95-.21,2.92,0h0a2.89,2.89,0,0,0,.35,2.33C117.63,108.84,116.86,108.64,116.34,108.49Z"/><path class="cls-1" d="M116.85,105.61c.35-.43.29-1.26,1.15-1.16.08,0,.2.24.19.37,0,1-.77.72-1.34.79Z"/><path class="cls-1" d="M113.35,103.44c.49,0,.62.26.7.54s-.1.34-.17.51a3.46,3.46,0,0,1-.65-.54C113.16,103.85,113.31,103.6,113.35,103.44Z"/><path class="cls-1" d="M98.63,69.83c-5.85-.63-11.6.47-17.38,1l-4.52.41c-1.39,0-1.73-.82-1.55-2A31.29,31.29,0,0,1,101,66.7l3.36,1.13c.63,1.15.58,1.82-1,1.62S100.12,68.57,98.63,69.83Z"/><path class="cls-1" d="M96.25,129.56a236.63,236.63,0,0,0,25.52,10.3,22,22,0,0,1,8,5c.39.37.76.78,1.17,1.13,1.5,1.29.83,1.89-.69,2.24-.93,0-1.58-.71-2.37-1a15,15,0,0,0-5.4-2.44c-6.38-1.72-12.92-2.86-19.16-5.09A22.39,22.39,0,0,1,95,134.4c-.92-1-2.93-.46-3.13-2.36-1-1.39-2.48-2-3.82-3a2.75,2.75,0,0,1-2.36-1.91c-.64-1-1.4-2-.64-3.35,1.5-.94,2.43.45,3.59.9,1.7,0,2.1,1.74,3.29,2.41C93.1,128.46,95,128.41,96.25,129.56Z"/><path class="cls-1" d="M76.12,184.76c-.43-1.65-2.21-1.68-3.19-2.67-2.53-2.53-5.19-4.94-7.57-7.61A225.18,225.18,0,0,1,51,156.83c-.31-.43-.92-.76-.35-1.4C59.93,165,70,173.82,79.52,183.14a12,12,0,0,0,2.9,1.93l.91.54a23.58,23.58,0,0,0,2.51,1.82,10.57,10.57,0,0,1,4.68,3c1.7,1.42,3.84,1.92,5.81,2.76h0c.46,1.31-.29,1.55-1.32,1.44a21.13,21.13,0,0,1-2.07-.43l-3.45-.9c-2.42-.72-4.09-2.89-6.62-3.41Z"/><path class="cls-1" d="M73.19,114.75A34,34,0,0,1,64,100.06a9.58,9.58,0,0,1-.23-1.62c.27-1.2,0-2.53.79-3.61.5-.68,1-1.48,2-1.21,2.08,6.83,6.18,12.7,9.08,19.14C75.92,115.06,75.52,115.38,73.19,114.75Z"/><path class="cls-1" d="M73.19,114.75c1.38,0,2.65-.11,2.5-2,1.85,2.57,4.42,4.42,6.64,6.61.66.65,1.51,1.12,1.87,2-2.27.61-.24,2.33-.87,3.36C79.74,121.65,75.57,119.11,73.19,114.75Z"/><path class="cls-1" d="M66.61,93.62c-2.23.85-1.72,3.32-2.84,4.82-.89-2.28-.36-4.6.08-6.82.69-3.47,1.76-6.87,2.76-10.66,1.64,2.85,1.3,5.41.81,8C67.13,90.5,66.88,92.06,66.61,93.62Z"/><path class="cls-1" d="M103.32,139.68c3.69.13,7.1,1.57,10.66,2.34,3.33.72,6.63,1.59,9.94,2.44,1.64.42,3.2,1,4,2.75-6.9-1.79-13.81-3.53-20.7-5.38C105.76,141.45,104.25,141,103.32,139.68Z"/><path class="cls-1" d="M20.14,100.81c0,.08,0,.18,0,.24a3.83,3.83,0,0,1-.29.28c-.44-1.25-.95-2.49-1.31-3.77-1.74-6.17-3.8-12.28-4.12-18.76L15,76.72l1.21,1.09c-.77,3,.32,6,.84,8.87C17.89,91.42,19.09,96.11,20.14,100.81Z"/><path class="cls-1" d="M16.84,67.9l-.16-1c-.86.31-.37,1.52-1.18,1.79-.77-4.31.44-8.2,2.43-12.12.67,1.24-.18,2.54.67,3.52Z"/><path class="cls-1" d="M75.18,69.2a3.47,3.47,0,0,0,1.55,2l-5.18,3.88C71.22,71.93,72.85,70.34,75.18,69.2Z"/><path class="cls-1" d="M130.25,148.26c.54-.61,1.9-1.11.21-2a1.52,1.52,0,0,1-.69-1.37c2.15.88,3.57,2.65,5.14,4.22.28.29.81.66.35,1.19a1.21,1.21,0,0,1-1.34.27C132.54,150.08,131,149.79,130.25,148.26Z"/><path class="cls-1" d="M83.33,124.78c.08-1.24-1.21-1.54-1.79-2.54a5.07,5.07,0,0,1,2.66-.82l1.53,1c.55.7,0,1-.47,1.35l.47,3.4A4.33,4.33,0,0,1,83.33,124.78Z"/><path class="cls-1" d="M42.72,145.82a47.37,47.37,0,0,1-5.91-8.91c-.27-.59.1-.65.54-.65,1.88,3.22,4.26,6.13,5.8,9.55C43,146,42.87,146,42.72,145.82Z"/><path class="cls-1" d="M30.19,126.68c-.45-1.28-.91-2.55-1.36-3.82,2.26,1.6,2.75,4.39,4.33,6.46A10.8,10.8,0,0,1,34,131c.24.49,0,.55-.42.49Z"/><path class="cls-1" d="M96.33,193.18c-2.41.08-4.46-.59-5.81-2.76C92.62,191,94.86,191.26,96.33,193.18Z"/><path class="cls-1" d="M33.61,131.46,34,131l3.32,5.29-.54.65C35.34,135.33,34.75,133.23,33.61,131.46Z"/><path class="cls-1" d="M96.25,129.56c-1.47-.73-3.75,0-4.28-2.43A5.39,5.39,0,0,1,96.25,129.56Z"/><path class="cls-1" d="M88.09,129.08c1.72.42,3.53.72,3.82,3C90.37,131.41,88.85,130.74,88.09,129.08Z"/><path class="cls-1" d="M85.26,123.77l.47-1.35c1.52.07,2.1,1.36,3,2.3Z"/><path class="cls-1" d="M82.42,185.07c-1.33-.09-2.65-.22-2.9-1.93A2.9,2.9,0,0,1,82.42,185.07Z"/><path class="cls-1" d="M85.84,187.43c-1.18-.13-2.27-.38-2.51-1.82A2.44,2.44,0,0,1,85.84,187.43Z"/><path class="cls-1" d="M42.72,145.82h.43a1.49,1.49,0,0,1,.89,1.65A3.5,3.5,0,0,1,42.72,145.82Z"/><path class="cls-1" d="M15.53,70.7a5.32,5.32,0,0,1-.12,4C14.08,73,14.08,73,15.53,70.7Z"/></g></g></svg>