<svg xmlns="http://www.w3.org/2000/svg" viewBox="0 0 212.05 147.14"><defs><style>.cls-1{fill:#f8ce8f;}.cls-2{fill:#1d1d1b;}</style></defs><g id="Capa_2" data-name="Capa 2"><g id="Capa_1-2" data-name="Capa 1"><path class="cls-1" d="M72.5,138.35a58.82,58.82,0,0,1-27.19-8C31.8,122.54,22,111.21,14.43,97.79A112.42,112.42,0,0,1,1.12,58C-.28,48.08,0,38.13,0,27.83l10.9,4.24.24.26c-.14,1.79-1.31,3.26-1.58,5-.46,1.3-.18,2.7-.52,4-.45,1.52-.17,3.08-.27,4.61a34.2,34.2,0,0,0-.58,6.93c.24,1.54-.09,3.13.42,4.65.37,1.67,0,3.42.52,5.07.32,1.58-.25,3.29.73,4.77,1.86,12,7.65,22.43,13.75,32.69a10.33,10.33,0,0,0,2.28,3.08,4.06,4.06,0,0,1,.43.5,29.75,29.75,0,0,0,5.8,6.66,20.46,20.46,0,0,1,1.69,1.53c1,.93,1.78,2.12,2.9,3,5.46,6,12.49,9.93,19.09,14.43,3.7,3.74,8.52,5.41,13.26,7.26C70.28,137,71.82,136.89,72.5,138.35Z"/><path class="cls-2" d="M192.51,133.21a35.51,35.51,0,0,1-7.72,5c-10,5.37-20.39,9.36-32.08,8.94-8.2-.29-16.42.15-24.61-.17a46.17,46.17,0,0,1-16.52-3.72c.11-1.35,1.21-1.35,2.15-1.57,4-.31,7.91.78,11.87,1.12a182.42,182.42,0,0,0,34.58.06,54.82,54.82,0,0,0,20.07-6.66,44.81,44.81,0,0,0,9.34-4.67,4.62,4.62,0,0,1,2.83-1.1C194.48,131.27,193.37,132.24,192.51,133.21Z"/><path class="cls-2" d="M113.55,142.24a2.79,2.79,0,0,0-2,1,11.47,11.47,0,0,1-3-.51c-6.09-2.89-12.57-1.56-18.89-1.86a80.06,80.06,0,0,0-9.3-.32c-1.61.11-2.91-1.1-4.41-1.55,1-1,2.21-.75,3.37-.78,4.85-.09,9.71.23,14.55-.44a4.61,4.61,0,0,0,2.28-.5c1.49-.5,3,.17,4.47,0a114.46,114.46,0,0,0,14.81-.54,44.22,44.22,0,0,0,7.85-2c3,.32,5.36-1.4,7.86-2.62a17.58,17.58,0,0,0,2.47-1.39,3,3,0,0,1,.63-.3,1.91,1.91,0,0,1,.45-.13c.88-.06,2.14-.88,2.56.11.55,1.28-1.12,1.33-1.78,2a3.64,3.64,0,0,1-.59.3c-1.56.79-3.6.84-4.38,2.84-2.14,2.08-5,2.56-7.67,3.5-1.23.06-2.47.09-3.33,1.2a6.7,6.7,0,0,1-.81.69,5,5,0,0,1-2.8.61,17.31,17.31,0,0,1-2-.07c-.16,0-.36-.13-.48,0s.06.24.18.33A.45.45,0,0,1,113.55,142.24Z"/><path class="cls-2" d="M139,61.76c3.22.27,5.92,2.08,8.92,3,6.69,2.14,13.14,5,19.62,7.64,0,1.22-1.47,1.18-1.75,2.14a3.06,3.06,0,0,1-.56.82,1.7,1.7,0,0,1-.62.22,1.44,1.44,0,0,1-.95-.25c-.26-.51-.51-1-1.12-.31a2.35,2.35,0,0,1-2-.45c-3.84-2.2-8.08-3.38-12.26-4.69-3.73-1.16-7.48-2.27-11.23-3.37A16.63,16.63,0,0,1,131,62.91c-.34-.68-1.42-1.17-1.12-1.93s1.48-.63,2.33-.74C134.67,59.92,136.7,61.47,139,61.76Z"/><path class="cls-2" d="M96.26,137.55c.34,1.69-1,.78-1.5.85-6.23.89-12.5.34-18.76.58l-3.5-.63c-3.89-1.45-7.9-2.65-11.5-4.77-2-1.16-4.33-1.89-5.5-4.14-.28-1,.38-1.4,1-1.82,3.08-.18,5.5,1.65,8.17,2.7,6.08,3.16,12.64,4.25,19.4,4.59a58.23,58.23,0,0,1,10.17,1.45A2.53,2.53,0,0,1,96.26,137.55Z"/><path class="cls-2" d="M37.86,35.08c1-.11,1.9-.17,2.83-.34a6.54,6.54,0,0,1,6.76,2.47,22.18,22.18,0,0,0,4.28,4.1c.77.51,1.69.2,2.51.47.64.16,1.27.38,1.91.57a8.52,8.52,0,0,0,4.3.57.84.84,0,0,1,.58.78c-.65,1.48-2.06,1.23-3.25,1.37A11.2,11.2,0,0,1,53.54,45c-.3-.08.1,0-.22,0s-.18.14,0,.31a.78.78,0,0,1-.32.52,3.17,3.17,0,0,1-1.66.27c-1.39-.22-2.87-.19-3.92-1.38-2-4.16-5.2-6.1-9.91-5.34a3.87,3.87,0,0,1-2.62-1c-.85-.82-2.27-.66-3-1.71a1.27,1.27,0,0,1,0-.67c1-.95,2.24-.69,3.47-.6A6.34,6.34,0,0,0,37.86,35.08Z"/><path class="cls-2" d="M84.78,10.14l-.82.55c-.8.51-.65,1.63-1.39,2.18-7.11,6.52-11.5,14.91-16.06,23.2-.35.86-.49,1.79-.81,2.66a2.07,2.07,0,0,1-.61.93c-1,.55-1.25-.09-1.42-.83a11.45,11.45,0,0,1-.12-2.55c.07-2.66,1.5-4.86,2.57-7.13C70,20.93,74.89,13.46,82.88,8.55,84.26,8.18,85.41,8.11,84.78,10.14Z"/><path class="cls-2" d="M93.87,13.92a17.87,17.87,0,0,1,8.19,6.85c2.31,3.83,4.11,8,7.12,11.39.65,1.43-.54,1.72-1.37,2.23-2.66.14-4.3-1-5.62-3.78,0-.71,0-1.48-.93-1.72a3.72,3.72,0,0,1-1.59-2.83c-.08-1.11.61-2.53-1.21-2.94a12.6,12.6,0,0,1-3.32-4.59c-.48-1.32-1.72-2.05-2.46-3.17C92.55,14.43,93,14,93.87,13.92Z"/><path class="cls-2" d="M53.08,33.9c.33-4.73,2.17-8.85,4.68-12.87,3-4.84,5.53-10,9.48-14.23A4.2,4.2,0,0,1,68,6.29c1.87-.43,1.65.74,1.46,1.9-1.14,2.21-2.81,4.09-4,6.29-.72.95-1.22,2.05-1.92,3a6.7,6.7,0,0,0-1.47,2.74,17,17,0,0,1-1.38,2.55c-.8,1.25-1.92,2.31-2.33,3.81A15.7,15.7,0,0,0,57,29.9c-.31.85-.57,1.72-.93,2.55a6.3,6.3,0,0,1-1.24,2.18c-.42.37-.85.78-1.45.5S53,34.37,53.08,33.9Z"/><path class="cls-2" d="M196.86,107.19c1,1.71,2.55,1.49,4,.91,2.68-1.07,5.08-.28,7.46.84,1.32.61,3.49,0,3.72,2.26.17,1.67-1,3-1.93,4.13-1.52,2-2.48,4.41-4.71,5.79-.55-.9.19-1.44.59-2.05.55-.84,1.28-1.6,1.08-2.73a5.3,5.3,0,0,1,.46-1.87c.79-1.17,1.34-2.28-.67-2.78-3.55-1.56-6.49-.86-9.12,2.08a27.55,27.55,0,0,1-4.71,4.3,4.15,4.15,0,0,1-2.52,1.18,1.24,1.24,0,0,1-1.23-1.07c.05-1.61,1.46-2.15,2.4-3.07,1.55-1.52,3.74-2.72,3-5.49C195,108.43,196,107.85,196.86,107.19Z"/><path class="cls-2" d="M179.1,74.31c1.82-.66,3.19.1,2.8,1.82-.63,2.73-.46,5.65-1.84,8.21-.61.85-1.62,1.2-2.36,1.89a5.29,5.29,0,0,0-.62,1.76c-1.11,2.79-3.32,4.91-4.59,7.61a1.93,1.93,0,0,1-1.72,1.06c-1.28-.18-1.61-1.11-1.74-2.2a11.29,11.29,0,0,1,2.28-4.86c1.9-2.52,3.9-5,4-8.38a2,2,0,0,1,1.42-2,1.19,1.19,0,0,1,1.38.91,12.73,12.73,0,0,1,0,2.23c.08-.72.06-1.27.1-1.82s.3-1.22.32-1.85a1.25,1.25,0,0,0-.73-1.44c-.67-.75-.24-1.31.37-1.74A1.83,1.83,0,0,0,179.1,74.31Z"/><path class="cls-2" d="M196.86,107.19c.09,1.42-1.49,1.49-2,2.44-1,.5-1.73-.07-2.39-.57-3.42-2.59-5.6-6.15-7.46-9.93a1.53,1.53,0,0,1,0-1.17,1.76,1.76,0,0,1,2.33-.79,2.62,2.62,0,0,1,2.18,1.24C192,101.33,194.43,104.26,196.86,107.19Z"/><path class="cls-2" d="M207.39,116.42c1,.94-.12,1.47-.41,2.19-.37.94-1.51,1.39-1.58,2.51-3.5,4.14-6.93,8.35-11.34,11.6a3.21,3.21,0,0,1-1.55.49c-.39-.81,1.71-1.69-.07-2.46.22-2.2,2.48-2.66,3.53-4.15A15.88,15.88,0,0,0,199.9,123a10.24,10.24,0,0,0,1.83-1.58,13.7,13.7,0,0,0,1.14-1,22.23,22.23,0,0,0,2.9-3.23,3,3,0,0,1,.46-.41A1.83,1.83,0,0,1,207.39,116.42Z"/><path class="cls-2" d="M119.28,44.56c1.71,3.95,6.2,4.92,8.65,8.08.23.87-.36,1.16-1,1.42a15.83,15.83,0,0,1-7.16-2.87,5.57,5.57,0,0,1-2.48-5.32C117.61,44.92,118,44,119.28,44.56Z"/><path class="cls-2" d="M79.57,1.87c.59,1.16.61,2.64,1.89,3.42.28.9-.33,1.27-1,1.63a1,1,0,0,1-.69-.1c-2.59-1.66-3.29-1.55-5.35.94-1,1.16-1.87,2.38-2.88,3.5a1.51,1.51,0,0,1-1.27.54,1.12,1.12,0,0,1-.81-1c0-1.7,1-2.92,1.81-4.27A3.94,3.94,0,0,1,71.69,6a16.69,16.69,0,0,1,2.54-2,6.11,6.11,0,0,0,2.29-2.11,1.25,1.25,0,0,1,1.23.24C78.5,2.92,79,2.3,79.57,1.87Z"/><path class="cls-2" d="M17.84,29.63a38.37,38.37,0,0,1,7.1,3.92c.24.77-.29,1.07-.83,1.36-2.16.48-3.86-.94-5.79-1.43-.89-.23-1.74-.85-2.6,0a1.79,1.79,0,0,1-.6.34A1.35,1.35,0,0,1,13.68,33a3.46,3.46,0,0,1,.41-2.21C14.89,28.86,16.48,29.63,17.84,29.63Z"/><path class="cls-2" d="M179.1,74.31c.42.49,1.19,1-.1,1.39-.7.21-1.69.3-.9,1.45a1.22,1.22,0,0,1,.23,1.5,1.28,1.28,0,0,1-1.75.46c-.56-1.89-1.81-2.62-3.77-3a41.53,41.53,0,0,1-7.59-1.82c.33-1.19,1.75-1,2.35-1.87,2.66-.13,5,1.13,7.46,1.81A6.74,6.74,0,0,0,179.1,74.31Z"/><path class="cls-2" d="M77.55,2.49l-1-.44a22.84,22.84,0,0,0-3,2.51,5.38,5.38,0,0,0-1.75,1.77l0,0c-.94.67-1.39,2.07-2.86,2,.07-.86.62-2-1-2C70.14,4,72.14,1.46,75.17.23a2.53,2.53,0,0,1,3.38,1.28A1.67,1.67,0,0,1,77.55,2.49Z"/><path class="cls-2" d="M37.86,35.08c-1.74,1.38-3.91.16-5.75.94-.64.39-1.4,0-2.34.36,0,0,.45.26.3,0,0-.07,0-.12.21-.1.6,0,1.25-.22,1.81.23.85.71,2.24.26,2.91,1.36-.66,1.07-1.74,1.08-2.8,1.17A38.61,38.61,0,0,0,28,39.2,3,3,0,0,1,26.15,38a2.7,2.7,0,0,1-.32-1.42,2,2,0,0,1,.3-1c.46-.48,1.54,0,1.66-1C31.13,35.16,34.5,34.94,37.86,35.08Z"/><path class="cls-2" d="M93.87,13.92c-.25.5-1,.7-.93,1.38a1.54,1.54,0,0,1-1.43.68c-3.43-.13-6.62-.93-9.14-3.47.45-.67.55-1.66,1.59-1.82.41,1.69,2,1.5,3.12,1.71a15.72,15.72,0,0,0,4.94.52C92.75,12.83,93.69,12.79,93.87,13.92Z"/><path class="cls-2" d="M128.88,57.55c-.09.62,0,1.28.78.83,1.64-.91,3.19.31,4.8.06.53-.09.95.43,1,1.07-.08,1.12-.88,1.28-1.71,1.1a9.65,9.65,0,0,0-5,.23,2.2,2.2,0,0,1-1.38-.3A4.46,4.46,0,0,1,125.22,59c-.44-1.76.62-2.52,2-3C128.27,56,128.53,56.81,128.88,57.55Z"/><path class="cls-2" d="M111.11,44.62c.34.59.93.39,1.44.47,0,1.21-1.16,1.26-1.85,1.79-3.29,1.84-6.14,4.4-9.63,5.91a2.78,2.78,0,0,1-2.42.09c-.68-1.26.43-1.66,1.12-2.21,1.47-1.2,3.42-1.63,4.83-2.93a47,47,0,0,0,4.55-3C109.79,44.46,110.41,44,111.11,44.62Z"/><path class="cls-2" d="M176.74,87.74a2.79,2.79,0,0,1,.45-1.91,2.48,2.48,0,0,1,2.32.39,3.79,3.79,0,0,0-.91,3.39,25.67,25.67,0,0,1,.29,3.72,3.5,3.5,0,0,1-2.64,2.18A2,2,0,0,1,175,94.3C174.91,91.93,176.79,90.09,176.74,87.74Z"/><path class="cls-2" d="M107.71,34.22c.28-.84,1.6-.93,1.47-2.06,1.54,1.11,3,2.26,3.35,4.31.56,1.23.23,2-1.14,2.21C109.29,37.92,107.68,36.74,107.71,34.22Z"/><path class="cls-2" d="M127.37,60c2.68-.25,5.46,1.22,8.06-.47.94,1.17,2.45,1.42,3.6,2.25-2.21.71-4.05-1.14-6.21-.88a21.51,21.51,0,0,1-2.54,0c-.06.91,1.67.69.94,1.83-1.84.43-3.49-.62-5.27-.67C124.42,60,126.62,60.48,127.37,60Z"/><path class="cls-2" d="M111.15,38.36c1.23-.06,1.4-.91,1.38-1.89,2.49,3.26,2.48,4.73,0,6.61-1-.31-2.17,0-2.94-1C110.28,40.94,110.31,39.48,111.15,38.36Z"/><path class="cls-2" d="M53.08,33.9c.33,1.75,1,.48,1.57.19a2.61,2.61,0,0,1,.54,2.43,52.34,52.34,0,0,1-1.08,5.69c-.91,0-1.87.14-2.38-.9,1.55-.34,1-1.54,1-2.47C52.6,37.17,52.19,35.49,53.08,33.9Z"/><path class="cls-2" d="M128.88,57.55c-1.08.1-.89-1-1.43-1.47-1.14-.52-1.2-1.34-.64-2.32a1.83,1.83,0,0,0,1.12-1.12C130.67,54.28,130.91,55.51,128.88,57.55Z"/><path class="cls-2" d="M80.43,6.71l1-1.42c3.1.89,4.24,2.56,3.32,4.85.06-1.71-.83-1.54-1.93-1A4,4,0,0,1,80.43,6.71Z"/><path class="cls-2" d="M119.28,44.56c-1.07,0-1.48.65-1.59,1.6a2.9,2.9,0,0,1-3.28.54,1.47,1.47,0,0,1-.48-1.76C115.64,43.87,117.35,42.65,119.28,44.56Z"/><path class="cls-2" d="M109.63,42.19c1,.25,2.25-.48,2.87.89l-1.39,1.54-1.8.54c-.82.2-1.17-.3-1.42-.95C107.87,43,108.24,42.16,109.63,42.19Z"/><path class="cls-2" d="M17.84,29.63c-1.25.27-2.93-.34-3.37,1.62-1.29-.54-1.14.83-1.68,1.27a1,1,0,0,1-.56.31,1.3,1.3,0,0,1-1.09-.64.32.32,0,0,1-.22-.12c.67-.53.65-1.4,1-2.07.57-1,1.09-2.24,2.58-.83C15.44,30,16.84,28.67,17.84,29.63Z"/><path class="cls-2" d="M178.58,93.5c-.05-1.3-1.11-2.6,0-3.89,1.54,1,1.79,2.77,2.41,4.3a1.62,1.62,0,0,1-1.46.76C178.94,94.52,178.47,94.25,178.58,93.5Z"/><path class="cls-2" d="M179.43,94.42l1.58-.51c.91,1.12,2.64.63,3.52,1.8-.53.81-1.52.9-2.24,1.42C179.77,97.13,179.3,96.68,179.43,94.42Z"/><path class="cls-2" d="M113.93,44.94l.53,1.59c-.21,1.89-1.56,1.86-3,1.78-.78-.35-.8-1.07-.85-1.78l1.9-1.44Z"/><path class="cls-2" d="M182.45,96.74c.2-1.36,1.35-.75,2.08-1,1.25-.1,2,.8,2.86,1.46a3.22,3.22,0,0,0-2.06,1C184,98.41,183.22,97.59,182.45,96.74Z"/><path class="cls-2" d="M27.79,34.59c.17.49.78,1,.29,1.48-.76.7-1.12-.55-1.79-.53-1.15.57-2,.38-2.42-.94a1.82,1.82,0,0,0,1.07-1.05C26.09,33.35,26.81,34.32,27.79,34.59Z"/><path class="cls-2" d="M77.55,2.49a.94.94,0,0,1,1-1c.37,0,.79-.08,1,.36-.11.63.14,1.53-.71,1.71C78.22,3.71,77.88,3,77.55,2.49Z"/><path class="cls-2" d="M179.51,86.22a3.41,3.41,0,0,1-2.32-.39,8,8,0,0,1,2.87-1.49A2.2,2.2,0,0,1,179.51,86.22Z"/><path class="cls-2" d="M23.5,100.61c-5.22-7.27-8.9-15.35-12-23.65a30.77,30.77,0,0,1-2-9.24c-.24-.77-.65-1.56.26-2.19,1.1-.15,1.25.72,1.47,1.44a27.17,27.17,0,0,0,1.16,3.28c.46,5.61,3.14,10.37,5.83,15.11a13.66,13.66,0,0,1,1,1.89c1,3.46,3.18,6.31,5,9.34A42.7,42.7,0,0,0,30,104.32a3.47,3.47,0,0,1,.57,1.62c-.18,1.32-.9,1.06-1.67.55a16.6,16.6,0,0,1-3.07-3v0A9.48,9.48,0,0,0,23.5,100.61Z"/><path class="cls-2" d="M56.53,128l-1,1.48c-6.75-4.28-13.91-8-19.13-14.33a9.22,9.22,0,0,0-2.87-3,3.18,3.18,0,0,1-1.43-1.4c-.42-.69-1.09-1.37-.12-2.15,1.12-.13,1.69.72,2.35,1.37a36.31,36.31,0,0,0,4.23,3.8,20.33,20.33,0,0,0,4.92,4.83c2.89,3.39,7.37,4.39,10.73,7.08C55,126.36,56.23,126.69,56.53,128Z"/><path class="cls-2" d="M7.61,52.76a29,29,0,0,1,.63-6.7c1.38.42,1,1.61,1,2.55.1,1.87-.21,3.79.75,5.55a12.47,12.47,0,0,1,.27,3.34,40.07,40.07,0,0,0,.15,6.57,1.62,1.62,0,0,1-.27,1.17c-.71.31-1.16.15-1.27-.67C8.82,64,9,63.35,8.67,62.8c-1.17-1.63-.3-3.47-.54-5.19C7.52,56,8.4,54.31,7.61,52.76Z"/><path class="cls-2" d="M32.2,108.7c-.68.64.16,1.37-.13,2a17.66,17.66,0,0,1-6.26-7.2c1.17.9,2.35,1.78,3.51,2.7.51.41.8.41.86-.32a.62.62,0,0,1,.64-.14C31.79,106.5,32.66,107.29,32.2,108.7Z"/><path class="cls-2" d="M9.5,54.18c-1.19-1.23-.75-2.79-.87-4.24-.12-1.29.42-2.66-.39-3.88-.15-1.65-.41-3.32.34-4.91a1.55,1.55,0,0,1,1,1.12c.3,1.24,0,2.55.46,3.77a8.42,8.42,0,0,1,.19,1.58c0,.82,0,1.64,0,2.47C10.08,51.47,10.75,53,9.5,54.18Z"/><path class="cls-2" d="M11.14,32.19a.83.83,0,0,1,.91.47,11.24,11.24,0,0,1-1.62,5.79c-1,0-.87-1-1.24-1.5A9.77,9.77,0,0,1,11.14,32.19Z"/><path class="cls-2" d="M9.19,37c1,.08.83.94,1,1.58.72,1.33.87,2.62-.27,3.82a.77.77,0,0,1-.77-.15l-.55-1.05C8.79,39.75,8.2,38.24,9.19,37Z"/><path class="cls-2" d="M23.5,100.61c1.49.41,2.44,1.25,2.32,2.94A4.07,4.07,0,0,1,23.5,100.61Z"/><path class="cls-2" d="M8.67,62.8c.94.52-.19,2.25,1.4,2.39a.28.28,0,0,1,.12.3c0,.11,0,.16-.08.16-.78.52-.39,1.38-.59,2.07C8.13,66.27,9,64.44,8.67,62.8Z"/><path class="cls-2" d="M33.5,112.12c1.69.29,2.36,1.56,2.87,3C35.09,114.43,34.46,113.11,33.5,112.12Z"/><path class="cls-2" d="M7.61,52.76c1.17,1.51.32,3.23.52,4.85C7.38,56.05,8.14,54.34,7.61,52.76Z"/><path class="cls-2" d="M111.62,135c-3.19,1.45-6.66,1.71-10,2.43-.38.08-.79.06-1,.45-1.48.37-2.86-.37-4.3-.37-5.45-1.58-11.08-1.9-16.68-2.36a38,38,0,0,1-15.38-4.5c0-.52.32-.68.71-.83,3-.22,5.69,1.29,8.62,1.45a201.84,201.84,0,0,0,23,2.66c4.28.21,8.54.9,12.85.44A2.61,2.61,0,0,1,111.62,135Z"/><path class="cls-2" d="M142.22,127.52a1.6,1.6,0,0,1,1.33-.62c.79-.39,1.21-.11,1.31.73-.81,1.74-2.58,2-4.1,2.66a4.72,4.72,0,0,0-2,.79,4.17,4.17,0,0,1-1.31.79l-2.31.44c.13-1.17,1.57-.86,2.2-1.81-1.27-.25-2.28.6-3.33.17a2.81,2.81,0,0,1,2.38-.91c.84-.33,1.84-.28,2.47-1.08.38-.47.92-.3,1.41-.34A7.73,7.73,0,0,0,142.22,127.52Z"/><path class="cls-2" d="M122.73,138.53c0,1.19.93.73,1.55.77,1.37.11,2.82-.29,4.05.65.2.87-.67.48-.94.8a13.12,13.12,0,0,1-5.77-.51c-.77-.38-1.68.17-2.42-.38C120,138.36,121.27,138.22,122.73,138.53Z"/><path class="cls-2" d="M123.94,135l10.05-4.4c-1.39,2-3.67,2.66-5.75,3.4C126.9,134.51,125.73,136.39,123.94,135Z"/><path class="cls-2" d="M135.12,132.28l-4.87,2.81C131.09,132.79,133.19,132.67,135.12,132.28Z"/><path class="cls-2" d="M113.49,141.36a.47.47,0,0,1,0,.46l-1.89-.61c.68-.56,1.26-.3,1.79-.32C113.73,141,113.77,141.11,113.49,141.36Z"/><path class="cls-2" d="M119.2,139.86c.81.1,1.7-.28,2.42.38l-2.88,0Z"/><path class="cls-2" d="M113.49,141.36c0-.16-.09-.32-.13-.47h2.71C115.3,141.52,114.31,141,113.49,141.36Z"/><path class="cls-1" d="M26.2,36.67,26.43,38c.45,2.16-.76,4.06-.92,6.12-.79,3.45-.58,7-.64,10.46a52.89,52.89,0,0,0,.73,10.93,11.77,11.77,0,0,0,.5,1.59c.81,3.89,1.38,7.85,3,11.52a88.86,88.86,0,0,0,8.57,14.86c1.68,2.38,4.29,3.77,6.59,5.46s4.53,3.26,6.66,5a49.31,49.31,0,0,0,4.86,3,2.9,2.9,0,0,0,3.69-.43c1.55-1.31,1.53-3.87,3.71-4.68a1.27,1.27,0,0,1,1.2,1.11c0,1.71-.9,3-1.75,4.41-.12.32-.49.51-.5.91a2.82,2.82,0,0,0,.77-1.11c.82-1.7,2.1-3.12,2.94-4.8a31.54,31.54,0,0,0,7.06-12.76c2.11-4.11,3.27-8.7,6.13-12.45.37-.43.77-.82,1.17-1.23a10.71,10.71,0,0,0,3.23-5.81,12.78,12.78,0,0,1,.52-1.2,23.47,23.47,0,0,0,1.47-3.28,33.07,33.07,0,0,0,3.15-5.52c.9-1.13.5-3,2.19-3.7,1.68.08,3.27.69,4.92.92a2,2,0,0,1,.79.6,3.84,3.84,0,0,0,1.73,1.83c1.06.64,2.24.48,3.39.6,1.45.16,2.39.73,1.78,2.43a6.58,6.58,0,0,0-.75,2.41c-.45,3-1.13,5.89-.7,8.91a224.61,224.61,0,0,0-1.62,23.33,27.91,27.91,0,0,0,.54,6.41c1,4.84-.74,9.71.34,14.51a4.29,4.29,0,0,0,.1,1.15c.88,2.1.09,3.24-2,3.68a34.76,34.76,0,0,1-7.21.08c-3.54-1.09-3.63-1.26-3.49-5.22a15.32,15.32,0,0,1,1.17-4.29,20.48,20.48,0,0,1,.09-3.23c.75-4.16.59-8.43,1.54-12.56a5.91,5.91,0,0,0,.37-2.73,21,21,0,0,1,.18-4,14.18,14.18,0,0,0,.31-4.36,14.64,14.64,0,0,1,.23-2.38,16.69,16.69,0,0,0,.73-5.75c0-1,.23-2,.21-3s.73-1.72.5-2.74A10.52,10.52,0,0,0,93.43,75c-.09.71,0,1.43-.13,2.14a10.23,10.23,0,0,0-.71,4.38c0,.65,0,1.31,0,2a83,83,0,0,0-1.09,8.89c-.55,1.71-.22,3.49-.32,5.23-.18,1.47-.49,2.92-.65,4.39-.56,1.82-.18,3.7-.33,5.54,0,.39-.14.77-.2,1.16a19.64,19.64,0,0,0-.27,5,13.89,13.89,0,0,0-1.15,5.3c0,2.61-.54,3.18-3.26,3.78a5.42,5.42,0,0,1-3.51-1,2.72,2.72,0,0,1-.32-2.35,20.42,20.42,0,0,0,1.68-6.23,176.51,176.51,0,0,0,4-19.85,20,20,0,0,0,1.29-8.2c-.61.48-.58,1.11-.76,1.63,0,.23-.11.45-.17.67-.27.8-.24,1.66-.53,2.46-1.86,5.67-2.73,11.55-3.68,17.42-1.13,2.22-.5,4.66-.91,7-.26,1.47-.46,3-.84,4.41-.27,1.21-.62,2.35-2.17,2.43-3-.8-5.59-2.58-8.39-3.87a15.81,15.81,0,0,0-3-2c-.29-.17-.56-.36-.83-.55-1.27-.84-2.37-2-4-2.33a12.08,12.08,0,0,0,3,3c5.59,4.46,11.47,8.3,18.8,9.28a74,74,0,0,0,13.31.12,5.23,5.23,0,0,0,3.44-1.49c.86-1.88.49-3.87.55-5.82.08-2.75-.08-5.5.09-8.25a10.55,10.55,0,0,0,0-4A42.76,42.76,0,0,1,102.61,89c1.3-.25,1.3-.25,2.19,2a10.56,10.56,0,0,1,.72,3.81,7.32,7.32,0,0,0,.26,2.55,9.62,9.62,0,0,1,.21,1.85,7.14,7.14,0,0,0,.3,2.56,10.92,10.92,0,0,1,.19,2.28,46.65,46.65,0,0,0,.92,10.21,8.86,8.86,0,0,0,.94,3.41c1.48,2.05,3.78,1.64,5.8,1.75a10.08,10.08,0,0,0,3.7-.49c2.83-.33,5.67-.57,8.5-.89,5.78-.66,10.28-3.49,14.52-7.08.25-.21.47-.44.7-.65,3.48-3.1,3.65-3.95,1.67-8.19A22.54,22.54,0,0,0,140,96a2.83,2.83,0,0,1-.4-1.7.92.92,0,0,1,1.12-.62,16.47,16.47,0,0,1,4.13,3.9,4.69,4.69,0,0,0,3.43,1.9c5.94-1,9.88-4.45,12.08-10,1.7-4.28,3.47-8.55,3.87-13.22a1.44,1.44,0,0,1,.57-1,1,1,0,0,0,.35,0c2.61-.2,5,.83,7.41,1.54,1.2.35,1.44,1.45,1,2.55-3.08,7.49-5.46,15.31-10,22.13a38.83,38.83,0,0,1-9.84,9.63c-6.18,4.48-12.33,9-18.63,13.31a8.24,8.24,0,0,0-2.65,2.15c-2.79,2.37-6.41,2.87-9.63,4.26a13.83,13.83,0,0,1-1.58.5c-12.19,3.39-24.46,3.07-36.79.9-2.73-.49-5.52-.62-8.28-.95a25.55,25.55,0,0,0-4.81-1.24,39.67,39.67,0,0,1-11.91-5.2A18.86,18.86,0,0,0,55,122.59c-8.6-6.33-17.41-12.43-23.79-21.24C27.32,96,23.7,90.49,21.51,84.13c-1.4-4.06-3.77-7.73-5.24-11.79-1.85-5.11-3.67-10.11-2.66-15.8.53-3-1.12-6.08-.82-9.23.12-1.27,0-2.56.61-3.74.57-2.41.33-4.9.78-7.33a5.74,5.74,0,0,1,.9-2.67.2.2,0,0,1,.25,0c2.76,0,5,1.63,7.5,2.4A8.73,8.73,0,0,0,26.2,36.67Z"/><path class="cls-1" d="M160.92,74.24l1.84.63c.44,1.23-.29,2.23-.61,3.32-1.06,1.49-1.64,3.24-2.59,4.8-1,.52-1.65-.2-2.33-.7a24.55,24.55,0,0,0-4.19-2.7c-2.44-1.78-4.87-3.56-7.22-5.45a3.67,3.67,0,0,0-2.07-1.23,3.89,3.89,0,0,0,1.71,1.89c2.2,1.85,4.33,3.8,7,5,1.36.95,2.78,1.79,4.22,2.61.92.52,2.08.93,2.1,2.31a12.23,12.23,0,0,1-1.44,2.78c-1,1.52-2.1,1.3-3.23.14a12.65,12.65,0,0,0-1.67-2.06,22.68,22.68,0,0,0-3.58-3.27,14.1,14.1,0,0,1-1.24-1.08,16.55,16.55,0,0,0-3.78-3.09c-.95-.73-1.93-1.43-2.86-2.19-.91-1.48-2.6-2.11-3.65-3.43.79,1.27,2.07,2.08,3,3.24a2,2,0,0,1,.29.61,1.13,1.13,0,0,1-.24.94c-1.19.34-1.06.86-.2,1.48,2.79,2,4.5,5,7.08,7.2.64.85,1.25,1.73,1.94,2.54.87,1.49,2.28,2.5,3.37,3.78a1.51,1.51,0,0,1,.36,1.25A10.21,10.21,0,0,1,149,97.13c-1.37.71-2.24-.11-3.13-1a131.72,131.72,0,0,1-9.15-9.76,46.4,46.4,0,0,0-8.14-10.55c-1-1.75-2-3.48-3.13-5.16-.9-1.37-1.73-2.77-2.68-4.11-.42-.59-1.28-1.31-.26-2.15,1.48-.13,2.8.5,4.17.86,10,2.64,20.24,4.75,30.24,7.56A27.13,27.13,0,0,1,160.92,74.24Z"/><path class="cls-2" d="M156.92,87.23l1.59-2.41a1.59,1.59,0,0,0,1-1.92,8.4,8.4,0,0,1,2.31-4.84c.66-.42.62-1.17.81-1.81s.33-1.21,1.18-1l1,0c-.06,6.39-2.61,12.09-5.48,17.53A13.51,13.51,0,0,1,148,100c-1.29-.75-2-1.53-.05-2.33a2.13,2.13,0,0,0,1-.93l3.74-3.42A8.58,8.58,0,0,1,154,92.5,6.61,6.61,0,0,0,156.92,87.23Z"/><path class="cls-2" d="M163.76,75.24a1.6,1.6,0,0,0-.95,1.67c0,.7-.23,1.19-1,1.15l1-3.19c.12-.4-.13-1.17.38-1.13C164,73.81,163.7,74.67,163.76,75.24Z"/><path class="cls-2" d="M64.82,130.22l-.62.47c-2.57-.88-4.88-2.49-7.67-2.73L54.09,126c-.1-1,.67-.91,1.27-1.05A22.93,22.93,0,0,1,64.82,130.22Z"/><path class="cls-1" d="M27.78,38.76l4.11-.22c.13.93-.7.5-1.05.75a5.19,5.19,0,0,1,1.31.2c5.12,2.12,10.64,3,15.76,5.06,1,.85,2.3.49,3.35,1.07,2.81.66,5.81.72,8.29,2.49a1.25,1.25,0,0,1,0,.69c-1.81,1.64-4.21,2.38-6.1,3.92a14.8,14.8,0,0,0-2.22,1.72c-.57.78-.58,1.86-1.36,2.47,0,0,0,.1,0,.1l.17-.09a4.44,4.44,0,0,0,2.34-2.53c2.26-1.84,5.14-2.76,7.3-4.76a10.54,10.54,0,0,1,2.2-1,2.57,2.57,0,0,1,1.07,0c2.9,1,6,1.32,8.77,2.86.7,1-.22,1.59-.75,2.18a24.28,24.28,0,0,0-3,3.51c2.22-1.44,3.58-3.66,5.66-5a1.66,1.66,0,0,1,.66-.1,5,5,0,0,1,2.83,1.06c.37,1.4-1,1.85-1.52,2.75a23.71,23.71,0,0,0-1.47,2.13,145.27,145.27,0,0,0-10.6,12.77,5.62,5.62,0,0,0-1.69,2.74c1.33-.47,1.74-1.62,2.53-2.33a98.57,98.57,0,0,0,9.93-12.3c.66-1,1.45-1.91,2.09-2.93.76-.82,1.25-1.9,2.29-2.47a5.3,5.3,0,0,1,3.09.42,1.42,1.42,0,0,1,.71.72c-.34,1.57-2.11,2.18-2.51,3.71-.7,1.62-2.13,2.75-3,4.51,1-1.71,2.24-2.92,3.15-4.42.84-1.29,1.83-2.48,2.64-3.8a1.28,1.28,0,0,1,.66-.15,4.56,4.56,0,0,1,2.9,1.14c.23,2.39-1.9,3.63-2.68,5.53-5.1,4.17-7.45,10.18-10.49,15.73-2,7.39-5.7,14-9.59,20.54-2.05,2.26-3,5.31-5.27,7.42a3.93,3.93,0,0,1-2.49.08c-2.87-1.37-4.65-4.07-7.17-5.87a1.37,1.37,0,0,1,0-1.89A25.28,25.28,0,0,0,52.35,93,81,81,0,0,0,65.3,75.64a12.61,12.61,0,0,0,2.33-4.06,12.62,12.62,0,0,0-2.54,3.5c-4.28,5.9-8.28,12-12.94,17.62-1,1.33-2.08,2.64-3.17,3.92a3.11,3.11,0,0,1-2.91.95c-1.52-.88-3.11-1.7-3.71-3.54,1.08-2.54,3.5-4,5-6.14,1-1.36,2.36-2.44,3-4,0-.2.51-.36,0-.57a25.31,25.31,0,0,0-3.24,4.22A80.59,80.59,0,0,1,42,93.7a1.94,1.94,0,0,1-2.3-.77A39,39,0,0,1,33.8,82.56c.37-1.42,1.54-2.08,2.66-2.79a24.52,24.52,0,0,0,3.89-3C46,73.31,51.3,69.27,56.73,65.46a9.52,9.52,0,0,0,2.41-1.57c.21-.29.69-.54.46-.94s-.58,0-.86.07a6.2,6.2,0,0,0-1,.58,18.49,18.49,0,0,0-2.11,1.52C49.9,68.44,44.11,71.68,39.42,76.5a31.89,31.89,0,0,0-3.72,3.34c-.94.83-1.86,1.84-3.35,1.25a21.27,21.27,0,0,1-3.47-9.93c1.33-1.88,3.69-2.36,5.28-3.89,1-.64,2.12-1.2,3.11-1.91,1.25-.67,2.53-1.25,3.78-1.92.58-.29,1.18-.52,1.77-.75a1.93,1.93,0,0,0,.36-.22c-.36-.28-.63.11-.94.15a11,11,0,0,0-2,1,14.33,14.33,0,0,0-3.12,1.59,33.44,33.44,0,0,0-3.42,2,14.57,14.57,0,0,0-1.93,1.31c-2.23,1.75-2.61,1.66-4-.81a34.09,34.09,0,0,1-1.47-4.15c-.29-2,.17-4.14-.33-6.18a4.3,4.3,0,0,1-.18-.79,4.47,4.47,0,0,1-.07-.82c0-1.92,0-3.85,0-5.77,0-1,0-1.93,0-2.89s0-1.92.09-2.88a33.33,33.33,0,0,1,.75-3.68C26.7,39.79,26.72,38.86,27.78,38.76Z"/><path class="cls-2" d="M60.91,43.51c2.33.14,3-1.19,2.94-3.25,0-1.46-.53-3,.27-4.38,0,1,.09,1.91.1,2.86,0,.68.27.85.87.58.65.47.6,1.2.65,1.88a2,2,0,0,0,1.35,1.93,6.51,6.51,0,0,0,2.57.85c3.93.14,6.94,2.56,10.29,4.15a1.42,1.42,0,0,1,.74,1.16,1,1,0,0,1-1,1,14.36,14.36,0,0,0-3.14.11,8,8,0,0,1-2.09-.49c-2.18-1.22-4.83-1.14-7-2.53-1-1.7-2.64-1.58-4.25-1.62s-3,.31-4.54.23c-1.83-.57-3.87.36-5.61-.82a1.55,1.55,0,0,1-.23-.06c-.25-.12-.31-.42-.05-.43,1.82-.12,3.65-.22,5.47-.22A3.18,3.18,0,0,0,60.91,43.51Z"/><path class="cls-2" d="M56.14,35l.34-2.84c-.14-.47.11-.59.51-.59.73.67.62,1.64.91,2.47-.3,1.59-.59,3.18-.88,4.77.49.93,0,2,.35,2.92.49,1.58,2.28.34,3,1.39-1.54.9-3,.4-4.33-.4l-.09-.1C56.59,40.1,56.28,37.55,56.14,35Z"/><path class="cls-2" d="M58.89,45.47H53.16c0-.12,0-.23,0-.35C55.06,45.23,57,44.66,58.89,45.47Z"/><path class="cls-2" d="M32.09,36.48c-.68,0-1.41.25-2.05-.27.67-.47,1.38-.24,2.07-.19C32.1,36.18,32.1,36.33,32.09,36.48Z"/><path class="cls-2" d="M66.1,36l2.82-.06c.69.15,1.5-.13,2,.58a17,17,0,0,1-5.67,2C65.63,37.68,65.35,36.66,66.1,36Z"/><path class="cls-2" d="M100,26c-1.56-1.47-2.68.74-4.1.48-.45-.12-1-.16-1.18-.69a5.53,5.53,0,0,1,2.64-1.33c.79-.21,1.47-.51,1.43-1.5.39,0,.63-1.36,1.08-.22S100.89,24.92,100,26Z"/><path class="cls-2" d="M102.41,30.3c-.93.3-1.73,1.08-2.83.84-.2-.13-.48-.17-.52-.47.16-1.55,2-.86,2.53-1.92.38-.11.76-.66,1.16-.07S102.79,29.81,102.41,30.3Z"/><path class="cls-2" d="M57.9,34.05c-1.11-.48-.87-1.46-.89-2.35a1,1,0,0,1-.31-.91A20.42,20.42,0,0,0,58,26.47c.1-1.72,1.46-2.67,2.37-3.89.94-.5,1.36-.14,1.4.85Z"/><path class="cls-2" d="M64.71,18.91a8.69,8.69,0,0,1-1.79,2.76c-1.23.15-1.17-.7-1.16-1.51a3.65,3.65,0,0,1,1.4-2.89,2,2,0,0,1,1.27.42A1,1,0,0,1,64.71,18.91Z"/><path class="cls-2" d="M61.76,20.16c.35.53.46,1.25,1.16,1.51-.23.69-.28,1.51-1.17,1.76a1.47,1.47,0,0,0-1.4-.85Z"/><path class="cls-2" d="M204,116.47c.8-.94,1.6-1.87,2.38-2.82.58-.71,1.31-1.38.84-2.46,2.43,1.13,2.47,1.36.57,3.31-.57.75-.82,1.68-1.42,2.41h0C205.52,117.24,204.57,118,204,116.47Z"/><path class="cls-2" d="M186.22,120.64a9.7,9.7,0,0,1,3.37-2.86,1,1,0,0,0,1,1.06c-.78,1.64-2.28,2.36-3.85,3C186.29,121.58,186,121.25,186.22,120.64Z"/><path class="cls-2" d="M167.54,98.08l2-3.74c.2.92.36,1.86,1.55,2-.81,1.11-1.06,2.64-2.46,3.32C167.37,99.7,167.2,99.05,167.54,98.08Z"/><path class="cls-2" d="M176.65,79.53l.13-.46,1.38-.49a.62.62,0,0,1,.92,0,3.12,3.12,0,0,1-.49,2,.63.63,0,0,1-.92,0A.94.94,0,0,0,176.65,79.53Z"/><path class="cls-2" d="M177.67,80.52h.92a2.79,2.79,0,0,1-.92,2.63Z"/><path class="cls-2" d="M179.08,78.58h-.92l-.06-1.43C179.14,76.83,179.15,76.84,179.08,78.58Z"/><path class="cls-2" d="M193.31,125.43l8.78-7.09c1.88.19.81,1.58,1,2.46l-1.05.86a5,5,0,0,0-2.67,1.75c-1.32.9-2.41,2.15-4,2.55l-.86.13C194,126,193.54,125.94,193.31,125.43Z"/><path class="cls-2" d="M64.18,17.79l1.54-2.34c1.92-1.21,2.38-3.64,4.14-5,.07.46.14.9.62,1.13-1.07,3.12-3.48,5.17-5.77,7.31Z"/><path class="cls-2" d="M15.08,33.57c-.19,3-.38,6-.6,9,0,.51,0,1.14-.59,1.43-.9-.78-.26-2.44-1.67-2.93a11.76,11.76,0,0,1,1.39-7.81l.34-.1Z"/><path class="cls-2" d="M27.78,38.76c-1,1.67-.77,3.67-1.51,5.4a.64.64,0,0,1-.57.08,2.41,2.41,0,0,1-.71-.56A23.61,23.61,0,0,1,26.43,38Z"/><path class="cls-2" d="M121.61,61.31c.73-1.72,2.81-1.17,3.88-2.32l1.88,1c.07,1-2,.35-1.44,1.77l-3.34,1C121.94,62.47,121.31,62.21,121.61,61.31Z"/><path class="cls-2" d="M111.09,47.85c-2.8,1.47-4.94,4-8.09,4.91-.72.2-1.55.79-1.93-.46a63.4,63.4,0,0,0,7.66-5,2.76,2.76,0,0,1,1.92-.76C111.28,46.81,111.57,47.2,111.09,47.85Z"/><path class="cls-2" d="M96.21,53.68a3.89,3.89,0,0,1,2.25-3c1.85-1,3.64-2.1,5.46-3.16a1.05,1.05,0,0,1,1,.51c-.77,1.75-2.79,1.63-4,2.68-.75.63-1.8.91-2.19,2C98.54,54.51,97.49,54.36,96.21,53.68Z"/><path class="cls-2" d="M96.21,53.68c1,0,2,.15,2.5-1.07.85.38,1.55-.36,2.36-.31.51.72,1.28.33,1.93.46-1.91,1.68-4.36,1.81-6.67,2.34-.79.55-1.52.79-2-.37A2.33,2.33,0,0,0,96.21,53.68Z"/><path class="cls-2" d="M104.94,48a1.07,1.07,0,0,1-1-.51L108.17,44a2.09,2.09,0,0,0,1.14,1.14C108.19,46.62,106.47,47.16,104.94,48Z"/><path class="cls-2" d="M176.24,95.39a2,2,0,0,1-.85,1.51c-.62-.06-.83-.49-1-1l.86-1.49A1.63,1.63,0,0,1,176.24,95.39Z"/><path class="cls-2" d="M12.43,32.57l1.37.52a30.86,30.86,0,0,0-1.26,8.16c.24,2.14-1,3.85-1.69,5.72-.32.4-.67.72-1.24.5L9.46,46c-.06-1.26-.36-2.53.19-3.76.84-1.14.14-2.5.52-3.7a20.86,20.86,0,0,1,1.88-5.87Z"/><path class="cls-2" d="M18.86,87.65c-1.71-3.3-3.79-6.4-5.2-9.85A19,19,0,0,1,12,70.46a.9.9,0,0,1,1-.16c2.17,2.78,3.07,6.19,4.53,9.33.95,2.05,2.31,4,2.62,6.32C20,86.71,20.48,88,18.86,87.65Z"/><path class="cls-2" d="M12.86,70.47H12c-1.23-1.37-.94-3.34-1.91-4.81a1.41,1.41,0,0,0,0-.46l0-1c-.67-2.17.1-4.44-.41-6.62L9.5,54.18c0-1.44.07-2.88.11-4.32.55-.27-.27-1.85,1.19-1.24.62,3.56,1.93,7,1,10.78a11.93,11.93,0,0,0,.81,7.5C13.13,68,13.92,69.22,12.86,70.47Z"/><path class="cls-2" d="M18.86,87.65c1.19-.24.64-1.22.8-1.9a.67.67,0,0,1,.79.36c1.56,3.16,3.35,6.21,4.36,9.63a1.27,1.27,0,0,1-.88,1.1A27.78,27.78,0,0,1,18.86,87.65Z"/><path class="cls-2" d="M23.93,96.84l.57-1.15a2.55,2.55,0,0,1,2.22,1.5,48.8,48.8,0,0,1,3.75,6.45c-.06.5-.08,1-.83.84A20.79,20.79,0,0,1,23.93,96.84Z"/><path class="cls-2" d="M29.64,104.48a1,1,0,0,0,.54-.93c1.13-.15,1.14.73,1.33,1.45-.09.5-.12,1.07-.89.92l-.22,0h-.22Z"/><path class="cls-2" d="M55.71,125.42c-.58.11-1.24,0-1.62.62-3.63-2.46-8.17-3.51-11-7.17-.22-.78.28-1.1.88-1.35a2.78,2.78,0,0,1,2.2.72c2.48,1.73,5.11,3.24,7.63,4.92C54.55,123.8,55.65,124.16,55.71,125.42Z"/><path class="cls-2" d="M30.62,105.92c.47-.25.52-.71.61-1.15.91,0,1.42.64,2,1.19a38.59,38.59,0,0,1,6.22,7.39c-.17.53-.59.64-1.07.63-2.68-1-3.9-3.76-6.15-5.27C32.07,107.55,31.2,106.82,30.62,105.92Z"/><path class="cls-2" d="M38.35,114c.22-.42.63-.44,1-.49,2.3.66,4.1,1.87,4.84,4.28a1.93,1.93,0,0,0-1.14,1.1C41.24,117.49,39.27,116.24,38.35,114Z"/><path class="cls-2" d="M9.68,57.55c.86,2.16.17,4.42.41,6.62C9.22,62,9.82,59.76,9.68,57.55Z"/><path class="cls-2" d="M10.4,48.43l-.79,1.43V47.47l.86-.49C11,47.49,11,48,10.4,48.43Z"/><path class="cls-2" d="M9.65,42.23c-.06,1.25-.13,2.5-.19,3.76-.7-1.21-.19-2.53-.33-3.79Z"/><path class="cls-2" d="M193.31,125.43a1.35,1.35,0,0,1,1.16.66c-2.61,2.87-6.09,4.43-9.39,6.27a34.38,34.38,0,0,0-5.51,3.2c-5.81,2.36-11.73,4.25-18.08,4.37-1.68.28-3.38.23-5.07.38-.7.07-1.63.22-1.76-.94,4.3-.69,8.64-1.18,12.88-2.11,7.66-1.69,14.55-5.26,21.26-9.21Z"/><path class="cls-2" d="M154.66,139.37c2.19,1.21,4.58.08,6.83.56a30.36,30.36,0,0,1-12.58.82,27.65,27.65,0,0,0-6.68,0l-4.24.11c-.93.47-2,0-2.93.35a10.88,10.88,0,0,1-3.86,0c-.78-.4-1.69.09-2.46-.37l-1.35-.11.94-.8,4.14-.13c1.3-.44,2.68.06,4-.31A54.51,54.51,0,0,1,154.66,139.37Z"/><path class="cls-2" d="M142.23,140.75a11.86,11.86,0,0,1,6.68,0Z"/><path class="cls-2" d="M135.06,141.21c.91-.7,1.95-.29,2.93-.35A5.64,5.64,0,0,1,135.06,141.21Z"/><path class="cls-2" d="M128.74,140.86c.83,0,1.72-.31,2.46.37A3.87,3.87,0,0,1,128.74,140.86Z"/><path class="cls-2" d="M155.24,124.36c1.4.91,1.87,2.54,2.9,3.72,1.49,1.72,3.15,3,5.57,1.69,1.4-.62,3.06.11,4.39-.85l1.75-.6a2.11,2.11,0,0,1,1.6-.47c2.8-.24,5-2.14,7.64-2.81a1.19,1.19,0,0,1,1,1,19.47,19.47,0,0,1-10.35,4.87,24.93,24.93,0,0,0-4,.73c-4.68,1.47-6.93.69-9.9-3.24-.67-.88-1.22-1.85-1.82-2.78A1.56,1.56,0,0,1,155.24,124.36Z"/><path class="cls-2" d="M155.24,124.36a2.07,2.07,0,0,1-1.17,1.22c-1.78.29-1.59,1.67-1.69,2.94-.25,3.27-.65,3.64-3.85,3.74-.49.23-.63-.07-.7-.47a7.35,7.35,0,0,0,1.59-4.92,7.6,7.6,0,0,1,1.21-2.8c1.07-1.33,2.35-1.14,3.7-.53Z"/><path class="cls-2" d="M180.11,126a1.47,1.47,0,0,1-1-1c.91-1.33,2.68-1.35,3.72-2.47a4.44,4.44,0,0,1,1.55-.85l1.86-1.08.57,1.19A14.31,14.31,0,0,1,180.11,126Z"/><path class="cls-2" d="M148,131.8l.55.46a12.37,12.37,0,0,1-11.13-.39,1.66,1.66,0,0,1,1-1.11.65.65,0,0,1,.72,0,8.59,8.59,0,0,0,5.54.61C145.78,131.1,147,130.77,148,131.8Z"/><path class="cls-2" d="M136.46,139.51c-1.28.73-2.65.26-4,.31A10.16,10.16,0,0,1,136.46,139.51Z"/><path class="cls-2" d="M167.54,98.08a1.68,1.68,0,0,0,1,1.59,25.62,25.62,0,0,1-6.8,8.2c-10.39,8.95-21.26,17.25-34,22.75a25.82,25.82,0,0,1-8.58,2.47c.18-1.28,1.37-1.22,2.17-1.66,0-.26.92.19.37-.49a2.2,2.2,0,0,1-.14-.18c3-1.21,6-2.41,9-3.65.56-.23,1.24-.34,1.52-1a6.29,6.29,0,0,1,3-1.47c8.19-4.24,15.22-10.12,22.5-15.66C161.66,105.93,164.36,101.8,167.54,98.08Z"/><path class="cls-2" d="M121.63,131.73l-2.39,1.36L111.62,135c-12.73.48-25.31-1-37.85-2.91-.22,0-.4-.23-.6-.35.58-1,1.56-1,2.52-1.05,6.12.24,12.13,1.67,18.22,2,7.21.41,14.52,1.32,21.65-1.15,1.9-.65,4-.57,6.08-.83l.06.17A.53.53,0,0,1,121.63,131.73Z"/><path class="cls-2" d="M174.43,95.89l1,1c-.64,3.56-2.66,6.41-4.84,9.13a75.8,75.8,0,0,1-13,12.14,1,1,0,0,1-.95-.81c2.38-2.42,4.54-5.13,7.2-7.19C168.67,106.35,171.63,101.21,174.43,95.89Z"/><path class="cls-2" d="M156.56,117.36l.95.81a33.35,33.35,0,0,1-3.24,3.06c-1.28.93-.69,1.56.06,2.31-1.18.19-2.59-.38-3.39,1-.36.19-.09-.86-.6-.31s-1.18,1-1.71,1.62c-1.28.77-2.15,2.41-4,1.9-.06-.64-.5-.83-1.06-.88A121.29,121.29,0,0,1,156.56,117.36Z"/><path class="cls-2" d="M138.81,128.68c-.49,1.11-1.47,1.13-2.47,1.08C137,128.9,138,129.07,138.81,128.68Z"/><path class="cls-2" d="M142.22,127.52a1.71,1.71,0,0,1-2,.82A3,3,0,0,1,142.22,127.52Z"/><path class="cls-2" d="M75.69,130.73a4.91,4.91,0,0,1-2.52,1.05c-2.91.15-5.49-1.45-8.36-1.56l-9.1-4.8c-.46-.88-1.44-1.16-2.09-1.81a6.5,6.5,0,0,1,1.45-1.37c1.73-.06,3,1,4.28,1.87A35.55,35.55,0,0,0,74,129.93,6.4,6.4,0,0,1,75.69,130.73Z"/><path class="cls-2" d="M140.44,129.87a1.59,1.59,0,0,1-1.48.95l-.57-.06A2.44,2.44,0,0,1,140.44,129.87Z"/><path class="cls-2" d="M55.07,122.24c.14,1.12-.48,1.43-1.45,1.37l-9.41-5.84c-1.29-1.79-3.16-2.92-4.84-4.28l-8.14-8.72-1.05-1.22c-2.12-2.46-3-5.84-5.68-7.86q-2.41-5-4.84-9.94-3.4-7.65-6.8-15.28c.13-2.84-2.11-5.13-1.78-8,.22-1.94-.19-4,.68-5.81.59-1.22-.61-1.81-.65-2.83a51.77,51.77,0,0,0-.71-5.36L10.47,47l2.07-5.73c2,.12,1.13,1.69,1.35,2.71-1,3.37-.51,6.73.17,10.06a9.74,9.74,0,0,1,0,4.23,12.07,12.07,0,0,0,.35,6.61c4.91,14.31,10.25,28.41,20.46,40A74.42,74.42,0,0,0,49,117.33,34.15,34.15,0,0,1,55.07,122.24Z"/><path class="cls-2" d="M26.88,63.75c.93,1.1.71,2.63,1.41,3.82.13,1.18.87,2.18,1,3.36a31.52,31.52,0,0,0,3.37,9.94c.3.66,1.14.84,1.38,1.55,1.77,3.07,3.53,6.14,5.32,9.19a2.92,2.92,0,0,0,2.81,1.81.75.75,0,0,1,.41.52c.65,1.64,2.44,2,3.51,3.25.76.81,2,.82,2.79,1.5,2.62,1.49,4.42,4,6.84,5.71.27.54.63,1.07-.08,1.58a1.51,1.51,0,0,1-1.75.08,18.62,18.62,0,0,0-3-1.65l-11.35-8.3A10.73,10.73,0,0,1,37,93.55,96.32,96.32,0,0,1,28.5,78.7a39.6,39.6,0,0,1-2.68-11A30,30,0,0,1,25,58.3c0-.81-.33-2.14,1.36-1.72a.28.28,0,0,1,.11.33C26.5,59.19,26,61.52,26.88,63.75Z"/><path class="cls-2" d="M143.61,101.6a25.55,25.55,0,0,1,1.38,3,3.72,3.72,0,0,1-.72,4c-4.29,4.22-8.91,8-14.9,9.46a45.3,45.3,0,0,1-11.56,1.2,3,3,0,0,1-2.31.12c-.83-.22-2.36.37-2.34-.87,0-1,1.54-.74,2.42-.94.31-.07.63-.09.94-.15.92-.41,2.13-.26,2.73-1.36a2.11,2.11,0,0,1,1.8-.61c1.38.47,2.38-.6,3.57-.89a2.79,2.79,0,0,1,1.62.06c1.41,1.15,1.86-.16,2.5-1a23.9,23.9,0,0,1,4.19-2,2.37,2.37,0,0,0,1.95-1.25,11,11,0,0,1,2.63-1.94,7.39,7.39,0,0,0,4-5.46C142.1,102.43,142.46,101.44,143.61,101.6Z"/><path class="cls-2" d="M103,88.68c-.62,5.93-.93,11.84.25,17.75a4.45,4.45,0,0,1-.29,2.8c-.87,2.93-.37,5.94-.52,8.9,0,.89.24,1.88-.64,2.68-.82-.5-.78-1.39-1.18-2a25,25,0,0,1-.21-8.75,32.71,32.71,0,0,0-.41-7.37c-1-8.62.08-17.17.92-25.72.1-1.07-.28-2.24.44-3.23.7-.24.37-2.14,1.85-1.14a2.53,2.53,0,0,1,.35,1.2c.08,3.66,0,7.32,0,11C103.49,86.08,104,87.49,103,88.68Z"/><path class="cls-2" d="M67.51,114.51,68,115a12.41,12.41,0,0,0,3,1.89l8,3.94c.94.41,2.15-.07,2.93.87l3.25.59a67.14,67.14,0,0,1,6.79.47l7.64-.06c1,.2,2.6-.71,2.38,1.44-3.25,2.29-7.08,1.57-10.61,1.67-10,.28-18.59-3.37-25.79-10.29C65.67,114,66.51,114.1,67.51,114.51Z"/><path class="cls-2" d="M82.77,107.18A114.36,114.36,0,0,1,86,90.59a4.46,4.46,0,0,1,.6-1c.77-.65,0-1.68.56-2.38h0c1.46-1.27,1.41.16,1.39.89A21,21,0,0,1,87.65,93c-.49,7-2.19,13.79-3.94,20.55-1.12,1.4-1.53.74-1.55-.58A33,33,0,0,1,82.77,107.18Z"/><path class="cls-2" d="M105,94.9c-.24-1.3-.47-2.6-.7-3.9l.06-.3c0-1.1.2-2.25-.58-3.22a3.23,3.23,0,0,1-.52-2.59,4,4,0,0,0,.2-1.08c.64-2.22-.23-4.66,1-6.8a1.06,1.06,0,0,1,1-.44c2.24,1.5,2.16,4.16,1.8,6-.82,4.38.15,8.39,1.15,12.5-.08,3.06.44,6.17-1,9.1-.23.49-.3,1.08-1,1.24-.62-.32-.26-1-.58-1.47l-.11-2.3c-.44-.78,0-1.68-.35-2.46l-.12-1.87C104.88,96.57,105.33,95.68,105,94.9Z"/><path class="cls-2" d="M148.93,96.78c.34.67.29,1.29-.56,1.37-2.2.23-.81,1.15-.4,1.89-2.73-.21-3.79-2.6-5.46-4.19-.63-.59-1.18-1.27-1.77-1.91-1.36-.86-2.12-2.36-3.45-3.25-.32-.44-.49-1-.81-1.4-.59-.94-1.52-1.75-1.15-3.05.56-.82,1.14-.63,1.72,0,2.93,3.13,5.88,6.25,8.81,9.4C146.7,96.52,147.53,97.36,148.93,96.78Z"/><path class="cls-2" d="M64.16,102.84l-.92-.79a1.31,1.31,0,0,1-.34-1.35c3.1-4.89,5.61-10.1,8.24-15.24.9-1.77,1.2-3.78,2.39-5.41a.86.86,0,0,1,.66-.15,3.73,3.73,0,0,1,1.16,1.68c-.44,2-1.51,3.82-2.18,5.76A47.82,47.82,0,0,0,70,94.46c-.94,2.63-2.63,4.84-4,7.23C65.48,102.25,65.3,103.32,64.16,102.84Z"/><path class="cls-2" d="M93,84.44l-.18,2.31c-.47,1.44.14,3-.36,4.41,0,1.41-.09,2.81-.13,4.21-.36.81,0,1.73-.34,2.53l-1.56,12.72c-1.19-.24-1.13-1.08-1-2l.16-.88c.46-2-.15-4,.34-5.91a10.4,10.4,0,0,1,.61-4.14c.47-1.78-.14-3.63.35-5.41-.26-3.06.56-6,1.09-8.94.26-.43.5-.9,1.06-.34A3.05,3.05,0,0,1,93,84.44Z"/><path class="cls-2" d="M105.91,104l.55.88c1.88-3.11,1-6.65,1.34-10,1.32.44,1.12,1.62,1.1,2.57a113.14,113.14,0,0,0,.82,11.78,11.44,11.44,0,0,1-.54,4.19c-.49,1-1,1.93-2.32,1.14C105.89,111,105.94,107.49,105.91,104Z"/><path class="cls-2" d="M65.58,101.51c3.08-4.43,4.39-9.75,7.15-14.35,1.6.52.69,1.61.58,2.51A26.47,26.47,0,0,1,66.2,102.6C65.31,102.62,65.29,102.16,65.58,101.51Z"/><path class="cls-2" d="M26.31,56.58c-1.33.25-.85,1.31-.91,2.1a61.65,61.65,0,0,0,.42,9c-1.26-1.18-.86-2.84-1.07-4.25-.9-6.21-.38-12.45-.22-18.68A3.35,3.35,0,0,1,25,43.68c.37,0,.73,0,.9.41.53.91-.06,2,.37,2.89v2.91a26.07,26.07,0,0,0,0,6.18Z"/><path class="cls-2" d="M94.34,54.73c.57.6,1.31.32,2,.37,1.28.76,1.42,2.37,2.44,3.33-1,.91-1.78.22-2.56-.39l-.6-.53a16.29,16.29,0,0,0-4.4-1.08,8.27,8.27,0,0,0-2.22.12,3.22,3.22,0,0,1-1.31-.13,2.2,2.2,0,0,1-1.09-.75c-.1-1,1.17-2-.16-2.9.31-1,1-.84,1.72-.54C90.4,52.59,91.94,54.73,94.34,54.73Z"/><path class="cls-2" d="M104.8,77.24c-.84,2.27.11,4.79-1,7-1.25-.32-.55-1.3-.59-1.94-.16-3,.15-6-.18-9l-.16-.92c-1.08-1.67-.54-3.53-.55-5.31,0-.78.29-1.56-.25-2.28a2.55,2.55,0,0,1,.81-2.06,1.72,1.72,0,0,1,1.81.7c.66,2.41.15,4.91.58,7.34C104.88,72.93,105.27,75.12,104.8,77.24Z"/><path class="cls-2" d="M117.32,117.84c-1.16.85-2.6.22-4.14.76,1.73.28,3.12.8,4.63.69-2.89,1.19-5.78.82-8.67,0-.68-.2-1.32-.53-1.34-1.41.4-1.34,1.58-1.58,2.69-1.94,2.12-.13,4.27-.62,6.29.47A1.32,1.32,0,0,1,117.32,117.84Z"/><path class="cls-2" d="M63.3,100.8l-.06,1.26c-1.65,1.23-1.91,3.41-3.34,4.79-.72.38-1.51.66-2.06-.16s-.05-1.61.59-2.24c1.16-2.67,3.06-4.87,4.62-7.28,1.2-.11,1.52.51,1.2,1.54C64,99.44,63.51,100.05,63.3,100.8Z"/><path class="cls-2" d="M73.31,89.67c-.18-.84.32-1.83-.58-2.51q1.17-2.85,2.33-5.71a6.14,6.14,0,0,1,3.78-4.94.87.87,0,0,1,.72.68C76.93,81.07,75.66,85.64,73.31,89.67Z"/><path class="cls-2" d="M80.1,96.81c-.73,2.74-1.42,5.48-2.21,8.2a24.86,24.86,0,0,1-1.18,2.83c-.59.26-.9-.06-1.12-.55.58-3.77,1.22-7.53,3-11C79.52,95.14,79.8,96,80.1,96.81Z"/><path class="cls-2" d="M137,89.1a1.4,1.4,0,0,1,.47,1.33,19.88,19.88,0,0,1,2.32,4l.56,1.4A1.35,1.35,0,0,1,139.08,97c-3.42-1.87-5.61-5.36-5.2-8.26a1.06,1.06,0,0,1,.9-.35C135.56,88.45,136.06,89.37,137,89.1Z"/><path class="cls-2" d="M102,124.09c-.16-1.53-1.73-.72-2.38-1.44,2.87-.61.66-2.58,1-3.86.62.29.73,1,1.19,1.62.71-3.79-.74-7.67,1.15-11.18q0,6.42,0,12.83A2.15,2.15,0,0,1,102,124.09Z"/><path class="cls-2" d="M139.32,96.83a1.75,1.75,0,0,1,1-1,13.18,13.18,0,0,1,3.29,5.78c-.84.17-.83,1.4-1.79,1.43C139.12,100.93,138.44,99.25,139.32,96.83Z"/><path class="cls-2" d="M92,122.71c-2.33.84-4.57.26-6.79-.47,2.17-.18,3-1.39,2.89-3.52-.12-1.82-.13-3.67,1.31-5.11a.37.37,0,0,1,.53-.08c.2,1.38-.42,2.61-.72,3.9C88.48,120.57,88.94,121.41,92,122.71Z"/><path class="cls-2" d="M104.37,63.27c-.55,0-1.13.1-1.46-.51.51-1.43.08-2.06-1.5-1.88a4.88,4.88,0,0,1-3.8-.86c.66-1.33,2.22.12,3-1,.81-.21,1.51.26,2.27.37.44-.31.84-.09,1.25.07.6.32,1.3.32,1.92.58a1.43,1.43,0,0,1,.67.78,2.24,2.24,0,0,1-.91,2.48C105.32,63.11,104.83,63.51,104.37,63.27Z"/><path class="cls-2" d="M58.43,104.45c-.44,1.37-.83,2.71,1.47,2.4a3,3,0,0,1-3.94.66,24.59,24.59,0,0,1-5.13-3.1,5.1,5.1,0,0,1,2.81,1.14c1.28.77,2,.29,2.06-1.15Z"/><path class="cls-2" d="M82.77,107.18a15.14,15.14,0,0,1-.34,5c-.13.64-.65,2.32,1.28,1.38-.3,2.07-.41,4.18-1.71,6-.42-.09-.65-.45-1-.68C81.9,115,81.37,110.93,82.77,107.18Z"/><path class="cls-2" d="M102.1,64.82c1.16,0,.82.93.82,1.54,0,2,0,4,0,6l-1.51,1.31C100.73,70.68,101.48,67.76,102.1,64.82Z"/><path class="cls-2" d="M87.65,93c.16-1.62.33-3.24.47-4.86.07-.7,0-1.33-1-.92.14-1.31.22-2.65,1.76-3.64A16.3,16.3,0,0,1,87.65,93Z"/><path class="cls-2" d="M83.92,70a8.31,8.31,0,0,1-3.41,6.19c-.56.24-.88-.06-1.15-.5a12.51,12.51,0,0,1,3.94-6A.92.92,0,0,1,83.92,70Z"/><path class="cls-2" d="M67.51,114.51c-.81,0-1.55.08-1.9,1-1.79-.47-2.26-2.33-3.52-3.35a.52.52,0,0,1-.11-.81.77.77,0,0,1,1.07,0C64.42,112.53,66.29,113.07,67.51,114.51Z"/><path class="cls-2" d="M65.58,101.51a1.22,1.22,0,0,0,.62,1.09c-.3,2-2.29,3-2.86,4.81a.91.91,0,0,1-1.12-.1l1.94-4.47C65,102.74,65,101.8,65.58,101.51Z"/><path class="cls-2" d="M76,110.17c-.76,1.68-1.13,3.62-3.27,4.91.06-2.79,2-4.63,2.34-7C75.91,108.58,75.71,109.49,76,110.17Z"/><path class="cls-2" d="M89,60.39a17.38,17.38,0,0,1-3.22,5.41A1.46,1.46,0,0,1,85,64.66c.41-1.92,1.16-3.62,3-4.59A1.1,1.1,0,0,1,89,60.39Z"/><path class="cls-2" d="M93,84.44l-.1-1.54c-.53-.32-.36-1.07-.86-1.42A7.12,7.12,0,0,1,92.8,77a.93.93,0,0,1,.48,1.17c-.26.74.14.49.48.4A10.65,10.65,0,0,1,93,84.44Z"/><path class="cls-2" d="M110.19,116.48l-2.39,1.39a6.16,6.16,0,0,1-.94-3.39c.88.22,1.3-.41,1.76-1C109.58,114.28,109.73,115.46,110.19,116.48Z"/><path class="cls-2" d="M100.57,59.06c-.06.3,1.39.66,0,.88a21.15,21.15,0,0,1-3,.08,2.08,2.08,0,0,1-1.4-2l2.56.39Z"/><path class="cls-2" d="M89,60.39H88c-.66-1.7.07-3,1.13-4.27.66-.57,1.28,0,1.92.06a.37.37,0,0,1-.11.48C89.49,57.48,90.08,59.35,89,60.39Z"/><path class="cls-2" d="M139.76,94.42c-1.22-1.07-2.39-2.17-2.32-4a6.7,6.7,0,0,1,3.3,3.51A1,1,0,0,0,139.76,94.42Z"/><path class="cls-2" d="M89.93,113.53l-.53.08a6.24,6.24,0,0,1,.08-5,3.29,3.29,0,0,0,1,2C90.87,111.7,90.14,112.57,89.93,113.53Z"/><path class="cls-2" d="M103.42,84.81c.19.84-.21,1.86.77,2.44.87,1.2.36,2.52.3,3.8l-.2,0c-.64-.65-.41-1.78-1.26-2.32,0-1.28-.31-2.57.07-3.84Z"/><path class="cls-2" d="M80.1,96.81c-.51-.16-.76-1.11-1.53-.5a.64.64,0,0,1,0-.24c.36-1,.57-2.72,1.66-2.29S80.8,95.79,80.1,96.81Z"/><path class="cls-2" d="M81,118.8c.8-.45.87.12,1,.68-.06.73-.39,1.44,0,2.17a4.51,4.51,0,0,1-2.93-.87C80.7,121.14,80.53,119.63,81,118.8Z"/><path class="cls-2" d="M72.63,104.41l-1.35,3.34c-1.12.47-1.18-.09-.92-1a5.65,5.65,0,0,1,1.46-2.85A1,1,0,0,1,72.63,104.41Z"/><path class="cls-2" d="M85.28,64.71c.43.25.45.68.53,1.09a8.72,8.72,0,0,1-1.46,3.31A1.59,1.59,0,0,1,83.52,68,3.31,3.31,0,0,1,85.28,64.71Z"/><path class="cls-2" d="M70.36,106.79c.06.55.25,1,.92,1a3.2,3.2,0,0,1-2.15,2.43C68.85,108.63,69.75,107.76,70.36,106.79Z"/><path class="cls-2" d="M72.63,104.41a.79.79,0,0,1-.81-.47l1.05-2.81c.5-.21.78,0,1,.46C73.77,102.67,73,103.47,72.63,104.41Z"/><path class="cls-2" d="M93.76,78.59c-.33.17-.8,1.25-.88-.14,0-.48-.06-1-.08-1.43,0-.74.11-1.48.17-2.22.49-.23.75,0,1,.44C93.86,76.36,93.81,77.47,93.76,78.59Z"/><path class="cls-2" d="M93.92,75.24l-1-.44A3,3,0,0,1,94,72,2.5,2.5,0,0,1,93.92,75.24Z"/><path class="cls-2" d="M76,110.17c-1.28-.24-.65-1.35-.93-2,0-.34.11-.68.49-.83l1.12.55A3.73,3.73,0,0,1,76,110.17Z"/><path class="cls-2" d="M62.22,107.31l1.12.1c-.07.22-.07.5-.21.65-.52.57-1.07,1.82-1.8,1.2S61.48,107.79,62.22,107.31Z"/><path class="cls-2" d="M73.38,99.2c.26-.63.32-1.67,1.26-1.36s.34,1.18.13,1.8a8.46,8.46,0,0,1-.49,1.06C73.65,100.4,73.83,99.61,73.38,99.2Z"/><path class="cls-2" d="M90,101.86c-.1,2,.48,4-.34,5.91C89.68,105.8,89.41,103.8,90,101.86Z"/><path class="cls-2" d="M73.38,99.2c1,.08.81.88.9,1.5,0,.36,0,.71-.43.89l-1-.46Z"/><path class="cls-2" d="M90.94,92.31c-.09,1.81.47,3.65-.35,5.41A17.58,17.58,0,0,1,90.94,92.31Z"/><path class="cls-2" d="M71,116.84c-1.3-.13-2.51-.41-3-1.89A4.93,4.93,0,0,1,71,116.84Z"/><path class="cls-2" d="M135.16,124.62a7.42,7.42,0,0,1-3,1.47c.47-1.08,1.55-1.39,2.44-1.94Z"/><path class="cls-2" d="M92.47,91.16c.11-1.47-.45-3,.36-4.41A12.14,12.14,0,0,1,92.47,91.16Z"/><path class="cls-2" d="M92.05,81.48c1.69-.38.5,1,.86,1.42l-.88.47Z"/><path class="cls-2" d="M83.85,68.07c.17.35.33.7.5,1s0,.75-.43.91L83.17,70A1.21,1.21,0,0,1,83.85,68.07Z"/><path class="cls-2" d="M79.56,75.75l1,.46-1,1-.6-.64A.67.67,0,0,1,79.56,75.75Z"/><path class="cls-2" d="M87.15,87.19c-.09.82.38,1.76-.56,2.38C86.57,88.73,86.37,87.85,87.15,87.19Z"/><path class="cls-2" d="M92,97.9c0-.85-.34-1.76.34-2.53A4,4,0,0,1,92,97.9Z"/><path class="cls-2" d="M105,94.9c.64.73.29,1.61.34,2.43A3.79,3.79,0,0,1,105,94.9Z"/><path class="cls-2" d="M105.45,99.2c.67.74.3,1.63.35,2.46A3.74,3.74,0,0,1,105.45,99.2Z"/><path class="cls-2" d="M156.92,87.23c.76,2.07-.18,4.11-2.68,5.85a1.85,1.85,0,0,1-1.73-.81,21,21,0,0,0-2.9-3.87,25,25,0,0,0-1.91-3c-.54-1-1.37-1.77-1.44-3a1,1,0,0,1,.58-.8,1.87,1.87,0,0,1,.67-.09c.72.1,1.13.69,1.69,1.06a28.17,28.17,0,0,0,3.28,3,7.83,7.83,0,0,0,1.85,1.59C155.19,87.93,156.06,88.8,156.92,87.23Z"/><path class="cls-2" d="M137.05,86.22a1.67,1.67,0,0,0-1.65.08c-.48.31-.84.09-1.18-.25a31.8,31.8,0,0,1-2.41-3.78,7.9,7.9,0,0,0-2-1.94A5.3,5.3,0,0,1,128,77.41a1.84,1.84,0,0,1-.23-1.29c.29-.38.6-.71,1.14-.44A31.52,31.52,0,0,1,137.05,86.22Z"/><path class="cls-2" d="M146.44,82.54,148,85.18c.29,1,.1,1.49-1,1.08l-7.16-7.2c-.4-.47-.23-.83.23-1.13,1-.25,1.72.39,2.59.61a3.71,3.71,0,0,1,.61.28,2.78,2.78,0,0,1,.72.69C144.59,80.69,145.86,81.34,146.44,82.54Z"/><path class="cls-2" d="M152.12,80.11a21.87,21.87,0,0,1-7-5c-.51-1-.07-1.37.93-1.34l7.16,5.32C153.67,80.35,153,80.33,152.12,80.11Z"/><path class="cls-2" d="M121.51,64.21l.53.6a29.89,29.89,0,0,1,3.77,5.67c-.25.44-.42,1-1,1.06-1.14-.55-1.41-1.77-2.06-2.7a2.48,2.48,0,0,0-1.19-1.24c-.47-.38-1.1-.24-1.61-.5-.59-.93-2-1.16-2.16-2.46a4.88,4.88,0,0,1,1.78-.74C120.22,63.79,121,63.12,121.51,64.21Z"/><path class="cls-2" d="M152.12,80.11c.6-.07,1.09-.27,1.1-1,2.44.66,3.87,3,6.24,3.78.72,0,1.11.34.82,1s-.73,1.5-1.77.88c-.51-1.7-2.24-1.86-3.44-2.71C154.1,81.43,153.11,80.78,152.12,80.11Z"/><path class="cls-2" d="M125,71.39c0-.53.23-.89.82-.91a19.75,19.75,0,0,1,3.07,5.2l-1.08.52a.79.79,0,0,1-1,.13,3.34,3.34,0,0,1-.83-1.11C125.66,73.94,124.2,73,125,71.39Z"/><path class="cls-2" d="M140.3,76.2c-1.6-1.49-3.59-2.68-4-5.18,1.54,1.72,3.87,2.53,5,4.63A1,1,0,0,1,140.3,76.2Z"/><path class="cls-2" d="M143.44,79.54l-.4-.36c-.2-.9.54-1.1,1.08-1.43,1.47.83,3,1.56,3.88,3.14.3.56,0,.79-.48,1h-.22l-.21,0C145.61,81.5,144.69,80.26,143.44,79.54Z"/><path class="cls-2" d="M150.06,88.1a8.58,8.58,0,0,1,2.6,3.91c-.09.23-.12.5-.42.57a10.28,10.28,0,0,1-3.48-3.84A.94.94,0,0,1,150.06,88.1Z"/><path class="cls-2" d="M152.25,85.88a7.7,7.7,0,0,1-3.33-3,.72.72,0,0,1,.1-1.1,8.66,8.66,0,0,1,3.77,3.47A.72.72,0,0,1,152.25,85.88Z"/><path class="cls-2" d="M146.06,73.8a1.31,1.31,0,0,0-.93,1.34.78.78,0,0,1-.23-.07c-.93-.68-2-1.25-2.16-2.57,0-.13.3-.42.44-.41A3.38,3.38,0,0,1,146.06,73.8Z"/><path class="cls-2" d="M144.12,77.75c0,.76-.81.88-1.08,1.43a.9.9,0,0,0-.28-.08,13.75,13.75,0,0,1-2.51-2.82l.05-.08c.23-.44.67-.48,1.09-.55Z"/><path class="cls-2" d="M150.06,88.1l-1.3.64A6,6,0,0,1,147,86.26c.7,0,1-.44,1-1.08C149.26,85.77,149.23,87.24,150.06,88.1Z"/><path class="cls-2" d="M140.25,76.28a4.09,4.09,0,0,1,2.51,2.82c-.95,0-1.58-.76-2.41-1a.58.58,0,0,1,0-.92Z"/><path class="cls-2" d="M140.31,77.15c0,.3,0,.61,0,.92a1.05,1.05,0,0,0-.52,1,1.9,1.9,0,0,1-.4-.21c-.6-.5-1.42-1.08-1-1.88S139.64,77.46,140.31,77.15Z"/><path class="cls-2" d="M152.25,85.88l.54-.59a2.43,2.43,0,0,1,1.54,1.94C153.3,87.29,152.46,87.08,152.25,85.88Z"/><path class="cls-2" d="M149,81.82c0,.36-.07.73-.1,1.1l-1.4-1,.48-1Z"/><path class="cls-2" d="M152.24,92.58l.42-.57,1.58,1.07c-.44.59-1,.29-1.57.28Z"/><path class="cls-2" d="M121.51,64.21c-.6-.51-1.18.06-1.78,0-3.15.2-6-1.2-9-1.8a2.64,2.64,0,0,1-1.29-.62,5,5,0,0,1-1.12-1.74c-.14-.89-.87-.92-1.54-1.12s-1.52-.25-1-1.32c3.61-1.06,4.83-.65,6.79,2.31,1.61,2.41,5.61,3,9,1.36l1,1.4Z"/><path class="cls-2" d="M57,65.68a129.08,129.08,0,0,1-16.4,11.45c-1,.47-1.43.05-1.37-1,3.5-4.08,8-6.81,12.61-9.41,1.22-.69,2.45-1.36,3.67-2C56.53,64.26,57,64.6,57,65.68Z"/><path class="cls-2" d="M74.21,80a1.24,1.24,0,0,1-.39.09c-2.3-.56-.95-2.24-1.06-3.48C75.67,70.94,78,64.9,83.27,60.84c.79-.21,1.11.29,1.36.91.18,1.27-.71,2.07-1.38,2.91-3.56,4.44-5.89,9.57-8.49,14.56A2.06,2.06,0,0,1,74.21,80Z"/><path class="cls-2" d="M72.76,76.58c.26,1.19-.55,2.71,1.06,3.48C71.33,87.49,67.5,94.24,63.3,100.8c-.5-1.18,2-2.57-.25-3.63A134.34,134.34,0,0,0,71.6,80.39C72.12,79.14,72.06,77.75,72.76,76.58Z"/><path class="cls-2" d="M65.72,75.88A64.57,64.57,0,0,1,52.58,93.39a.55.55,0,0,1-.79.06.64.64,0,0,1-.06-1l13-17.68C65.53,74.74,65.9,75.06,65.72,75.88Z"/><path class="cls-2" d="M63.21,70.44c3-4.76,6.87-8.76,10.63-12.87q1.53,0,.87,1.38a63.48,63.48,0,0,1-10,12.46C63.66,71.86,62.83,72,63.21,70.44Z"/><path class="cls-2" d="M60,50.05c-2.17,2-4.82,3.16-7.35,4.56-.43.45-.87,1-1.59.67-.56-.22-.52-.69-.34-1.17a36.14,36.14,0,0,1,8.64-5.35C59.88,49,60.19,49.4,60,50.05Z"/><path class="cls-2" d="M39.24,76.14a1.44,1.44,0,0,0,1.37,1c-1.68,2.41-4.69,3.16-6.59,5.29-1-.07-1.49-.53-1.38-1.55A4.26,4.26,0,0,0,35.82,79C36.83,77.91,37.73,76.66,39.24,76.14Z"/><path class="cls-2" d="M71.92,51.87l.71-.18c.62-.24.93.08,1.13.61a23.83,23.83,0,0,1-6.85,6.06C67.86,55.62,70.14,53.93,71.92,51.87Z"/><path class="cls-2" d="M67.54,47c-2-.24-3.31,1.13-4.86,2L62,49a2.12,2.12,0,0,1-2.14-.6c1.09-1.05,2.61-1.25,3.91-1.89s.53-1-.15-1.35C65.13,45.27,67,44.68,67.54,47Z"/><path class="cls-2" d="M84.35,61.93a1.85,1.85,0,0,0-1.08-1.09q1.5-2.6,3-5.17c.11-.19.25-.2.41-.06a1.1,1.1,0,0,1,1,.62C87.53,58.69,86.89,60.87,84.35,61.93Z"/><path class="cls-2" d="M29.27,70.93a3.55,3.55,0,0,1-1-3.36c.61,1.92,1.54,2,2.93.64a14.25,14.25,0,0,1,2.33-1.54c.36.28.81.45,1,.92A21.55,21.55,0,0,1,29.27,70.93Z"/><path class="cls-2" d="M65.72,75.88a1.94,1.94,0,0,0-1-1.08,8.88,8.88,0,0,1,3.93-4.68C68.08,72.25,67.44,74.33,65.72,75.88Z"/><path class="cls-2" d="M50.84,84a10.28,10.28,0,0,1-3.08,4.17c-.66,0-1-.18-.82-.92,1.05-1.81,2-3.73,3.83-4.9C51.25,82.83,51.07,83.39,50.84,84Z"/><path class="cls-2" d="M46.94,87.2l.82.92c-1.15,2.46-3.67,3.69-5.2,5.82l-.41-.52A23.56,23.56,0,0,1,46.94,87.2Z"/><path class="cls-2" d="M80.5,58.53a22.77,22.77,0,0,1-4.43,5.63c.4-2.49,2.41-4,3.47-6.14C80.13,57.68,80.53,57.69,80.5,58.53Z"/><path class="cls-2" d="M63.21,70.44c.08.93.71,1,1.45,1-.87,1.26-1.53,2.78-3.51,2.93A4.62,4.62,0,0,1,63.21,70.44Z"/><path class="cls-2" d="M51.73,92.48c.07.5.24.91.85.91a10.28,10.28,0,0,1-3.69,4,1,1,0,0,1-.1-1.25Z"/><path class="cls-2" d="M57,65.68a1.51,1.51,0,0,0-1.49-1,3.07,3.07,0,0,1,1.94-1.43c.9-.19,2.1-1,1.93,1A3.05,3.05,0,0,1,57,65.68Z"/><path class="cls-2" d="M34.52,67.59c-.6,0-1-.26-1-.92a10.25,10.25,0,0,1,3.36-1.89c.45.19.8.44.49,1A10.93,10.93,0,0,1,34.52,67.59Z"/><path class="cls-2" d="M74.71,59a1.39,1.39,0,0,0-.87-1.38,4,4,0,0,1,1.36-2c.7-.35,1.37-.62,1.5.56A6.35,6.35,0,0,1,74.71,59Z"/><path class="cls-2" d="M37.4,65.78l-.49-1a6.14,6.14,0,0,1,3.28-1.64c.48.09,1,.17,1.2.67A15,15,0,0,1,37.4,65.78Z"/><path class="cls-2" d="M80.5,58.53a1,1,0,0,0-1-.51,6.51,6.51,0,0,1,2.84-3.34.32.32,0,0,1,.49,0A7.49,7.49,0,0,1,80.5,58.53Z"/><path class="cls-2" d="M50.69,54.11c.25,1.68,1.26.43,1.93.5.09,2-1.54,2.26-2.82,2.9a.68.68,0,0,1-.6-.57C50.43,56.38,50.14,55,50.69,54.11Z"/><path class="cls-2" d="M26.88,63.75a7.87,7.87,0,0,1-.46-6.84C27.3,59.14,26.62,61.48,26.88,63.75Z"/><path class="cls-2" d="M35,57.06a5.57,5.57,0,0,1,4.25-2,.35.35,0,0,1,.12.37c0,.13-.07.19-.11.19-1.3.59-2.34,1.72-3.84,1.93A.81.81,0,0,1,35,57.06Z"/><path class="cls-2" d="M76.7,56.18c-.33-.64-.93-.56-1.5-.56.6-.8,1.21-1.59,1.81-2.38l.47-.08c.55-.27.81.05,1,.49l.14,0A8,8,0,0,1,76.7,56.18Z"/><path class="cls-2" d="M39.3,55.63c0-.18,0-.37,0-.56a2.63,2.63,0,0,1,2.83-1.24c.13,0,.35.44.29.54C41.7,55.55,40.51,55.63,39.3,55.63Z"/><path class="cls-2" d="M76.75,50a4.77,4.77,0,0,0-2.6,2.28,2.63,2.63,0,0,0-.39.06l-1.13-.61c.46-.94,1.73-1.16,2-2.26Z"/><path class="cls-2" d="M48.79,96.19l.1,1.24a1,1,0,0,0,0,1.26c-1.22,0-2.39,0-2.79-1.5C47.2,97.48,48,96.74,48.79,96.19Z"/><path class="cls-2" d="M59.39,64.23c-.15-1.3-1.17-.89-1.93-1a10.15,10.15,0,0,1,1-.64c.67-.33,1.48-1.13,2.08-.26C61.26,63.45,60,63.75,59.39,64.23Z"/><path class="cls-2" d="M34,58.48a3.42,3.42,0,0,1-.71.57c-.59.29-1.13.86-1.88.59-.13,0-.25-.41-.21-.59.19-1,1-1,1.78-1.1A1.19,1.19,0,0,1,34,58.48Z"/><path class="cls-2" d="M41.39,63.81a1.26,1.26,0,0,1-1.2-.67,2.54,2.54,0,0,1,1.88-1c.75-.06,1.15.23,1,1Z"/><path class="cls-2" d="M82.87,54.71l-.49,0L82,54.33c.47-.53.94-1.06,1.4-1.6a1.11,1.11,0,0,1,1.44.5l-1.41,1.49Z"/><path class="cls-2" d="M26.26,56.07a10.34,10.34,0,0,1,0-6.18Z"/><path class="cls-2" d="M43.06,63.22a1.78,1.78,0,0,0-1-1c.71-.43,1.54-1.35,2.18-.25C44.76,62.81,43.7,63,43.06,63.22Z"/><path class="cls-2" d="M59.83,48.38,62,49l-2,1.07-.64-1.29a2.45,2.45,0,0,1,.08-.37Z"/><path class="cls-2" d="M34,58.48A1,1,0,0,1,33,58c.48-.74,1.56-.12,2-.89l.42.5Z"/><path class="cls-2" d="M50.84,84c0-.55-.05-1.1-.07-1.65.21-.32.62-.42.78-.14C52,83,51.38,83.47,50.84,84Z"/><path class="cls-2" d="M26.26,47c-.72-.89-.26-1.93-.37-2.89l.38.07Z"/><path class="cls-2" d="M49.2,56.94l.6.57c-.29.36-.73.73-1.1.33S48.83,57.13,49.2,56.94Z"/><path class="cls-2" d="M57.37,41.74c-.79-.9-.41-1.93-.35-2.92C57.66,39.73,57.3,40.76,57.37,41.74Z"/><path class="cls-2" d="M84.8,53.23l-1.44-.5c-.66-2.15-2-2.49-3.77-1.3q-.41-.24-.09-.6l0-.92c.45,0,.88-.12,1.08-.61,2.87.13,5.23,1.56,7.62,2.93-.59.13-1.38,0-1.43.92Z"/><path class="cls-2" d="M67,43.55a27.39,27.39,0,0,1,8.75-3.66,1.17,1.17,0,0,1,.93.88C75,42.11,72.85,42.3,71,43.1c-.65.27-1.74.15-1.4,1.41C68.46,44.85,67.75,44.07,67,43.55Z"/><path class="cls-2" d="M56.14,35c.41,2.55,1,5.1-.17,7.62Q56,38.82,56.14,35Z"/><path class="cls-2" d="M78.86,33.07c-1.23,1.35-3,1.58-4.6,2L74,35c-.28-.27-.58-.53-.25-1,1.17-1.21,2.76-1.49,4.28-1.95A1.13,1.13,0,0,1,78.86,33.07Z"/><path class="cls-2" d="M78.86,33.07l-.84-1a11.09,11.09,0,0,1,4.82-1.89c.46.22.78.51.53,1.07Z"/><path class="cls-2" d="M95.8,33.18a6.13,6.13,0,0,1-4.56,1.91c.73-2.08,2.41-2.5,4-3C95.73,32.27,96.09,32.57,95.8,33.18Z"/><path class="cls-2" d="M76.63,40.77l-.93-.88c1.09-.92,2.56-.88,3.75-1.54a1.64,1.64,0,0,1,1.87.07c.35.33,0,.65-.39.83Z"/><path class="cls-2" d="M70.94,36.5c-.68-.17-1.52.24-2-.58l3.79-1.5a5.72,5.72,0,0,1,1.39.48l.16.16A9,9,0,0,1,70.94,36.5Z"/><path class="cls-2" d="M94.67,25.83a1.41,1.41,0,0,1,1.18.69L92,28.32c-.42-.18-.73-.43-.47-.95C92.51,26.8,93.38,25.87,94.67,25.83Z"/><path class="cls-2" d="M86.68,44.63c1.22-1,2.37-2.09,4.38-1.63a4.78,4.78,0,0,1-3.82,2.1C86.69,45.38,86.63,45.07,86.68,44.63Z"/><path class="cls-2" d="M80.93,39.25c.44-1.83-1.12-.38-1.48-.9,1.33-.56,2.64-1.25,4.28-.93A3,3,0,0,1,80.93,39.25Z"/><path class="cls-2" d="M77,25.3,80.45,24c.43.2.72.47.48,1a10,10,0,0,1-3.28,1C77.07,26.09,76.89,25.84,77,25.3Z"/><path class="cls-2" d="M99.06,30.67l.52.47c-1.08.27-1.53,1.63-2.78,1.6-.5-.23-.86-.54-.57-1.16A5,5,0,0,1,99.06,30.67Z"/><path class="cls-2" d="M83.37,31.24l-.53-1.07c0-.07.06-.17.12-.2.67-.43,1.38-.79,2.15-.26a.61.61,0,0,1,.21.55A1.81,1.81,0,0,1,83.37,31.24Z"/><path class="cls-2" d="M77,25.3l.63.67c-.88,1-2,1-3.23.81A3.22,3.22,0,0,1,77,25.3Z"/><path class="cls-2" d="M83.36,47.08c-.69.52-1.64,1.28-2.11.19-.33-.76.8-1.12,1.61-1.21C83.28,46.27,83.66,46.51,83.36,47.08Z"/><path class="cls-2" d="M83.36,47.08l-.5-1,1.94-.9a1.27,1.27,0,0,1,.54,1A2.52,2.52,0,0,1,83.36,47.08Z"/><path class="cls-2" d="M101.58,38.92a1.84,1.84,0,0,1,.39-.25c.59-.21,1.31-1.13,1.75-.25.37.73-.66,1-1.23,1.4C101.69,40,101.45,39.66,101.58,38.92Z"/><path class="cls-2" d="M91.48,27.37l.47.95c-.53.77-1.31,1.17-1.75.14S90.74,27.39,91.48,27.37Z"/><path class="cls-2" d="M101.58,38.92a1.41,1.41,0,0,0,.91.9c-.62.5-1.34,1.45-2,.43C100,39.56,101,39.19,101.58,38.92Z"/><path class="cls-2" d="M80.93,25l-.48-1c.55-.6,1.42-.82,1.73-.13C82.56,24.71,81.65,24.89,80.93,25Z"/><path class="cls-2" d="M85.34,46.15a1,1,0,0,1-.54-1l1.88-.53.56.47A3.07,3.07,0,0,1,85.34,46.15Z"/><path class="cls-2" d="M96.23,31.58l.57,1.16-1,.44-.57-1.13C95.42,31.6,95.86,31.66,96.23,31.58Z"/><path class="cls-2" d="M74.1,34.9c-.58.18-1.09.14-1.39-.48l1-.41Z"/><path class="cls-2" d="M171.45,127.85c-.39.64-1,.52-1.6.47l.1-2.23a14.9,14.9,0,0,1,0-5c.79-3.88.4-8.12,3.6-11.93.63,5.76-2.14,10.41-2.19,15.43a5.66,5.66,0,0,0,0,2.86A.82.82,0,0,1,171.45,127.85Z"/><path class="cls-2" d="M168.1,128.92c-1.26,1.29-2.85,1-4.39.85-.43-2.43-.73-4.86.49-7.18.84.59.3,1.74,1,2.41a9.25,9.25,0,0,1,.12,1.18C165.19,129.34,165.19,129.34,168.1,128.92Z"/><path class="cls-2" d="M184.36,121.72a1.37,1.37,0,0,1-1.55.85c0-1.74-1.13-3.39-.4-5.18.47-.46.16-1.45,1.1-1.58.68,1.09.35,2.31.43,3.48C184,120.11,183.49,121,184.36,121.72Z"/><path class="cls-2" d="M183.51,115.81c-.37.52-.45,1.25-1.1,1.58a13.5,13.5,0,0,1-.19-5.87C183.85,112.84,183.16,114.48,183.51,115.81Z"/><path class="cls-2" d="M188.78,113a17.91,17.91,0,0,1-1.15-5c0-.41-.2-1.05.52-1.06.53,0,.45.51.54.88.14.6.34,1.18.52,1.76C189.23,110.75,190,112,188.78,113Z"/><path class="cls-2" d="M164.33,121.71a4.36,4.36,0,0,1,.87-3.38c.81-.13,1.17.2,1,1a5.56,5.56,0,0,1-.92,3.4C164.74,122.64,164.7,122,164.33,121.71Z"/><path class="cls-2" d="M164.33,121.71c.71,0,.84.53,1,1.05l-.15,2.24c-1.24-.44-.59-1.63-1-2.41Z"/><path class="cls-2" d="M166.23,119.36a1.83,1.83,0,0,0-1-1c0-.67.22-1.48,1-1.08C167.36,117.8,166.86,118.65,166.23,119.36Z"/><path class="cls-2" d="M188.78,113c.71-1.06.12-2.3.43-3.42.73,1.17.26,2.44.29,3.66,0,.27-.13.48-.4.31S188.88,113.2,188.78,113Z"/><path class="cls-2" d="M169.93,121.06c0,1.67,0,3.35,0,5A9.44,9.44,0,0,1,169.93,121.06Z"/><path class="cls-2" d="M171.33,127.42a2.39,2.39,0,0,1,0-2.86Z"/><path class="cls-2" d="M105.85,57.64c.21,1.16,1.15.78,1.85.84,1,.09,1.51.41,1,1.47a2,2,0,0,1-2.06.36c-.84-.56-1.78-.3-2.68-.34l-1.12-.54A5,5,0,0,1,105.85,57.64Z"/><path class="cls-2" d="M149.81,127c-.45-.54-.26-1.65-1.4-1.57.78-.47,1.11-2.26,2.53-.86C150.56,125.38,150.18,126.19,149.81,127Z"/><path class="cls-2" d="M121.63,131.73c0-.27,0-.54.07-.8.49-.11,1-.36,1.49,0A1.8,1.8,0,0,1,121.63,131.73Z"/><path class="cls-1" d="M109.61,61.37c.19.43.59.44,1,.49,2.33,1.08,4.85,1.69,7.11,2.93a3.75,3.75,0,0,1,2.56,2.28c1.37,1.68,1.75,3.9,3.07,5.6a9.9,9.9,0,0,0,2.88,4.64c1.63,1.47,2.81,3.34,4.35,4.89,1.2,2,2.55,3.84,3.7,5.85a.62.62,0,0,1-.18.6c.3,3.66,2.51,6.09,5.25,8.18-.39,2.57,1.33,4.27,2.5,6.2a5.41,5.41,0,0,1-2.8,5.11c-1.32.86-2.61,1.76-3.92,2.64-1.26,0-1.31-1.17-1.84-1.88a23.81,23.81,0,0,0-1.93-4.35,110.13,110.13,0,0,0-9.46-16.16,37.87,37.87,0,0,0-2.1-3.37c-.16-.24-.42-.75-.52-.65-.5.53.21.9.29,1.36a10.6,10.6,0,0,0,1.5,2.89,146,146,0,0,0,10.19,17,29.12,29.12,0,0,0,1.93,4.07c.23.8.67,1.61-.08,2.38l-4.26,2c-1.51.38-1.44-.88-1.62-1.69A40,40,0,0,0,123,102a2.59,2.59,0,0,1-.25-.39c-.13.33.29.4.34.66a38.74,38.74,0,0,1,4,10.26c.22.87.91,2-.68,2.46l-1.91,0c-1.25.5-1.91-.2-2.41-1.2a26.63,26.63,0,0,1-1.31-3.52c-1.17-4.26-1.73-8.77-5.19-11.91-.23-.35-.54.18-.28,0,.05,0,.27,0,.31.08,1.29,3.65,2.73,7.25,4.13,10.87.31.81.57,1.64.88,2.46s.63,1.56.93,2.35.44,1.36-.48,1.72a2.37,2.37,0,0,0-1.83.59,2.6,2.6,0,0,1-2.4.46c-2.16-1.09-4.43-.54-6.67-.46-1.51-.47-1.29-1.84-1.57-3,.86-6.29-.59-12.48-.82-18.72-.39-2.12-.65-4.28-2.08-6-.36-.44-.2-.7,0-1.2,1.67-3.67,1.14-7.31-.41-10.89-.44-2,0-3.93-.2-5.9.37-2.47-.94-5,.27-7.46a3.16,3.16,0,0,0,.92-2.45C107.58,60,108.57,60.84,109.61,61.37Z"/><path class="cls-2" d="M123.14,101.47c2.15,2.74,3.2,6,4.21,9.23.36,1.17-.1,2.75,1.47,3.41-.41.58.05,1.68-1.11,1.81-.73.08-1.26-.06-1.29-.92,1.07-.85.25-1.78,0-2.62a47.34,47.34,0,0,0-4-10.28C122.44,101.61,122.67,101.42,123.14,101.47Z"/><path class="cls-2" d="M121.09,115.89c1-1.55-1.28-2.37-.84-3.8.25-.69.22-1.51.94-2,.49,1.21,1,2.4,1.46,3.64a1.64,1.64,0,0,0,1.86,1.3C123.4,115.44,122.59,117.07,121.09,115.89Z"/><path class="cls-2" d="M133.69,108.65c.76.52.53,1.69,1.41,2.13,0,1.5-1,1.35-2,1.28-.13-.79-.27-1.57-.41-2.36C132.88,109.22,133.07,108.73,133.69,108.65Z"/><path class="cls-2" d="M116.86,116.94c.81-.07,1.53-.66,2.4-.46.28,1.77-1.62.44-1.94,1.36Z"/><path class="cls-2" d="M103.42,84.81l-.16,0h-.16c0-3.84,0-7.67,0-11.51.84,2.3.18,4.68.41,7,.13,1.31-.37,2.67.36,3.93Z"/><path class="cls-2" d="M105.42,70.92a7.43,7.43,0,0,1-.08,5.76l-.54.56a12.64,12.64,0,0,1,0-6.32C105,70.66,105.22,70.65,105.42,70.92Z"/><path class="cls-2" d="M104.49,91.05l-.3-3.8C105.39,88.43,104.94,89.74,104.49,91.05Z"/><path class="cls-2" d="M134.53,85.81l.87.49c.21,1.11,1.07,1.86,1.57,2.8-1.18,2-1.33-.16-1.94-.47-.42-.54-1-.93-1.27-1.61C133.77,86.46,133.56,85.76,134.53,85.81Z"/><path class="cls-2" d="M84.35,61.93c1.79-1.5,2.37-3.72,3.37-5.7l1.43-.11c-.38,1.42-.76,2.84-1.13,4.27a13.33,13.33,0,0,0-2.74,4.32c-.56,1.09-1.37,2.06-1.43,3.36-.22.63-.45,1.25-.68,1.88l-3.61,5.8-.6.8c-2,1.1-2.56,3.3-3.9,4.9-1-.11-.79-.85-.85-1.48a4,4,0,0,1,.65-2.73c3.06-4.61,4.83-10,8.83-14.06A5,5,0,0,0,84.35,61.93Z"/><path class="cls-2" d="M105.42,70.92h-.59c-.69-2.52-.4-5.09-.46-7.65.35-.1.72-.48,1,0C105.48,65.85,106,68.38,105.42,70.92Z"/><path class="cls-2" d="M134.09,87.18a1.5,1.5,0,0,1,.94,1.45l-1,0a.68.68,0,0,1,0-.37A.84.84,0,0,1,134.09,87.18Z"/><path class="cls-2" d="M106.31,59.91l-.38.46c-.68,0-1.42.25-2-.4C104.74,59.54,105.51,59,106.31,59.91Z"/><path class="cls-2" d="M143.44,79.54c1.73,0,2.62,1.25,3.65,2.31l-.65.69A6,6,0,0,1,143.44,79.54Z"/><path class="cls-2" d="M134.09,87.18l-.06,1.1-3.81-5.78a.48.48,0,0,1-.14-.37c0-.14,0-.2,0-.2.69-.6,1.37.19,2,0l2.36,3.88C134,86.14,134.12,86.68,134.09,87.18Z"/><path class="cls-2" d="M130.26,81.93l0,.57-4.3-4.82a1.09,1.09,0,0,1,.08-1.53c.93,0,1.32,1.25,2.35,1,.58,1,.87,2.22,1.93,2.93A1.41,1.41,0,0,1,130.26,81.93Z"/><path class="cls-2" d="M130.26,81.93c0-.62,0-1.24,0-1.85a4.23,4.23,0,0,1,1.89,1.85C131.53,83.9,130.9,81.35,130.26,81.93Z"/><path class="cls-2" d="M128.35,77.15c-.08.33,0,.83-.61.63a1.63,1.63,0,0,1-1.34-1.58.4.4,0,0,1,.56-.07l.84.07Z"/><path class="cls-2" d="M122.9,72.89a13,13,0,0,1-2.65-5.82,1.17,1.17,0,0,1,1.39,0c.3.62,1,1,1.19,1.65.26,1.45,2.12,2.48,1.12,4.26A1.07,1.07,0,0,1,122.9,72.89Z"/><path class="cls-2" d="M117.69,64.79c-2.77,0-4.92-1.52-7.11-2.93l9.15,2.38C119.2,65,118.36,64.57,117.69,64.79Z"/><path class="cls-2" d="M124,72.85c-.17-1.55-1.53-2.69-1.46-4.32a.3.3,0,0,1,.49,0L125,71.39l1.51,3.87C124.49,75.67,124.16,74.36,124,72.85Z"/><path class="cls-2" d="M123.05,68.55l-.49,0a1.45,1.45,0,0,1-.92-1.42C122.29,67.42,123.07,67.59,123.05,68.55Z"/><path class="cls-2" d="M124,72.85c.84.78.92,2.35,2.48,2.41.15.29.3.58.46.87l-.56.07c-.56.36-.44,1-.48,1.48a7.75,7.75,0,0,1-3-4.79Z"/><path class="cls-2" d="M79.5,50.83l.09.6c0,.91-.74,1.48-1.1,2.22l-1-.49C78.07,52.31,78.41,51.25,79.5,50.83Z"/><path class="cls-2" d="M122.1,88.17c4.18,4.83,6.92,10.52,9.64,16.21.31.88.19,1.48-.92,1.45a102.93,102.93,0,0,1-10.26-17.15C120.91,88,121.37,87.68,122.1,88.17Z"/><path class="cls-2" d="M121.19,110.11c0,.8-.06,1.59-.94,2-1.74-4.67-4-9.16-5.2-14.64C119.65,100.91,120.22,105.61,121.19,110.11Z"/><path class="cls-2" d="M130.82,105.83a1.58,1.58,0,0,0,.92-1.45c1.23,1.16,1.47,2.77,1.95,4.27l-1,1A9.71,9.71,0,0,1,130.82,105.83Z"/><path class="cls-2" d="M122.1,88.17l-1.54.51c-1-.63-1.2-1.71-1.43-2.75-.16-.8.19-1.14,1-1.08A6.62,6.62,0,0,1,122.1,88.17Z"/><path class="cls-2" d="M120.11,84.85l-1,1.08a2.59,2.59,0,0,1-.47-.53c-.38-.75-1-1.84,0-2.22S120.08,83.85,120.11,84.85Z"/><path class="cls-2" d="M123.14,101.47l-.64.63c-.53-.38-1-.81-.78-1.54a.58.58,0,0,1,.74-.39C123.18,100.33,123.11,100.93,123.14,101.47Z"/></g></g></svg>