<svg xmlns="http://www.w3.org/2000/svg" viewBox="0 0 176.8 206.64"><defs><style>.cls-1{fill:#a5576d;}.cls-2{fill:#1d1d1b;}</style></defs><g id="Capa_2" data-name="Capa 2"><g id="Capa_1-2" data-name="Capa 1"><path class="cls-1" d="M132.35,116a38.74,38.74,0,0,1,22,5.38c.67.39,1.27.89,1.91,1.34-1.21.87-2.27,0-3.37-.31-1.91-.47-3.68-1.6-5.77-1.08a4.25,4.25,0,0,1-2.47-.53c-2-1.36-3.75-.27-5.64.37,2.33,2.59,4.87,3,8.07,1.29a2.47,2.47,0,0,1,1.08-.11,50.43,50.43,0,0,1,13.28,5.72c4.81,2.87,6.77,6.88,5.78,12.37-.12.5-.28,1-.85,1.12-1.33-.83-1.58-2.32-2.18-3.58-.54-1-.48-3.19-1.86-2.67s.12,2.07.39,3.17a2.3,2.3,0,0,0,.18.43A24.87,24.87,0,0,1,164.5,148a5.11,5.11,0,0,1-1,3.36c-3.43,3.65-4.27,8.24-4.84,12.94a87.32,87.32,0,0,1-3.41,10.37,11,11,0,0,1-4.31,5.79c-2.16,1.33-3.89,1.35-5.49,0s-1.26-3.05-.49-4.72c.13-.29.19-.61.31-.9a94.11,94.11,0,0,0,9.32-29.72,9,9,0,0,0,.08-2.14,8,8,0,0,0-2.41-6.61,15.91,15.91,0,0,1,1.17,7.43,5.48,5.48,0,0,1-.19,1.06c-1.7,5.89-4.32,11.47-6,17.38a40.62,40.62,0,0,0-1.13,4.88c-.64,3.23-2.91,5.87-3.36,9.17-.84,2.66.66,4.41,2.41,6s3.71,1.6,5.78.71a12.23,12.23,0,0,0,6.67-7.38c1.89-5,2.69-10.28,3.44-15.56.42-3.87,1.68-7.17,5.84-8.46a1.13,1.13,0,0,1,1.06.45,3,3,0,0,1,.36,2.07,24.31,24.31,0,0,0,.23,9.87,31.92,31.92,0,0,0-5.27,13.61c-.56,1.22-1.82,1.73-2.7,2.62a22.58,22.58,0,0,0-5.12,8.75c-2.28,2.39-5.62,2.67-8.34,4.21a131,131,0,0,1-17.54,2c-4.78.24-9.57.06-14.35,0a9.85,9.85,0,0,1-3.53-.55c-3.49-1.67-7.22-2.91-10.14-5.66a37.38,37.38,0,0,1-9.79-15.84,2,2,0,0,1,0-1.41,1.68,1.68,0,0,1,2-.58c1.69,1,3,2.59,5,3.15,2.79.79,4.66-.14,5.5-2.93a12.23,12.23,0,0,0-.57-8.15c-1.25-3.25-2.89-6.37-3.25-9.92-.5-5.29,1.19-10,3.92-14.4a10.5,10.5,0,0,1,4.94-4.64c.88-.31,1.91-.13,2.94-.94-1.19-.48-2.1.06-3,.27-3,1-5.48,2.55-7,5.43-4.45,6.68-5,13.74-2,21.13,1.09,2.73,2.35,5.42,2.06,8.48-.12,1.26-.09,2.65-1.56,3.21a3.57,3.57,0,0,1-3.9-1.08,16.06,16.06,0,0,1-3.3-5.47,8.35,8.35,0,0,1-.25-2.58,7.08,7.08,0,0,0-.42-3.37c-.93,1.42-.68,2.8-.74,4.11a4.26,4.26,0,0,1-.29,1.45,1.87,1.87,0,0,1-2.24,1.21c-1.24-.6-1.38-1.9-1.88-3a31.28,31.28,0,0,1-.19-5.21,6.46,6.46,0,0,1,.19-1.52A58.11,58.11,0,0,1,110,122.88a4.56,4.56,0,0,1,2.07-.79c1.62-.28,3.21-.73,4.85-.91a19.63,19.63,0,0,0,2.85-.27,6.55,6.55,0,0,1,7.08,2.83,5.34,5.34,0,0,1,.84,3.2c-.89,1.53-2.15,1-3.35.58a7,7,0,0,0-3.21-.74c-.87.12-.86.54-.34,1.1,2.22,1,4,3.2,6.76,2.74a21.41,21.41,0,0,0,2.4.1c2.5-.67,4.9.07,7.32.51a12.78,12.78,0,0,0,6.13.09c.05,0-.4-.35-.26-.06-2.37.24-4.23-1.06-6.2-2-1.14-2.24-2-4.63-3.15-6.86-.46-2.06-1.55-4-1.71-6.1Z"/><path class="cls-1" d="M81.08,179.72c-2.24,7.75-7.06,13.62-13.52,18.21-14.17,10.06-29.3,10.89-45.37,5.12-13.53-4.86-20-14.4-20.5-28.48,0-.64-.09-1.27-.14-1.9l.35-.12c2.19,3.21,4.07,6.6,6.35,9.77a36.31,36.31,0,0,0,12.41,10.46c2.22,1.22,4.43,2.49,6.53,3.91a18.9,18.9,0,0,0,16.12,2.82c2-.53,4.08-.6,6.11-1,3.71-.17,6.74-2.11,9.88-3.78a32.81,32.81,0,0,1,5.24-2.07c1.3.08,2.26-.74,3.32-1.29a8.4,8.4,0,0,0,2-.86,9.83,9.83,0,0,0,2.87-1.9,6.23,6.23,0,0,0,2.16-1.86,9.34,9.34,0,0,0,2-2.73,2.87,2.87,0,0,1,.63-.67,3.75,3.75,0,0,0,1.4-1.9C79.59,180.78,79.83,179.6,81.08,179.72Z"/><path class="cls-1" d="M171.51,138.53a40.29,40.29,0,0,1,5,25.1c-2.57,21-17.87,36.14-38.83,39.08-13.08,1.83-25.2-1.2-36.47-7.62-9.34-5.33-13-14.24-13.85-24.51,1,.1,1.15,1,1.46,1.68a34.32,34.32,0,0,1,1.5,3.74c2.48,8.29,8,14,15.2,18.4a24.46,24.46,0,0,0,13.29,3.92c5.56,0,11.15.59,16.63-.54,4.42-.91,9.07-.89,13.23-2.95a13.62,13.62,0,0,0,7.84-4.22,8.24,8.24,0,0,0,3.87-4,32.6,32.6,0,0,1,3.15-4.89,64,64,0,0,0,6.82-18.6c2.19-2.74.93-6,1.22-9,.36-3.8-.2-7.57-.6-11.34C170.79,141.41,170.45,139.86,171.51,138.53Z"/><path class="cls-2" d="M60.44,106.5a5.13,5.13,0,0,1,1.41-2.89c1.7-1.92,2.18-4.39,3-6.7,1.9-5.64,4-11.21,6.16-16.74,2.4-7.36,5.28-14.54,8.11-21.74,1.68-4.3,4.41-8,6.53-12.06.77-1.46,1.78-2.82,2.07-4.47a3,3,0,0,1,1.51-2c.26-.49.61-.74,1.13-.4a1.51,1.51,0,0,1,.54,1.9,48.79,48.79,0,0,0-1.66,5.18c-1,2.32-1.62,4.8-3,6.94-2.3,2.78-2.87,6.32-4.22,9.52-2,5.06-3.66,10.23-5.83,15.22-2.2,3.27-3.32,7-4.67,10.66-2.61,6.45-5.66,12.71-8.17,19.2a7.42,7.42,0,0,1-1,1.87c-2.35,2.36-2.69,5.64-3.86,8.54-.41.62-.69,1.38-1.6,1.43a1.83,1.83,0,0,1-.59-2.35C57.49,113.88,58.84,110.15,60.44,106.5Z"/><path class="cls-2" d="M88.28,156.19l-.16,1.55c-.78,2.77.06,5.67-.72,8.44a3.48,3.48,0,0,1-.29.69c-2.11,2.11-2.24,5.19-3.69,7.63l-.94,1.95c-.82-.93-.42-2-.24-3a46.51,46.51,0,0,0,.21-12.36,3.23,3.23,0,0,1,0-.82c.16-.66.34-1.32.51-2,.52-3.21,0-6.45.26-9.66a4.57,4.57,0,0,1,.12-.74c1-2.4.1-4.25-1.73-5.83-2.87-2.72-5.12-6-7.8-8.87A8.19,8.19,0,0,0,71,131.15c-1.09-.46-2-1.18-1.78-2.48s1.47-1.45,2.6-1.5a1.45,1.45,0,0,1,1.21,1.14c-.18,1.55,1,1.78,2.07,2.07a3.56,3.56,0,0,1,2.82,2.22,3,3,0,0,0,3,1.94,1.17,1.17,0,0,1,.74,1c-.16,1.5,1,2.09,1.92,2.9a17.76,17.76,0,0,0,2,2.12c.56,1.94,2.53,2.74,3.54,4.33C89.54,148.69,88.7,152.42,88.28,156.19Z"/><path class="cls-2" d="M111.22,31.78c1,1.47.86,3.24.77,4.77-.32,5.56.82,10.89,2,16.24.68,3.21,1.3,6.44,2,9.66A5.67,5.67,0,0,0,114.82,64c-.26.45-.63.71-1.07.14-.44-2.1-1.18-4.13-1.56-6.24a16.62,16.62,0,0,1-.85-3.74,4.44,4.44,0,0,1-.15-.63c.08-1-.81-1.28-1.3-1.86a9,9,0,0,1,0-4.4c.66-3.27.59-3.35-2.45-2.4-1.76-1-1.83-2.85-2.22-4.52-.75-3.26-.23-6.62-.75-9.91a3.78,3.78,0,0,1,.65-2.25,3,3,0,0,1,2.75-1.28,1.93,1.93,0,0,1,.92,1.55C108.8,30.15,109.86,31.06,111.22,31.78Z"/><path class="cls-2" d="M86.76,166.81v-.48c1.5-.51.5-2.28,1.53-3,.87.67.58,1.88,1.21,2.67A18,18,0,0,1,92,172.11c2.19,6.73,5.49,12.74,11,17.44,2.48,2.13,5.67,2.75,8.29,4.51-.51,1.16-1.48,1-2.39.74a7.46,7.46,0,0,0-3.92-.19c-4.23-2-7.13-5.44-10.22-8.79-3.5-3.79-4.24-8.76-6.38-13.12-.35-.7-.41-1.54-1-2.12l-.16-1.22A2.9,2.9,0,0,1,86.76,166.81Z"/><path class="cls-2" d="M171.51,138.53c-.2,3.73.43,7.4.85,11.08.23,2-.38,4-.16,6.06.09.87-.26,1.79,0,2.76a4.43,4.43,0,0,1-1.68,5c-.25.3-.45.66-.91.65s-.87.37-1.34.42l-.26-.16c-1.58-4.09-.47-8.25-.31-12.39,1.4-3.19.67-6.32-.23-9.45-.17-.6-.62-1.11-.54-1.78a59.94,59.94,0,0,1,.43-7.93,1.07,1.07,0,0,1,.65-.2c1.77.77,2.11,2.62,3,4Z"/><path class="cls-2" d="M10.07,132.78c1.17-3.59,4.57-5,7.32-6.72,3.22-2,7.13-2.77,10.94-3.36a3.31,3.31,0,0,1,2.05.94c.39,1.25-1,2-.94,3.14a13.94,13.94,0,0,1-4.92,2.79,33.09,33.09,0,0,0-10.38,6.51,2.48,2.48,0,0,1-1.43.78,2.42,2.42,0,0,1-1.6-.59C10.52,135.18,11.63,133.58,10.07,132.78Z"/><path class="cls-2" d="M10.07,132.78c3.58.11.75,2.31,1.13,3.46,0,.12-.07.24-.1.35a36.29,36.29,0,0,0-5.79,17.64c-.52,1.78-1.5,3.48-.87,5.45a3.86,3.86,0,0,1-.15,1.11,44.58,44.58,0,0,0-1.74,8.08c-.15,1.15-.14,2.39-1,3.33l0,.47c-.47-2.21-1.81-4.28-1-6.68a14.57,14.57,0,0,1,.29-6.33,79.88,79.88,0,0,0,1.89-9.82c.33-3.67,1.79-7,3.11-10.37l.36-.48c1.58-1.42,2-3.5,3-5.24Z"/><path class="cls-2" d="M114.1,64.36c1.11-.16-.65-3,1.8-1.91,1.28,3.32,1.08,6.94,2.23,10.32C119.33,76.31,120,80,121,83.62a20.51,20.51,0,0,1,.75,4.64c-.54.74-.83,1.69-1.81,2a2.13,2.13,0,0,1-.94-1.57c-1.2-4.4-2.49-8.78-3.64-13.19a20.72,20.72,0,0,0-.91-4,22.69,22.69,0,0,0-1-5.29A2,2,0,0,1,114.1,64.36Z"/><path class="cls-2" d="M110.23,2.6C111.54.83,113-.6,115.49.25c1.48,1.41-.34,1.8-.8,2.61-.17.14-.36.27-.54.39-2,1.26-2,3.25-1.89,5.27-.22,2.85-1.48,5.35-2.58,7.92-1.4,1.51-2.55,3.29-4.57,4.13-1.48-.37-1.32-1.55-1-2.49,1.61-4.5,2.87-9.12,4.72-13.54C109.16,3.78,109.84,3.3,110.23,2.6Z"/><path class="cls-2" d="M120.22,90.32c0-1,.23-2,1.57-2.06,1.6,1.75,1.63,4.16,2.33,6.23,1,2.92,2.08,5.77,3.28,8.59a12.87,12.87,0,0,1,1.16,4.81,2,2,0,0,1-2.08,1.37,1.68,1.68,0,0,1-.71-.28c-1.31-1.38-1.49-3.27-2.13-4.94a105.49,105.49,0,0,1-3.92-11.9A2.22,2.22,0,0,1,120.22,90.32Z"/><path class="cls-2" d="M167.7,132.73c-.09.22-.33.51-.26.64,1.26,2.45-.68,4.76-.27,7.16-.18.17-.31.13-.4-.1a5.94,5.94,0,0,1,0-1.19c.94-5.09-1.76-8.16-5.68-10.72s-8.51-4.21-13-5.74c-.61-.49-1.36-.91-1-1.9.85-.76,1.74-.44,2.67-.15,2.17.69,4.36,1.33,6.54,2,2.11,1.16,4.55,1.79,6.15,3.78a39.71,39.71,0,0,1,4.29,3.9C167.32,131,168.31,131.58,167.7,132.73Z"/><path class="cls-2" d="M82.92,160.56a37.58,37.58,0,0,1-.27,14.49c-.09.46-.12.93-.17,1.4l-1.4,3.27-1.88,2c-.76.46-1,1.32-1.47,2l-.47.41c-1.61-.28-1.17-1.94-1.88-2.82A6.42,6.42,0,0,1,78,175.81c1.27.09.9.76.53,1.43a18.4,18.4,0,0,0,3-8.14c-.33.52-.5,2.11-1.49.27-.4-1.81.46-3.51.41-5.29C81,162.7,80.69,160.74,82.92,160.56Z"/><path class="cls-2" d="M110.23,2.6c-1.87,5.2-3.76,10.39-5.58,15.6-.26.75-.61,1.78.72,2.09.31,1.78-.76,3.06-1.61,4.42a2.38,2.38,0,0,1-2.61-.15c-.42-1.09.24-2,.56-2.95,1.6-4.63,2.83-9.4,4.9-13.85C107.5,5.84,108.35,3.85,110.23,2.6Z"/><path class="cls-2" d="M33.14,123.34c2.79-.59,5.68-.73,8.37-1.81a2.46,2.46,0,0,1,2.63.34,3.08,3.08,0,0,1,1.13,2.22c-2.05,3.29-7.24,4.13-10.7,1.75C34.47,124.79,33.35,124.33,33.14,123.34Z"/><path class="cls-2" d="M114.51,2.68c.08-.91,1.75-1.18,1-2.43,2.26,0,2.91,1.25,2.94,3.36a15.84,15.84,0,0,1-1.51,7.12c-.57,1.1-1,2.42-2.71,1.64a9.18,9.18,0,0,1-.28-3.76A17,17,0,0,0,114.51,2.68Z"/><path class="cls-2" d="M60.44,106.5c-1.11,3.27-1.83,6.66-3.2,9.85-.46,1.07-1.27,2.3-.2,3.53-.17,3.06-2.1,5.33-3.47,7.85a2.78,2.78,0,0,1-.89.63,2.72,2.72,0,0,1-2.15-.08.7.7,0,0,1-.3-.59,1.3,1.3,0,0,1,.41-.54c1.39-.8,1.48-2.36,2.07-3.62s.93-2.85,1.67-4.17c1.46-4.17,3.87-7.94,5.16-12.2C59.63,106.88,60.13,106.72,60.44,106.5Z"/><path class="cls-2" d="M114.52,12.65l2.4-1.92c.72,5-2.11,10.67-6.2,12.48A1.37,1.37,0,0,1,110,22a20.31,20.31,0,0,0,3.29-7.72A1.9,1.9,0,0,1,114.52,12.65Z"/><path class="cls-2" d="M88.65,46.58a21,21,0,0,1,1.63-5.13c.37-.93.7-2-1.09-1.51-.13-2.22,1.46-3.44,2.78-4.82a3.38,3.38,0,0,0,2-2.39l.5-.45c1.28-.07,1.37.83,1.41,1.76-.69,2.57-2.3,4.69-3.49,7-.81,1.12-1,2.5-1.65,3.69C90.26,45.59,90.08,46.82,88.65,46.58Z"/><path class="cls-2" d="M71,80.17c-1.66,6.46-4.23,12.62-6.38,18.92-.57,1.68-.79,3.64-2.74,4.52,2.73-7.62,5-15.4,8.61-22.69A6.19,6.19,0,0,1,71,80.17Z"/><path class="cls-2" d="M126.48,108.89c.88,0,1.34-.76,2.08-1,1.12,1.36,1.42,3.06,1.89,4.69a6.16,6.16,0,0,0,1.9,3.41,1,1,0,0,0-.29.13,3.54,3.54,0,0,1-2.3.62,1.64,1.64,0,0,1-.91-.54C127.55,113.93,125.77,111.81,126.48,108.89Z"/><path class="cls-2" d="M111.22,31.78c-2,.2-3-.61-3-2.67a8.57,8.57,0,0,0-.49-2.06A9.09,9.09,0,0,0,108.3,25a1.27,1.27,0,0,1,.67-1c.61.13,1.06-.46,1.66-.37C110.91,26.36,111.6,29,111.22,31.78Z"/><path class="cls-2" d="M54.38,119.36c0,2.79-1.61,5.1-2.33,7.68-.15.52-.75.47-1.23.39-1.47-.84-1.06-2.14-.83-3.4.72-.91.59-1.53-.57-1.92-.81-.27-1.8,0-2.41-.85a3,3,0,0,1,2.66-.55A5.1,5.1,0,0,0,54.38,119.36Z"/><path class="cls-2" d="M3,149.58a31.76,31.76,0,0,1-2.13,12c-.54,1.45,0,3-.31,4.45-1.42-5.73.29-11.07,2-16.41C2.67,149.36,2.82,149.36,3,149.58Z"/><path class="cls-2" d="M47,121.26a5.78,5.78,0,0,1,4.07,1c.38.28.9.68.6,1.13-.18.27-.85.21-1.31.3a4.79,4.79,0,0,1-5.11.06,1.66,1.66,0,0,1-1.12-1.91Z"/><path class="cls-2" d="M96.79,30.27c.53-2.1,2.78-2.63,3.85-4.25,1.48.07,1.61.34,1.06,2.24a7.44,7.44,0,0,1-1.14,1.31A3.14,3.14,0,0,0,99.43,32a1.21,1.21,0,0,1-1.2.95,2,2,0,0,1-1.17-.68A2.06,2.06,0,0,1,96.79,30.27Z"/><path class="cls-2" d="M86.76,166.81c.79.75.39,1.68.41,2.55-1.27.24-1.36,1.42-1.79,2.3-.51,1.06-.81,2.23-2,2.84C84,171.69,84.24,168.76,86.76,166.81Z"/><path class="cls-2" d="M3,149.58H2.53c.27-3.64.61-7.26,3.29-10.11,0,2.42-1.11,4.54-1.9,6.74A10.66,10.66,0,0,0,3,149.58Z"/><path class="cls-2" d="M167.7,132.73c-.68-1.87-2.43-2.83-3.63-4.26-.55-.65-1.4-1-1.62-2,3.09,1,5.07,3.19,6.7,5.84-.19.43-.46.71-1,.47A4,4,0,0,1,167.7,132.73Z"/><path class="cls-2" d="M33.14,123.34c.37.68,2.33.3,1.27,1.92a1.51,1.51,0,0,1-.56.33c-.93.25-1.94,0-2.82.47-.57.21-1,.92-1.75.45-.91-1.35,1-1.71,1-2.78.36-.56,1-.2,1.45-.43A1.79,1.79,0,0,1,33.14,123.34Z"/><path class="cls-2" d="M96.79,30.27a3.91,3.91,0,0,1,.54,2.05c.06,1.34-.26,2.3-1.93,1.92,0-.83-.09-1.59-1-2A4.48,4.48,0,0,1,96.79,30.27Z"/><path class="cls-2" d="M9.19,133.75C9,136,8.54,138,6.18,139,6.85,137.05,7.3,135,9.19,133.75Z"/><path class="cls-2" d="M168.18,132.8l1-.47a4.6,4.6,0,0,1,1.94,4.32C169.69,135.69,169.17,134.07,168.18,132.8Z"/><path class="cls-2" d="M110.63,23.65c-.52.25-.25,1.17-.92,1.2-.5,0-.43-.55-.57-.89-.43-1-.15-1.59.9-1.84a1.21,1.21,0,0,1,.68,1.09A.83.83,0,0,1,110.63,23.65Z"/><path class="cls-2" d="M31.69,123.3c-.37.52-.93.4-1.45.43a2.68,2.68,0,0,1-1.91-1C29.67,121.67,30.6,123,31.69,123.3Z"/><path class="cls-2" d="M93.93,32.73c.54,1.77-.29,2.42-2,2.39C92.63,34.32,92.9,33.22,93.93,32.73Z"/><path class="cls-2" d="M104.94,194.61c.76-1.37,1.87-1.05,3-.69s2.15,1,3.28.14c6.46.92,13,.66,19.42.38a133,133,0,0,0,16.86-1.91c1.06.53,2.08,1.08,1.49,2.57-2.73,2-6.09,1.78-9.17,2.57-4.07,1.06-8.26,1.22-12.41,1.65-3.32.35-6.62-.63-10-.48A18.49,18.49,0,0,1,104.94,194.61Z"/><path class="cls-2" d="M101,153.39c.59,3.41,2,6.52,3.31,9.69a12.82,12.82,0,0,1,.89,7.48c-1,4.62-3.9,6-8.13,3.86a9.51,9.51,0,0,1-3.21-2.8,6.28,6.28,0,0,1-1.8-5.27c.37-.79.9-1.29,1.86-1,1.25,1.72,1.88,3.83,3.55,5.3a3.12,3.12,0,0,0,3.26.87c1.17-.41.84-1.56,1-2.47a12.52,12.52,0,0,0-1.31-6.67c-2.67-6.09-3.71-12.28-1.23-18.71a14.24,14.24,0,0,1,2.92-5.11c1.45,0,1.32,1,1.13,2a16.64,16.64,0,0,1-1.2,3.32A18.21,18.21,0,0,0,101,153.39Z"/><path class="cls-2" d="M161.48,160.17c-.8,7-1.49,14-5.7,19.93a10,10,0,0,1-6.27,4.05c-4.34.93-8.49-3.55-7.27-7.89.49.38.9,1,1.47,0,.42-.7.84-1.63,2-1.3a12,12,0,0,1-.42,1.59c-.57,1.33-.89,2.59.53,3.61a3.56,3.56,0,0,0,4.22.19,10.81,10.81,0,0,0,4.74-6.06c1.11-3.3,2.27-6.59,3.41-9.89.69-1.58.74-3.39,1.67-4.88.32-.52.81-1.15,1.5-.8S161.72,159.66,161.48,160.17Z"/><path class="cls-2" d="M145.7,175a3.46,3.46,0,0,0-1.7,1.83c-.27.53-.44,1.41-1.16,1.26-.93-.2-.37-1.19-.6-1.79a10.34,10.34,0,0,1,1.44-4.46,16.61,16.61,0,0,0,1.82-4.55c2.13-7.61,5.94-14.68,7.3-22.55l.1-.88c.27-.48.21-1.11.64-1.52.87-.83,1.37-.52,1.58.56.53,2.66-.46,5.16-.9,7.69A77.46,77.46,0,0,1,145.7,175Z"/><path class="cls-2" d="M161.48,160.17c-.08-.37-.09-1-.25-1-.66-.17-.89.45-1.12.91-.71,1.43-.55,3.24-1.93,4.37.31-4.73,1.1-9.26,4.49-13,1.94-2.12,1.37-4.78,1-7.28-.29-1.88-.83-3.71-1.26-5.56.22-1.64,1.11-1.64,2.29-1l1.66,3.73c2.09,2.77,2.32,8.49.42,10.63C163.34,153.65,162,156.64,161.48,160.17Z"/><path class="cls-2" d="M169.61,164l.95-.49c-.54,6.27-3.09,11.84-6,17.29-.25.47-.45,1-.67,1.48-.75-.64-.5-1.46-.34-2.22a2.33,2.33,0,0,0-.65-2.18c.44-5,1.56-9.69,5.16-13.46l.15.06C168.87,164.83,169.12,164.05,169.61,164Z"/><path class="cls-2" d="M162.9,177.83c1.63-.62,1.43.61,1.38,1.47s-.62,1.9-.39,2.92c-1.95,2-2.68,4.77-4.49,6.86-.75.86-1.42,1.73-2.67,1.8-.72-.51-.78-1.52-1.49-2A16.3,16.3,0,0,1,162.9,177.83Z"/><path class="cls-2" d="M110.19,123.3c-1.32-.36-2.54.25-3.81.39-.91-1.82-3-1.44-4.4-2.44a.88.88,0,0,1,.74-.81c4.57-1,8.85-4,13.85-2a2.94,2.94,0,0,0,.94,0,2,2,0,0,1,.71.23c.53,1.48-.93,1.35-1.54,1.91-1.49.67-3,1.24-4.47,2A4,4,0,0,0,110.19,123.3Z"/><path class="cls-2" d="M137.07,129l7,2.48a7.68,7.68,0,0,1-5.59.64c-2.87-.48-5.69-1.48-8.66-.77a4.84,4.84,0,0,0-3.12-1.42c-.45-.18-.88-.37-.71-1,.69-.59,1.59-.54,2.39-.8a4.44,4.44,0,0,1,1.09-.11c1.68.35,3.41-.24,5.08.29A4,4,0,0,1,137.07,129Z"/><path class="cls-2" d="M101,153.39c-1.06-4.14-.3-8.08,1.25-12,.34-.86,1.42-2-.19-2.84,1.37-3.12,4.12-4.4,7.1-5.38.49-.16,1-.21,1.17.39s-.21.86-.64,1.12a12,12,0,0,0-5.47,5.74C102.09,144.48,100.63,148.71,101,153.39Z"/><path class="cls-2" d="M155.24,188.84c1.8-.28,1.17,1.23,1.49,2A9.46,9.46,0,0,1,149,195.1c0-1.17-1.21-1.59-1.49-2.57C149.91,190.89,152.94,190.64,155.24,188.84Z"/><path class="cls-2" d="M147.13,122.8c-1.36,1.71-3.12,1.67-4.95,1a18.08,18.08,0,0,1-1.93-.94c-.85-.42-2.36-.21-2.18-1.68s1.66-1,2.54-1.24c1.35-.35,2.9-1.35,4.14.34C144.88,121.79,146.88,121.45,147.13,122.8Z"/><path class="cls-2" d="M116.44,120.35l2-1.38c1.58-.92,3.41-.1,5-.74,1,.09,1.53,1,2.41,1.34a4.16,4.16,0,0,1,1.58,3.25c-.11.6,0,1.38-1,1.35-1.78-2.42-4-3.39-7-2.51a10.61,10.61,0,0,1-2.59.08C116.3,121.43,115.94,121,116.44,120.35Z"/><path class="cls-2" d="M152.8,144.7c.65,4.32-1.67,7.91-2.93,11.75-1,3.13-2.2,6.22-3.31,9.33-.21.59-.36,1.23-1.06,1.47.95-6.33,3.59-12.13,5.69-18.11C151.71,147.66,152.26,146.18,152.8,144.7Z"/><path class="cls-2" d="M125.64,139.62c-2.34,2.31-2.85,2.27-6.78-.61-.39-.67-.59-1.29.5-1.46,2.15.92,4.08,1.45,5.37-1.43.4-.91,1.47-.68,1.73.55C125.86,137.56,125.22,138.44,125.64,139.62Z"/><path class="cls-2" d="M166.76,152c1.59-3.61.06-7.1-.42-10.63l.43-.93.4.1c2.1,3.14,2,6.7,2,10.26,0,1-.59,1.2-1.41,1.19Z"/><path class="cls-2" d="M92.45,166.38c-.15,1.92,1.24,3.42,1.45,5.24-.67,0-1.42-.24-1.91.49A13.79,13.79,0,0,1,89.5,166a2.3,2.3,0,0,0,2-1.1C92.18,165.14,92.24,165.81,92.45,166.38Z"/><path class="cls-2" d="M155.12,142.86c-1.61-1.69-1.42.77-2.22,1-.17-2.5-.06-5-1.37-7.35-.23-.41-.25-1,.34-1.17s.83.09,1.14.55C154.43,138,155.64,140.15,155.12,142.86Z"/><path class="cls-2" d="M126,129.07l1,.43c.36.42.85.8.46,1.45-1.42.86-2.57,0-3.75-.62s-2-1.61-3.31-1.86c-.73-1.15.22-1.35.94-1.43A4.44,4.44,0,0,1,126,129.07Z"/><path class="cls-2" d="M126,129.07a15.36,15.36,0,0,0-3.19-1.44c-.77-.16-2.13-.89-2.41.84a1.6,1.6,0,0,1-.76-2c.26-.65,1.13-.28,1.73-.35a5.65,5.65,0,0,1,2.72.67c1.07.41,2.16,1.15,3.35.28,1.11,0,1.42.45,1,1.44C127.77,129.33,126.81,128.88,126,129.07Z"/><path class="cls-2" d="M137.07,129l-3-.05c.37-2.16-1.55-3.92-1.11-6.1a1.42,1.42,0,0,1,1.26-.6A17.3,17.3,0,0,1,137.07,129Z"/><path class="cls-2" d="M134.24,122.22a1,1,0,0,1-1,.52c-1.27-2-3.13-3.67-3.45-6.2.64-.77,1.48-.42,2.26-.42C133.43,117.92,133.78,120.09,134.24,122.22Z"/><path class="cls-2" d="M164.68,137.63c-.92-.07-1.83-.1-2.29,1a5.14,5.14,0,0,1-1.06-2.08c-.35-.89-.53-1.76.56-2.19s1.69.14,2.05,1.08C164.22,136.13,164.44,136.89,164.68,137.63Z"/><path class="cls-2" d="M91.62,163.48a7,7,0,0,1,.3-3.75c.25-.54.24-1.43,1.08-1.3s.85.9.89,1.52a25.33,25.33,0,0,1-.06,2.61A2.77,2.77,0,0,1,91.62,163.48Z"/><path class="cls-2" d="M88.29,163.3c-.59,1,1.28,3.18-1.53,3,1-2.78-.07-5.88,1.36-8.59C88.18,159.59,88.23,161.45,88.29,163.3Z"/><path class="cls-2" d="M91.62,163.48c.67-.48,1.24-1.18,2.21-.92,0,.93.09,1.87.13,2.81l-1.51,1a1.92,1.92,0,0,1-1-1.51Z"/><path class="cls-2" d="M109.73,134.71c.46-.73.62-1.35-.53-1.51.06,0,.11-.15.18-.15,1.24-.12,2.49-1.28,3.73,0,.22.22.5.63.22.81A6.27,6.27,0,0,1,109.73,134.71Z"/><path class="cls-2" d="M144.18,141.37c-1.23.14-2.51.45-3.39-.85-.31-1.59.57-1.44,1.59-1.09l.87.14C144.08,139.9,145.09,140.14,144.18,141.37Z"/><path class="cls-2" d="M144.18,141.37c.26-.89-.39-1.32-.93-1.8.46,0,.93,0,1.39-.11.68-.09,1.59-1,1.89.3s-.53,1.67-1.65,1.67C144.64,141.42,144.41,141.39,144.18,141.37Z"/><path class="cls-2" d="M142.38,139.43c-.73.08-1.5.09-1.59,1.09l-.19-.13a1.9,1.9,0,0,1-.52-2.37,1.19,1.19,0,0,1,.95-.58C142.08,137.63,142.28,138.52,142.38,139.43Z"/><path class="cls-2" d="M147.13,122.8c-.88-.49-1.8-.92-2.63-1.48-.63-.43-.64-.87.25-1l2.34.55c.32.63.64,1.27,1,1.9Z"/><path class="cls-2" d="M128.43,128.51a1.42,1.42,0,0,0-1-1.44c-.31-1-.61-1.93-.92-2.9.56-.35.43-.94.51-1.46a7.08,7.08,0,0,1,2.38,5.76Z"/><path class="cls-2" d="M116.44,120.35c.15.46.31.92.47,1.39l-4.7.9A7.47,7.47,0,0,1,116.44,120.35Z"/><path class="cls-2" d="M127.47,131c-.15-.48-.3-1-.46-1.45,1.4-.11,2.57.14,2.81,1.82A3.18,3.18,0,0,1,127.47,131Z"/><path class="cls-2" d="M125.64,139.62c-2.06-1.64-.4-2.23.82-3A2.84,2.84,0,0,1,125.64,139.62Z"/><path class="cls-2" d="M119.36,137.55c-.57.35-.52.91-.5,1.46-.2-.11-.46-.17-.59-.34-.49-.64-1.93-1.17-.81-2.15C118.4,135.7,118.81,137,119.36,137.55Z"/><path class="cls-2" d="M1.53,172.2c.48-3.95.55-8,2.46-11.63,1,.13,1,1,1,1.64a28.42,28.42,0,0,0,3.11,11.2,4.3,4.3,0,0,0,1,1.76c.71,1,1.85,1.07,2.87,1.44,2.94,2.76,5.33,6,8.53,8.6,6.8,5.45,14.37,8.61,23.14,8.76a7,7,0,0,1,3.89.86c.56,1.36,2.46,2.09,1.88,4-8,2.36-15.81,3.39-23.3-2.07-2.35-1.71-5.2-3-7.76-4.51-3.81-2.26-7.5-5-10-8.87C5.92,179.72,3,176.4,1.53,172.2Z"/><path class="cls-2" d="M49.38,198.82c0-1.54-2.18-1.95-1.9-3.64a1.31,1.31,0,0,1,.65-.68c3.62-1.38,7.28-2.65,11.27-2.15,1.1.87,1.34,1.77.07,2.71C56.4,197.1,53.32,199.09,49.38,198.82Z"/><path class="cls-2" d="M59.47,195.06a1.91,1.91,0,0,0,0-2.36c1.51-2.81,3.08-3.42,5.81-2.25,1.17,1.17.78,2-.56,2.62Z"/><path class="cls-2" d="M75.67,181.06c1.33.6.68,2.23,1.59,3.05-.43,1.1-.7,2.32-2,2.81s-1.53-.59-1.91-1.41C73.13,183.51,73.13,181.62,75.67,181.06Z"/><path class="cls-2" d="M73.74,185.37c.4.63.53,1.51,1.53,1.55-.66.79-.93,2-2.3,2-.73.31-1.39.37-1.85-.44C70.91,185.86,71.42,185.25,73.74,185.37Z"/><path class="cls-2" d="M64.72,193.07c.48-.68,1.33-1.29.46-2.25.93-1.16,1.93-1.33,3-.23a.94.94,0,0,1-.14,1.09C67.11,192.54,66.21,193.5,64.72,193.07Z"/><path class="cls-2" d="M71.39,188.29c.36.62,1,.52,1.58.62-.84.86-1.45,2.08-3,1.86a1.62,1.62,0,0,1-.28-1.87C70.13,188.3,70.61,187.89,71.39,188.29Z"/><path class="cls-2" d="M70,188.86c0,.64,0,1.27,0,1.91-.37.88-1.11,1-1.93.91,0-.33,0-.65,0-1C67.66,189,68.65,188.72,70,188.86Z"/><path class="cls-2" d="M77.73,183.7c-.13-1.12,0-2,1.47-2C79.07,182.63,79,183.63,77.73,183.7Z"/><path class="cls-2" d="M61.82,109.83c-.67,3.12-1.32,6.24-3.8,8.55C58.94,115.38,59.25,112.1,61.82,109.83Z"/><path class="cls-2" d="M86.24,139.86c2.3-7.31,6.16-13.48,12.94-17.46a5.93,5.93,0,0,1,2.84-1.12c1.81.15,4.22-.78,4.36,2.41-7.39,4.2-12.1,10.8-16.08,18-.49.89-1.06,1.74-1.58,2.6-2.16-.36-3.1-1.81-3.44-3.8C85.49,140.13,86.1,140.35,86.24,139.86Z"/><path class="cls-2" d="M66.24,125.55a17.72,17.72,0,0,1,5.64,2c-.81.35-2.13.05-2.24,1.3s.91,1.57,1.87,1.83A7.57,7.57,0,0,1,75.44,134c2,2.83,4.55,5.14,6.56,7.92a1.06,1.06,0,0,1-.59.35c-1.69-.17-2.2-1.93-3.51-2.62a27.37,27.37,0,0,0-13.35-10.38c-1-.4-2.44-.56-2.58-2.14C62.59,124.36,64.66,125.65,66.24,125.55Z"/><path class="cls-2" d="M82.92,160.56c-1.71.51-1.18,2.28-1.88,3.35a51.76,51.76,0,0,1-2.33,7.34c-.52,1.07-.89,2.45-2.56,2.29-.52-2.48,1.15-4.46,1.56-6.73,1.3-3.17,2.43-6.4,3.65-9.6a1.06,1.06,0,0,1,.73-.18c1.36.75.76,2,.84,3.12A1.86,1.86,0,0,1,82.92,160.56Z"/><path class="cls-2" d="M73.08,128.43c3.44,1.08,5.7,3.61,7.82,6.33-1.86,1.17-2.93-.47-3.3-1.53-.62-1.76-1.72-2.17-3.26-2.42a3,3,0,0,1-2-1.2C71.71,128.7,72.41,128.56,73.08,128.43Z"/><path class="cls-2" d="M84,147.66A18.14,18.14,0,0,0,81.42,142l.58-.06C84.18,143.29,85.08,145.13,84,147.66Z"/><path class="cls-2" d="M82.42,154.84c.7-.28,1-.12,1,.7,0,1.12.06,2.23.09,3.34,0,.5,0,1-.58,1.27L82,157.22a1.51,1.51,0,0,1-.38-1.68A1.13,1.13,0,0,1,82.42,154.84Z"/><path class="cls-2" d="M81.54,135.68l1.88,2.38c.15.13.19.25.13.36s-.11.17-.16.17C81.39,137.63,80.84,136.76,81.54,135.68Z"/><path class="cls-2" d="M83.39,138.59l0-.53c1.13.3,1.32,2.09,2.82,1.8-.12.51-.53.6-1,.66A2.16,2.16,0,0,1,83.39,138.59Z"/><path class="cls-2" d="M120.28,107.92c-4.08-5.85-4.25-12.83-5.75-19.46-2.81-12.46-5.39-25-6.49-37.71-.17-2-.18-4-.26-6,.46-.94.91-2,2.26-1.29a1.72,1.72,0,0,1,.76,2.58c-.87,1.85-.53,3.86-.57,5.82a4.21,4.21,0,0,1,.88,2,10.57,10.57,0,0,1,.25,1.79c.19,1.32.67,2.58.9,3.89a51.18,51.18,0,0,0,1.51,6.84,61,61,0,0,0,.7,7.75c.18.47.37.94.56,1.41,1.64,5.72,2.44,11.64,4,17.4a25.57,25.57,0,0,0,2,8.33c.77,1.81,1.68,3.63,1.59,5.7C122.06,108,121.4,108.49,120.28,107.92Z"/><path class="cls-2" d="M108.78,25.06c0,.82.28,1.82-1,2L105.4,28l-.07.09a1.83,1.83,0,0,1-.28-1.8C105.89,24.64,107.15,24.31,108.78,25.06Z"/><path class="cls-2" d="M110.59,53.89c-.58-.58-.32-1.31-.36-2,2-.93,1.24.69,1.35,1.5A1.3,1.3,0,0,1,110.59,53.89Z"/><path class="cls-2" d="M110.59,53.89a1,1,0,0,1,1-.48.86.86,0,0,1,.09.39c-.19.68.39,1.71-.87,1.9Z"/><path class="cls-2" d="M106.91,29.52l-.38.51c-.15-.15-.38-.28-.43-.45s.18-.31.29-.47Z"/><path class="cls-2" d="M169.61,164a1.08,1.08,0,0,1-1,1.1c-.42.06-.43-.31-.42-.62C168.85,164.8,168.35,161.81,169.61,164Z"/><path class="cls-2" d="M11.65,176.75c-1.39.48-2.27-.2-3-1.31-.32-.5-.53-1.06-.86-1.55-2.24-3.33-3-7.12-3.46-11-.08-.77.15-1.6-.39-2.3,0-.28,0-.56,0-.85A26.29,26.29,0,0,1,4.6,156a3.76,3.76,0,0,1,.36-.61c.6-1,.92-2.14,1.56-3.11.43-.65.72-1.67,1.89-1.17.68,2.19-.71,4.24-.41,6.43.11.74-.07,1.55,0,2.33,0,.53-.28,1.06,0,1.6a30.38,30.38,0,0,0,2.58,11.22,4.73,4.73,0,0,0,2.57,2.25c.69.3,1.56.34,1.9,1.19C14.14,177.54,12.83,176.78,11.65,176.75Z"/><path class="cls-2" d="M4.88,154.35c0,.52,0,1,.07,1.56a6.4,6.4,0,0,1-1,3.81C3.12,157.74,3.93,156,4.88,154.35Z"/><path class="cls-2" d="M114.15,2.64q-1.2,2.91-2.42,5.82C111.48,6.08,111.59,3.85,114.15,2.64Z"/><path class="cls-1" d="M11.65,176.75c1-.85,2.34.13,3.32-.71,1.72-2.24,1.63-4.68,1.37-7.39a47.18,47.18,0,0,1,5.18-26.93,26.07,26.07,0,0,1,4.68-5.37,7.66,7.66,0,0,1,2.85-1.08c.3-.15.82,0,.85-.45,0-.18-.47-.08-.73-.08A5.08,5.08,0,0,0,25.7,136c-1.79,1-3.48,2.13-4.26,4.18a69,69,0,0,0-4.6,8.39,33.73,33.73,0,0,0-2.45,18,11.36,11.36,0,0,1,.15,3.34c-.28,1.58-1,2.33-2.65,1.32-2.14-3.71-2.33-7.87-2.85-12a6,6,0,0,1,.2-1.57c.94-3.25,1.1-6.67,2.18-9.89A26.18,26.18,0,0,1,12.47,145c.44-.83.69-1.75,1.11-2.59.91-2,2.6-3.32,4-4.93a16,16,0,0,0,2.74-2.17,4.91,4.91,0,0,1,3.16-1.71c5.39-3.09,11-5.6,17.27-6.23a36.21,36.21,0,0,1,9.7.28c0,.13,0,.25-.07.38-1.78,1.73-2.92,4.13-5.42,5.1-1.3-.35-2.36-1.3-3.76-1.39a1.43,1.43,0,0,0-1.67,1,1.24,1.24,0,0,0,.78,1.54c4.8,2.61,9.73,4.63,15.37,3.34a10.85,10.85,0,0,0,4.08-.94c1.48-.63,3.1-.51,4.84-.78-1.34-1.25-3-.84-4.34-1.23-1.19-.35-2.69-.3-2.72-2.13a2.7,2.7,0,0,1,1.18-2.31,2.8,2.8,0,0,1,2.3.26,44.94,44.94,0,0,1,14.28,10.9,8.87,8.87,0,0,1,.93,1.91,1,1,0,0,0,.44.08c1.69.8,2.1,2.52,2.88,4a20.53,20.53,0,0,1,.64,2.57c.14,1.71.07,3.42.08,5.14-.52,4.83-3.12,9-4.35,13.59l-.72,2c-1,2.34-2.91,4.06-4,6.33a10.94,10.94,0,0,0-2.11,2.24,4,4,0,0,1-1.18.82c-.79.36-1.65.9-2.41.11s0-1.62.41-2.33a52.72,52.72,0,0,0,7.51-22.44,9.22,9.22,0,0,0-.44-5.93,7.74,7.74,0,0,0-.25-1.67,13.27,13.27,0,0,0-1.61-2.38c-1.58-1.26-3.24-.4-4.87-.16-.74.28-1.43.68-2.18,1a55.9,55.9,0,0,1-6.76,1.51,8,8,0,0,1-4.46-.45c-.83-.36-1.62-.85-1.7-1.83s.81-1.43,1.66-1.72A2.33,2.33,0,0,0,54,143c-2.42-1-4.43-.34-5.11,1.57-.61,1.7.49,3.62,2.8,4.29a16.6,16.6,0,0,0,10.77-.64c.82-.3,1.59-.75,2.41-1,1.73-.42,3.28-1.34,5-1.86a2,2,0,0,1,1.08.15,7.09,7.09,0,0,1,1.7,2.36,4,4,0,0,1,.22,1.48c.07,1.92-.47,3.79-.36,5.7a77,77,0,0,1-7.72,19.44,23.39,23.39,0,0,0-2.47,5.14c-.82,2.84.19,3.95,3.07,3.52a7.92,7.92,0,0,0,4.21-2.07,24.39,24.39,0,0,0,5.16-6.19c.34-.63.69-1.27,1.53-1.33,1.48-1,1.94-2.64,2.49-4.2A23.71,23.71,0,0,1,81,163.91q-.26,2.88-.52,5.76c-.08,2.35-.52,4.57-2.34,6.26-1.07,1.6-2.25,3.14-2.51,5.13-1.67,1-2,2.54-1.93,4.31-1.86.1-2.46,1.23-2.35,2.92l-1.37.57c-.83.42-1.9.59-1.93,1.85-1-.72-1.94-.09-2.91.11-2.61-1.51-4,.63-5.71,1.88-3.63-.13-7,1.11-10.41,2-.53.13-1.05.32-1.58.48-3.46-1-7.09-.48-10.61-1.26C26.14,191.56,18.13,185.3,11.65,176.75Z"/><path class="cls-2" d="M78.18,175.93l2.34-6.26c1.08.13.25-1.51,1.31-1.4.31,3.52-.52,5.89-3.37,9.63C77.64,177.34,79.12,176.45,78.18,175.93Z"/><path class="cls-2" d="M53.1,127.66c1.24,1.16,2.94,1.18,4.41,1.75l.24.27c.06,2.16-1,3.94-2,5.73a3.79,3.79,0,0,1-1.72.8,7.65,7.65,0,0,1-4.51-.73c-.94-1.22-.17-2.28.42-3.25.87-1.41,1.8-2.79,2.77-4.14Z"/><path class="cls-2" d="M52.72,128.09c.19,1.23-.56,2.06-1.24,2.92a8,8,0,0,0-2,4.15c-2.43.51-3.74-.2-4.37-2.37C47,131.33,48,129,50.34,128Z"/><path class="cls-2" d="M125.1,116.64a10.46,10.46,0,0,0,4.18-.64l.52.54c1.12,2.09,3,3.72,3.45,6.2-.21,1.12.46,2,.92,2.86a2.94,2.94,0,0,1-.08,3.32c-1.49-.89-3.2.54-4.67-.45L127,122.71c-.5-.93-.28-2.2-1.36-2.86s-.65-1.68-.83-2.56A1,1,0,0,1,125.1,116.64Z"/><path class="cls-2" d="M104,26.59l1.46-.45c0,.65-.09,1.29-.14,1.94-1.71,1.28-2.75,3.18-4.19,4.71-.58-.44-.64-1.2-1-1.75s.09-1.15.08-1.73l1-.87C102.63,28.66,103.26,27.53,104,26.59Z"/><path class="cls-2" d="M100.24,30.86c1.27.19.76,1.21.9,1.93-.69,1.76-1.2,3.62-2.87,4.79-.78-.62-.51-1.62-.86-2.4l.9-2.43.91-.93A1,1,0,0,1,100.24,30.86Z"/><path class="cls-2" d="M34.24,125.21a5.78,5.78,0,0,1-3.46.28C31.88,124.84,33.08,125.26,34.24,125.21Z"/><path class="cls-2" d="M117.89,118.78l5.17-1.33c.5.16.77.45.57,1-1.6,1.27-3.42.5-5.15.51Z"/><path class="cls-2" d="M123.63,118.46l-.57-1h0c.52-.79,1.14-1,2-.37s.29,1.88.62,2.78C124.53,120.08,124.29,119,123.63,118.46Z"/><path class="cls-2" d="M7.84,173.89c.88.18.9.85.86,1.55A1.36,1.36,0,0,1,7.84,173.89Z"/><path class="cls-2" d="M55.68,194.4c1-1,2-.81,3-.93A3.43,3.43,0,0,1,55.68,194.4Z"/><path class="cls-2" d="M90.13,53.37c-5,10-8.31,20.62-12.43,30.94C77,86.14,76.17,88,75.4,89.77c-1,.63-1.19,1.77-1.68,2.73s-.79,2.1-2.21,2c3.14-8.9,6.2-17.84,9.49-26.69.5-1.34.83-2.75,1.42-4.06,1.91-1.78,2.43-4.18,2.9-6.59a95,95,0,0,1,5.27-9.12,1.18,1.18,0,0,1,.8.66,2.53,2.53,0,0,1,.15,1.06A10,10,0,0,1,90.13,53.37Z"/><path class="cls-2" d="M71.51,94.51a4.55,4.55,0,0,0,1.91-2.82c.31-1,.62-2,2-1.92q-3.24,9.41-6.48,18.81c-.42,1.24-1.2,2.41-1,3.84,0,.2-.06.57-.19.63-3.05,1.33-2.45,4.92-4.35,6.94-2.31-1.07-.41-2.33-.16-3.52Q67.38,105.49,71.51,94.51Z"/><path class="cls-2" d="M63.25,116.47c.09,1.17-1.15,2.41.16,3.52-.27.73-.51,1.48-.83,2.18-1.16,2.5-.95,2.85,1.87,3a2.8,2.8,0,0,1,1.79.41c-1.52.34-3.79-.77-4,2.09a10.86,10.86,0,0,0-3.2,2.43,1.06,1.06,0,0,1-1.43-.43l-.12-.23C59,124.93,60.08,120.23,63.25,116.47Z"/><path class="cls-2" d="M91.06,48.57l-.47-.52c.32-1.09.65-2.18,1-3.27l.93-.07C93,46.34,92.82,47.76,91.06,48.57Z"/><path class="cls-2" d="M91.06,48.57a11.63,11.63,0,0,0,1.44-3.86,36.8,36.8,0,0,1,4.91-9.53c1.48.37.58,1.6.86,2.4-1.64,4-3.23,8-5.84,11.44-.37.39-.71.83-1.34.5Z"/><path class="cls-2" d="M125.06,117.07a3.54,3.54,0,0,0-2,.37,43.82,43.82,0,0,1-2.83-9.52,2.76,2.76,0,0,0,1.94-1,8.78,8.78,0,0,1,1.51,2.91c-.15,2.38,1,4.51,1.37,6.79A2,2,0,0,0,125.06,117.07Z"/><path class="cls-2" d="M91.09,49.52l1.34-.5a6,6,0,0,1-2.3,4.35C90,52,90.9,50.84,91.09,49.52Z"/><path class="cls-2" d="M79.57,149.58a4.65,4.65,0,0,1-.5-2.38,1.79,1.79,0,0,1,1-1c1.22,1.17,1.54,2.74,2,4.28.7,1.39-.55,3,.41,4.33-.14.17-.28.33-.43.49-1.64-.59-1.32-2.27-1.91-3.45A8.7,8.7,0,0,0,79.57,149.58Z"/><path class="cls-2" d="M80.05,146.23a.88.88,0,0,1-1,1l-2.44-3.86C78,141.29,78.8,143,79,144A10.93,10.93,0,0,0,80.05,146.23Z"/><path class="cls-2" d="M73.85,155.33c-.28,8.26-3.33,15.63-7.31,22.71-.34.6-1.6,1.11-.74,1.93.67.64,1.42-.28,2.09-.63.35-.18.67-.41,1-.63a7.5,7.5,0,0,0,2-2c.64-2.41,2.77-3.9,3.76-6.1a3.7,3.7,0,0,0,1.28-2.08c.49-1,.54-2.34,1.87-2.79.65.21.67.62.37,1.13l-1.86,6.7a30.69,30.69,0,0,1-5.87,7.59,9.78,9.78,0,0,1-5.4,2.73c-3.12.35-4.37-1-3.44-4a16.89,16.89,0,0,1,1.71-3.92c4-6.41,6.46-13.43,8.71-20.57a1.34,1.34,0,0,1,1.54-1C74.19,154.42,74.11,154.89,73.85,155.33Z"/><path class="cls-2" d="M77.67,165.86l-1.43,2.88a.63.63,0,0,1-.93,0c1-4.63,3.65-8.7,4.32-13.43.4-.95.1-1.95.2-2.92,0-.44,0-1,.68-.87L82,155.33c0,.63,0,1.26,0,1.89l-.46.06c-1.35,1.17-1.5,2.92-2.13,4.44S78.74,164.69,77.67,165.86Z"/><path class="cls-2" d="M77.67,165.86A37.88,37.88,0,0,1,80,158.43c.22-.62.43-1.61,1.56-1.15-.47,3.42-1.93,6.49-3.38,9.57A1.08,1.08,0,0,0,77.67,165.86Z"/><path class="cls-2" d="M17.85,137.58,14,142.39a6.9,6.9,0,0,0-1.18,1.92c-.64,1-1.32,2-2.05,2.88-.42.53-.76,1.54-1.79.75a36.2,36.2,0,0,1,2.7-7.42l.92-1.77c1.54-.29,2-1.71,2.77-2.72,2.33-2.86,5.55-4.19,9-5.32.16,1.18-1,1.83-1,2.85-.76.94-2.3.87-2.81,2.14C19.3,135.74,18.77,136.94,17.85,137.58Z"/><path class="cls-2" d="M12.13,171.09c1.34.64,2,.18,1.88-1.26-.15-2.14-.38-4.28-.51-6.42-.55-8.95,2.61-16.7,7.75-23.8,1.19.19,1.27.93.93,1.88-3.78,8.18-6.13,16.67-5.34,25.79.12,1.42.34,2.83.48,4.25A4.07,4.07,0,0,1,15,176c-2-.45-3.92-.86-4.82-3C9.65,171.22,10.39,170.65,12.13,171.09Z"/><path class="cls-2" d="M8.16,150.88l1.11-2.72,3.3-4.31c.9,0,.72.45.48,1-1.59,4.18-2,8.65-3.32,12.91-1,.56-1,1.9-2,2.45a13.2,13.2,0,0,1,0-6.34C7.9,152.86,8.47,151.93,8.16,150.88Z"/><path class="cls-2" d="M12.13,171.09c-1.12.19-2.1.52-2,2a33.67,33.67,0,0,1-2.76-9.62,4,4,0,0,1,.3-2.31c.58-.71.68-1.89,1.92-2A51.72,51.72,0,0,0,12.13,171.09Z"/><path class="cls-2" d="M9.61,159.15c-.62.68-1,1.61-1.92,2-.54-.31-.06-.63,0-.94.47-1,.14-2.64,2-2.45Z"/><path class="cls-2" d="M65.16,147.58a17.09,17.09,0,0,1-13.51,2c-2.82-.71-4.26-3.12-3.45-5.29s4.29-3.26,6.57-2.17a1.21,1.21,0,0,1,.63.63.74.74,0,0,1-.52.93,11.18,11.18,0,0,1-1.59.48c-.76.16-1.78.1-1.71,1.2.05.89.93,1.17,1.69,1.47,2.31.9,4.55.1,6.8-.26,1.4-.23,2.79-.57,4.18-.86A1.4,1.4,0,0,1,65.16,147.58Z"/><path class="cls-2" d="M45.11,132.79c1,1.73,2.67,2,4.37,2.37l4.74.6c.53.73,1.43,1.24,1.42,2.31-3.77,1.19-7.37.33-10.89-1-1.71-.64-3.29-1.57-5-2.3a1.65,1.65,0,0,1-1-2.46A1.9,1.9,0,0,1,41.24,131,10.7,10.7,0,0,1,45.11,132.79Z"/><path class="cls-2" d="M55.64,138.07c-.66-.65-1.7-1.08-1.42-2.31l1.37-.64c1.31-.37,2.62-.74,4-.07.51.6,1,1.22.39,2A5.9,5.9,0,0,1,55.64,138.07Z"/><path class="cls-2" d="M59.94,137.09l-.48-1.91a.76.76,0,0,1-.19-.63.74.74,0,0,1,1.14-.37c1.24.2,2.54-.14,3.73.46.56.28,1.36.54,1.3,1.2s-1,.65-1.53.74C62.6,136.78,61.27,136.92,59.94,137.09Z"/><path class="cls-2" d="M22.18,141.49a3,3,0,0,0-.93-1.88c.59-2.19,2.44-3,4.21-4,.56.14,1.19.2,1,1.05Z"/><path class="cls-2" d="M73.85,155.33c-.62-1.59-1.22,0-1.83,0-.36-2.12.14-4.18.45-6.25a.56.56,0,0,1,.87,0A6.54,6.54,0,0,1,73.85,155.33Z"/><path class="cls-2" d="M65.16,147.58c-.3-.63-.61-1.25-.91-1.88a2.79,2.79,0,0,1,1.9-.93c1.37-.08,2.93-1,3.82.93C68.44,146.5,67,147.48,65.16,147.58Z"/><path class="cls-2" d="M59.44,134.7l0,.48c-1.28-.32-2.59.89-3.87-.06l2-5.48L59,130a.89.89,0,0,1,.15.42,2.49,2.49,0,0,0-1.09,2C57.1,134,58.61,134.13,59.44,134.7Z"/><path class="cls-2" d="M36.44,141.84,37,140.5c.51-.93,1-1.83,2.27-.92a2.61,2.61,0,0,1-1.82,3.35C36.9,142.78,36.23,142.72,36.44,141.84Z"/><path class="cls-2" d="M26.47,136.68l-1-1.05c.95-1.39,2.37-1.44,3.84-1.35a1,1,0,0,1,0,1.4Z"/><path class="cls-2" d="M70,145.7c-1-1.22-2.5-.83-3.82-.93,1.8-.11,3.73-1.92,5.33.43.19.54-.06.65-.53.56Z"/><path class="cls-2" d="M36.44,141.84l1,1.09c-1.29.93-2.37.43-3.39-.51-.35-1,0-1.34,1-1Z"/><path class="cls-2" d="M35.1,141.39a1,1,0,0,0-1,1,7.2,7.2,0,0,1-.89-.75c-.57-.64-.88-1.55-.19-2.08,1-.76,1.23.41,1.63,1C34.79,140.84,34.94,141.12,35.1,141.39Z"/><path class="cls-2" d="M39.28,139.58c-1-.3-1.57.47-2.27.92a3.7,3.7,0,0,1,0-.47c0-.82-.37-2,.78-2.19S39,138.81,39.28,139.58Z"/><path class="cls-2" d="M29.3,135.68v-1.41c.62-.29,1.46-.76,1.67.23C31.24,135.77,30.12,135.64,29.3,135.68Z"/><path class="cls-2" d="M59.44,134.7c-2.09.18-2.37-.73-1.41-2.37-.31,2,1.74,1,2.38,1.85Z"/><path class="cls-2" d="M80.51,151.52c-1.08,1.08.17,2.7-.88,3.79l-.06-5.73C80.22,150.07,80.14,150.9,80.51,151.52Z"/><path class="cls-2" d="M17.85,137.58c.62-1.08,1-2.57,2.78-1.88C19.8,136.47,19.17,137.53,17.85,137.58Z"/><path class="cls-2" d="M71,145.76l.53-.56C72,146,73,146.46,73,147.6a.41.41,0,0,1-.65.08C71.52,147.27,71.44,146.37,71,145.76Z"/><path class="cls-2" d="M70.89,176.69c-.31,1-.53,2.13-2,2A2.84,2.84,0,0,1,70.89,176.69Z"/><path class="cls-2" d="M75.31,168.74h.93c.13,1.18-.6,1.63-1.59,1.85Z"/><path class="cls-2" d="M13.05,144.82a1.08,1.08,0,0,0-.48-1A2.74,2.74,0,0,1,14,142.39,5.36,5.36,0,0,1,13.05,144.82Z"/><path class="cls-2" d="M72.31,147.68l.65-.08c.54.39.43,1,.38,1.5h-.88Z"/></g></g></svg>