<svg xmlns="http://www.w3.org/2000/svg" width="77.956" height="70.886" viewBox="0 0 77.956 70.886">
  <g id="Grupo_20" data-name="Grupo 20" transform="translate(-6.011 -962.362)">
    <path id="Trazado_2424" data-name="Trazado 2424" d="M7.783,962.362a1.772,1.772,0,1,0,0,3.544h9.193l9.331,44.082c.226,1.089.954,2.005,1.855,1.994h44.3a1.772,1.772,0,1,0,0-3.544H29.6l-1.5-7.089h47.9a1.831,1.831,0,0,0,1.717-1.385l6.2-26.582a1.854,1.854,0,0,0-1.717-2.16H21.738l-1.578-7.476a1.828,1.828,0,0,0-1.745-1.384Zm14.7,12.405h15.7l1.634,9.747H24.563Zm19.272,0H60.643l-1.634,9.747H43.392Zm22.456,0H80l-2.271,9.747H62.581Zm-38.9,13.291H40.4l1.634,9.747H27.36Zm18.691,0H58.4l-1.606,9.747H45.607Zm18,0H76.9l-2.3,9.747H60.366ZM37.023,1017.3A7.975,7.975,0,1,0,45,1025.274,8,8,0,0,0,37.023,1017.3Zm26.582,0a7.975,7.975,0,1,0,7.975,7.975A8,8,0,0,0,63.606,1017.3Zm-26.582,3.544a4.43,4.43,0,1,1-4.43,4.43A4.4,4.4,0,0,1,37.023,1020.843Zm26.582,0a4.43,4.43,0,1,1-4.43,4.43A4.4,4.4,0,0,1,63.606,1020.843Z" transform="translate(0 0)" fill="#fff"/>
  </g>
</svg>
