<svg xmlns="http://www.w3.org/2000/svg" width="64.365" height="73.546" viewBox="0 0 64.365 73.546">
  <g id="Grupo_19" data-name="Grupo 19" transform="translate(128.915 -197.238)">
    <path id="Trazado_2423" data-name="Trazado 2423" d="M-83.464,197.238a6.63,6.63,0,0,0-3.577,1.075l-2.452,1.559a6.484,6.484,0,0,0-2.679,3.245,4.289,4.289,0,0,0,.334,3.771,2.23,2.23,0,0,0,.129.19.75.75,0,0,0,1.007.188l3.017-1.917,3.509,5.48a.753.753,0,0,0,.471.33.753.753,0,0,0,.567-.1l3.6-2.284a.747.747,0,0,0,.229-1.034l-3.509-5.48,3.012-1.914a.75.75,0,0,0,.253-1c-.037-.074-.074-.129-.111-.2a4.32,4.32,0,0,0-3.288-1.889c-.166-.014-.334-.017-.5-.017Zm-14.749.639a.759.759,0,0,0-.092.006,18.821,18.821,0,0,0-3.061.683,8.715,8.715,0,0,0-4.724,3.052,6.155,6.155,0,0,0-.591,5.029,10.711,10.711,0,0,0,1,2.513.75.75,0,0,0,.534.362,10.557,10.557,0,0,0,2.694,0,6.083,6.083,0,0,0,4.419-2.434,8.814,8.814,0,0,0,1.047-5.546,17.744,17.744,0,0,0-.513-3.111.75.75,0,0,0-.722-.55Zm14.741.863c.129,0,.248.009.368.017a2.889,2.889,0,0,1,1.736.8l-9.387,5.966a2.834,2.834,0,0,1,0-1.908,5.025,5.025,0,0,1,2.069-2.479l2.451-1.557a5.2,5.2,0,0,1,2.765-.842Zm-15.35.789a10.15,10.15,0,0,1,.349,2.124,7.786,7.786,0,0,1-.8,4.6,4.632,4.632,0,0,1-3.368,1.782,7,7,0,0,1-1.882.009,6.712,6.712,0,0,1-.7-1.766,4.717,4.717,0,0,1,.384-3.819A7.663,7.663,0,0,1-100.9,200a10.6,10.6,0,0,1,2.082-.467Zm-19.838.148c-.111,0-.231.009-.344.017a6.55,6.55,0,0,0-4.581,2.563,6.566,6.566,0,0,0-1.479,5.036,8.278,8.278,0,0,0,3.314,5.189,15.081,15.081,0,0,0,6.823,3.031c2.353.371,4.666.037,5.966-1.592s1.112-3.96.227-6.171a15.069,15.069,0,0,0-4.474-5.978,8.468,8.468,0,0,0-5.452-2.1Zm.308,1.5a7.144,7.144,0,0,1,4.208,1.769,13.755,13.755,0,0,1,4.015,5.363c.776,1.937.794,3.674-.009,4.678s-2.5,1.372-4.559,1.047a13.778,13.778,0,0,1-6.122-2.723,6.745,6.745,0,0,1-2.763-4.228,5.006,5.006,0,0,1,1.167-3.889,5.009,5.009,0,0,1,3.532-2,5.251,5.251,0,0,1,.528-.014Zm45.092.358a3.741,3.741,0,0,0-3.729,3.729,3.741,3.741,0,0,0,3.729,3.729,3.741,3.741,0,0,0,3.729-3.729A3.741,3.741,0,0,0-73.26,201.534Zm-44.991,1.413c-.111,0-.232.009-.347.017a3.562,3.562,0,0,0-2.429,1.33,3.638,3.638,0,0,0,.589,5.094,3.637,3.637,0,0,0,5.1-.56,3.638,3.638,0,0,0-.589-5.094,3.63,3.63,0,0,0-2.32-.792Zm44.991.092a2.219,2.219,0,0,1,2.229,2.229A2.219,2.219,0,0,1-73.26,207.5a2.218,2.218,0,0,1-2.228-2.229A2.218,2.218,0,0,1-73.26,203.039Zm-10.813.056,3.089,4.824-2.329,1.479-3.089-4.824Zm-34.158,1.346a2.134,2.134,0,0,1,1.367.475,2.115,2.115,0,0,1,.351,2.985,2.112,2.112,0,0,1-2.988.321,2.113,2.113,0,0,1-.351-2.985,2.1,2.1,0,0,1,1.42-.785c.074-.009.129-.009.2-.012Zm23.452,3.377a3.821,3.821,0,0,0-3.81,3.81,3.82,3.82,0,0,0,3.81,3.809,3.82,3.82,0,0,0,3.808-3.809A3.821,3.821,0,0,0-94.779,207.819Zm0,1.5a2.3,2.3,0,0,1,2.308,2.309,2.3,2.3,0,0,1-2.308,2.309,2.3,2.3,0,0,1-2.309-2.309A2.3,2.3,0,0,1-94.779,209.32Zm19.01.691a.752.752,0,0,0-.268.056l-1.877.785-7.373,3.084-1.134.475-1.134.473-7.372,3.084-2.1.881a.751.751,0,0,0-.405.408.75.75,0,0,0,0,.575,12.342,12.342,0,0,0,16.022,6.816,12.288,12.288,0,0,0,6.355-16.179.75.75,0,0,0-.713-.458Zm8.224,1.123a.751.751,0,0,0-.373.111,16.487,16.487,0,0,0-2.334,1.764,8.948,8.948,0,0,0-2.964,4.515c-.807,3.787,2.68,6.71,2.68,6.71a.75.75,0,0,0,.683.166s4.365-1.071,5.172-4.858a9.371,9.371,0,0,0-.842-5.412,17.674,17.674,0,0,0-1.385-2.65.75.75,0,0,0-.637-.336Zm-8.672.635a10.705,10.705,0,0,1-5.773,13.495,10.762,10.762,0,0,1-13.7-5.349l.678-.284a10.168,10.168,0,0,0,6.483,5.227,9.772,9.772,0,0,0,1.666.29l.092.009c.111.009.211.014.314.017l.185.009c.074,0,.148,0,.225.006s.148,0,.229,0c.056,0,.111,0,.166-.006l.268-.009a.5.5,0,0,0,.056-.006c.248-.014.5-.037.744-.074h0c.092-.014.194-.037.29-.056a1.279,1.279,0,0,1,.148-.017c.092-.014.166-.037.253-.056a1.051,1.051,0,0,1,.192-.037c.074-.017.148-.037.218-.056a1.079,1.079,0,0,0,.238-.074c.056-.017.129-.037.185-.056.092-.037.188-.056.281-.092.056-.017.092-.037.148-.056.148-.056.284-.111.425-.166a.019.019,0,0,0,.009-.006h0a4.275,4.275,0,0,0,.4-.185c.056-.017.092-.056.148-.074.092-.037.166-.092.253-.129a.868.868,0,0,1,.185-.092c.074-.037.129-.074.2-.111s.129-.074.2-.111l.166-.111c.074-.037.129-.092.2-.129.056-.037.092-.074.148-.111.074-.056.129-.092.207-.148.037-.037.074-.056.111-.092.129-.111.26-.209.386-.32.037-.037.092-.074.129-.111.056-.056.111-.092.166-.148a1.192,1.192,0,0,1,.166-.148l.129-.129c.074-.074.129-.148.2-.212a.4.4,0,0,0,.074-.092,3.291,3.291,0,0,0,.266-.308l0,0a10.163,10.163,0,0,0,.977-1.406,10.125,10.125,0,0,0,.805-8.274Zm-1.891.791a8.531,8.531,0,0,1-.321,6.125l-5.081-3.866Zm-26.372.166a.75.75,0,0,0-.719.648l-.659,4.86-8.663-1.151a.753.753,0,0,0-.844.645l-.748,5.52a.748.748,0,0,0,.643.842l8.663,1.151-.658,4.855a.75.75,0,0,0,.6.837l.283.056a5.407,5.407,0,0,0,4.469-1.625,8.29,8.29,0,0,0,2.323-4.829l.51-3.765a8.29,8.29,0,0,0-.957-5.266,5.371,5.371,0,0,0-3.88-2.736c-.092-.012-.19-.017-.284-.037q-.037,0-.074,0Zm36.693.288a9.538,9.538,0,0,1,.881,1.688,8.3,8.3,0,0,1,.757,4.518c-.515,2.419-3.065,3.331-3.683,3.535-.469-.464-2.434-2.493-1.917-4.921a7.831,7.831,0,0,1,2.5-3.716,8.8,8.8,0,0,1,1.459-1.1Zm-36.042,1.424a3.888,3.888,0,0,1,2.295,1.812,6.789,6.789,0,0,1,.763,4.307l-.51,3.764a6.832,6.832,0,0,1-1.885,3.958,3.919,3.919,0,0,1-2.695,1.147Zm-22.93.5c-.885,0-1.468.056-1.468.056a.75.75,0,0,0-.672.7,18.292,18.292,0,0,0,.166,3.316,9.217,9.217,0,0,0,2.311,5.461,6.416,6.416,0,0,0,5.1,1.5,11.156,11.156,0,0,0,2.785-.6.75.75,0,0,0,.445-.464,11.24,11.24,0,0,0,.48-2.806,6.448,6.448,0,0,0-1.723-5.024,9.215,9.215,0,0,0-5.558-2.073c-.685-.056-1.324-.074-1.854-.074Zm41.651.547L-79.185,220a8.2,8.2,0,0,1-2.962,2.645l-.837-1.992-2.163-5.143Zm-1.424.6,1.123,2.667,1.879,4.467a8.237,8.237,0,0,1-3.969.255l.925-7.371Zm-39.692.366a10.59,10.59,0,0,1,1.18.074,8.137,8.137,0,0,1,4.66,1.662,4.968,4.968,0,0,1,1.26,3.877,8.518,8.518,0,0,1-.31,2.038,9.161,9.161,0,0,1-2.026.4,5.005,5.005,0,0,1-3.932-1.092,8.176,8.176,0,0,1-1.863-4.58,11.484,11.484,0,0,1-.111-2.318c.277-.017.615-.056,1.142-.056Zm38.054.32-.794,6.323a8.574,8.574,0,0,1-4.608-4.063Zm-25.808,1.9,7.881,1.045-.547,4.032-7.881-1.045Zm38.359,6.158a1.632,1.632,0,0,0-1.616,1.755l.166,2.267a3.494,3.494,0,0,0-.872-.111,3.448,3.448,0,0,0-2.717,1.225l-4.552,5.516c-.009-.014-.014-.037-.017-.037a3.347,3.347,0,0,0-.816-.923,3.371,3.371,0,0,0,.111-3.49v0a3.357,3.357,0,0,0-3.1-1.638,2.986,2.986,0,0,0-.148-.393v0a3.346,3.346,0,0,0-3.273-1.622c-.037-.074-.056-.148-.092-.224v0a3.388,3.388,0,0,0-3.017-1.69h0a3.424,3.424,0,0,0-1.6.452h0a3.314,3.314,0,0,0-1.537,2.369,4.407,4.407,0,0,0-.536.205h0a3.34,3.34,0,0,0-1.47,3.913c-.111.056-.233.056-.336.111h0c-.111.074-.231.148-.34.227l-.194-.111a.75.75,0,0,0-1,.277,2.425,2.425,0,0,1-3.235.9h0a2.445,2.445,0,0,1-1.238-1.683.75.75,0,0,0-.779-.606,1.431,1.431,0,0,1-.813-.185,1.541,1.541,0,0,1-.661-2.04.75.75,0,0,0-.321-.986l-2.473-1.326-1.745-.936a.749.749,0,0,0-.36-.092.75.75,0,0,0-.656.4,12.277,12.277,0,0,0-.842,1.969,11.521,11.521,0,0,0-4.323-.975h0a5.122,5.122,0,0,0-3.732,1.343c-1.535,1.535-1.616,3.977-.953,6.384a15.819,15.819,0,0,0,3.96,6.755c.166.166.327.318.491.465a3.346,3.346,0,0,0-1.786,2.953v1.134a3.345,3.345,0,0,0,1.67,2.888,22.048,22.048,0,0,0,10.754,16.986,3.915,3.915,0,0,0-2.958,3.788.75.75,0,0,0,.75.75h26.818a.75.75,0,0,0,.75-.75,3.915,3.915,0,0,0-2.959-3.787A22.045,22.045,0,0,0-76.468,249.26a3.343,3.343,0,0,0,1.67-2.888v-1.134a3.348,3.348,0,0,0-2.107-3.1l4.56-3.9a3.555,3.555,0,0,0,1.1-3.582l2.271.166a1.632,1.632,0,0,0,1.755-1.616h0l-.006-1.173h0A1.631,1.631,0,0,0-69,230.409l-.72.056.506-.438a1.635,1.635,0,0,0,.092-2.384l-.833-.833h0a1.635,1.635,0,0,0-2.392.092l-.571.682.092-1.02a1.636,1.636,0,0,0-1.618-1.766Zm-.006,1.5,1.173.006a.159.159,0,0,1,.129.148h0l-.284,3.382a.75.75,0,0,0,.463.755.75.75,0,0,0,.86-.212l2.092-2.5a.148.148,0,0,1,.185-.006l.833.833h0a.134.134,0,0,1-.012.188l-2.25,1.946a.75.75,0,0,0-.2.859.75.75,0,0,0,.755.456l3.016-.255c.074-.009.148.092.148.129l.006,1.173h0a.12.12,0,0,1-.148.111l-3.154-.238a3.15,3.15,0,0,0-.266-.3h0l-2.918-2.918a3.642,3.642,0,0,0-.3-.268l-.238-3.154a.138.138,0,0,1,.111-.148Zm-19.9.619a1.873,1.873,0,0,1,1.677.938,1.658,1.658,0,0,1,.19.475.75.75,0,0,0,.366.475.75.75,0,0,0,.6.055,1.875,1.875,0,0,1,2.213.844,1.9,1.9,0,0,1,.213.574.75.75,0,0,0,.338.492.75.75,0,0,0,.59.09,1.881,1.881,0,0,1,2.1.875,1.87,1.87,0,0,1-.4,2.359.75.75,0,0,0-.251.688.75.75,0,0,0,.454.574,1.912,1.912,0,0,1,.907.794,1.855,1.855,0,0,1,.19.669l-4.18,5.065h-.3l-.308-1.114,3.609-3.15a.75.75,0,0,0,.222-.816.75.75,0,0,0-.679-.5.75.75,0,0,0-.53.192l-3.067,2.676-.888-3.217L-88.8,232.9a.75.75,0,0,0,.225-.848.75.75,0,0,0-.733-.482.75.75,0,0,0-.458.185l-3.131,2.634-1.175-4.252a.75.75,0,0,0-.715-.56.75.75,0,0,0-.608.3.75.75,0,0,0-.123.665l.473,1.714-2.679-.554a.756.756,0,0,0-.148-.017.75.75,0,0,0-.752.676.75.75,0,0,0,.6.811l3.433.709,1.6,5.785-1.443-.27a.75.75,0,0,0-.148-.015.75.75,0,0,0-.756.685.75.75,0,0,0,.627.805l2.164.4.185.645h-5.613a12.129,12.129,0,0,0,3.768-4.033.011.011,0,0,0,0-.006.018.018,0,0,0,0-.006c.056-.111.129-.225.19-.342a.75.75,0,0,0-.307-1.014l-1.942-1.042-.012-.009-3.458-1.855c.037-.009.074-.037.111-.037a.75.75,0,0,0,.575-.437.75.75,0,0,0-.06-.72.231.231,0,0,0-.056-.074,1.867,1.867,0,0,1,.687-2.565h0a1.994,1.994,0,0,1,.543-.207.75.75,0,0,0,.595-.735,1.876,1.876,0,0,1,.936-1.633,1.821,1.821,0,0,1,.888-.251Zm-18.3.816.382.2a9.778,9.778,0,0,0,.074,8.036,9.985,9.985,0,0,0,.826,1.454l.009.009c.074.111.148.2.216.3.037.037.056.074.092.111a1.752,1.752,0,0,1,.148.2,1.034,1.034,0,0,0,.129.148.907.907,0,0,0,.129.148c.056.056.111.129.166.185a.046.046,0,0,1,.017.037,7.111,7.111,0,0,0,.517.514l.014.014c.074.074.148.129.229.2.037.017.056.056.092.074a1.668,1.668,0,0,1,.218.185c.037.037.074.056.111.092l.222.166c.037.037.092.056.129.092.074.056.148.092.218.148.056.037.092.056.148.092a1.325,1.325,0,0,0,.224.129.363.363,0,0,1,.111.074c.074.056.166.092.249.148.092.037.166.092.253.129a1.107,1.107,0,0,0,.129.056c.092.037.166.074.251.111.056.017.092.037.148.056.092.037.166.074.255.111a1.509,1.509,0,0,0,.148.056,1.855,1.855,0,0,0,.266.092.6.6,0,0,1,.111.037c.092.037.192.056.29.092a.345.345,0,0,0,.092.017,9.072,9.072,0,0,0,1.044.235c.012,0,.017.006.037.009.074.012.148.017.235.037a1.6,1.6,0,0,0,.2.017c.056.009.129.012.185.017.092.009.185.014.27.017l.111.009a9.449,9.449,0,0,0,2.062-.111,9.759,9.759,0,0,0,6.719-4.392c.188.092.377.2.567.3a11.661,11.661,0,0,1-1.852,2.274,10.3,10.3,0,0,1-3.754,2.205h-6.4a10.494,10.494,0,0,1-1.607-.68c-.111-.056-.224-.129-.334-.19l-.009-.006c-.111-.074-.232-.148-.347-.215a.075.075,0,0,0-.037-.017l-.323-.218c-.014-.009-.037-.017-.037-.037-.111-.074-.205-.148-.307-.225-.014-.012-.037-.017-.037-.037-.092-.074-.2-.148-.3-.238a.046.046,0,0,0-.037-.017,9.941,9.941,0,0,1-.73-.683c-.074-.074-.129-.129-.194-.2-.037-.037-.056-.074-.092-.111a3.3,3.3,0,0,0-.233-.27c-.014-.017-.037-.037-.037-.056a10.531,10.531,0,0,1-1.361-10.956Zm1.758.944,1.223.656a3.02,3.02,0,0,0,1.487,3.3h0a2.971,2.971,0,0,0,1.04.227,3.884,3.884,0,0,0,1.79,2.238h0a3.892,3.892,0,0,0,4.739-.907l4.049,2.172a8.221,8.221,0,0,1-5.578,3.648,8.162,8.162,0,0,1-3.853-.31.1.1,0,0,0-.037-.012c-.074-.017-.148-.056-.224-.074-.056-.017-.111-.037-.166-.056a.615.615,0,0,1-.166-.074,1.075,1.075,0,0,0-.225-.092c-.037-.017-.074-.037-.111-.056a3.561,3.561,0,0,1-.349-.185h0c-.111-.056-.225-.129-.336-.192a.888.888,0,0,0-.129-.074.83.83,0,0,1-.192-.129l-.166-.111c-.037-.037-.092-.056-.129-.092-.074-.056-.129-.092-.2-.148a.046.046,0,0,0-.037-.017,8.183,8.183,0,0,1-2.394-3.04,8.231,8.231,0,0,1-.056-6.672Zm-7.964.148a10.483,10.483,0,0,1,3.94.983,12.241,12.241,0,0,0-.092,4.008,3.8,3.8,0,0,0-1.515.92,3.786,3.786,0,0,0,.014,5.338h0a3.793,3.793,0,0,0,4.834.436,11.686,11.686,0,0,0,1.511,1.273.774.774,0,0,1-.129.111h-6.865a10.184,10.184,0,0,1-1.372-1.141,14.509,14.509,0,0,1-3.574-6.093c-.584-2.123-.4-3.955.567-4.925a3.635,3.635,0,0,1,2.667-.905Zm42.076,1.385a2.5,2.5,0,0,1,1.513.554c.056.056.129.111.185.166l2.918,2.918c.017.017.037.056.074.074a1.876,1.876,0,0,1,.235.3l0,.006a2.189,2.189,0,0,1-.281,2.864l-.829.711-4.006-4.006a.75.75,0,0,0-.539-.227.75.75,0,0,0-.694.468.75.75,0,0,0,.171.819l3.925,3.924-3.642,3.118h-9.638l1.731-2.1,1.893-2.294.654-.792,4.169,4.169a.75.75,0,0,0,.735.217.75.75,0,0,0,.542-.542.75.75,0,0,0-.217-.735l-4.232-4.232-.037-.037,3.842-4.655a1.9,1.9,0,0,1,1.54-.68Zm-37.9,5.114a11.863,11.863,0,0,0,1.989,4.01,2.23,2.23,0,0,1-2.746-.321,2.262,2.262,0,0,1-.014-3.216,2.163,2.163,0,0,1,.772-.473Zm-2.851,8.064h27.189a.751.751,0,0,0,.277,0h13.105a1.818,1.818,0,0,1,1.838,1.838v1.134a1.817,1.817,0,0,1-1.1,1.686c-.025,0-.05.01-.074.017a2.342,2.342,0,0,1-.5.129,1.715,1.715,0,0,1-.185.009h-40.573c-.056,0-.111,0-.185-.009a1.588,1.588,0,0,1-.5-.129.745.745,0,0,0-.074-.017,1.816,1.816,0,0,1-1.093-1.686v-1.134a1.817,1.817,0,0,1,1.838-1.838Zm-.074,6.309c.017,0,.037,0,.074,0h40.573l.074,0a20.529,20.529,0,0,1-12.242,16.421h-16.22a20.529,20.529,0,0,1-12.243-16.421Zm10.1,17.921h20.509a2.354,2.354,0,0,1,2.256,1.655h-25.021A2.354,2.354,0,0,1-108.687,267.647Z" transform="translate(0)" fill="#fff"/>
  </g>
</svg>
