<svg xmlns="http://www.w3.org/2000/svg" viewBox="0 0 110.31 135.77"><defs><style>.cls-1{fill:#ffffff;}</style></defs><g id="Capa_2" data-name="Capa 2"><g id="Capa_1-2" data-name="Capa 1"><path class="cls-1" d="M97.59,0H17A12.74,12.74,0,0,0,4.24,12.73v8.48a4.25,4.25,0,0,0,0,8.49v8.49a4.24,4.24,0,1,0,0,8.48v8.49a4.24,4.24,0,1,0,0,8.48v8.49a4.24,4.24,0,0,0,0,8.48V89.1a4.25,4.25,0,0,0,0,8.49v8.48a4.25,4.25,0,0,0,0,8.49V123A12.74,12.74,0,0,0,17,135.77H97.59A12.74,12.74,0,0,0,110.31,123V12.73A12.74,12.74,0,0,0,97.59,0Zm4.24,123a4.25,4.25,0,0,1-4.24,4.25H17A4.25,4.25,0,0,1,12.73,123v-8.48a4.25,4.25,0,0,0,0-8.49V97.59a4.25,4.25,0,0,0,0-8.49V80.61a4.24,4.24,0,0,0,0-8.48V63.64a4.24,4.24,0,0,0,0-8.48V46.67a4.24,4.24,0,0,0,0-8.48V29.7a4.25,4.25,0,0,0,0-8.49V12.73A4.24,4.24,0,0,1,17,8.49H97.59a4.24,4.24,0,0,1,4.24,4.24Z"/><path class="cls-1" d="M76.3,39.8c0-2.6,1-3.68,2.58-3.68,2.88,0,6.52,7.22,7.75,17.22l2.05,20.59a2.48,2.48,0,0,1-2.48,2.48H76.3V39.8Zm0,40.71h8.76L86.2,97.33A2.26,2.26,0,0,1,84,99.66H78.54a2.24,2.24,0,0,1-2.24-2.33V80.51ZM61.64,36.12c5.84,0,10.57,5.56,10.57,13.1,0,5.66-2.66,10.82-6.44,13.05l.82,35.06a2.25,2.25,0,0,1-2.24,2.33H58.93a2.23,2.23,0,0,1-2.23-2.33l.82-35.06c-3.78-2.23-6.44-7.39-6.44-13.05C51.08,41.68,55.81,36.12,61.64,36.12ZM25.88,38.39a2.28,2.28,0,0,1,4.55,0V52.74a1.89,1.89,0,0,0,1.9,1.77,1.83,1.83,0,0,0,1.83-1.77V38.39a2.28,2.28,0,0,1,4.55,0V52.74a1.83,1.83,0,0,0,1.84,1.77,1.89,1.89,0,0,0,1.9-1.77V38.39a2.28,2.28,0,0,1,4.55,0V49.22c0,5.68-2.68,10.86-6.49,13.08l.88,35a2.25,2.25,0,0,1-2.24,2.33H33.73a2.25,2.25,0,0,1-2.24-2.33l.88-35c-3.82-2.22-6.49-7.4-6.49-13.08Z"/></g></g></svg>